%TF.GenerationSoftware,KiCad,Pcbnew,7.0.2*%
%TF.CreationDate,2024-01-15T12:29:37-05:00*%
%TF.ProjectId,CONTROL PCB,434f4e54-524f-44c2-9050-43422e6b6963,rev?*%
%TF.SameCoordinates,Original*%
%TF.FileFunction,Drillmap*%
%TF.FilePolarity,Positive*%
%FSLAX45Y45*%
G04 Gerber Fmt 4.5, Leading zero omitted, Abs format (unit mm)*
G04 Created by KiCad (PCBNEW 7.0.2) date 2024-01-15 12:29:37*
%MOMM*%
%LPD*%
G01*
G04 APERTURE LIST*
%ADD10C,0.100000*%
%ADD11C,0.200000*%
%ADD12C,0.080000*%
%ADD13C,0.110000*%
%ADD14C,0.210000*%
%ADD15C,0.320000*%
G04 APERTURE END LIST*
D10*
X17200000Y-8200000D02*
X7900000Y-8200000D01*
X7900000Y-2300000D01*
X17200000Y-2300000D01*
X17200000Y-8200000D01*
D11*
D12*
X8960000Y-4160000D02*
X9040000Y-4240000D01*
X9040000Y-4160000D02*
X8960000Y-4240000D01*
X8960000Y-5010000D02*
X9040000Y-5090000D01*
X9040000Y-5010000D02*
X8960000Y-5090000D01*
X9360000Y-4510000D02*
X9440000Y-4590000D01*
X9440000Y-4510000D02*
X9360000Y-4590000D01*
X9360000Y-5010000D02*
X9440000Y-5090000D01*
X9440000Y-5010000D02*
X9360000Y-5090000D01*
X10135000Y-6460000D02*
X10215000Y-6540000D01*
X10215000Y-6460000D02*
X10135000Y-6540000D01*
X10410000Y-6135000D02*
X10490000Y-6215000D01*
X10490000Y-6135000D02*
X10410000Y-6215000D01*
X10910000Y-4510000D02*
X10990000Y-4590000D01*
X10990000Y-4510000D02*
X10910000Y-4590000D01*
X10910000Y-5010000D02*
X10990000Y-5090000D01*
X10990000Y-5010000D02*
X10910000Y-5090000D01*
X10910000Y-6135000D02*
X10990000Y-6215000D01*
X10990000Y-6135000D02*
X10910000Y-6215000D01*
X10985000Y-6460000D02*
X11065000Y-6540000D01*
X11065000Y-6460000D02*
X10985000Y-6540000D01*
X11260000Y-4160000D02*
X11340000Y-4240000D01*
X11340000Y-4160000D02*
X11260000Y-4240000D01*
X11260000Y-5010000D02*
X11340000Y-5090000D01*
X11340000Y-5010000D02*
X11260000Y-5090000D01*
X11760000Y-5060000D02*
X11840000Y-5140000D01*
X11840000Y-5060000D02*
X11760000Y-5140000D01*
X11760000Y-5910000D02*
X11840000Y-5990000D01*
X11840000Y-5910000D02*
X11760000Y-5990000D01*
X11960000Y-6560000D02*
X12040000Y-6640000D01*
X12040000Y-6560000D02*
X11960000Y-6640000D01*
X12460000Y-6560000D02*
X12540000Y-6640000D01*
X12540000Y-6560000D02*
X12460000Y-6640000D01*
X12735000Y-6560000D02*
X12815000Y-6640000D01*
X12815000Y-6560000D02*
X12735000Y-6640000D01*
X13160000Y-5060000D02*
X13240000Y-5140000D01*
X13240000Y-5060000D02*
X13160000Y-5140000D01*
X13160000Y-5910000D02*
X13240000Y-5990000D01*
X13240000Y-5910000D02*
X13160000Y-5990000D01*
X13585000Y-6560000D02*
X13665000Y-6640000D01*
X13665000Y-6560000D02*
X13585000Y-6640000D01*
X13660000Y-4160000D02*
X13740000Y-4240000D01*
X13740000Y-4160000D02*
X13660000Y-4240000D01*
X13660000Y-5010000D02*
X13740000Y-5090000D01*
X13740000Y-5010000D02*
X13660000Y-5090000D01*
X13985000Y-4510000D02*
X14065000Y-4590000D01*
X14065000Y-4510000D02*
X13985000Y-4590000D01*
X13985000Y-5010000D02*
X14065000Y-5090000D01*
X14065000Y-5010000D02*
X13985000Y-5090000D01*
X15960000Y-4160000D02*
X16040000Y-4240000D01*
X16040000Y-4160000D02*
X15960000Y-4240000D01*
X15960000Y-5010000D02*
X16040000Y-5090000D01*
X16040000Y-5010000D02*
X15960000Y-5090000D01*
X16310000Y-4485000D02*
X16390000Y-4565000D01*
X16390000Y-4485000D02*
X16310000Y-4565000D01*
X16310000Y-4985000D02*
X16390000Y-5065000D01*
X16390000Y-4985000D02*
X16310000Y-5065000D01*
D10*
X8800000Y-3950000D02*
G75*
G03*
X8800000Y-3950000I-50000J0D01*
G01*
X9050000Y-3950000D02*
G75*
G03*
X9050000Y-3950000I-50000J0D01*
G01*
X9300000Y-3950000D02*
G75*
G03*
X9300000Y-3950000I-50000J0D01*
G01*
X10300000Y-7950000D02*
G75*
G03*
X10300000Y-7950000I-50000J0D01*
G01*
X10550000Y-7950000D02*
G75*
G03*
X10550000Y-7950000I-50000J0D01*
G01*
X10800000Y-7950000D02*
G75*
G03*
X10800000Y-7950000I-50000J0D01*
G01*
X11100000Y-3950000D02*
G75*
G03*
X11100000Y-3950000I-50000J0D01*
G01*
X11350000Y-3950000D02*
G75*
G03*
X11350000Y-3950000I-50000J0D01*
G01*
X11600000Y-3950000D02*
G75*
G03*
X11600000Y-3950000I-50000J0D01*
G01*
X12096000Y-7200000D02*
G75*
G03*
X12096000Y-7200000I-50000J0D01*
G01*
X12096000Y-7454000D02*
G75*
G03*
X12096000Y-7454000I-50000J0D01*
G01*
X12350000Y-7200000D02*
G75*
G03*
X12350000Y-7200000I-50000J0D01*
G01*
X12350000Y-7454000D02*
G75*
G03*
X12350000Y-7454000I-50000J0D01*
G01*
X12604000Y-7200000D02*
G75*
G03*
X12604000Y-7200000I-50000J0D01*
G01*
X12604000Y-7454000D02*
G75*
G03*
X12604000Y-7454000I-50000J0D01*
G01*
X12858000Y-7200000D02*
G75*
G03*
X12858000Y-7200000I-50000J0D01*
G01*
X12858000Y-7454000D02*
G75*
G03*
X12858000Y-7454000I-50000J0D01*
G01*
X13112000Y-7200000D02*
G75*
G03*
X13112000Y-7200000I-50000J0D01*
G01*
X13112000Y-7454000D02*
G75*
G03*
X13112000Y-7454000I-50000J0D01*
G01*
X13500000Y-3950000D02*
G75*
G03*
X13500000Y-3950000I-50000J0D01*
G01*
X13750000Y-3950000D02*
G75*
G03*
X13750000Y-3950000I-50000J0D01*
G01*
X14000000Y-3950000D02*
G75*
G03*
X14000000Y-3950000I-50000J0D01*
G01*
X14300000Y-7950000D02*
G75*
G03*
X14300000Y-7950000I-50000J0D01*
G01*
X14550000Y-7950000D02*
G75*
G03*
X14550000Y-7950000I-50000J0D01*
G01*
X14800000Y-7950000D02*
G75*
G03*
X14800000Y-7950000I-50000J0D01*
G01*
X15800000Y-3950000D02*
G75*
G03*
X15800000Y-3950000I-50000J0D01*
G01*
X16050000Y-3950000D02*
G75*
G03*
X16050000Y-3950000I-50000J0D01*
G01*
X16300000Y-3950000D02*
G75*
G03*
X16300000Y-3950000I-50000J0D01*
G01*
D13*
X8520000Y-3145000D02*
X8520000Y-3255000D01*
X8465000Y-3200000D02*
X8575000Y-3200000D01*
D11*
X8575000Y-3235000D02*
X8575000Y-3165000D01*
X8575000Y-3165000D02*
G75*
G03*
X8465000Y-3165000I-55000J0D01*
G01*
X8465000Y-3165000D02*
X8465000Y-3235000D01*
X8465000Y-3235000D02*
G75*
G03*
X8575000Y-3235000I55000J0D01*
G01*
D13*
X9480000Y-3145000D02*
X9480000Y-3255000D01*
X9425000Y-3200000D02*
X9535000Y-3200000D01*
D11*
X9535000Y-3235000D02*
X9535000Y-3165000D01*
X9535000Y-3165000D02*
G75*
G03*
X9425000Y-3165000I-55000J0D01*
G01*
X9425000Y-3165000D02*
X9425000Y-3235000D01*
X9425000Y-3235000D02*
G75*
G03*
X9535000Y-3235000I55000J0D01*
G01*
D13*
X10020000Y-7145000D02*
X10020000Y-7255000D01*
X9965000Y-7200000D02*
X10075000Y-7200000D01*
D11*
X10075000Y-7235000D02*
X10075000Y-7165000D01*
X10075000Y-7165000D02*
G75*
G03*
X9965000Y-7165000I-55000J0D01*
G01*
X9965000Y-7165000D02*
X9965000Y-7235000D01*
X9965000Y-7235000D02*
G75*
G03*
X10075000Y-7235000I55000J0D01*
G01*
D13*
X10820000Y-3145000D02*
X10820000Y-3255000D01*
X10765000Y-3200000D02*
X10875000Y-3200000D01*
D11*
X10875000Y-3235000D02*
X10875000Y-3165000D01*
X10875000Y-3165000D02*
G75*
G03*
X10765000Y-3165000I-55000J0D01*
G01*
X10765000Y-3165000D02*
X10765000Y-3235000D01*
X10765000Y-3235000D02*
G75*
G03*
X10875000Y-3235000I55000J0D01*
G01*
D13*
X10980000Y-7145000D02*
X10980000Y-7255000D01*
X10925000Y-7200000D02*
X11035000Y-7200000D01*
D11*
X11035000Y-7235000D02*
X11035000Y-7165000D01*
X11035000Y-7165000D02*
G75*
G03*
X10925000Y-7165000I-55000J0D01*
G01*
X10925000Y-7165000D02*
X10925000Y-7235000D01*
X10925000Y-7235000D02*
G75*
G03*
X11035000Y-7235000I55000J0D01*
G01*
D13*
X11780000Y-3145000D02*
X11780000Y-3255000D01*
X11725000Y-3200000D02*
X11835000Y-3200000D01*
D11*
X11835000Y-3235000D02*
X11835000Y-3165000D01*
X11835000Y-3165000D02*
G75*
G03*
X11725000Y-3165000I-55000J0D01*
G01*
X11725000Y-3165000D02*
X11725000Y-3235000D01*
X11725000Y-3235000D02*
G75*
G03*
X11835000Y-3235000I55000J0D01*
G01*
D13*
X13220000Y-3145000D02*
X13220000Y-3255000D01*
X13165000Y-3200000D02*
X13275000Y-3200000D01*
D11*
X13275000Y-3235000D02*
X13275000Y-3165000D01*
X13275000Y-3165000D02*
G75*
G03*
X13165000Y-3165000I-55000J0D01*
G01*
X13165000Y-3165000D02*
X13165000Y-3235000D01*
X13165000Y-3235000D02*
G75*
G03*
X13275000Y-3235000I55000J0D01*
G01*
D13*
X14020000Y-7145000D02*
X14020000Y-7255000D01*
X13965000Y-7200000D02*
X14075000Y-7200000D01*
D11*
X14075000Y-7235000D02*
X14075000Y-7165000D01*
X14075000Y-7165000D02*
G75*
G03*
X13965000Y-7165000I-55000J0D01*
G01*
X13965000Y-7165000D02*
X13965000Y-7235000D01*
X13965000Y-7235000D02*
G75*
G03*
X14075000Y-7235000I55000J0D01*
G01*
D13*
X14180000Y-3145000D02*
X14180000Y-3255000D01*
X14125000Y-3200000D02*
X14235000Y-3200000D01*
D11*
X14235000Y-3235000D02*
X14235000Y-3165000D01*
X14235000Y-3165000D02*
G75*
G03*
X14125000Y-3165000I-55000J0D01*
G01*
X14125000Y-3165000D02*
X14125000Y-3235000D01*
X14125000Y-3235000D02*
G75*
G03*
X14235000Y-3235000I55000J0D01*
G01*
D13*
X14980000Y-7145000D02*
X14980000Y-7255000D01*
X14925000Y-7200000D02*
X15035000Y-7200000D01*
D11*
X15035000Y-7235000D02*
X15035000Y-7165000D01*
X15035000Y-7165000D02*
G75*
G03*
X14925000Y-7165000I-55000J0D01*
G01*
X14925000Y-7165000D02*
X14925000Y-7235000D01*
X14925000Y-7235000D02*
G75*
G03*
X15035000Y-7235000I55000J0D01*
G01*
D13*
X15520000Y-3145000D02*
X15520000Y-3255000D01*
X15465000Y-3200000D02*
X15575000Y-3200000D01*
D11*
X15575000Y-3235000D02*
X15575000Y-3165000D01*
X15575000Y-3165000D02*
G75*
G03*
X15465000Y-3165000I-55000J0D01*
G01*
X15465000Y-3165000D02*
X15465000Y-3235000D01*
X15465000Y-3235000D02*
G75*
G03*
X15575000Y-3235000I55000J0D01*
G01*
D13*
X16480000Y-3145000D02*
X16480000Y-3255000D01*
X16425000Y-3200000D02*
X16535000Y-3200000D01*
D11*
X16535000Y-3235000D02*
X16535000Y-3165000D01*
X16535000Y-3165000D02*
G75*
G03*
X16425000Y-3165000I-55000J0D01*
G01*
X16425000Y-3165000D02*
X16425000Y-3235000D01*
X16425000Y-3235000D02*
G75*
G03*
X16535000Y-3235000I55000J0D01*
G01*
D14*
X12574247Y-5104247D02*
X12574247Y-4955753D01*
X12425753Y-4955753D01*
X12425753Y-5104247D01*
X12574247Y-5104247D01*
X12574247Y-5574247D02*
X12574247Y-5425753D01*
X12425753Y-5425753D01*
X12425753Y-5574247D01*
X12574247Y-5574247D01*
X12574247Y-6044247D02*
X12574247Y-5895753D01*
X12425753Y-5895753D01*
X12425753Y-6044247D01*
X12574247Y-6044247D01*
D15*
X8300000Y-7860000D02*
X8460000Y-7700000D01*
X8300000Y-7540000D01*
X8140000Y-7700000D01*
X8300000Y-7860000D01*
X16800000Y-7860000D02*
X16960000Y-7700000D01*
X16800000Y-7540000D01*
X16640000Y-7700000D01*
X16800000Y-7860000D01*
D11*
X8142619Y-8517524D02*
X8142619Y-8317524D01*
X8142619Y-8317524D02*
X8190238Y-8317524D01*
X8190238Y-8317524D02*
X8218809Y-8327048D01*
X8218809Y-8327048D02*
X8237857Y-8346095D01*
X8237857Y-8346095D02*
X8247381Y-8365143D01*
X8247381Y-8365143D02*
X8256905Y-8403238D01*
X8256905Y-8403238D02*
X8256905Y-8431810D01*
X8256905Y-8431810D02*
X8247381Y-8469905D01*
X8247381Y-8469905D02*
X8237857Y-8488952D01*
X8237857Y-8488952D02*
X8218809Y-8508000D01*
X8218809Y-8508000D02*
X8190238Y-8517524D01*
X8190238Y-8517524D02*
X8142619Y-8517524D01*
X8342619Y-8517524D02*
X8342619Y-8384190D01*
X8342619Y-8422286D02*
X8352143Y-8403238D01*
X8352143Y-8403238D02*
X8361667Y-8393714D01*
X8361667Y-8393714D02*
X8380714Y-8384190D01*
X8380714Y-8384190D02*
X8399762Y-8384190D01*
X8466429Y-8517524D02*
X8466429Y-8384190D01*
X8466429Y-8317524D02*
X8456905Y-8327048D01*
X8456905Y-8327048D02*
X8466429Y-8336571D01*
X8466429Y-8336571D02*
X8475952Y-8327048D01*
X8475952Y-8327048D02*
X8466429Y-8317524D01*
X8466429Y-8317524D02*
X8466429Y-8336571D01*
X8590238Y-8517524D02*
X8571190Y-8508000D01*
X8571190Y-8508000D02*
X8561667Y-8488952D01*
X8561667Y-8488952D02*
X8561667Y-8317524D01*
X8695000Y-8517524D02*
X8675952Y-8508000D01*
X8675952Y-8508000D02*
X8666429Y-8488952D01*
X8666429Y-8488952D02*
X8666429Y-8317524D01*
X8923571Y-8517524D02*
X8923571Y-8317524D01*
X8923571Y-8317524D02*
X8990238Y-8460381D01*
X8990238Y-8460381D02*
X9056905Y-8317524D01*
X9056905Y-8317524D02*
X9056905Y-8517524D01*
X9237857Y-8517524D02*
X9237857Y-8412762D01*
X9237857Y-8412762D02*
X9228333Y-8393714D01*
X9228333Y-8393714D02*
X9209286Y-8384190D01*
X9209286Y-8384190D02*
X9171190Y-8384190D01*
X9171190Y-8384190D02*
X9152143Y-8393714D01*
X9237857Y-8508000D02*
X9218810Y-8517524D01*
X9218810Y-8517524D02*
X9171190Y-8517524D01*
X9171190Y-8517524D02*
X9152143Y-8508000D01*
X9152143Y-8508000D02*
X9142619Y-8488952D01*
X9142619Y-8488952D02*
X9142619Y-8469905D01*
X9142619Y-8469905D02*
X9152143Y-8450857D01*
X9152143Y-8450857D02*
X9171190Y-8441333D01*
X9171190Y-8441333D02*
X9218810Y-8441333D01*
X9218810Y-8441333D02*
X9237857Y-8431810D01*
X9333095Y-8384190D02*
X9333095Y-8584190D01*
X9333095Y-8393714D02*
X9352143Y-8384190D01*
X9352143Y-8384190D02*
X9390238Y-8384190D01*
X9390238Y-8384190D02*
X9409286Y-8393714D01*
X9409286Y-8393714D02*
X9418810Y-8403238D01*
X9418810Y-8403238D02*
X9428333Y-8422286D01*
X9428333Y-8422286D02*
X9428333Y-8479429D01*
X9428333Y-8479429D02*
X9418810Y-8498476D01*
X9418810Y-8498476D02*
X9409286Y-8508000D01*
X9409286Y-8508000D02*
X9390238Y-8517524D01*
X9390238Y-8517524D02*
X9352143Y-8517524D01*
X9352143Y-8517524D02*
X9333095Y-8508000D01*
X9514048Y-8498476D02*
X9523571Y-8508000D01*
X9523571Y-8508000D02*
X9514048Y-8517524D01*
X9514048Y-8517524D02*
X9504524Y-8508000D01*
X9504524Y-8508000D02*
X9514048Y-8498476D01*
X9514048Y-8498476D02*
X9514048Y-8517524D01*
X9514048Y-8393714D02*
X9523571Y-8403238D01*
X9523571Y-8403238D02*
X9514048Y-8412762D01*
X9514048Y-8412762D02*
X9504524Y-8403238D01*
X9504524Y-8403238D02*
X9514048Y-8393714D01*
X9514048Y-8393714D02*
X9514048Y-8412762D01*
D12*
X7815000Y-8805000D02*
X7895000Y-8885000D01*
X7895000Y-8805000D02*
X7815000Y-8885000D01*
D11*
X8180714Y-8737524D02*
X8199762Y-8737524D01*
X8199762Y-8737524D02*
X8218809Y-8747048D01*
X8218809Y-8747048D02*
X8228333Y-8756571D01*
X8228333Y-8756571D02*
X8237857Y-8775619D01*
X8237857Y-8775619D02*
X8247381Y-8813714D01*
X8247381Y-8813714D02*
X8247381Y-8861333D01*
X8247381Y-8861333D02*
X8237857Y-8899429D01*
X8237857Y-8899429D02*
X8228333Y-8918476D01*
X8228333Y-8918476D02*
X8218809Y-8928000D01*
X8218809Y-8928000D02*
X8199762Y-8937524D01*
X8199762Y-8937524D02*
X8180714Y-8937524D01*
X8180714Y-8937524D02*
X8161667Y-8928000D01*
X8161667Y-8928000D02*
X8152143Y-8918476D01*
X8152143Y-8918476D02*
X8142619Y-8899429D01*
X8142619Y-8899429D02*
X8133095Y-8861333D01*
X8133095Y-8861333D02*
X8133095Y-8813714D01*
X8133095Y-8813714D02*
X8142619Y-8775619D01*
X8142619Y-8775619D02*
X8152143Y-8756571D01*
X8152143Y-8756571D02*
X8161667Y-8747048D01*
X8161667Y-8747048D02*
X8180714Y-8737524D01*
X8333095Y-8918476D02*
X8342619Y-8928000D01*
X8342619Y-8928000D02*
X8333095Y-8937524D01*
X8333095Y-8937524D02*
X8323571Y-8928000D01*
X8323571Y-8928000D02*
X8333095Y-8918476D01*
X8333095Y-8918476D02*
X8333095Y-8937524D01*
X8456905Y-8823238D02*
X8437857Y-8813714D01*
X8437857Y-8813714D02*
X8428333Y-8804190D01*
X8428333Y-8804190D02*
X8418810Y-8785143D01*
X8418810Y-8785143D02*
X8418810Y-8775619D01*
X8418810Y-8775619D02*
X8428333Y-8756571D01*
X8428333Y-8756571D02*
X8437857Y-8747048D01*
X8437857Y-8747048D02*
X8456905Y-8737524D01*
X8456905Y-8737524D02*
X8495000Y-8737524D01*
X8495000Y-8737524D02*
X8514048Y-8747048D01*
X8514048Y-8747048D02*
X8523571Y-8756571D01*
X8523571Y-8756571D02*
X8533095Y-8775619D01*
X8533095Y-8775619D02*
X8533095Y-8785143D01*
X8533095Y-8785143D02*
X8523571Y-8804190D01*
X8523571Y-8804190D02*
X8514048Y-8813714D01*
X8514048Y-8813714D02*
X8495000Y-8823238D01*
X8495000Y-8823238D02*
X8456905Y-8823238D01*
X8456905Y-8823238D02*
X8437857Y-8832762D01*
X8437857Y-8832762D02*
X8428333Y-8842286D01*
X8428333Y-8842286D02*
X8418810Y-8861333D01*
X8418810Y-8861333D02*
X8418810Y-8899429D01*
X8418810Y-8899429D02*
X8428333Y-8918476D01*
X8428333Y-8918476D02*
X8437857Y-8928000D01*
X8437857Y-8928000D02*
X8456905Y-8937524D01*
X8456905Y-8937524D02*
X8495000Y-8937524D01*
X8495000Y-8937524D02*
X8514048Y-8928000D01*
X8514048Y-8928000D02*
X8523571Y-8918476D01*
X8523571Y-8918476D02*
X8533095Y-8899429D01*
X8533095Y-8899429D02*
X8533095Y-8861333D01*
X8533095Y-8861333D02*
X8523571Y-8842286D01*
X8523571Y-8842286D02*
X8514048Y-8832762D01*
X8514048Y-8832762D02*
X8495000Y-8823238D01*
X8656905Y-8737524D02*
X8675952Y-8737524D01*
X8675952Y-8737524D02*
X8695000Y-8747048D01*
X8695000Y-8747048D02*
X8704524Y-8756571D01*
X8704524Y-8756571D02*
X8714048Y-8775619D01*
X8714048Y-8775619D02*
X8723571Y-8813714D01*
X8723571Y-8813714D02*
X8723571Y-8861333D01*
X8723571Y-8861333D02*
X8714048Y-8899429D01*
X8714048Y-8899429D02*
X8704524Y-8918476D01*
X8704524Y-8918476D02*
X8695000Y-8928000D01*
X8695000Y-8928000D02*
X8675952Y-8937524D01*
X8675952Y-8937524D02*
X8656905Y-8937524D01*
X8656905Y-8937524D02*
X8637857Y-8928000D01*
X8637857Y-8928000D02*
X8628333Y-8918476D01*
X8628333Y-8918476D02*
X8618810Y-8899429D01*
X8618810Y-8899429D02*
X8609286Y-8861333D01*
X8609286Y-8861333D02*
X8609286Y-8813714D01*
X8609286Y-8813714D02*
X8618810Y-8775619D01*
X8618810Y-8775619D02*
X8628333Y-8756571D01*
X8628333Y-8756571D02*
X8637857Y-8747048D01*
X8637857Y-8747048D02*
X8656905Y-8737524D01*
X8847381Y-8737524D02*
X8866429Y-8737524D01*
X8866429Y-8737524D02*
X8885476Y-8747048D01*
X8885476Y-8747048D02*
X8895000Y-8756571D01*
X8895000Y-8756571D02*
X8904524Y-8775619D01*
X8904524Y-8775619D02*
X8914048Y-8813714D01*
X8914048Y-8813714D02*
X8914048Y-8861333D01*
X8914048Y-8861333D02*
X8904524Y-8899429D01*
X8904524Y-8899429D02*
X8895000Y-8918476D01*
X8895000Y-8918476D02*
X8885476Y-8928000D01*
X8885476Y-8928000D02*
X8866429Y-8937524D01*
X8866429Y-8937524D02*
X8847381Y-8937524D01*
X8847381Y-8937524D02*
X8828333Y-8928000D01*
X8828333Y-8928000D02*
X8818810Y-8918476D01*
X8818810Y-8918476D02*
X8809286Y-8899429D01*
X8809286Y-8899429D02*
X8799762Y-8861333D01*
X8799762Y-8861333D02*
X8799762Y-8813714D01*
X8799762Y-8813714D02*
X8809286Y-8775619D01*
X8809286Y-8775619D02*
X8818810Y-8756571D01*
X8818810Y-8756571D02*
X8828333Y-8747048D01*
X8828333Y-8747048D02*
X8847381Y-8737524D01*
X8999762Y-8937524D02*
X8999762Y-8804190D01*
X8999762Y-8823238D02*
X9009286Y-8813714D01*
X9009286Y-8813714D02*
X9028333Y-8804190D01*
X9028333Y-8804190D02*
X9056905Y-8804190D01*
X9056905Y-8804190D02*
X9075952Y-8813714D01*
X9075952Y-8813714D02*
X9085476Y-8832762D01*
X9085476Y-8832762D02*
X9085476Y-8937524D01*
X9085476Y-8832762D02*
X9095000Y-8813714D01*
X9095000Y-8813714D02*
X9114048Y-8804190D01*
X9114048Y-8804190D02*
X9142619Y-8804190D01*
X9142619Y-8804190D02*
X9161667Y-8813714D01*
X9161667Y-8813714D02*
X9171191Y-8832762D01*
X9171191Y-8832762D02*
X9171191Y-8937524D01*
X9266429Y-8937524D02*
X9266429Y-8804190D01*
X9266429Y-8823238D02*
X9275952Y-8813714D01*
X9275952Y-8813714D02*
X9295000Y-8804190D01*
X9295000Y-8804190D02*
X9323572Y-8804190D01*
X9323572Y-8804190D02*
X9342619Y-8813714D01*
X9342619Y-8813714D02*
X9352143Y-8832762D01*
X9352143Y-8832762D02*
X9352143Y-8937524D01*
X9352143Y-8832762D02*
X9361667Y-8813714D01*
X9361667Y-8813714D02*
X9380714Y-8804190D01*
X9380714Y-8804190D02*
X9409286Y-8804190D01*
X9409286Y-8804190D02*
X9428333Y-8813714D01*
X9428333Y-8813714D02*
X9437857Y-8832762D01*
X9437857Y-8832762D02*
X9437857Y-8937524D01*
X9828333Y-8728000D02*
X9656905Y-8985143D01*
X10085476Y-8737524D02*
X10104524Y-8737524D01*
X10104524Y-8737524D02*
X10123572Y-8747048D01*
X10123572Y-8747048D02*
X10133095Y-8756571D01*
X10133095Y-8756571D02*
X10142619Y-8775619D01*
X10142619Y-8775619D02*
X10152143Y-8813714D01*
X10152143Y-8813714D02*
X10152143Y-8861333D01*
X10152143Y-8861333D02*
X10142619Y-8899429D01*
X10142619Y-8899429D02*
X10133095Y-8918476D01*
X10133095Y-8918476D02*
X10123572Y-8928000D01*
X10123572Y-8928000D02*
X10104524Y-8937524D01*
X10104524Y-8937524D02*
X10085476Y-8937524D01*
X10085476Y-8937524D02*
X10066429Y-8928000D01*
X10066429Y-8928000D02*
X10056905Y-8918476D01*
X10056905Y-8918476D02*
X10047381Y-8899429D01*
X10047381Y-8899429D02*
X10037857Y-8861333D01*
X10037857Y-8861333D02*
X10037857Y-8813714D01*
X10037857Y-8813714D02*
X10047381Y-8775619D01*
X10047381Y-8775619D02*
X10056905Y-8756571D01*
X10056905Y-8756571D02*
X10066429Y-8747048D01*
X10066429Y-8747048D02*
X10085476Y-8737524D01*
X10237857Y-8918476D02*
X10247381Y-8928000D01*
X10247381Y-8928000D02*
X10237857Y-8937524D01*
X10237857Y-8937524D02*
X10228334Y-8928000D01*
X10228334Y-8928000D02*
X10237857Y-8918476D01*
X10237857Y-8918476D02*
X10237857Y-8937524D01*
X10371191Y-8737524D02*
X10390238Y-8737524D01*
X10390238Y-8737524D02*
X10409286Y-8747048D01*
X10409286Y-8747048D02*
X10418810Y-8756571D01*
X10418810Y-8756571D02*
X10428334Y-8775619D01*
X10428334Y-8775619D02*
X10437857Y-8813714D01*
X10437857Y-8813714D02*
X10437857Y-8861333D01*
X10437857Y-8861333D02*
X10428334Y-8899429D01*
X10428334Y-8899429D02*
X10418810Y-8918476D01*
X10418810Y-8918476D02*
X10409286Y-8928000D01*
X10409286Y-8928000D02*
X10390238Y-8937524D01*
X10390238Y-8937524D02*
X10371191Y-8937524D01*
X10371191Y-8937524D02*
X10352143Y-8928000D01*
X10352143Y-8928000D02*
X10342619Y-8918476D01*
X10342619Y-8918476D02*
X10333095Y-8899429D01*
X10333095Y-8899429D02*
X10323572Y-8861333D01*
X10323572Y-8861333D02*
X10323572Y-8813714D01*
X10323572Y-8813714D02*
X10333095Y-8775619D01*
X10333095Y-8775619D02*
X10342619Y-8756571D01*
X10342619Y-8756571D02*
X10352143Y-8747048D01*
X10352143Y-8747048D02*
X10371191Y-8737524D01*
X10504524Y-8737524D02*
X10628334Y-8737524D01*
X10628334Y-8737524D02*
X10561667Y-8813714D01*
X10561667Y-8813714D02*
X10590238Y-8813714D01*
X10590238Y-8813714D02*
X10609286Y-8823238D01*
X10609286Y-8823238D02*
X10618810Y-8832762D01*
X10618810Y-8832762D02*
X10628334Y-8851810D01*
X10628334Y-8851810D02*
X10628334Y-8899429D01*
X10628334Y-8899429D02*
X10618810Y-8918476D01*
X10618810Y-8918476D02*
X10609286Y-8928000D01*
X10609286Y-8928000D02*
X10590238Y-8937524D01*
X10590238Y-8937524D02*
X10533095Y-8937524D01*
X10533095Y-8937524D02*
X10514048Y-8928000D01*
X10514048Y-8928000D02*
X10504524Y-8918476D01*
X10818810Y-8937524D02*
X10704524Y-8937524D01*
X10761667Y-8937524D02*
X10761667Y-8737524D01*
X10761667Y-8737524D02*
X10742619Y-8766095D01*
X10742619Y-8766095D02*
X10723572Y-8785143D01*
X10723572Y-8785143D02*
X10704524Y-8794667D01*
X10999762Y-8737524D02*
X10904524Y-8737524D01*
X10904524Y-8737524D02*
X10895000Y-8832762D01*
X10895000Y-8832762D02*
X10904524Y-8823238D01*
X10904524Y-8823238D02*
X10923572Y-8813714D01*
X10923572Y-8813714D02*
X10971191Y-8813714D01*
X10971191Y-8813714D02*
X10990238Y-8823238D01*
X10990238Y-8823238D02*
X10999762Y-8832762D01*
X10999762Y-8832762D02*
X11009286Y-8851810D01*
X11009286Y-8851810D02*
X11009286Y-8899429D01*
X11009286Y-8899429D02*
X10999762Y-8918476D01*
X10999762Y-8918476D02*
X10990238Y-8928000D01*
X10990238Y-8928000D02*
X10971191Y-8937524D01*
X10971191Y-8937524D02*
X10923572Y-8937524D01*
X10923572Y-8937524D02*
X10904524Y-8928000D01*
X10904524Y-8928000D02*
X10895000Y-8918476D01*
X11085476Y-8737524D02*
X11085476Y-8775619D01*
X11161667Y-8737524D02*
X11161667Y-8775619D01*
X11456905Y-9013714D02*
X11447381Y-9004190D01*
X11447381Y-9004190D02*
X11428334Y-8975619D01*
X11428334Y-8975619D02*
X11418810Y-8956571D01*
X11418810Y-8956571D02*
X11409286Y-8928000D01*
X11409286Y-8928000D02*
X11399762Y-8880381D01*
X11399762Y-8880381D02*
X11399762Y-8842286D01*
X11399762Y-8842286D02*
X11409286Y-8794667D01*
X11409286Y-8794667D02*
X11418810Y-8766095D01*
X11418810Y-8766095D02*
X11428334Y-8747048D01*
X11428334Y-8747048D02*
X11447381Y-8718476D01*
X11447381Y-8718476D02*
X11456905Y-8708952D01*
X11523572Y-8756571D02*
X11533095Y-8747048D01*
X11533095Y-8747048D02*
X11552143Y-8737524D01*
X11552143Y-8737524D02*
X11599762Y-8737524D01*
X11599762Y-8737524D02*
X11618810Y-8747048D01*
X11618810Y-8747048D02*
X11628334Y-8756571D01*
X11628334Y-8756571D02*
X11637857Y-8775619D01*
X11637857Y-8775619D02*
X11637857Y-8794667D01*
X11637857Y-8794667D02*
X11628334Y-8823238D01*
X11628334Y-8823238D02*
X11514048Y-8937524D01*
X11514048Y-8937524D02*
X11637857Y-8937524D01*
X11752143Y-8823238D02*
X11733095Y-8813714D01*
X11733095Y-8813714D02*
X11723572Y-8804190D01*
X11723572Y-8804190D02*
X11714048Y-8785143D01*
X11714048Y-8785143D02*
X11714048Y-8775619D01*
X11714048Y-8775619D02*
X11723572Y-8756571D01*
X11723572Y-8756571D02*
X11733095Y-8747048D01*
X11733095Y-8747048D02*
X11752143Y-8737524D01*
X11752143Y-8737524D02*
X11790238Y-8737524D01*
X11790238Y-8737524D02*
X11809286Y-8747048D01*
X11809286Y-8747048D02*
X11818810Y-8756571D01*
X11818810Y-8756571D02*
X11828334Y-8775619D01*
X11828334Y-8775619D02*
X11828334Y-8785143D01*
X11828334Y-8785143D02*
X11818810Y-8804190D01*
X11818810Y-8804190D02*
X11809286Y-8813714D01*
X11809286Y-8813714D02*
X11790238Y-8823238D01*
X11790238Y-8823238D02*
X11752143Y-8823238D01*
X11752143Y-8823238D02*
X11733095Y-8832762D01*
X11733095Y-8832762D02*
X11723572Y-8842286D01*
X11723572Y-8842286D02*
X11714048Y-8861333D01*
X11714048Y-8861333D02*
X11714048Y-8899429D01*
X11714048Y-8899429D02*
X11723572Y-8918476D01*
X11723572Y-8918476D02*
X11733095Y-8928000D01*
X11733095Y-8928000D02*
X11752143Y-8937524D01*
X11752143Y-8937524D02*
X11790238Y-8937524D01*
X11790238Y-8937524D02*
X11809286Y-8928000D01*
X11809286Y-8928000D02*
X11818810Y-8918476D01*
X11818810Y-8918476D02*
X11828334Y-8899429D01*
X11828334Y-8899429D02*
X11828334Y-8861333D01*
X11828334Y-8861333D02*
X11818810Y-8842286D01*
X11818810Y-8842286D02*
X11809286Y-8832762D01*
X11809286Y-8832762D02*
X11790238Y-8823238D01*
X12066429Y-8937524D02*
X12066429Y-8737524D01*
X12152143Y-8937524D02*
X12152143Y-8832762D01*
X12152143Y-8832762D02*
X12142619Y-8813714D01*
X12142619Y-8813714D02*
X12123572Y-8804190D01*
X12123572Y-8804190D02*
X12095000Y-8804190D01*
X12095000Y-8804190D02*
X12075953Y-8813714D01*
X12075953Y-8813714D02*
X12066429Y-8823238D01*
X12275953Y-8937524D02*
X12256905Y-8928000D01*
X12256905Y-8928000D02*
X12247381Y-8918476D01*
X12247381Y-8918476D02*
X12237857Y-8899429D01*
X12237857Y-8899429D02*
X12237857Y-8842286D01*
X12237857Y-8842286D02*
X12247381Y-8823238D01*
X12247381Y-8823238D02*
X12256905Y-8813714D01*
X12256905Y-8813714D02*
X12275953Y-8804190D01*
X12275953Y-8804190D02*
X12304524Y-8804190D01*
X12304524Y-8804190D02*
X12323572Y-8813714D01*
X12323572Y-8813714D02*
X12333096Y-8823238D01*
X12333096Y-8823238D02*
X12342619Y-8842286D01*
X12342619Y-8842286D02*
X12342619Y-8899429D01*
X12342619Y-8899429D02*
X12333096Y-8918476D01*
X12333096Y-8918476D02*
X12323572Y-8928000D01*
X12323572Y-8928000D02*
X12304524Y-8937524D01*
X12304524Y-8937524D02*
X12275953Y-8937524D01*
X12456905Y-8937524D02*
X12437857Y-8928000D01*
X12437857Y-8928000D02*
X12428334Y-8908952D01*
X12428334Y-8908952D02*
X12428334Y-8737524D01*
X12609286Y-8928000D02*
X12590238Y-8937524D01*
X12590238Y-8937524D02*
X12552143Y-8937524D01*
X12552143Y-8937524D02*
X12533096Y-8928000D01*
X12533096Y-8928000D02*
X12523572Y-8908952D01*
X12523572Y-8908952D02*
X12523572Y-8832762D01*
X12523572Y-8832762D02*
X12533096Y-8813714D01*
X12533096Y-8813714D02*
X12552143Y-8804190D01*
X12552143Y-8804190D02*
X12590238Y-8804190D01*
X12590238Y-8804190D02*
X12609286Y-8813714D01*
X12609286Y-8813714D02*
X12618810Y-8832762D01*
X12618810Y-8832762D02*
X12618810Y-8851810D01*
X12618810Y-8851810D02*
X12523572Y-8870857D01*
X12695000Y-8928000D02*
X12714048Y-8937524D01*
X12714048Y-8937524D02*
X12752143Y-8937524D01*
X12752143Y-8937524D02*
X12771191Y-8928000D01*
X12771191Y-8928000D02*
X12780715Y-8908952D01*
X12780715Y-8908952D02*
X12780715Y-8899429D01*
X12780715Y-8899429D02*
X12771191Y-8880381D01*
X12771191Y-8880381D02*
X12752143Y-8870857D01*
X12752143Y-8870857D02*
X12723572Y-8870857D01*
X12723572Y-8870857D02*
X12704524Y-8861333D01*
X12704524Y-8861333D02*
X12695000Y-8842286D01*
X12695000Y-8842286D02*
X12695000Y-8832762D01*
X12695000Y-8832762D02*
X12704524Y-8813714D01*
X12704524Y-8813714D02*
X12723572Y-8804190D01*
X12723572Y-8804190D02*
X12752143Y-8804190D01*
X12752143Y-8804190D02*
X12771191Y-8813714D01*
X12847381Y-9013714D02*
X12856905Y-9004190D01*
X12856905Y-9004190D02*
X12875953Y-8975619D01*
X12875953Y-8975619D02*
X12885477Y-8956571D01*
X12885477Y-8956571D02*
X12895000Y-8928000D01*
X12895000Y-8928000D02*
X12904524Y-8880381D01*
X12904524Y-8880381D02*
X12904524Y-8842286D01*
X12904524Y-8842286D02*
X12895000Y-8794667D01*
X12895000Y-8794667D02*
X12885477Y-8766095D01*
X12885477Y-8766095D02*
X12875953Y-8747048D01*
X12875953Y-8747048D02*
X12856905Y-8718476D01*
X12856905Y-8718476D02*
X12847381Y-8708952D01*
D10*
X7895000Y-9109000D02*
G75*
G03*
X7895000Y-9109000I-50000J0D01*
G01*
D11*
X8247381Y-9201524D02*
X8133095Y-9201524D01*
X8190238Y-9201524D02*
X8190238Y-9001524D01*
X8190238Y-9001524D02*
X8171190Y-9030095D01*
X8171190Y-9030095D02*
X8152143Y-9049143D01*
X8152143Y-9049143D02*
X8133095Y-9058667D01*
X8333095Y-9182476D02*
X8342619Y-9192000D01*
X8342619Y-9192000D02*
X8333095Y-9201524D01*
X8333095Y-9201524D02*
X8323571Y-9192000D01*
X8323571Y-9192000D02*
X8333095Y-9182476D01*
X8333095Y-9182476D02*
X8333095Y-9201524D01*
X8466429Y-9001524D02*
X8485476Y-9001524D01*
X8485476Y-9001524D02*
X8504524Y-9011048D01*
X8504524Y-9011048D02*
X8514048Y-9020571D01*
X8514048Y-9020571D02*
X8523571Y-9039619D01*
X8523571Y-9039619D02*
X8533095Y-9077714D01*
X8533095Y-9077714D02*
X8533095Y-9125333D01*
X8533095Y-9125333D02*
X8523571Y-9163429D01*
X8523571Y-9163429D02*
X8514048Y-9182476D01*
X8514048Y-9182476D02*
X8504524Y-9192000D01*
X8504524Y-9192000D02*
X8485476Y-9201524D01*
X8485476Y-9201524D02*
X8466429Y-9201524D01*
X8466429Y-9201524D02*
X8447381Y-9192000D01*
X8447381Y-9192000D02*
X8437857Y-9182476D01*
X8437857Y-9182476D02*
X8428333Y-9163429D01*
X8428333Y-9163429D02*
X8418810Y-9125333D01*
X8418810Y-9125333D02*
X8418810Y-9077714D01*
X8418810Y-9077714D02*
X8428333Y-9039619D01*
X8428333Y-9039619D02*
X8437857Y-9020571D01*
X8437857Y-9020571D02*
X8447381Y-9011048D01*
X8447381Y-9011048D02*
X8466429Y-9001524D01*
X8656905Y-9001524D02*
X8675952Y-9001524D01*
X8675952Y-9001524D02*
X8695000Y-9011048D01*
X8695000Y-9011048D02*
X8704524Y-9020571D01*
X8704524Y-9020571D02*
X8714048Y-9039619D01*
X8714048Y-9039619D02*
X8723571Y-9077714D01*
X8723571Y-9077714D02*
X8723571Y-9125333D01*
X8723571Y-9125333D02*
X8714048Y-9163429D01*
X8714048Y-9163429D02*
X8704524Y-9182476D01*
X8704524Y-9182476D02*
X8695000Y-9192000D01*
X8695000Y-9192000D02*
X8675952Y-9201524D01*
X8675952Y-9201524D02*
X8656905Y-9201524D01*
X8656905Y-9201524D02*
X8637857Y-9192000D01*
X8637857Y-9192000D02*
X8628333Y-9182476D01*
X8628333Y-9182476D02*
X8618810Y-9163429D01*
X8618810Y-9163429D02*
X8609286Y-9125333D01*
X8609286Y-9125333D02*
X8609286Y-9077714D01*
X8609286Y-9077714D02*
X8618810Y-9039619D01*
X8618810Y-9039619D02*
X8628333Y-9020571D01*
X8628333Y-9020571D02*
X8637857Y-9011048D01*
X8637857Y-9011048D02*
X8656905Y-9001524D01*
X8847381Y-9001524D02*
X8866429Y-9001524D01*
X8866429Y-9001524D02*
X8885476Y-9011048D01*
X8885476Y-9011048D02*
X8895000Y-9020571D01*
X8895000Y-9020571D02*
X8904524Y-9039619D01*
X8904524Y-9039619D02*
X8914048Y-9077714D01*
X8914048Y-9077714D02*
X8914048Y-9125333D01*
X8914048Y-9125333D02*
X8904524Y-9163429D01*
X8904524Y-9163429D02*
X8895000Y-9182476D01*
X8895000Y-9182476D02*
X8885476Y-9192000D01*
X8885476Y-9192000D02*
X8866429Y-9201524D01*
X8866429Y-9201524D02*
X8847381Y-9201524D01*
X8847381Y-9201524D02*
X8828333Y-9192000D01*
X8828333Y-9192000D02*
X8818810Y-9182476D01*
X8818810Y-9182476D02*
X8809286Y-9163429D01*
X8809286Y-9163429D02*
X8799762Y-9125333D01*
X8799762Y-9125333D02*
X8799762Y-9077714D01*
X8799762Y-9077714D02*
X8809286Y-9039619D01*
X8809286Y-9039619D02*
X8818810Y-9020571D01*
X8818810Y-9020571D02*
X8828333Y-9011048D01*
X8828333Y-9011048D02*
X8847381Y-9001524D01*
X8999762Y-9201524D02*
X8999762Y-9068190D01*
X8999762Y-9087238D02*
X9009286Y-9077714D01*
X9009286Y-9077714D02*
X9028333Y-9068190D01*
X9028333Y-9068190D02*
X9056905Y-9068190D01*
X9056905Y-9068190D02*
X9075952Y-9077714D01*
X9075952Y-9077714D02*
X9085476Y-9096762D01*
X9085476Y-9096762D02*
X9085476Y-9201524D01*
X9085476Y-9096762D02*
X9095000Y-9077714D01*
X9095000Y-9077714D02*
X9114048Y-9068190D01*
X9114048Y-9068190D02*
X9142619Y-9068190D01*
X9142619Y-9068190D02*
X9161667Y-9077714D01*
X9161667Y-9077714D02*
X9171191Y-9096762D01*
X9171191Y-9096762D02*
X9171191Y-9201524D01*
X9266429Y-9201524D02*
X9266429Y-9068190D01*
X9266429Y-9087238D02*
X9275952Y-9077714D01*
X9275952Y-9077714D02*
X9295000Y-9068190D01*
X9295000Y-9068190D02*
X9323572Y-9068190D01*
X9323572Y-9068190D02*
X9342619Y-9077714D01*
X9342619Y-9077714D02*
X9352143Y-9096762D01*
X9352143Y-9096762D02*
X9352143Y-9201524D01*
X9352143Y-9096762D02*
X9361667Y-9077714D01*
X9361667Y-9077714D02*
X9380714Y-9068190D01*
X9380714Y-9068190D02*
X9409286Y-9068190D01*
X9409286Y-9068190D02*
X9428333Y-9077714D01*
X9428333Y-9077714D02*
X9437857Y-9096762D01*
X9437857Y-9096762D02*
X9437857Y-9201524D01*
X9828333Y-8992000D02*
X9656905Y-9249143D01*
X10085476Y-9001524D02*
X10104524Y-9001524D01*
X10104524Y-9001524D02*
X10123572Y-9011048D01*
X10123572Y-9011048D02*
X10133095Y-9020571D01*
X10133095Y-9020571D02*
X10142619Y-9039619D01*
X10142619Y-9039619D02*
X10152143Y-9077714D01*
X10152143Y-9077714D02*
X10152143Y-9125333D01*
X10152143Y-9125333D02*
X10142619Y-9163429D01*
X10142619Y-9163429D02*
X10133095Y-9182476D01*
X10133095Y-9182476D02*
X10123572Y-9192000D01*
X10123572Y-9192000D02*
X10104524Y-9201524D01*
X10104524Y-9201524D02*
X10085476Y-9201524D01*
X10085476Y-9201524D02*
X10066429Y-9192000D01*
X10066429Y-9192000D02*
X10056905Y-9182476D01*
X10056905Y-9182476D02*
X10047381Y-9163429D01*
X10047381Y-9163429D02*
X10037857Y-9125333D01*
X10037857Y-9125333D02*
X10037857Y-9077714D01*
X10037857Y-9077714D02*
X10047381Y-9039619D01*
X10047381Y-9039619D02*
X10056905Y-9020571D01*
X10056905Y-9020571D02*
X10066429Y-9011048D01*
X10066429Y-9011048D02*
X10085476Y-9001524D01*
X10237857Y-9182476D02*
X10247381Y-9192000D01*
X10247381Y-9192000D02*
X10237857Y-9201524D01*
X10237857Y-9201524D02*
X10228334Y-9192000D01*
X10228334Y-9192000D02*
X10237857Y-9182476D01*
X10237857Y-9182476D02*
X10237857Y-9201524D01*
X10371191Y-9001524D02*
X10390238Y-9001524D01*
X10390238Y-9001524D02*
X10409286Y-9011048D01*
X10409286Y-9011048D02*
X10418810Y-9020571D01*
X10418810Y-9020571D02*
X10428334Y-9039619D01*
X10428334Y-9039619D02*
X10437857Y-9077714D01*
X10437857Y-9077714D02*
X10437857Y-9125333D01*
X10437857Y-9125333D02*
X10428334Y-9163429D01*
X10428334Y-9163429D02*
X10418810Y-9182476D01*
X10418810Y-9182476D02*
X10409286Y-9192000D01*
X10409286Y-9192000D02*
X10390238Y-9201524D01*
X10390238Y-9201524D02*
X10371191Y-9201524D01*
X10371191Y-9201524D02*
X10352143Y-9192000D01*
X10352143Y-9192000D02*
X10342619Y-9182476D01*
X10342619Y-9182476D02*
X10333095Y-9163429D01*
X10333095Y-9163429D02*
X10323572Y-9125333D01*
X10323572Y-9125333D02*
X10323572Y-9077714D01*
X10323572Y-9077714D02*
X10333095Y-9039619D01*
X10333095Y-9039619D02*
X10342619Y-9020571D01*
X10342619Y-9020571D02*
X10352143Y-9011048D01*
X10352143Y-9011048D02*
X10371191Y-9001524D01*
X10504524Y-9001524D02*
X10628334Y-9001524D01*
X10628334Y-9001524D02*
X10561667Y-9077714D01*
X10561667Y-9077714D02*
X10590238Y-9077714D01*
X10590238Y-9077714D02*
X10609286Y-9087238D01*
X10609286Y-9087238D02*
X10618810Y-9096762D01*
X10618810Y-9096762D02*
X10628334Y-9115810D01*
X10628334Y-9115810D02*
X10628334Y-9163429D01*
X10628334Y-9163429D02*
X10618810Y-9182476D01*
X10618810Y-9182476D02*
X10609286Y-9192000D01*
X10609286Y-9192000D02*
X10590238Y-9201524D01*
X10590238Y-9201524D02*
X10533095Y-9201524D01*
X10533095Y-9201524D02*
X10514048Y-9192000D01*
X10514048Y-9192000D02*
X10504524Y-9182476D01*
X10723572Y-9201524D02*
X10761667Y-9201524D01*
X10761667Y-9201524D02*
X10780715Y-9192000D01*
X10780715Y-9192000D02*
X10790238Y-9182476D01*
X10790238Y-9182476D02*
X10809286Y-9153905D01*
X10809286Y-9153905D02*
X10818810Y-9115810D01*
X10818810Y-9115810D02*
X10818810Y-9039619D01*
X10818810Y-9039619D02*
X10809286Y-9020571D01*
X10809286Y-9020571D02*
X10799762Y-9011048D01*
X10799762Y-9011048D02*
X10780715Y-9001524D01*
X10780715Y-9001524D02*
X10742619Y-9001524D01*
X10742619Y-9001524D02*
X10723572Y-9011048D01*
X10723572Y-9011048D02*
X10714048Y-9020571D01*
X10714048Y-9020571D02*
X10704524Y-9039619D01*
X10704524Y-9039619D02*
X10704524Y-9087238D01*
X10704524Y-9087238D02*
X10714048Y-9106286D01*
X10714048Y-9106286D02*
X10723572Y-9115810D01*
X10723572Y-9115810D02*
X10742619Y-9125333D01*
X10742619Y-9125333D02*
X10780715Y-9125333D01*
X10780715Y-9125333D02*
X10799762Y-9115810D01*
X10799762Y-9115810D02*
X10809286Y-9106286D01*
X10809286Y-9106286D02*
X10818810Y-9087238D01*
X10990238Y-9068190D02*
X10990238Y-9201524D01*
X10942619Y-8992000D02*
X10895000Y-9134857D01*
X10895000Y-9134857D02*
X11018810Y-9134857D01*
X11085476Y-9001524D02*
X11085476Y-9039619D01*
X11161667Y-9001524D02*
X11161667Y-9039619D01*
X11456905Y-9277714D02*
X11447381Y-9268190D01*
X11447381Y-9268190D02*
X11428334Y-9239619D01*
X11428334Y-9239619D02*
X11418810Y-9220571D01*
X11418810Y-9220571D02*
X11409286Y-9192000D01*
X11409286Y-9192000D02*
X11399762Y-9144381D01*
X11399762Y-9144381D02*
X11399762Y-9106286D01*
X11399762Y-9106286D02*
X11409286Y-9058667D01*
X11409286Y-9058667D02*
X11418810Y-9030095D01*
X11418810Y-9030095D02*
X11428334Y-9011048D01*
X11428334Y-9011048D02*
X11447381Y-8982476D01*
X11447381Y-8982476D02*
X11456905Y-8972952D01*
X11523572Y-9020571D02*
X11533095Y-9011048D01*
X11533095Y-9011048D02*
X11552143Y-9001524D01*
X11552143Y-9001524D02*
X11599762Y-9001524D01*
X11599762Y-9001524D02*
X11618810Y-9011048D01*
X11618810Y-9011048D02*
X11628334Y-9020571D01*
X11628334Y-9020571D02*
X11637857Y-9039619D01*
X11637857Y-9039619D02*
X11637857Y-9058667D01*
X11637857Y-9058667D02*
X11628334Y-9087238D01*
X11628334Y-9087238D02*
X11514048Y-9201524D01*
X11514048Y-9201524D02*
X11637857Y-9201524D01*
X11752143Y-9087238D02*
X11733095Y-9077714D01*
X11733095Y-9077714D02*
X11723572Y-9068190D01*
X11723572Y-9068190D02*
X11714048Y-9049143D01*
X11714048Y-9049143D02*
X11714048Y-9039619D01*
X11714048Y-9039619D02*
X11723572Y-9020571D01*
X11723572Y-9020571D02*
X11733095Y-9011048D01*
X11733095Y-9011048D02*
X11752143Y-9001524D01*
X11752143Y-9001524D02*
X11790238Y-9001524D01*
X11790238Y-9001524D02*
X11809286Y-9011048D01*
X11809286Y-9011048D02*
X11818810Y-9020571D01*
X11818810Y-9020571D02*
X11828334Y-9039619D01*
X11828334Y-9039619D02*
X11828334Y-9049143D01*
X11828334Y-9049143D02*
X11818810Y-9068190D01*
X11818810Y-9068190D02*
X11809286Y-9077714D01*
X11809286Y-9077714D02*
X11790238Y-9087238D01*
X11790238Y-9087238D02*
X11752143Y-9087238D01*
X11752143Y-9087238D02*
X11733095Y-9096762D01*
X11733095Y-9096762D02*
X11723572Y-9106286D01*
X11723572Y-9106286D02*
X11714048Y-9125333D01*
X11714048Y-9125333D02*
X11714048Y-9163429D01*
X11714048Y-9163429D02*
X11723572Y-9182476D01*
X11723572Y-9182476D02*
X11733095Y-9192000D01*
X11733095Y-9192000D02*
X11752143Y-9201524D01*
X11752143Y-9201524D02*
X11790238Y-9201524D01*
X11790238Y-9201524D02*
X11809286Y-9192000D01*
X11809286Y-9192000D02*
X11818810Y-9182476D01*
X11818810Y-9182476D02*
X11828334Y-9163429D01*
X11828334Y-9163429D02*
X11828334Y-9125333D01*
X11828334Y-9125333D02*
X11818810Y-9106286D01*
X11818810Y-9106286D02*
X11809286Y-9096762D01*
X11809286Y-9096762D02*
X11790238Y-9087238D01*
X12066429Y-9201524D02*
X12066429Y-9001524D01*
X12152143Y-9201524D02*
X12152143Y-9096762D01*
X12152143Y-9096762D02*
X12142619Y-9077714D01*
X12142619Y-9077714D02*
X12123572Y-9068190D01*
X12123572Y-9068190D02*
X12095000Y-9068190D01*
X12095000Y-9068190D02*
X12075953Y-9077714D01*
X12075953Y-9077714D02*
X12066429Y-9087238D01*
X12275953Y-9201524D02*
X12256905Y-9192000D01*
X12256905Y-9192000D02*
X12247381Y-9182476D01*
X12247381Y-9182476D02*
X12237857Y-9163429D01*
X12237857Y-9163429D02*
X12237857Y-9106286D01*
X12237857Y-9106286D02*
X12247381Y-9087238D01*
X12247381Y-9087238D02*
X12256905Y-9077714D01*
X12256905Y-9077714D02*
X12275953Y-9068190D01*
X12275953Y-9068190D02*
X12304524Y-9068190D01*
X12304524Y-9068190D02*
X12323572Y-9077714D01*
X12323572Y-9077714D02*
X12333096Y-9087238D01*
X12333096Y-9087238D02*
X12342619Y-9106286D01*
X12342619Y-9106286D02*
X12342619Y-9163429D01*
X12342619Y-9163429D02*
X12333096Y-9182476D01*
X12333096Y-9182476D02*
X12323572Y-9192000D01*
X12323572Y-9192000D02*
X12304524Y-9201524D01*
X12304524Y-9201524D02*
X12275953Y-9201524D01*
X12456905Y-9201524D02*
X12437857Y-9192000D01*
X12437857Y-9192000D02*
X12428334Y-9172952D01*
X12428334Y-9172952D02*
X12428334Y-9001524D01*
X12609286Y-9192000D02*
X12590238Y-9201524D01*
X12590238Y-9201524D02*
X12552143Y-9201524D01*
X12552143Y-9201524D02*
X12533096Y-9192000D01*
X12533096Y-9192000D02*
X12523572Y-9172952D01*
X12523572Y-9172952D02*
X12523572Y-9096762D01*
X12523572Y-9096762D02*
X12533096Y-9077714D01*
X12533096Y-9077714D02*
X12552143Y-9068190D01*
X12552143Y-9068190D02*
X12590238Y-9068190D01*
X12590238Y-9068190D02*
X12609286Y-9077714D01*
X12609286Y-9077714D02*
X12618810Y-9096762D01*
X12618810Y-9096762D02*
X12618810Y-9115810D01*
X12618810Y-9115810D02*
X12523572Y-9134857D01*
X12695000Y-9192000D02*
X12714048Y-9201524D01*
X12714048Y-9201524D02*
X12752143Y-9201524D01*
X12752143Y-9201524D02*
X12771191Y-9192000D01*
X12771191Y-9192000D02*
X12780715Y-9172952D01*
X12780715Y-9172952D02*
X12780715Y-9163429D01*
X12780715Y-9163429D02*
X12771191Y-9144381D01*
X12771191Y-9144381D02*
X12752143Y-9134857D01*
X12752143Y-9134857D02*
X12723572Y-9134857D01*
X12723572Y-9134857D02*
X12704524Y-9125333D01*
X12704524Y-9125333D02*
X12695000Y-9106286D01*
X12695000Y-9106286D02*
X12695000Y-9096762D01*
X12695000Y-9096762D02*
X12704524Y-9077714D01*
X12704524Y-9077714D02*
X12723572Y-9068190D01*
X12723572Y-9068190D02*
X12752143Y-9068190D01*
X12752143Y-9068190D02*
X12771191Y-9077714D01*
X12847381Y-9277714D02*
X12856905Y-9268190D01*
X12856905Y-9268190D02*
X12875953Y-9239619D01*
X12875953Y-9239619D02*
X12885477Y-9220571D01*
X12885477Y-9220571D02*
X12895000Y-9192000D01*
X12895000Y-9192000D02*
X12904524Y-9144381D01*
X12904524Y-9144381D02*
X12904524Y-9106286D01*
X12904524Y-9106286D02*
X12895000Y-9058667D01*
X12895000Y-9058667D02*
X12885477Y-9030095D01*
X12885477Y-9030095D02*
X12875953Y-9011048D01*
X12875953Y-9011048D02*
X12856905Y-8982476D01*
X12856905Y-8982476D02*
X12847381Y-8972952D01*
D13*
X7840000Y-9318000D02*
X7840000Y-9428000D01*
X7785000Y-9373000D02*
X7895000Y-9373000D01*
D11*
X8247381Y-9465524D02*
X8133095Y-9465524D01*
X8190238Y-9465524D02*
X8190238Y-9265524D01*
X8190238Y-9265524D02*
X8171190Y-9294095D01*
X8171190Y-9294095D02*
X8152143Y-9313143D01*
X8152143Y-9313143D02*
X8133095Y-9322667D01*
X8333095Y-9446476D02*
X8342619Y-9456000D01*
X8342619Y-9456000D02*
X8333095Y-9465524D01*
X8333095Y-9465524D02*
X8323571Y-9456000D01*
X8323571Y-9456000D02*
X8333095Y-9446476D01*
X8333095Y-9446476D02*
X8333095Y-9465524D01*
X8533095Y-9465524D02*
X8418810Y-9465524D01*
X8475952Y-9465524D02*
X8475952Y-9265524D01*
X8475952Y-9265524D02*
X8456905Y-9294095D01*
X8456905Y-9294095D02*
X8437857Y-9313143D01*
X8437857Y-9313143D02*
X8418810Y-9322667D01*
X8656905Y-9265524D02*
X8675952Y-9265524D01*
X8675952Y-9265524D02*
X8695000Y-9275048D01*
X8695000Y-9275048D02*
X8704524Y-9284571D01*
X8704524Y-9284571D02*
X8714048Y-9303619D01*
X8714048Y-9303619D02*
X8723571Y-9341714D01*
X8723571Y-9341714D02*
X8723571Y-9389333D01*
X8723571Y-9389333D02*
X8714048Y-9427429D01*
X8714048Y-9427429D02*
X8704524Y-9446476D01*
X8704524Y-9446476D02*
X8695000Y-9456000D01*
X8695000Y-9456000D02*
X8675952Y-9465524D01*
X8675952Y-9465524D02*
X8656905Y-9465524D01*
X8656905Y-9465524D02*
X8637857Y-9456000D01*
X8637857Y-9456000D02*
X8628333Y-9446476D01*
X8628333Y-9446476D02*
X8618810Y-9427429D01*
X8618810Y-9427429D02*
X8609286Y-9389333D01*
X8609286Y-9389333D02*
X8609286Y-9341714D01*
X8609286Y-9341714D02*
X8618810Y-9303619D01*
X8618810Y-9303619D02*
X8628333Y-9284571D01*
X8628333Y-9284571D02*
X8637857Y-9275048D01*
X8637857Y-9275048D02*
X8656905Y-9265524D01*
X8847381Y-9265524D02*
X8866429Y-9265524D01*
X8866429Y-9265524D02*
X8885476Y-9275048D01*
X8885476Y-9275048D02*
X8895000Y-9284571D01*
X8895000Y-9284571D02*
X8904524Y-9303619D01*
X8904524Y-9303619D02*
X8914048Y-9341714D01*
X8914048Y-9341714D02*
X8914048Y-9389333D01*
X8914048Y-9389333D02*
X8904524Y-9427429D01*
X8904524Y-9427429D02*
X8895000Y-9446476D01*
X8895000Y-9446476D02*
X8885476Y-9456000D01*
X8885476Y-9456000D02*
X8866429Y-9465524D01*
X8866429Y-9465524D02*
X8847381Y-9465524D01*
X8847381Y-9465524D02*
X8828333Y-9456000D01*
X8828333Y-9456000D02*
X8818810Y-9446476D01*
X8818810Y-9446476D02*
X8809286Y-9427429D01*
X8809286Y-9427429D02*
X8799762Y-9389333D01*
X8799762Y-9389333D02*
X8799762Y-9341714D01*
X8799762Y-9341714D02*
X8809286Y-9303619D01*
X8809286Y-9303619D02*
X8818810Y-9284571D01*
X8818810Y-9284571D02*
X8828333Y-9275048D01*
X8828333Y-9275048D02*
X8847381Y-9265524D01*
X8999762Y-9465524D02*
X8999762Y-9332190D01*
X8999762Y-9351238D02*
X9009286Y-9341714D01*
X9009286Y-9341714D02*
X9028333Y-9332190D01*
X9028333Y-9332190D02*
X9056905Y-9332190D01*
X9056905Y-9332190D02*
X9075952Y-9341714D01*
X9075952Y-9341714D02*
X9085476Y-9360762D01*
X9085476Y-9360762D02*
X9085476Y-9465524D01*
X9085476Y-9360762D02*
X9095000Y-9341714D01*
X9095000Y-9341714D02*
X9114048Y-9332190D01*
X9114048Y-9332190D02*
X9142619Y-9332190D01*
X9142619Y-9332190D02*
X9161667Y-9341714D01*
X9161667Y-9341714D02*
X9171191Y-9360762D01*
X9171191Y-9360762D02*
X9171191Y-9465524D01*
X9266429Y-9465524D02*
X9266429Y-9332190D01*
X9266429Y-9351238D02*
X9275952Y-9341714D01*
X9275952Y-9341714D02*
X9295000Y-9332190D01*
X9295000Y-9332190D02*
X9323572Y-9332190D01*
X9323572Y-9332190D02*
X9342619Y-9341714D01*
X9342619Y-9341714D02*
X9352143Y-9360762D01*
X9352143Y-9360762D02*
X9352143Y-9465524D01*
X9352143Y-9360762D02*
X9361667Y-9341714D01*
X9361667Y-9341714D02*
X9380714Y-9332190D01*
X9380714Y-9332190D02*
X9409286Y-9332190D01*
X9409286Y-9332190D02*
X9428333Y-9341714D01*
X9428333Y-9341714D02*
X9437857Y-9360762D01*
X9437857Y-9360762D02*
X9437857Y-9465524D01*
X9828333Y-9256000D02*
X9656905Y-9513143D01*
X10085476Y-9265524D02*
X10104524Y-9265524D01*
X10104524Y-9265524D02*
X10123572Y-9275048D01*
X10123572Y-9275048D02*
X10133095Y-9284571D01*
X10133095Y-9284571D02*
X10142619Y-9303619D01*
X10142619Y-9303619D02*
X10152143Y-9341714D01*
X10152143Y-9341714D02*
X10152143Y-9389333D01*
X10152143Y-9389333D02*
X10142619Y-9427429D01*
X10142619Y-9427429D02*
X10133095Y-9446476D01*
X10133095Y-9446476D02*
X10123572Y-9456000D01*
X10123572Y-9456000D02*
X10104524Y-9465524D01*
X10104524Y-9465524D02*
X10085476Y-9465524D01*
X10085476Y-9465524D02*
X10066429Y-9456000D01*
X10066429Y-9456000D02*
X10056905Y-9446476D01*
X10056905Y-9446476D02*
X10047381Y-9427429D01*
X10047381Y-9427429D02*
X10037857Y-9389333D01*
X10037857Y-9389333D02*
X10037857Y-9341714D01*
X10037857Y-9341714D02*
X10047381Y-9303619D01*
X10047381Y-9303619D02*
X10056905Y-9284571D01*
X10056905Y-9284571D02*
X10066429Y-9275048D01*
X10066429Y-9275048D02*
X10085476Y-9265524D01*
X10237857Y-9446476D02*
X10247381Y-9456000D01*
X10247381Y-9456000D02*
X10237857Y-9465524D01*
X10237857Y-9465524D02*
X10228334Y-9456000D01*
X10228334Y-9456000D02*
X10237857Y-9446476D01*
X10237857Y-9446476D02*
X10237857Y-9465524D01*
X10371191Y-9265524D02*
X10390238Y-9265524D01*
X10390238Y-9265524D02*
X10409286Y-9275048D01*
X10409286Y-9275048D02*
X10418810Y-9284571D01*
X10418810Y-9284571D02*
X10428334Y-9303619D01*
X10428334Y-9303619D02*
X10437857Y-9341714D01*
X10437857Y-9341714D02*
X10437857Y-9389333D01*
X10437857Y-9389333D02*
X10428334Y-9427429D01*
X10428334Y-9427429D02*
X10418810Y-9446476D01*
X10418810Y-9446476D02*
X10409286Y-9456000D01*
X10409286Y-9456000D02*
X10390238Y-9465524D01*
X10390238Y-9465524D02*
X10371191Y-9465524D01*
X10371191Y-9465524D02*
X10352143Y-9456000D01*
X10352143Y-9456000D02*
X10342619Y-9446476D01*
X10342619Y-9446476D02*
X10333095Y-9427429D01*
X10333095Y-9427429D02*
X10323572Y-9389333D01*
X10323572Y-9389333D02*
X10323572Y-9341714D01*
X10323572Y-9341714D02*
X10333095Y-9303619D01*
X10333095Y-9303619D02*
X10342619Y-9284571D01*
X10342619Y-9284571D02*
X10352143Y-9275048D01*
X10352143Y-9275048D02*
X10371191Y-9265524D01*
X10609286Y-9332190D02*
X10609286Y-9465524D01*
X10561667Y-9256000D02*
X10514048Y-9398857D01*
X10514048Y-9398857D02*
X10637857Y-9398857D01*
X10695000Y-9265524D02*
X10818810Y-9265524D01*
X10818810Y-9265524D02*
X10752143Y-9341714D01*
X10752143Y-9341714D02*
X10780715Y-9341714D01*
X10780715Y-9341714D02*
X10799762Y-9351238D01*
X10799762Y-9351238D02*
X10809286Y-9360762D01*
X10809286Y-9360762D02*
X10818810Y-9379810D01*
X10818810Y-9379810D02*
X10818810Y-9427429D01*
X10818810Y-9427429D02*
X10809286Y-9446476D01*
X10809286Y-9446476D02*
X10799762Y-9456000D01*
X10799762Y-9456000D02*
X10780715Y-9465524D01*
X10780715Y-9465524D02*
X10723572Y-9465524D01*
X10723572Y-9465524D02*
X10704524Y-9456000D01*
X10704524Y-9456000D02*
X10695000Y-9446476D01*
X10885476Y-9265524D02*
X11009286Y-9265524D01*
X11009286Y-9265524D02*
X10942619Y-9341714D01*
X10942619Y-9341714D02*
X10971191Y-9341714D01*
X10971191Y-9341714D02*
X10990238Y-9351238D01*
X10990238Y-9351238D02*
X10999762Y-9360762D01*
X10999762Y-9360762D02*
X11009286Y-9379810D01*
X11009286Y-9379810D02*
X11009286Y-9427429D01*
X11009286Y-9427429D02*
X10999762Y-9446476D01*
X10999762Y-9446476D02*
X10990238Y-9456000D01*
X10990238Y-9456000D02*
X10971191Y-9465524D01*
X10971191Y-9465524D02*
X10914048Y-9465524D01*
X10914048Y-9465524D02*
X10895000Y-9456000D01*
X10895000Y-9456000D02*
X10885476Y-9446476D01*
X11085476Y-9265524D02*
X11085476Y-9303619D01*
X11161667Y-9265524D02*
X11161667Y-9303619D01*
X11456905Y-9541714D02*
X11447381Y-9532190D01*
X11447381Y-9532190D02*
X11428334Y-9503619D01*
X11428334Y-9503619D02*
X11418810Y-9484571D01*
X11418810Y-9484571D02*
X11409286Y-9456000D01*
X11409286Y-9456000D02*
X11399762Y-9408381D01*
X11399762Y-9408381D02*
X11399762Y-9370286D01*
X11399762Y-9370286D02*
X11409286Y-9322667D01*
X11409286Y-9322667D02*
X11418810Y-9294095D01*
X11418810Y-9294095D02*
X11428334Y-9275048D01*
X11428334Y-9275048D02*
X11447381Y-9246476D01*
X11447381Y-9246476D02*
X11456905Y-9236952D01*
X11571191Y-9265524D02*
X11590238Y-9265524D01*
X11590238Y-9265524D02*
X11609286Y-9275048D01*
X11609286Y-9275048D02*
X11618810Y-9284571D01*
X11618810Y-9284571D02*
X11628334Y-9303619D01*
X11628334Y-9303619D02*
X11637857Y-9341714D01*
X11637857Y-9341714D02*
X11637857Y-9389333D01*
X11637857Y-9389333D02*
X11628334Y-9427429D01*
X11628334Y-9427429D02*
X11618810Y-9446476D01*
X11618810Y-9446476D02*
X11609286Y-9456000D01*
X11609286Y-9456000D02*
X11590238Y-9465524D01*
X11590238Y-9465524D02*
X11571191Y-9465524D01*
X11571191Y-9465524D02*
X11552143Y-9456000D01*
X11552143Y-9456000D02*
X11542619Y-9446476D01*
X11542619Y-9446476D02*
X11533095Y-9427429D01*
X11533095Y-9427429D02*
X11523572Y-9389333D01*
X11523572Y-9389333D02*
X11523572Y-9341714D01*
X11523572Y-9341714D02*
X11533095Y-9303619D01*
X11533095Y-9303619D02*
X11542619Y-9284571D01*
X11542619Y-9284571D02*
X11552143Y-9275048D01*
X11552143Y-9275048D02*
X11571191Y-9265524D01*
X11875953Y-9465524D02*
X11875953Y-9265524D01*
X11961667Y-9465524D02*
X11961667Y-9360762D01*
X11961667Y-9360762D02*
X11952143Y-9341714D01*
X11952143Y-9341714D02*
X11933096Y-9332190D01*
X11933096Y-9332190D02*
X11904524Y-9332190D01*
X11904524Y-9332190D02*
X11885476Y-9341714D01*
X11885476Y-9341714D02*
X11875953Y-9351238D01*
X12085476Y-9465524D02*
X12066429Y-9456000D01*
X12066429Y-9456000D02*
X12056905Y-9446476D01*
X12056905Y-9446476D02*
X12047381Y-9427429D01*
X12047381Y-9427429D02*
X12047381Y-9370286D01*
X12047381Y-9370286D02*
X12056905Y-9351238D01*
X12056905Y-9351238D02*
X12066429Y-9341714D01*
X12066429Y-9341714D02*
X12085476Y-9332190D01*
X12085476Y-9332190D02*
X12114048Y-9332190D01*
X12114048Y-9332190D02*
X12133096Y-9341714D01*
X12133096Y-9341714D02*
X12142619Y-9351238D01*
X12142619Y-9351238D02*
X12152143Y-9370286D01*
X12152143Y-9370286D02*
X12152143Y-9427429D01*
X12152143Y-9427429D02*
X12142619Y-9446476D01*
X12142619Y-9446476D02*
X12133096Y-9456000D01*
X12133096Y-9456000D02*
X12114048Y-9465524D01*
X12114048Y-9465524D02*
X12085476Y-9465524D01*
X12266429Y-9465524D02*
X12247381Y-9456000D01*
X12247381Y-9456000D02*
X12237857Y-9436952D01*
X12237857Y-9436952D02*
X12237857Y-9265524D01*
X12418810Y-9456000D02*
X12399762Y-9465524D01*
X12399762Y-9465524D02*
X12361667Y-9465524D01*
X12361667Y-9465524D02*
X12342619Y-9456000D01*
X12342619Y-9456000D02*
X12333096Y-9436952D01*
X12333096Y-9436952D02*
X12333096Y-9360762D01*
X12333096Y-9360762D02*
X12342619Y-9341714D01*
X12342619Y-9341714D02*
X12361667Y-9332190D01*
X12361667Y-9332190D02*
X12399762Y-9332190D01*
X12399762Y-9332190D02*
X12418810Y-9341714D01*
X12418810Y-9341714D02*
X12428334Y-9360762D01*
X12428334Y-9360762D02*
X12428334Y-9379810D01*
X12428334Y-9379810D02*
X12333096Y-9398857D01*
X12504524Y-9456000D02*
X12523572Y-9465524D01*
X12523572Y-9465524D02*
X12561667Y-9465524D01*
X12561667Y-9465524D02*
X12580715Y-9456000D01*
X12580715Y-9456000D02*
X12590238Y-9436952D01*
X12590238Y-9436952D02*
X12590238Y-9427429D01*
X12590238Y-9427429D02*
X12580715Y-9408381D01*
X12580715Y-9408381D02*
X12561667Y-9398857D01*
X12561667Y-9398857D02*
X12533096Y-9398857D01*
X12533096Y-9398857D02*
X12514048Y-9389333D01*
X12514048Y-9389333D02*
X12504524Y-9370286D01*
X12504524Y-9370286D02*
X12504524Y-9360762D01*
X12504524Y-9360762D02*
X12514048Y-9341714D01*
X12514048Y-9341714D02*
X12533096Y-9332190D01*
X12533096Y-9332190D02*
X12561667Y-9332190D01*
X12561667Y-9332190D02*
X12580715Y-9341714D01*
X12828334Y-9389333D02*
X12980715Y-9389333D01*
X12904524Y-9465524D02*
X12904524Y-9313143D01*
X13333096Y-9465524D02*
X13218810Y-9465524D01*
X13275953Y-9465524D02*
X13275953Y-9265524D01*
X13275953Y-9265524D02*
X13256905Y-9294095D01*
X13256905Y-9294095D02*
X13237858Y-9313143D01*
X13237858Y-9313143D02*
X13218810Y-9322667D01*
X13409286Y-9284571D02*
X13418810Y-9275048D01*
X13418810Y-9275048D02*
X13437858Y-9265524D01*
X13437858Y-9265524D02*
X13485477Y-9265524D01*
X13485477Y-9265524D02*
X13504524Y-9275048D01*
X13504524Y-9275048D02*
X13514048Y-9284571D01*
X13514048Y-9284571D02*
X13523572Y-9303619D01*
X13523572Y-9303619D02*
X13523572Y-9322667D01*
X13523572Y-9322667D02*
X13514048Y-9351238D01*
X13514048Y-9351238D02*
X13399762Y-9465524D01*
X13399762Y-9465524D02*
X13523572Y-9465524D01*
X13752143Y-9456000D02*
X13771191Y-9465524D01*
X13771191Y-9465524D02*
X13809286Y-9465524D01*
X13809286Y-9465524D02*
X13828334Y-9456000D01*
X13828334Y-9456000D02*
X13837858Y-9436952D01*
X13837858Y-9436952D02*
X13837858Y-9427429D01*
X13837858Y-9427429D02*
X13828334Y-9408381D01*
X13828334Y-9408381D02*
X13809286Y-9398857D01*
X13809286Y-9398857D02*
X13780715Y-9398857D01*
X13780715Y-9398857D02*
X13761667Y-9389333D01*
X13761667Y-9389333D02*
X13752143Y-9370286D01*
X13752143Y-9370286D02*
X13752143Y-9360762D01*
X13752143Y-9360762D02*
X13761667Y-9341714D01*
X13761667Y-9341714D02*
X13780715Y-9332190D01*
X13780715Y-9332190D02*
X13809286Y-9332190D01*
X13809286Y-9332190D02*
X13828334Y-9341714D01*
X13952143Y-9465524D02*
X13933096Y-9456000D01*
X13933096Y-9456000D02*
X13923572Y-9436952D01*
X13923572Y-9436952D02*
X13923572Y-9265524D01*
X14056905Y-9465524D02*
X14037858Y-9456000D01*
X14037858Y-9456000D02*
X14028334Y-9446476D01*
X14028334Y-9446476D02*
X14018810Y-9427429D01*
X14018810Y-9427429D02*
X14018810Y-9370286D01*
X14018810Y-9370286D02*
X14028334Y-9351238D01*
X14028334Y-9351238D02*
X14037858Y-9341714D01*
X14037858Y-9341714D02*
X14056905Y-9332190D01*
X14056905Y-9332190D02*
X14085477Y-9332190D01*
X14085477Y-9332190D02*
X14104524Y-9341714D01*
X14104524Y-9341714D02*
X14114048Y-9351238D01*
X14114048Y-9351238D02*
X14123572Y-9370286D01*
X14123572Y-9370286D02*
X14123572Y-9427429D01*
X14123572Y-9427429D02*
X14114048Y-9446476D01*
X14114048Y-9446476D02*
X14104524Y-9456000D01*
X14104524Y-9456000D02*
X14085477Y-9465524D01*
X14085477Y-9465524D02*
X14056905Y-9465524D01*
X14180715Y-9332190D02*
X14256905Y-9332190D01*
X14209286Y-9265524D02*
X14209286Y-9436952D01*
X14209286Y-9436952D02*
X14218810Y-9456000D01*
X14218810Y-9456000D02*
X14237858Y-9465524D01*
X14237858Y-9465524D02*
X14256905Y-9465524D01*
X14314048Y-9456000D02*
X14333096Y-9465524D01*
X14333096Y-9465524D02*
X14371191Y-9465524D01*
X14371191Y-9465524D02*
X14390239Y-9456000D01*
X14390239Y-9456000D02*
X14399762Y-9436952D01*
X14399762Y-9436952D02*
X14399762Y-9427429D01*
X14399762Y-9427429D02*
X14390239Y-9408381D01*
X14390239Y-9408381D02*
X14371191Y-9398857D01*
X14371191Y-9398857D02*
X14342620Y-9398857D01*
X14342620Y-9398857D02*
X14323572Y-9389333D01*
X14323572Y-9389333D02*
X14314048Y-9370286D01*
X14314048Y-9370286D02*
X14314048Y-9360762D01*
X14314048Y-9360762D02*
X14323572Y-9341714D01*
X14323572Y-9341714D02*
X14342620Y-9332190D01*
X14342620Y-9332190D02*
X14371191Y-9332190D01*
X14371191Y-9332190D02*
X14390239Y-9341714D01*
X14466429Y-9541714D02*
X14475953Y-9532190D01*
X14475953Y-9532190D02*
X14495001Y-9503619D01*
X14495001Y-9503619D02*
X14504524Y-9484571D01*
X14504524Y-9484571D02*
X14514048Y-9456000D01*
X14514048Y-9456000D02*
X14523572Y-9408381D01*
X14523572Y-9408381D02*
X14523572Y-9370286D01*
X14523572Y-9370286D02*
X14514048Y-9322667D01*
X14514048Y-9322667D02*
X14504524Y-9294095D01*
X14504524Y-9294095D02*
X14495001Y-9275048D01*
X14495001Y-9275048D02*
X14475953Y-9246476D01*
X14475953Y-9246476D02*
X14466429Y-9236952D01*
X7865711Y-9707711D02*
X7865711Y-9566289D01*
X7724289Y-9566289D01*
X7724289Y-9707711D01*
X7865711Y-9707711D01*
X8133095Y-9548571D02*
X8142619Y-9539048D01*
X8142619Y-9539048D02*
X8161667Y-9529524D01*
X8161667Y-9529524D02*
X8209286Y-9529524D01*
X8209286Y-9529524D02*
X8228333Y-9539048D01*
X8228333Y-9539048D02*
X8237857Y-9548571D01*
X8237857Y-9548571D02*
X8247381Y-9567619D01*
X8247381Y-9567619D02*
X8247381Y-9586667D01*
X8247381Y-9586667D02*
X8237857Y-9615238D01*
X8237857Y-9615238D02*
X8123571Y-9729524D01*
X8123571Y-9729524D02*
X8247381Y-9729524D01*
X8333095Y-9710476D02*
X8342619Y-9720000D01*
X8342619Y-9720000D02*
X8333095Y-9729524D01*
X8333095Y-9729524D02*
X8323571Y-9720000D01*
X8323571Y-9720000D02*
X8333095Y-9710476D01*
X8333095Y-9710476D02*
X8333095Y-9729524D01*
X8533095Y-9729524D02*
X8418810Y-9729524D01*
X8475952Y-9729524D02*
X8475952Y-9529524D01*
X8475952Y-9529524D02*
X8456905Y-9558095D01*
X8456905Y-9558095D02*
X8437857Y-9577143D01*
X8437857Y-9577143D02*
X8418810Y-9586667D01*
X8656905Y-9529524D02*
X8675952Y-9529524D01*
X8675952Y-9529524D02*
X8695000Y-9539048D01*
X8695000Y-9539048D02*
X8704524Y-9548571D01*
X8704524Y-9548571D02*
X8714048Y-9567619D01*
X8714048Y-9567619D02*
X8723571Y-9605714D01*
X8723571Y-9605714D02*
X8723571Y-9653333D01*
X8723571Y-9653333D02*
X8714048Y-9691429D01*
X8714048Y-9691429D02*
X8704524Y-9710476D01*
X8704524Y-9710476D02*
X8695000Y-9720000D01*
X8695000Y-9720000D02*
X8675952Y-9729524D01*
X8675952Y-9729524D02*
X8656905Y-9729524D01*
X8656905Y-9729524D02*
X8637857Y-9720000D01*
X8637857Y-9720000D02*
X8628333Y-9710476D01*
X8628333Y-9710476D02*
X8618810Y-9691429D01*
X8618810Y-9691429D02*
X8609286Y-9653333D01*
X8609286Y-9653333D02*
X8609286Y-9605714D01*
X8609286Y-9605714D02*
X8618810Y-9567619D01*
X8618810Y-9567619D02*
X8628333Y-9548571D01*
X8628333Y-9548571D02*
X8637857Y-9539048D01*
X8637857Y-9539048D02*
X8656905Y-9529524D01*
X8847381Y-9529524D02*
X8866429Y-9529524D01*
X8866429Y-9529524D02*
X8885476Y-9539048D01*
X8885476Y-9539048D02*
X8895000Y-9548571D01*
X8895000Y-9548571D02*
X8904524Y-9567619D01*
X8904524Y-9567619D02*
X8914048Y-9605714D01*
X8914048Y-9605714D02*
X8914048Y-9653333D01*
X8914048Y-9653333D02*
X8904524Y-9691429D01*
X8904524Y-9691429D02*
X8895000Y-9710476D01*
X8895000Y-9710476D02*
X8885476Y-9720000D01*
X8885476Y-9720000D02*
X8866429Y-9729524D01*
X8866429Y-9729524D02*
X8847381Y-9729524D01*
X8847381Y-9729524D02*
X8828333Y-9720000D01*
X8828333Y-9720000D02*
X8818810Y-9710476D01*
X8818810Y-9710476D02*
X8809286Y-9691429D01*
X8809286Y-9691429D02*
X8799762Y-9653333D01*
X8799762Y-9653333D02*
X8799762Y-9605714D01*
X8799762Y-9605714D02*
X8809286Y-9567619D01*
X8809286Y-9567619D02*
X8818810Y-9548571D01*
X8818810Y-9548571D02*
X8828333Y-9539048D01*
X8828333Y-9539048D02*
X8847381Y-9529524D01*
X8999762Y-9729524D02*
X8999762Y-9596190D01*
X8999762Y-9615238D02*
X9009286Y-9605714D01*
X9009286Y-9605714D02*
X9028333Y-9596190D01*
X9028333Y-9596190D02*
X9056905Y-9596190D01*
X9056905Y-9596190D02*
X9075952Y-9605714D01*
X9075952Y-9605714D02*
X9085476Y-9624762D01*
X9085476Y-9624762D02*
X9085476Y-9729524D01*
X9085476Y-9624762D02*
X9095000Y-9605714D01*
X9095000Y-9605714D02*
X9114048Y-9596190D01*
X9114048Y-9596190D02*
X9142619Y-9596190D01*
X9142619Y-9596190D02*
X9161667Y-9605714D01*
X9161667Y-9605714D02*
X9171191Y-9624762D01*
X9171191Y-9624762D02*
X9171191Y-9729524D01*
X9266429Y-9729524D02*
X9266429Y-9596190D01*
X9266429Y-9615238D02*
X9275952Y-9605714D01*
X9275952Y-9605714D02*
X9295000Y-9596190D01*
X9295000Y-9596190D02*
X9323572Y-9596190D01*
X9323572Y-9596190D02*
X9342619Y-9605714D01*
X9342619Y-9605714D02*
X9352143Y-9624762D01*
X9352143Y-9624762D02*
X9352143Y-9729524D01*
X9352143Y-9624762D02*
X9361667Y-9605714D01*
X9361667Y-9605714D02*
X9380714Y-9596190D01*
X9380714Y-9596190D02*
X9409286Y-9596190D01*
X9409286Y-9596190D02*
X9428333Y-9605714D01*
X9428333Y-9605714D02*
X9437857Y-9624762D01*
X9437857Y-9624762D02*
X9437857Y-9729524D01*
X9828333Y-9520000D02*
X9656905Y-9777143D01*
X10085476Y-9529524D02*
X10104524Y-9529524D01*
X10104524Y-9529524D02*
X10123572Y-9539048D01*
X10123572Y-9539048D02*
X10133095Y-9548571D01*
X10133095Y-9548571D02*
X10142619Y-9567619D01*
X10142619Y-9567619D02*
X10152143Y-9605714D01*
X10152143Y-9605714D02*
X10152143Y-9653333D01*
X10152143Y-9653333D02*
X10142619Y-9691429D01*
X10142619Y-9691429D02*
X10133095Y-9710476D01*
X10133095Y-9710476D02*
X10123572Y-9720000D01*
X10123572Y-9720000D02*
X10104524Y-9729524D01*
X10104524Y-9729524D02*
X10085476Y-9729524D01*
X10085476Y-9729524D02*
X10066429Y-9720000D01*
X10066429Y-9720000D02*
X10056905Y-9710476D01*
X10056905Y-9710476D02*
X10047381Y-9691429D01*
X10047381Y-9691429D02*
X10037857Y-9653333D01*
X10037857Y-9653333D02*
X10037857Y-9605714D01*
X10037857Y-9605714D02*
X10047381Y-9567619D01*
X10047381Y-9567619D02*
X10056905Y-9548571D01*
X10056905Y-9548571D02*
X10066429Y-9539048D01*
X10066429Y-9539048D02*
X10085476Y-9529524D01*
X10237857Y-9710476D02*
X10247381Y-9720000D01*
X10247381Y-9720000D02*
X10237857Y-9729524D01*
X10237857Y-9729524D02*
X10228334Y-9720000D01*
X10228334Y-9720000D02*
X10237857Y-9710476D01*
X10237857Y-9710476D02*
X10237857Y-9729524D01*
X10371191Y-9529524D02*
X10390238Y-9529524D01*
X10390238Y-9529524D02*
X10409286Y-9539048D01*
X10409286Y-9539048D02*
X10418810Y-9548571D01*
X10418810Y-9548571D02*
X10428334Y-9567619D01*
X10428334Y-9567619D02*
X10437857Y-9605714D01*
X10437857Y-9605714D02*
X10437857Y-9653333D01*
X10437857Y-9653333D02*
X10428334Y-9691429D01*
X10428334Y-9691429D02*
X10418810Y-9710476D01*
X10418810Y-9710476D02*
X10409286Y-9720000D01*
X10409286Y-9720000D02*
X10390238Y-9729524D01*
X10390238Y-9729524D02*
X10371191Y-9729524D01*
X10371191Y-9729524D02*
X10352143Y-9720000D01*
X10352143Y-9720000D02*
X10342619Y-9710476D01*
X10342619Y-9710476D02*
X10333095Y-9691429D01*
X10333095Y-9691429D02*
X10323572Y-9653333D01*
X10323572Y-9653333D02*
X10323572Y-9605714D01*
X10323572Y-9605714D02*
X10333095Y-9567619D01*
X10333095Y-9567619D02*
X10342619Y-9548571D01*
X10342619Y-9548571D02*
X10352143Y-9539048D01*
X10352143Y-9539048D02*
X10371191Y-9529524D01*
X10552143Y-9615238D02*
X10533095Y-9605714D01*
X10533095Y-9605714D02*
X10523572Y-9596190D01*
X10523572Y-9596190D02*
X10514048Y-9577143D01*
X10514048Y-9577143D02*
X10514048Y-9567619D01*
X10514048Y-9567619D02*
X10523572Y-9548571D01*
X10523572Y-9548571D02*
X10533095Y-9539048D01*
X10533095Y-9539048D02*
X10552143Y-9529524D01*
X10552143Y-9529524D02*
X10590238Y-9529524D01*
X10590238Y-9529524D02*
X10609286Y-9539048D01*
X10609286Y-9539048D02*
X10618810Y-9548571D01*
X10618810Y-9548571D02*
X10628334Y-9567619D01*
X10628334Y-9567619D02*
X10628334Y-9577143D01*
X10628334Y-9577143D02*
X10618810Y-9596190D01*
X10618810Y-9596190D02*
X10609286Y-9605714D01*
X10609286Y-9605714D02*
X10590238Y-9615238D01*
X10590238Y-9615238D02*
X10552143Y-9615238D01*
X10552143Y-9615238D02*
X10533095Y-9624762D01*
X10533095Y-9624762D02*
X10523572Y-9634286D01*
X10523572Y-9634286D02*
X10514048Y-9653333D01*
X10514048Y-9653333D02*
X10514048Y-9691429D01*
X10514048Y-9691429D02*
X10523572Y-9710476D01*
X10523572Y-9710476D02*
X10533095Y-9720000D01*
X10533095Y-9720000D02*
X10552143Y-9729524D01*
X10552143Y-9729524D02*
X10590238Y-9729524D01*
X10590238Y-9729524D02*
X10609286Y-9720000D01*
X10609286Y-9720000D02*
X10618810Y-9710476D01*
X10618810Y-9710476D02*
X10628334Y-9691429D01*
X10628334Y-9691429D02*
X10628334Y-9653333D01*
X10628334Y-9653333D02*
X10618810Y-9634286D01*
X10618810Y-9634286D02*
X10609286Y-9624762D01*
X10609286Y-9624762D02*
X10590238Y-9615238D01*
X10704524Y-9548571D02*
X10714048Y-9539048D01*
X10714048Y-9539048D02*
X10733095Y-9529524D01*
X10733095Y-9529524D02*
X10780715Y-9529524D01*
X10780715Y-9529524D02*
X10799762Y-9539048D01*
X10799762Y-9539048D02*
X10809286Y-9548571D01*
X10809286Y-9548571D02*
X10818810Y-9567619D01*
X10818810Y-9567619D02*
X10818810Y-9586667D01*
X10818810Y-9586667D02*
X10809286Y-9615238D01*
X10809286Y-9615238D02*
X10695000Y-9729524D01*
X10695000Y-9729524D02*
X10818810Y-9729524D01*
X10885476Y-9529524D02*
X11018810Y-9529524D01*
X11018810Y-9529524D02*
X10933095Y-9729524D01*
X11085476Y-9529524D02*
X11085476Y-9567619D01*
X11161667Y-9529524D02*
X11161667Y-9567619D01*
X11456905Y-9805714D02*
X11447381Y-9796190D01*
X11447381Y-9796190D02*
X11428334Y-9767619D01*
X11428334Y-9767619D02*
X11418810Y-9748571D01*
X11418810Y-9748571D02*
X11409286Y-9720000D01*
X11409286Y-9720000D02*
X11399762Y-9672381D01*
X11399762Y-9672381D02*
X11399762Y-9634286D01*
X11399762Y-9634286D02*
X11409286Y-9586667D01*
X11409286Y-9586667D02*
X11418810Y-9558095D01*
X11418810Y-9558095D02*
X11428334Y-9539048D01*
X11428334Y-9539048D02*
X11447381Y-9510476D01*
X11447381Y-9510476D02*
X11456905Y-9500952D01*
X11514048Y-9529524D02*
X11637857Y-9529524D01*
X11637857Y-9529524D02*
X11571191Y-9605714D01*
X11571191Y-9605714D02*
X11599762Y-9605714D01*
X11599762Y-9605714D02*
X11618810Y-9615238D01*
X11618810Y-9615238D02*
X11628334Y-9624762D01*
X11628334Y-9624762D02*
X11637857Y-9643810D01*
X11637857Y-9643810D02*
X11637857Y-9691429D01*
X11637857Y-9691429D02*
X11628334Y-9710476D01*
X11628334Y-9710476D02*
X11618810Y-9720000D01*
X11618810Y-9720000D02*
X11599762Y-9729524D01*
X11599762Y-9729524D02*
X11542619Y-9729524D01*
X11542619Y-9729524D02*
X11523572Y-9720000D01*
X11523572Y-9720000D02*
X11514048Y-9710476D01*
X11875953Y-9729524D02*
X11875953Y-9529524D01*
X11961667Y-9729524D02*
X11961667Y-9624762D01*
X11961667Y-9624762D02*
X11952143Y-9605714D01*
X11952143Y-9605714D02*
X11933096Y-9596190D01*
X11933096Y-9596190D02*
X11904524Y-9596190D01*
X11904524Y-9596190D02*
X11885476Y-9605714D01*
X11885476Y-9605714D02*
X11875953Y-9615238D01*
X12085476Y-9729524D02*
X12066429Y-9720000D01*
X12066429Y-9720000D02*
X12056905Y-9710476D01*
X12056905Y-9710476D02*
X12047381Y-9691429D01*
X12047381Y-9691429D02*
X12047381Y-9634286D01*
X12047381Y-9634286D02*
X12056905Y-9615238D01*
X12056905Y-9615238D02*
X12066429Y-9605714D01*
X12066429Y-9605714D02*
X12085476Y-9596190D01*
X12085476Y-9596190D02*
X12114048Y-9596190D01*
X12114048Y-9596190D02*
X12133096Y-9605714D01*
X12133096Y-9605714D02*
X12142619Y-9615238D01*
X12142619Y-9615238D02*
X12152143Y-9634286D01*
X12152143Y-9634286D02*
X12152143Y-9691429D01*
X12152143Y-9691429D02*
X12142619Y-9710476D01*
X12142619Y-9710476D02*
X12133096Y-9720000D01*
X12133096Y-9720000D02*
X12114048Y-9729524D01*
X12114048Y-9729524D02*
X12085476Y-9729524D01*
X12266429Y-9729524D02*
X12247381Y-9720000D01*
X12247381Y-9720000D02*
X12237857Y-9700952D01*
X12237857Y-9700952D02*
X12237857Y-9529524D01*
X12418810Y-9720000D02*
X12399762Y-9729524D01*
X12399762Y-9729524D02*
X12361667Y-9729524D01*
X12361667Y-9729524D02*
X12342619Y-9720000D01*
X12342619Y-9720000D02*
X12333096Y-9700952D01*
X12333096Y-9700952D02*
X12333096Y-9624762D01*
X12333096Y-9624762D02*
X12342619Y-9605714D01*
X12342619Y-9605714D02*
X12361667Y-9596190D01*
X12361667Y-9596190D02*
X12399762Y-9596190D01*
X12399762Y-9596190D02*
X12418810Y-9605714D01*
X12418810Y-9605714D02*
X12428334Y-9624762D01*
X12428334Y-9624762D02*
X12428334Y-9643810D01*
X12428334Y-9643810D02*
X12333096Y-9662857D01*
X12504524Y-9720000D02*
X12523572Y-9729524D01*
X12523572Y-9729524D02*
X12561667Y-9729524D01*
X12561667Y-9729524D02*
X12580715Y-9720000D01*
X12580715Y-9720000D02*
X12590238Y-9700952D01*
X12590238Y-9700952D02*
X12590238Y-9691429D01*
X12590238Y-9691429D02*
X12580715Y-9672381D01*
X12580715Y-9672381D02*
X12561667Y-9662857D01*
X12561667Y-9662857D02*
X12533096Y-9662857D01*
X12533096Y-9662857D02*
X12514048Y-9653333D01*
X12514048Y-9653333D02*
X12504524Y-9634286D01*
X12504524Y-9634286D02*
X12504524Y-9624762D01*
X12504524Y-9624762D02*
X12514048Y-9605714D01*
X12514048Y-9605714D02*
X12533096Y-9596190D01*
X12533096Y-9596190D02*
X12561667Y-9596190D01*
X12561667Y-9596190D02*
X12580715Y-9605714D01*
X12656905Y-9805714D02*
X12666429Y-9796190D01*
X12666429Y-9796190D02*
X12685477Y-9767619D01*
X12685477Y-9767619D02*
X12695000Y-9748571D01*
X12695000Y-9748571D02*
X12704524Y-9720000D01*
X12704524Y-9720000D02*
X12714048Y-9672381D01*
X12714048Y-9672381D02*
X12714048Y-9634286D01*
X12714048Y-9634286D02*
X12704524Y-9586667D01*
X12704524Y-9586667D02*
X12695000Y-9558095D01*
X12695000Y-9558095D02*
X12685477Y-9539048D01*
X12685477Y-9539048D02*
X12666429Y-9510476D01*
X12666429Y-9510476D02*
X12656905Y-9500952D01*
X7795000Y-10057000D02*
X7895000Y-9957000D01*
X7795000Y-9857000D01*
X7695000Y-9957000D01*
X7795000Y-10057000D01*
X8123571Y-9849524D02*
X8247381Y-9849524D01*
X8247381Y-9849524D02*
X8180714Y-9925714D01*
X8180714Y-9925714D02*
X8209286Y-9925714D01*
X8209286Y-9925714D02*
X8228333Y-9935238D01*
X8228333Y-9935238D02*
X8237857Y-9944762D01*
X8237857Y-9944762D02*
X8247381Y-9963810D01*
X8247381Y-9963810D02*
X8247381Y-10011429D01*
X8247381Y-10011429D02*
X8237857Y-10030476D01*
X8237857Y-10030476D02*
X8228333Y-10040000D01*
X8228333Y-10040000D02*
X8209286Y-10049524D01*
X8209286Y-10049524D02*
X8152143Y-10049524D01*
X8152143Y-10049524D02*
X8133095Y-10040000D01*
X8133095Y-10040000D02*
X8123571Y-10030476D01*
X8333095Y-10030476D02*
X8342619Y-10040000D01*
X8342619Y-10040000D02*
X8333095Y-10049524D01*
X8333095Y-10049524D02*
X8323571Y-10040000D01*
X8323571Y-10040000D02*
X8333095Y-10030476D01*
X8333095Y-10030476D02*
X8333095Y-10049524D01*
X8418810Y-9868571D02*
X8428333Y-9859048D01*
X8428333Y-9859048D02*
X8447381Y-9849524D01*
X8447381Y-9849524D02*
X8495000Y-9849524D01*
X8495000Y-9849524D02*
X8514048Y-9859048D01*
X8514048Y-9859048D02*
X8523571Y-9868571D01*
X8523571Y-9868571D02*
X8533095Y-9887619D01*
X8533095Y-9887619D02*
X8533095Y-9906667D01*
X8533095Y-9906667D02*
X8523571Y-9935238D01*
X8523571Y-9935238D02*
X8409286Y-10049524D01*
X8409286Y-10049524D02*
X8533095Y-10049524D01*
X8656905Y-9849524D02*
X8675952Y-9849524D01*
X8675952Y-9849524D02*
X8695000Y-9859048D01*
X8695000Y-9859048D02*
X8704524Y-9868571D01*
X8704524Y-9868571D02*
X8714048Y-9887619D01*
X8714048Y-9887619D02*
X8723571Y-9925714D01*
X8723571Y-9925714D02*
X8723571Y-9973333D01*
X8723571Y-9973333D02*
X8714048Y-10011429D01*
X8714048Y-10011429D02*
X8704524Y-10030476D01*
X8704524Y-10030476D02*
X8695000Y-10040000D01*
X8695000Y-10040000D02*
X8675952Y-10049524D01*
X8675952Y-10049524D02*
X8656905Y-10049524D01*
X8656905Y-10049524D02*
X8637857Y-10040000D01*
X8637857Y-10040000D02*
X8628333Y-10030476D01*
X8628333Y-10030476D02*
X8618810Y-10011429D01*
X8618810Y-10011429D02*
X8609286Y-9973333D01*
X8609286Y-9973333D02*
X8609286Y-9925714D01*
X8609286Y-9925714D02*
X8618810Y-9887619D01*
X8618810Y-9887619D02*
X8628333Y-9868571D01*
X8628333Y-9868571D02*
X8637857Y-9859048D01*
X8637857Y-9859048D02*
X8656905Y-9849524D01*
X8847381Y-9849524D02*
X8866429Y-9849524D01*
X8866429Y-9849524D02*
X8885476Y-9859048D01*
X8885476Y-9859048D02*
X8895000Y-9868571D01*
X8895000Y-9868571D02*
X8904524Y-9887619D01*
X8904524Y-9887619D02*
X8914048Y-9925714D01*
X8914048Y-9925714D02*
X8914048Y-9973333D01*
X8914048Y-9973333D02*
X8904524Y-10011429D01*
X8904524Y-10011429D02*
X8895000Y-10030476D01*
X8895000Y-10030476D02*
X8885476Y-10040000D01*
X8885476Y-10040000D02*
X8866429Y-10049524D01*
X8866429Y-10049524D02*
X8847381Y-10049524D01*
X8847381Y-10049524D02*
X8828333Y-10040000D01*
X8828333Y-10040000D02*
X8818810Y-10030476D01*
X8818810Y-10030476D02*
X8809286Y-10011429D01*
X8809286Y-10011429D02*
X8799762Y-9973333D01*
X8799762Y-9973333D02*
X8799762Y-9925714D01*
X8799762Y-9925714D02*
X8809286Y-9887619D01*
X8809286Y-9887619D02*
X8818810Y-9868571D01*
X8818810Y-9868571D02*
X8828333Y-9859048D01*
X8828333Y-9859048D02*
X8847381Y-9849524D01*
X8999762Y-10049524D02*
X8999762Y-9916190D01*
X8999762Y-9935238D02*
X9009286Y-9925714D01*
X9009286Y-9925714D02*
X9028333Y-9916190D01*
X9028333Y-9916190D02*
X9056905Y-9916190D01*
X9056905Y-9916190D02*
X9075952Y-9925714D01*
X9075952Y-9925714D02*
X9085476Y-9944762D01*
X9085476Y-9944762D02*
X9085476Y-10049524D01*
X9085476Y-9944762D02*
X9095000Y-9925714D01*
X9095000Y-9925714D02*
X9114048Y-9916190D01*
X9114048Y-9916190D02*
X9142619Y-9916190D01*
X9142619Y-9916190D02*
X9161667Y-9925714D01*
X9161667Y-9925714D02*
X9171191Y-9944762D01*
X9171191Y-9944762D02*
X9171191Y-10049524D01*
X9266429Y-10049524D02*
X9266429Y-9916190D01*
X9266429Y-9935238D02*
X9275952Y-9925714D01*
X9275952Y-9925714D02*
X9295000Y-9916190D01*
X9295000Y-9916190D02*
X9323572Y-9916190D01*
X9323572Y-9916190D02*
X9342619Y-9925714D01*
X9342619Y-9925714D02*
X9352143Y-9944762D01*
X9352143Y-9944762D02*
X9352143Y-10049524D01*
X9352143Y-9944762D02*
X9361667Y-9925714D01*
X9361667Y-9925714D02*
X9380714Y-9916190D01*
X9380714Y-9916190D02*
X9409286Y-9916190D01*
X9409286Y-9916190D02*
X9428333Y-9925714D01*
X9428333Y-9925714D02*
X9437857Y-9944762D01*
X9437857Y-9944762D02*
X9437857Y-10049524D01*
X9828333Y-9840000D02*
X9656905Y-10097143D01*
X10085476Y-9849524D02*
X10104524Y-9849524D01*
X10104524Y-9849524D02*
X10123572Y-9859048D01*
X10123572Y-9859048D02*
X10133095Y-9868571D01*
X10133095Y-9868571D02*
X10142619Y-9887619D01*
X10142619Y-9887619D02*
X10152143Y-9925714D01*
X10152143Y-9925714D02*
X10152143Y-9973333D01*
X10152143Y-9973333D02*
X10142619Y-10011429D01*
X10142619Y-10011429D02*
X10133095Y-10030476D01*
X10133095Y-10030476D02*
X10123572Y-10040000D01*
X10123572Y-10040000D02*
X10104524Y-10049524D01*
X10104524Y-10049524D02*
X10085476Y-10049524D01*
X10085476Y-10049524D02*
X10066429Y-10040000D01*
X10066429Y-10040000D02*
X10056905Y-10030476D01*
X10056905Y-10030476D02*
X10047381Y-10011429D01*
X10047381Y-10011429D02*
X10037857Y-9973333D01*
X10037857Y-9973333D02*
X10037857Y-9925714D01*
X10037857Y-9925714D02*
X10047381Y-9887619D01*
X10047381Y-9887619D02*
X10056905Y-9868571D01*
X10056905Y-9868571D02*
X10066429Y-9859048D01*
X10066429Y-9859048D02*
X10085476Y-9849524D01*
X10237857Y-10030476D02*
X10247381Y-10040000D01*
X10247381Y-10040000D02*
X10237857Y-10049524D01*
X10237857Y-10049524D02*
X10228334Y-10040000D01*
X10228334Y-10040000D02*
X10237857Y-10030476D01*
X10237857Y-10030476D02*
X10237857Y-10049524D01*
X10437857Y-10049524D02*
X10323572Y-10049524D01*
X10380714Y-10049524D02*
X10380714Y-9849524D01*
X10380714Y-9849524D02*
X10361667Y-9878095D01*
X10361667Y-9878095D02*
X10342619Y-9897143D01*
X10342619Y-9897143D02*
X10323572Y-9906667D01*
X10514048Y-9868571D02*
X10523572Y-9859048D01*
X10523572Y-9859048D02*
X10542619Y-9849524D01*
X10542619Y-9849524D02*
X10590238Y-9849524D01*
X10590238Y-9849524D02*
X10609286Y-9859048D01*
X10609286Y-9859048D02*
X10618810Y-9868571D01*
X10618810Y-9868571D02*
X10628334Y-9887619D01*
X10628334Y-9887619D02*
X10628334Y-9906667D01*
X10628334Y-9906667D02*
X10618810Y-9935238D01*
X10618810Y-9935238D02*
X10504524Y-10049524D01*
X10504524Y-10049524D02*
X10628334Y-10049524D01*
X10799762Y-9849524D02*
X10761667Y-9849524D01*
X10761667Y-9849524D02*
X10742619Y-9859048D01*
X10742619Y-9859048D02*
X10733095Y-9868571D01*
X10733095Y-9868571D02*
X10714048Y-9897143D01*
X10714048Y-9897143D02*
X10704524Y-9935238D01*
X10704524Y-9935238D02*
X10704524Y-10011429D01*
X10704524Y-10011429D02*
X10714048Y-10030476D01*
X10714048Y-10030476D02*
X10723572Y-10040000D01*
X10723572Y-10040000D02*
X10742619Y-10049524D01*
X10742619Y-10049524D02*
X10780715Y-10049524D01*
X10780715Y-10049524D02*
X10799762Y-10040000D01*
X10799762Y-10040000D02*
X10809286Y-10030476D01*
X10809286Y-10030476D02*
X10818810Y-10011429D01*
X10818810Y-10011429D02*
X10818810Y-9963810D01*
X10818810Y-9963810D02*
X10809286Y-9944762D01*
X10809286Y-9944762D02*
X10799762Y-9935238D01*
X10799762Y-9935238D02*
X10780715Y-9925714D01*
X10780715Y-9925714D02*
X10742619Y-9925714D01*
X10742619Y-9925714D02*
X10723572Y-9935238D01*
X10723572Y-9935238D02*
X10714048Y-9944762D01*
X10714048Y-9944762D02*
X10704524Y-9963810D01*
X10942619Y-9849524D02*
X10961667Y-9849524D01*
X10961667Y-9849524D02*
X10980715Y-9859048D01*
X10980715Y-9859048D02*
X10990238Y-9868571D01*
X10990238Y-9868571D02*
X10999762Y-9887619D01*
X10999762Y-9887619D02*
X11009286Y-9925714D01*
X11009286Y-9925714D02*
X11009286Y-9973333D01*
X11009286Y-9973333D02*
X10999762Y-10011429D01*
X10999762Y-10011429D02*
X10990238Y-10030476D01*
X10990238Y-10030476D02*
X10980715Y-10040000D01*
X10980715Y-10040000D02*
X10961667Y-10049524D01*
X10961667Y-10049524D02*
X10942619Y-10049524D01*
X10942619Y-10049524D02*
X10923572Y-10040000D01*
X10923572Y-10040000D02*
X10914048Y-10030476D01*
X10914048Y-10030476D02*
X10904524Y-10011429D01*
X10904524Y-10011429D02*
X10895000Y-9973333D01*
X10895000Y-9973333D02*
X10895000Y-9925714D01*
X10895000Y-9925714D02*
X10904524Y-9887619D01*
X10904524Y-9887619D02*
X10914048Y-9868571D01*
X10914048Y-9868571D02*
X10923572Y-9859048D01*
X10923572Y-9859048D02*
X10942619Y-9849524D01*
X11085476Y-9849524D02*
X11085476Y-9887619D01*
X11161667Y-9849524D02*
X11161667Y-9887619D01*
X11456905Y-10125714D02*
X11447381Y-10116190D01*
X11447381Y-10116190D02*
X11428334Y-10087619D01*
X11428334Y-10087619D02*
X11418810Y-10068571D01*
X11418810Y-10068571D02*
X11409286Y-10040000D01*
X11409286Y-10040000D02*
X11399762Y-9992381D01*
X11399762Y-9992381D02*
X11399762Y-9954286D01*
X11399762Y-9954286D02*
X11409286Y-9906667D01*
X11409286Y-9906667D02*
X11418810Y-9878095D01*
X11418810Y-9878095D02*
X11428334Y-9859048D01*
X11428334Y-9859048D02*
X11447381Y-9830476D01*
X11447381Y-9830476D02*
X11456905Y-9820952D01*
X11523572Y-9868571D02*
X11533095Y-9859048D01*
X11533095Y-9859048D02*
X11552143Y-9849524D01*
X11552143Y-9849524D02*
X11599762Y-9849524D01*
X11599762Y-9849524D02*
X11618810Y-9859048D01*
X11618810Y-9859048D02*
X11628334Y-9868571D01*
X11628334Y-9868571D02*
X11637857Y-9887619D01*
X11637857Y-9887619D02*
X11637857Y-9906667D01*
X11637857Y-9906667D02*
X11628334Y-9935238D01*
X11628334Y-9935238D02*
X11514048Y-10049524D01*
X11514048Y-10049524D02*
X11637857Y-10049524D01*
X11875953Y-10049524D02*
X11875953Y-9849524D01*
X11961667Y-10049524D02*
X11961667Y-9944762D01*
X11961667Y-9944762D02*
X11952143Y-9925714D01*
X11952143Y-9925714D02*
X11933096Y-9916190D01*
X11933096Y-9916190D02*
X11904524Y-9916190D01*
X11904524Y-9916190D02*
X11885476Y-9925714D01*
X11885476Y-9925714D02*
X11875953Y-9935238D01*
X12085476Y-10049524D02*
X12066429Y-10040000D01*
X12066429Y-10040000D02*
X12056905Y-10030476D01*
X12056905Y-10030476D02*
X12047381Y-10011429D01*
X12047381Y-10011429D02*
X12047381Y-9954286D01*
X12047381Y-9954286D02*
X12056905Y-9935238D01*
X12056905Y-9935238D02*
X12066429Y-9925714D01*
X12066429Y-9925714D02*
X12085476Y-9916190D01*
X12085476Y-9916190D02*
X12114048Y-9916190D01*
X12114048Y-9916190D02*
X12133096Y-9925714D01*
X12133096Y-9925714D02*
X12142619Y-9935238D01*
X12142619Y-9935238D02*
X12152143Y-9954286D01*
X12152143Y-9954286D02*
X12152143Y-10011429D01*
X12152143Y-10011429D02*
X12142619Y-10030476D01*
X12142619Y-10030476D02*
X12133096Y-10040000D01*
X12133096Y-10040000D02*
X12114048Y-10049524D01*
X12114048Y-10049524D02*
X12085476Y-10049524D01*
X12266429Y-10049524D02*
X12247381Y-10040000D01*
X12247381Y-10040000D02*
X12237857Y-10020952D01*
X12237857Y-10020952D02*
X12237857Y-9849524D01*
X12418810Y-10040000D02*
X12399762Y-10049524D01*
X12399762Y-10049524D02*
X12361667Y-10049524D01*
X12361667Y-10049524D02*
X12342619Y-10040000D01*
X12342619Y-10040000D02*
X12333096Y-10020952D01*
X12333096Y-10020952D02*
X12333096Y-9944762D01*
X12333096Y-9944762D02*
X12342619Y-9925714D01*
X12342619Y-9925714D02*
X12361667Y-9916190D01*
X12361667Y-9916190D02*
X12399762Y-9916190D01*
X12399762Y-9916190D02*
X12418810Y-9925714D01*
X12418810Y-9925714D02*
X12428334Y-9944762D01*
X12428334Y-9944762D02*
X12428334Y-9963810D01*
X12428334Y-9963810D02*
X12333096Y-9982857D01*
X12504524Y-10040000D02*
X12523572Y-10049524D01*
X12523572Y-10049524D02*
X12561667Y-10049524D01*
X12561667Y-10049524D02*
X12580715Y-10040000D01*
X12580715Y-10040000D02*
X12590238Y-10020952D01*
X12590238Y-10020952D02*
X12590238Y-10011429D01*
X12590238Y-10011429D02*
X12580715Y-9992381D01*
X12580715Y-9992381D02*
X12561667Y-9982857D01*
X12561667Y-9982857D02*
X12533096Y-9982857D01*
X12533096Y-9982857D02*
X12514048Y-9973333D01*
X12514048Y-9973333D02*
X12504524Y-9954286D01*
X12504524Y-9954286D02*
X12504524Y-9944762D01*
X12504524Y-9944762D02*
X12514048Y-9925714D01*
X12514048Y-9925714D02*
X12533096Y-9916190D01*
X12533096Y-9916190D02*
X12561667Y-9916190D01*
X12561667Y-9916190D02*
X12580715Y-9925714D01*
X12656905Y-10125714D02*
X12666429Y-10116190D01*
X12666429Y-10116190D02*
X12685477Y-10087619D01*
X12685477Y-10087619D02*
X12695000Y-10068571D01*
X12695000Y-10068571D02*
X12704524Y-10040000D01*
X12704524Y-10040000D02*
X12714048Y-9992381D01*
X12714048Y-9992381D02*
X12714048Y-9954286D01*
X12714048Y-9954286D02*
X12704524Y-9906667D01*
X12704524Y-9906667D02*
X12695000Y-9878095D01*
X12695000Y-9878095D02*
X12685477Y-9859048D01*
X12685477Y-9859048D02*
X12666429Y-9830476D01*
X12666429Y-9830476D02*
X12656905Y-9820952D01*
M02*
