%TF.GenerationSoftware,KiCad,Pcbnew,7.0.2*%
%TF.CreationDate,2024-01-15T12:29:35-05:00*%
%TF.ProjectId,CONTROL PCB,434f4e54-524f-44c2-9050-43422e6b6963,rev?*%
%TF.SameCoordinates,Original*%
%TF.FileFunction,Copper,L1,Top*%
%TF.FilePolarity,Positive*%
%FSLAX46Y46*%
G04 Gerber Fmt 4.6, Leading zero omitted, Abs format (unit mm)*
G04 Created by KiCad (PCBNEW 7.0.2) date 2024-01-15 12:29:35*
%MOMM*%
%LPD*%
G01*
G04 APERTURE LIST*
G04 Aperture macros list*
%AMRoundRect*
0 Rectangle with rounded corners*
0 $1 Rounding radius*
0 $2 $3 $4 $5 $6 $7 $8 $9 X,Y pos of 4 corners*
0 Add a 4 corners polygon primitive as box body*
4,1,4,$2,$3,$4,$5,$6,$7,$8,$9,$2,$3,0*
0 Add four circle primitives for the rounded corners*
1,1,$1+$1,$2,$3*
1,1,$1+$1,$4,$5*
1,1,$1+$1,$6,$7*
1,1,$1+$1,$8,$9*
0 Add four rect primitives between the rounded corners*
20,1,$1+$1,$2,$3,$4,$5,0*
20,1,$1+$1,$4,$5,$6,$7,0*
20,1,$1+$1,$6,$7,$8,$9,0*
20,1,$1+$1,$8,$9,$2,$3,0*%
G04 Aperture macros list end*
%TA.AperFunction,ComponentPad*%
%ADD10C,3.100000*%
%TD*%
%TA.AperFunction,ComponentPad*%
%ADD11C,1.600000*%
%TD*%
%TA.AperFunction,ComponentPad*%
%ADD12O,1.600000X1.600000*%
%TD*%
%TA.AperFunction,ComponentPad*%
%ADD13C,4.000000*%
%TD*%
%TA.AperFunction,ComponentPad*%
%ADD14O,2.720000X3.240000*%
%TD*%
%TA.AperFunction,ComponentPad*%
%ADD15R,1.800000X1.800000*%
%TD*%
%TA.AperFunction,ComponentPad*%
%ADD16C,1.800000*%
%TD*%
%TA.AperFunction,ComponentPad*%
%ADD17RoundRect,0.250000X-0.600000X0.600000X-0.600000X-0.600000X0.600000X-0.600000X0.600000X0.600000X0*%
%TD*%
%TA.AperFunction,ComponentPad*%
%ADD18C,1.700000*%
%TD*%
%TA.AperFunction,Conductor*%
%ADD19C,0.500000*%
%TD*%
%TA.AperFunction,Conductor*%
%ADD20C,0.250000*%
%TD*%
%TA.AperFunction,Conductor*%
%ADD21C,1.000000*%
%TD*%
G04 APERTURE END LIST*
D10*
%TO.P,MODE,1*%
%TO.N,5V*%
X125000000Y-59700000D03*
%TO.P,MODE,2*%
%TO.N,MODE*%
X125000000Y-55000000D03*
%TO.P,MODE,3*%
%TO.N,GND*%
X125000000Y-50300000D03*
%TD*%
D11*
%TO.P,R4,1*%
%TO.N,REL*%
X160000000Y-50500000D03*
D12*
%TO.P,R4,2*%
%TO.N,RPOT*%
X160000000Y-42000000D03*
%TD*%
D11*
%TO.P,100nf,1*%
%TO.N,TIME*%
X125000000Y-66000000D03*
%TO.P,100nf,2*%
%TO.N,GND*%
X120000000Y-66000000D03*
%TD*%
D13*
%TO.P,REF\u002A\u002A,1*%
%TO.N,GND*%
X168000000Y-77000000D03*
%TD*%
D11*
%TO.P,R5,1*%
%TO.N,TEAPOT*%
X136250000Y-66000000D03*
D12*
%TO.P,R5,2*%
%TO.N,TIME*%
X127750000Y-66000000D03*
%TD*%
D11*
%TO.P,R7,1*%
%TO.N,MODE*%
X132000000Y-59500000D03*
D12*
%TO.P,R7,2*%
%TO.N,GND*%
X132000000Y-51000000D03*
%TD*%
D14*
%TO.P,B100K,*%
%TO.N,GND*%
X140200000Y-72000000D03*
X149800000Y-72000000D03*
D15*
%TO.P,B100K,1*%
%TO.N,5V*%
X142500000Y-79500000D03*
D16*
%TO.P,B100K,2*%
%TO.N,TEAPOT*%
X145000000Y-79500000D03*
%TO.P,B100K,3*%
%TO.N,GND*%
X147500000Y-79500000D03*
%TD*%
D12*
%TO.P,R2,2*%
%TO.N,DPOT*%
X113000000Y-42000000D03*
D11*
%TO.P,R2,1*%
%TO.N,DEC*%
X113000000Y-50500000D03*
%TD*%
%TO.P,R7,1*%
%TO.N,5V*%
X118000000Y-59500000D03*
D12*
%TO.P,R7,2*%
%TO.N,MODE*%
X118000000Y-51000000D03*
%TD*%
D14*
%TO.P,B100K,*%
%TO.N,GND*%
X155200000Y-32000000D03*
X164800000Y-32000000D03*
D15*
%TO.P,B100K,1*%
X157500000Y-39500000D03*
D16*
%TO.P,B100K,2*%
%TO.N,RPOT*%
X160000000Y-39500000D03*
%TO.P,B100K,3*%
%TO.N,5V*%
X162500000Y-39500000D03*
%TD*%
D11*
%TO.P,100nf,1*%
%TO.N,LVL*%
X109500000Y-61750000D03*
%TO.P,100nf,2*%
%TO.N,GND*%
X104500000Y-61750000D03*
%TD*%
D14*
%TO.P,B100K,*%
%TO.N,GND*%
X100200000Y-72000000D03*
X109800000Y-72000000D03*
D15*
%TO.P,B100K,1*%
X102500000Y-79500000D03*
D16*
%TO.P,B100K,2*%
%TO.N,LPOT*%
X105000000Y-79500000D03*
%TO.P,B100K,3*%
%TO.N,5V*%
X107500000Y-79500000D03*
%TD*%
D14*
%TO.P,B100K,*%
%TO.N,GND*%
X132200000Y-32000000D03*
X141800000Y-32000000D03*
D15*
%TO.P,B100K,1*%
X134500000Y-39500000D03*
D16*
%TO.P,B100K,2*%
%TO.N,SPOT*%
X137000000Y-39500000D03*
%TO.P,B100K,3*%
%TO.N,5V*%
X139500000Y-39500000D03*
%TD*%
D11*
%TO.P,100nf,1*%
%TO.N,REL*%
X163500000Y-50250000D03*
%TO.P,100nf,2*%
%TO.N,GND*%
X163500000Y-45250000D03*
%TD*%
%TO.P,100nf,1*%
%TO.N,SUS*%
X140250000Y-50500000D03*
%TO.P,100nf,2*%
%TO.N,GND*%
X140250000Y-45500000D03*
%TD*%
%TO.P,100nf,1*%
%TO.N,ATK*%
X94000000Y-50500000D03*
%TO.P,100nf,2*%
%TO.N,GND*%
X94000000Y-45500000D03*
%TD*%
%TO.P,R1,1*%
%TO.N,ATK*%
X90000000Y-50500000D03*
D12*
%TO.P,R1,2*%
%TO.N,APOT*%
X90000000Y-42000000D03*
%TD*%
D11*
%TO.P,R6,1*%
%TO.N,LVL*%
X110250000Y-65000000D03*
D12*
%TO.P,R6,2*%
%TO.N,LPOT*%
X101750000Y-65000000D03*
%TD*%
D14*
%TO.P,B100K,*%
%TO.N,GND*%
X108200000Y-32000000D03*
X117800000Y-32000000D03*
D15*
%TO.P,B100K,1*%
X110500000Y-39500000D03*
D16*
%TO.P,B100K,2*%
%TO.N,DPOT*%
X113000000Y-39500000D03*
%TO.P,B100K,3*%
%TO.N,5V*%
X115500000Y-39500000D03*
%TD*%
D14*
%TO.P,B100K,*%
%TO.N,GND*%
X85200000Y-32000000D03*
X94800000Y-32000000D03*
D15*
%TO.P,B100K,1*%
X87500000Y-39500000D03*
D16*
%TO.P,B100K,2*%
%TO.N,APOT*%
X90000000Y-39500000D03*
%TO.P,B100K,3*%
%TO.N,5V*%
X92500000Y-39500000D03*
%TD*%
D11*
%TO.P,R3,1*%
%TO.N,SUS*%
X137000000Y-50500000D03*
D12*
%TO.P,R3,2*%
%TO.N,SPOT*%
X137000000Y-42000000D03*
%TD*%
D11*
%TO.P,100nf,1*%
%TO.N,DEC*%
X109500000Y-50500000D03*
%TO.P,100nf,2*%
%TO.N,GND*%
X109500000Y-45500000D03*
%TD*%
D13*
%TO.P,REF\u002A\u002A,1*%
%TO.N,GND*%
X83000000Y-77000000D03*
%TD*%
D17*
%TO.P,NOT POWER,1*%
%TO.N,GND*%
X120460000Y-72000000D03*
D18*
%TO.P,NOT POWER,2*%
%TO.N,ATK*%
X120460000Y-74540000D03*
%TO.P,NOT POWER,3*%
%TO.N,MODE*%
X123000000Y-72000000D03*
%TO.P,NOT POWER,4*%
%TO.N,LVL*%
X123000000Y-74540000D03*
%TO.P,NOT POWER,5*%
%TO.N,TIME*%
X125540000Y-72000000D03*
%TO.P,NOT POWER,6*%
%TO.N,DEC*%
X125540000Y-74540000D03*
%TO.P,NOT POWER,7*%
%TO.N,GND*%
X128080000Y-72000000D03*
%TO.P,NOT POWER,8*%
%TO.N,SUS*%
X128080000Y-74540000D03*
%TO.P,NOT POWER,9*%
%TO.N,5V*%
X130620000Y-72000000D03*
%TO.P,NOT POWER,10*%
%TO.N,REL*%
X130620000Y-74540000D03*
%TD*%
D19*
%TO.N,LVL*%
X121540000Y-76000000D02*
X123000000Y-74540000D01*
X110250000Y-65000000D02*
X110250000Y-67250000D01*
X110250000Y-67250000D02*
X119000000Y-76000000D01*
X119000000Y-76000000D02*
X121540000Y-76000000D01*
X110250000Y-65000000D02*
X110250000Y-62500000D01*
X110250000Y-62500000D02*
X109500000Y-61750000D01*
D20*
%TO.N,DEC*%
X121800000Y-72700000D02*
X121800000Y-59300000D01*
X124300000Y-73300000D02*
X122400000Y-73300000D01*
X122400000Y-73300000D02*
X121800000Y-72700000D01*
D21*
X109500000Y-50500000D02*
X113000000Y-50500000D01*
D20*
X121800000Y-59300000D02*
X113000000Y-50500000D01*
X125540000Y-74540000D02*
X124300000Y-73300000D01*
%TO.N,SUS*%
X136750000Y-50500000D02*
X137000000Y-50500000D01*
X129400000Y-57850000D02*
X136750000Y-50500000D01*
X129400000Y-73220000D02*
X129400000Y-57850000D01*
X128080000Y-74540000D02*
X129400000Y-73220000D01*
D21*
X140250000Y-50500000D02*
X137000000Y-50500000D01*
%TO.N,REL*%
X155580000Y-50500000D02*
X160000000Y-50500000D01*
X131540000Y-74540000D02*
X155580000Y-50500000D01*
X130620000Y-74540000D02*
X131540000Y-74540000D01*
X163250000Y-50500000D02*
X163500000Y-50250000D01*
X160000000Y-50500000D02*
X163250000Y-50500000D01*
D20*
%TO.N,MODE*%
X125000000Y-55000000D02*
X123000000Y-57000000D01*
D21*
X118000000Y-51000000D02*
X121000000Y-51000000D01*
X121000000Y-51000000D02*
X125000000Y-55000000D01*
D20*
X123000000Y-57000000D02*
X123000000Y-72000000D01*
D21*
%TO.N,TIME*%
X125540000Y-72000000D02*
X125540000Y-70670000D01*
X127750000Y-68460000D02*
X127750000Y-66000000D01*
X125540000Y-70670000D02*
X127750000Y-68460000D01*
X125000000Y-66000000D02*
X127750000Y-66000000D01*
%TO.N,5V*%
X160900000Y-37000000D02*
X161000000Y-37000000D01*
X161000000Y-37000000D02*
X162500000Y-38500000D01*
X107500000Y-79500000D02*
X142500000Y-79500000D01*
X107500000Y-54500000D02*
X92500000Y-39500000D01*
X115500000Y-37000000D02*
X139500000Y-37000000D01*
X95000000Y-37000000D02*
X115500000Y-37000000D01*
X115500000Y-37000000D02*
X115500000Y-39500000D01*
X142000000Y-37000000D02*
X139500000Y-39500000D01*
X107500000Y-79500000D02*
X107500000Y-54500000D01*
X162500000Y-38500000D02*
X162500000Y-39500000D01*
X160900000Y-37000000D02*
X142000000Y-37000000D01*
X139500000Y-37000000D02*
X160900000Y-37000000D01*
X92500000Y-39500000D02*
X95000000Y-37000000D01*
%TO.N,APOT*%
X90000000Y-42000000D02*
X90000000Y-39500000D01*
%TO.N,DPOT*%
X113000000Y-42000000D02*
X113000000Y-39500000D01*
%TO.N,SPOT*%
X137000000Y-42000000D02*
X137000000Y-39500000D01*
%TO.N,RPOT*%
X160000000Y-42000000D02*
X160000000Y-39500000D01*
D19*
%TO.N,LPOT*%
X105000000Y-68250000D02*
X105000000Y-79500000D01*
X101750000Y-65000000D02*
X105000000Y-68250000D01*
%TD*%
%TA.AperFunction,Conductor*%
%TO.N,GND*%
G36*
X127620507Y-72209844D02*
G01*
X127698239Y-72330798D01*
X127806900Y-72424952D01*
X127937685Y-72484680D01*
X127947464Y-72486086D01*
X127318625Y-73114925D01*
X127394594Y-73168119D01*
X127438219Y-73222696D01*
X127445413Y-73292194D01*
X127413890Y-73354549D01*
X127394595Y-73371269D01*
X127353819Y-73399821D01*
X127219555Y-73493834D01*
X127208595Y-73501508D01*
X127041505Y-73668598D01*
X126911575Y-73854159D01*
X126856998Y-73897784D01*
X126787500Y-73904978D01*
X126725145Y-73873455D01*
X126708425Y-73854159D01*
X126650631Y-73771621D01*
X126578495Y-73668599D01*
X126411401Y-73501505D01*
X126225839Y-73371573D01*
X126182216Y-73316998D01*
X126175022Y-73247500D01*
X126206545Y-73185145D01*
X126225837Y-73168428D01*
X126411401Y-73038495D01*
X126578495Y-72871401D01*
X126708732Y-72685403D01*
X126763307Y-72641780D01*
X126832805Y-72634586D01*
X126895160Y-72666109D01*
X126911880Y-72685405D01*
X126965073Y-72761373D01*
X127596923Y-72129523D01*
X127620507Y-72209844D01*
G37*
%TD.AperFunction*%
%TA.AperFunction,Conductor*%
G36*
X128741726Y-69051072D02*
G01*
X128772650Y-69113726D01*
X128774499Y-69135058D01*
X128774500Y-70639649D01*
X128754815Y-70706688D01*
X128702012Y-70752443D01*
X128632853Y-70762387D01*
X128598095Y-70752031D01*
X128543493Y-70726569D01*
X128315318Y-70665430D01*
X128080000Y-70644842D01*
X127844681Y-70665430D01*
X127616507Y-70726569D01*
X127402422Y-70826399D01*
X127318625Y-70885072D01*
X127947466Y-71513913D01*
X127937685Y-71515320D01*
X127806900Y-71575048D01*
X127698239Y-71669202D01*
X127620507Y-71790156D01*
X127596923Y-71870475D01*
X126965073Y-71238626D01*
X126911881Y-71314594D01*
X126857304Y-71358219D01*
X126787806Y-71365413D01*
X126725451Y-71333891D01*
X126708730Y-71314595D01*
X126604329Y-71165494D01*
X126582004Y-71099293D01*
X126599014Y-71031525D01*
X126618221Y-71006698D01*
X128447390Y-69177528D01*
X128449560Y-69175412D01*
X128513053Y-69115059D01*
X128546759Y-69066630D01*
X128552406Y-69059139D01*
X128554387Y-69056710D01*
X128612000Y-69017186D01*
X128681838Y-69015084D01*
X128741726Y-69051072D01*
G37*
%TD.AperFunction*%
%TA.AperFunction,Conductor*%
G36*
X171942539Y-23020185D02*
G01*
X171988294Y-23072989D01*
X171999500Y-23124500D01*
X171999500Y-81875500D01*
X171979815Y-81942539D01*
X171927011Y-81988294D01*
X171875500Y-81999500D01*
X79124500Y-81999500D01*
X79057461Y-81979815D01*
X79011706Y-81927011D01*
X79000500Y-81875500D01*
X79000500Y-77003894D01*
X80495302Y-77003894D01*
X80514564Y-77310059D01*
X80515538Y-77317779D01*
X80573023Y-77619124D01*
X80574959Y-77626663D01*
X80669759Y-77918426D01*
X80672622Y-77925657D01*
X80803243Y-78203240D01*
X80806987Y-78210051D01*
X80971368Y-78469075D01*
X80975949Y-78475380D01*
X81064286Y-78582160D01*
X81702266Y-77944180D01*
X81865130Y-78134870D01*
X82055818Y-78297732D01*
X81414971Y-78938579D01*
X81414972Y-78938580D01*
X81654620Y-79112694D01*
X81661210Y-79116876D01*
X81930032Y-79264662D01*
X81937071Y-79267975D01*
X82222307Y-79380907D01*
X82229702Y-79383310D01*
X82526837Y-79459602D01*
X82534495Y-79461063D01*
X82838846Y-79499511D01*
X82846608Y-79500000D01*
X83153392Y-79500000D01*
X83161153Y-79499511D01*
X83465504Y-79461063D01*
X83473162Y-79459602D01*
X83770297Y-79383310D01*
X83777692Y-79380907D01*
X84062928Y-79267975D01*
X84069967Y-79264662D01*
X84338798Y-79116872D01*
X84345368Y-79112702D01*
X84585026Y-78938579D01*
X84585027Y-78938579D01*
X83944180Y-78297733D01*
X84134870Y-78134870D01*
X84297733Y-77944180D01*
X84935712Y-78582160D01*
X85024054Y-78475374D01*
X85028630Y-78469076D01*
X85193012Y-78210051D01*
X85196756Y-78203240D01*
X85327377Y-77925657D01*
X85330240Y-77918426D01*
X85425040Y-77626663D01*
X85426976Y-77619124D01*
X85484461Y-77317779D01*
X85485435Y-77310059D01*
X85504698Y-77003894D01*
X85504698Y-76996105D01*
X85485435Y-76689940D01*
X85484461Y-76682220D01*
X85426976Y-76380875D01*
X85425040Y-76373336D01*
X85330240Y-76081573D01*
X85327377Y-76074342D01*
X85196756Y-75796759D01*
X85193012Y-75789948D01*
X85028631Y-75530924D01*
X85024050Y-75524619D01*
X84935712Y-75417838D01*
X84297732Y-76055818D01*
X84134870Y-75865130D01*
X83944180Y-75702266D01*
X84585027Y-75061419D01*
X84585026Y-75061418D01*
X84345379Y-74887305D01*
X84338789Y-74883123D01*
X84069967Y-74735337D01*
X84062928Y-74732024D01*
X83777692Y-74619092D01*
X83770297Y-74616689D01*
X83473162Y-74540397D01*
X83465504Y-74538936D01*
X83161153Y-74500488D01*
X83153392Y-74500000D01*
X82846608Y-74500000D01*
X82838846Y-74500488D01*
X82534495Y-74538936D01*
X82526837Y-74540397D01*
X82229702Y-74616689D01*
X82222307Y-74619092D01*
X81937071Y-74732024D01*
X81930032Y-74735337D01*
X81661210Y-74883123D01*
X81654631Y-74887298D01*
X81414971Y-75061419D01*
X82055819Y-75702266D01*
X81865130Y-75865130D01*
X81702266Y-76055818D01*
X81064286Y-75417838D01*
X81064285Y-75417838D01*
X80975940Y-75524631D01*
X80971373Y-75530917D01*
X80806987Y-75789948D01*
X80803243Y-75796759D01*
X80672622Y-76074342D01*
X80669759Y-76081573D01*
X80574959Y-76373336D01*
X80573023Y-76380875D01*
X80515538Y-76682220D01*
X80514564Y-76689940D01*
X80495302Y-76996105D01*
X80495302Y-77003894D01*
X79000500Y-77003894D01*
X79000500Y-72325712D01*
X98340000Y-72325712D01*
X98340165Y-72330234D01*
X98354898Y-72531543D01*
X98414098Y-72797295D01*
X98511362Y-73051601D01*
X98644615Y-73289032D01*
X98811018Y-73504534D01*
X99007022Y-73693505D01*
X99228463Y-73851933D01*
X99470593Y-73976420D01*
X99728291Y-74064334D01*
X99949999Y-74105285D01*
X99950000Y-74105285D01*
X99950000Y-72844852D01*
X100087047Y-72893559D01*
X100237886Y-72903877D01*
X100385915Y-72873116D01*
X100450000Y-72839909D01*
X100450000Y-74103716D01*
X100450001Y-74103717D01*
X100538748Y-74093952D01*
X100802162Y-74025088D01*
X101052742Y-73918602D01*
X101285154Y-73776763D01*
X101494428Y-73602603D01*
X101676122Y-73399821D01*
X101826351Y-73172748D01*
X101941915Y-72926231D01*
X102020356Y-72665501D01*
X102060000Y-72396130D01*
X102060000Y-72250000D01*
X100750000Y-72250000D01*
X100750000Y-71750000D01*
X102060000Y-71750000D01*
X102060000Y-71674287D01*
X102059834Y-71669765D01*
X102045101Y-71468456D01*
X101985901Y-71202704D01*
X101888637Y-70948398D01*
X101755384Y-70710967D01*
X101588981Y-70495465D01*
X101392977Y-70306494D01*
X101171536Y-70148066D01*
X100929406Y-70023579D01*
X100671709Y-69935665D01*
X100450000Y-69894713D01*
X100450000Y-71155147D01*
X100312953Y-71106441D01*
X100162114Y-71096123D01*
X100014085Y-71126884D01*
X99950000Y-71160090D01*
X99950000Y-69896281D01*
X99861250Y-69906048D01*
X99597837Y-69974911D01*
X99347257Y-70081397D01*
X99114845Y-70223236D01*
X98905571Y-70397396D01*
X98723877Y-70600178D01*
X98573648Y-70827251D01*
X98458084Y-71073768D01*
X98379643Y-71334498D01*
X98340000Y-71603869D01*
X98340000Y-71750000D01*
X99650000Y-71750000D01*
X99650000Y-72250000D01*
X98340000Y-72250000D01*
X98340000Y-72325712D01*
X79000500Y-72325712D01*
X79000500Y-61749999D01*
X103195033Y-61749999D01*
X103214858Y-61976602D01*
X103273733Y-62196326D01*
X103369866Y-62402484D01*
X103420972Y-62475471D01*
X103420974Y-62475472D01*
X104102046Y-61794399D01*
X104114835Y-61875148D01*
X104172359Y-61988045D01*
X104261955Y-62077641D01*
X104374852Y-62135165D01*
X104455599Y-62147953D01*
X103774526Y-62829025D01*
X103774526Y-62829026D01*
X103847515Y-62880133D01*
X104053673Y-62976266D01*
X104273397Y-63035141D01*
X104500000Y-63054966D01*
X104726602Y-63035141D01*
X104946326Y-62976266D01*
X105152480Y-62880134D01*
X105225472Y-62829025D01*
X104544401Y-62147953D01*
X104625148Y-62135165D01*
X104738045Y-62077641D01*
X104827641Y-61988045D01*
X104885165Y-61875148D01*
X104897953Y-61794400D01*
X105579025Y-62475472D01*
X105630134Y-62402480D01*
X105726266Y-62196326D01*
X105785141Y-61976602D01*
X105804966Y-61749999D01*
X105785141Y-61523397D01*
X105726266Y-61303673D01*
X105630133Y-61097515D01*
X105579025Y-61024526D01*
X104897953Y-61705598D01*
X104885165Y-61624852D01*
X104827641Y-61511955D01*
X104738045Y-61422359D01*
X104625148Y-61364835D01*
X104544400Y-61352046D01*
X105225472Y-60670974D01*
X105225471Y-60670972D01*
X105152484Y-60619866D01*
X104946326Y-60523733D01*
X104726602Y-60464858D01*
X104500000Y-60445033D01*
X104273397Y-60464858D01*
X104053672Y-60523733D01*
X103847516Y-60619865D01*
X103774527Y-60670973D01*
X103774526Y-60670973D01*
X104455600Y-61352046D01*
X104374852Y-61364835D01*
X104261955Y-61422359D01*
X104172359Y-61511955D01*
X104114835Y-61624852D01*
X104102046Y-61705599D01*
X103420973Y-61024526D01*
X103420973Y-61024527D01*
X103369865Y-61097516D01*
X103273733Y-61303672D01*
X103214858Y-61523397D01*
X103195033Y-61749999D01*
X79000500Y-61749999D01*
X79000500Y-50499999D01*
X88694531Y-50499999D01*
X88714364Y-50726689D01*
X88773261Y-50946497D01*
X88869432Y-51152735D01*
X88999953Y-51339140D01*
X89160859Y-51500046D01*
X89347264Y-51630567D01*
X89347265Y-51630567D01*
X89347266Y-51630568D01*
X89553504Y-51726739D01*
X89773308Y-51785635D01*
X90000000Y-51805468D01*
X90226692Y-51785635D01*
X90446496Y-51726739D01*
X90652734Y-51630568D01*
X90839139Y-51500047D01*
X91000047Y-51339139D01*
X91130568Y-51152734D01*
X91226739Y-50946496D01*
X91285635Y-50726692D01*
X91305468Y-50500000D01*
X91305468Y-50499999D01*
X92694531Y-50499999D01*
X92714364Y-50726689D01*
X92773261Y-50946497D01*
X92869432Y-51152735D01*
X92999953Y-51339140D01*
X93160859Y-51500046D01*
X93347264Y-51630567D01*
X93347265Y-51630567D01*
X93347266Y-51630568D01*
X93553504Y-51726739D01*
X93773308Y-51785635D01*
X94000000Y-51805468D01*
X94226692Y-51785635D01*
X94446496Y-51726739D01*
X94652734Y-51630568D01*
X94839139Y-51500047D01*
X95000047Y-51339139D01*
X95130568Y-51152734D01*
X95226739Y-50946496D01*
X95285635Y-50726692D01*
X95305468Y-50500000D01*
X95285635Y-50273308D01*
X95226739Y-50053504D01*
X95130568Y-49847266D01*
X95127560Y-49842969D01*
X95000046Y-49660859D01*
X94839140Y-49499953D01*
X94652735Y-49369432D01*
X94446497Y-49273261D01*
X94226689Y-49214364D01*
X94000000Y-49194531D01*
X93773310Y-49214364D01*
X93553502Y-49273261D01*
X93347264Y-49369432D01*
X93160859Y-49499953D01*
X92999953Y-49660859D01*
X92869432Y-49847264D01*
X92773261Y-50053502D01*
X92714364Y-50273310D01*
X92694531Y-50499999D01*
X91305468Y-50499999D01*
X91285635Y-50273308D01*
X91226739Y-50053504D01*
X91130568Y-49847266D01*
X91127560Y-49842969D01*
X91000046Y-49660859D01*
X90839140Y-49499953D01*
X90652735Y-49369432D01*
X90446497Y-49273261D01*
X90226689Y-49214364D01*
X90000000Y-49194531D01*
X89773310Y-49214364D01*
X89553502Y-49273261D01*
X89347264Y-49369432D01*
X89160859Y-49499953D01*
X88999953Y-49660859D01*
X88869432Y-49847264D01*
X88773261Y-50053502D01*
X88714364Y-50273310D01*
X88694531Y-50499999D01*
X79000500Y-50499999D01*
X79000500Y-45500000D01*
X92695033Y-45500000D01*
X92714858Y-45726602D01*
X92773733Y-45946326D01*
X92869866Y-46152484D01*
X92920972Y-46225471D01*
X92920973Y-46225472D01*
X93602045Y-45544399D01*
X93614835Y-45625148D01*
X93672359Y-45738045D01*
X93761955Y-45827641D01*
X93874852Y-45885165D01*
X93955599Y-45897953D01*
X93274526Y-46579025D01*
X93274526Y-46579026D01*
X93347515Y-46630133D01*
X93553673Y-46726266D01*
X93773397Y-46785141D01*
X94000000Y-46804966D01*
X94226602Y-46785141D01*
X94446326Y-46726266D01*
X94652480Y-46630134D01*
X94725472Y-46579025D01*
X94044401Y-45897953D01*
X94125148Y-45885165D01*
X94238045Y-45827641D01*
X94327641Y-45738045D01*
X94385165Y-45625148D01*
X94397953Y-45544400D01*
X95079025Y-46225472D01*
X95130134Y-46152480D01*
X95226266Y-45946326D01*
X95285141Y-45726602D01*
X95304966Y-45500000D01*
X95285141Y-45273397D01*
X95226266Y-45053673D01*
X95130133Y-44847515D01*
X95079025Y-44774526D01*
X94397953Y-45455598D01*
X94385165Y-45374852D01*
X94327641Y-45261955D01*
X94238045Y-45172359D01*
X94125148Y-45114835D01*
X94044400Y-45102046D01*
X94725472Y-44420974D01*
X94725471Y-44420972D01*
X94652484Y-44369866D01*
X94446326Y-44273733D01*
X94226602Y-44214858D01*
X94000000Y-44195033D01*
X93773397Y-44214858D01*
X93553672Y-44273733D01*
X93347516Y-44369865D01*
X93274527Y-44420973D01*
X93274526Y-44420973D01*
X93955600Y-45102046D01*
X93874852Y-45114835D01*
X93761955Y-45172359D01*
X93672359Y-45261955D01*
X93614835Y-45374852D01*
X93602046Y-45455598D01*
X92920973Y-44774527D01*
X92869865Y-44847516D01*
X92773733Y-45053672D01*
X92714858Y-45273397D01*
X92695033Y-45500000D01*
X79000500Y-45500000D01*
X79000500Y-40444518D01*
X86100000Y-40444518D01*
X86100354Y-40451132D01*
X86106400Y-40507371D01*
X86156647Y-40642089D01*
X86242811Y-40757188D01*
X86357910Y-40843352D01*
X86492628Y-40893599D01*
X86548867Y-40899645D01*
X86555482Y-40900000D01*
X87250000Y-40900000D01*
X87250000Y-39935501D01*
X87357685Y-39984680D01*
X87464237Y-40000000D01*
X87535763Y-40000000D01*
X87642315Y-39984680D01*
X87750000Y-39935501D01*
X87750000Y-40900000D01*
X88444518Y-40900000D01*
X88451132Y-40899645D01*
X88507371Y-40893599D01*
X88642089Y-40843352D01*
X88757190Y-40757187D01*
X88776233Y-40731750D01*
X88832166Y-40689878D01*
X88901858Y-40684894D01*
X88963181Y-40718379D01*
X88996666Y-40779702D01*
X88999500Y-40806060D01*
X88999500Y-41122410D01*
X88979815Y-41189449D01*
X88977075Y-41193533D01*
X88869432Y-41347264D01*
X88773261Y-41553502D01*
X88714364Y-41773310D01*
X88694531Y-42000000D01*
X88714364Y-42226689D01*
X88773261Y-42446497D01*
X88869432Y-42652735D01*
X88999953Y-42839140D01*
X89160859Y-43000046D01*
X89347264Y-43130567D01*
X89347265Y-43130567D01*
X89347266Y-43130568D01*
X89553504Y-43226739D01*
X89773308Y-43285635D01*
X90000000Y-43305468D01*
X90226692Y-43285635D01*
X90446496Y-43226739D01*
X90652734Y-43130568D01*
X90839139Y-43000047D01*
X91000047Y-42839139D01*
X91130568Y-42652734D01*
X91226739Y-42446496D01*
X91285635Y-42226692D01*
X91305468Y-42000000D01*
X91285635Y-41773308D01*
X91226739Y-41553504D01*
X91130568Y-41347266D01*
X91022925Y-41193533D01*
X91000597Y-41127326D01*
X91000500Y-41122410D01*
X91000500Y-40529378D01*
X91020185Y-40462339D01*
X91033270Y-40445395D01*
X91034077Y-40444518D01*
X91108979Y-40363153D01*
X91146192Y-40306194D01*
X91199337Y-40260838D01*
X91268568Y-40251414D01*
X91331904Y-40280916D01*
X91353807Y-40306192D01*
X91391021Y-40363153D01*
X91548216Y-40533913D01*
X91731374Y-40676470D01*
X91935497Y-40786936D01*
X92045258Y-40824616D01*
X92155015Y-40862297D01*
X92155017Y-40862297D01*
X92155019Y-40862298D01*
X92383951Y-40900500D01*
X92434217Y-40900500D01*
X92501256Y-40920185D01*
X92521898Y-40936819D01*
X106463181Y-54878102D01*
X106496666Y-54939425D01*
X106499500Y-54965783D01*
X106499500Y-78470621D01*
X106479815Y-78537660D01*
X106466730Y-78554603D01*
X106391021Y-78636847D01*
X106391021Y-78636848D01*
X106353809Y-78693805D01*
X106300662Y-78739161D01*
X106231431Y-78748585D01*
X106168095Y-78719083D01*
X106146191Y-78693805D01*
X106108979Y-78636847D01*
X105951784Y-78466087D01*
X105798337Y-78346655D01*
X105757525Y-78289945D01*
X105750500Y-78248802D01*
X105750500Y-68313705D01*
X105751809Y-68295735D01*
X105751961Y-68294691D01*
X105755289Y-68271977D01*
X105750972Y-68222629D01*
X105750500Y-68211823D01*
X105750500Y-68209901D01*
X105750500Y-68206291D01*
X105746903Y-68175520D01*
X105746536Y-68171929D01*
X105739889Y-68095949D01*
X105735672Y-68076930D01*
X105729967Y-68061256D01*
X105709591Y-68005273D01*
X105708408Y-68001868D01*
X105684417Y-67929468D01*
X105675929Y-67911936D01*
X105675237Y-67910884D01*
X105675237Y-67910883D01*
X105633999Y-67848184D01*
X105632087Y-67845181D01*
X105592050Y-67780270D01*
X105579750Y-67765172D01*
X105524290Y-67712848D01*
X105521703Y-67710335D01*
X103076716Y-65265348D01*
X103043231Y-65204025D01*
X103040869Y-65166863D01*
X103055468Y-65000000D01*
X103035635Y-64773308D01*
X102976739Y-64553504D01*
X102880568Y-64347266D01*
X102750047Y-64160861D01*
X102750046Y-64160859D01*
X102589140Y-63999953D01*
X102402735Y-63869432D01*
X102196497Y-63773261D01*
X101976689Y-63714364D01*
X101750000Y-63694531D01*
X101523310Y-63714364D01*
X101303502Y-63773261D01*
X101097264Y-63869432D01*
X100910859Y-63999953D01*
X100749953Y-64160859D01*
X100619432Y-64347264D01*
X100523261Y-64553502D01*
X100464364Y-64773310D01*
X100444531Y-65000000D01*
X100464364Y-65226689D01*
X100523261Y-65446497D01*
X100619432Y-65652735D01*
X100749953Y-65839140D01*
X100910859Y-66000046D01*
X101097264Y-66130567D01*
X101097265Y-66130567D01*
X101097266Y-66130568D01*
X101303504Y-66226739D01*
X101523308Y-66285635D01*
X101674436Y-66298856D01*
X101749999Y-66305468D01*
X101749999Y-66305467D01*
X101750000Y-66305468D01*
X101916861Y-66290869D01*
X101985359Y-66304635D01*
X102015348Y-66326716D01*
X104213181Y-68524549D01*
X104246666Y-68585872D01*
X104249500Y-68612230D01*
X104249500Y-78248802D01*
X104229815Y-78315841D01*
X104201663Y-78346654D01*
X104187201Y-78357911D01*
X104054023Y-78461567D01*
X103989029Y-78487209D01*
X103920489Y-78473642D01*
X103870164Y-78425174D01*
X103861679Y-78407046D01*
X103843352Y-78357911D01*
X103757188Y-78242811D01*
X103642089Y-78156647D01*
X103507371Y-78106400D01*
X103451132Y-78100354D01*
X103444518Y-78100000D01*
X102750000Y-78100000D01*
X102750000Y-79064498D01*
X102642315Y-79015320D01*
X102535763Y-79000000D01*
X102464237Y-79000000D01*
X102357685Y-79015320D01*
X102250000Y-79064498D01*
X102250000Y-78100000D01*
X101555482Y-78100000D01*
X101548867Y-78100354D01*
X101492628Y-78106400D01*
X101357910Y-78156647D01*
X101242811Y-78242811D01*
X101156647Y-78357910D01*
X101106400Y-78492628D01*
X101100354Y-78548867D01*
X101100000Y-78555481D01*
X101100000Y-79250000D01*
X102066314Y-79250000D01*
X102040507Y-79290156D01*
X102000000Y-79428111D01*
X102000000Y-79571889D01*
X102040507Y-79709844D01*
X102066314Y-79750000D01*
X101100000Y-79750000D01*
X101100000Y-80444518D01*
X101100354Y-80451132D01*
X101106400Y-80507371D01*
X101156647Y-80642089D01*
X101242811Y-80757188D01*
X101357910Y-80843352D01*
X101492628Y-80893599D01*
X101548867Y-80899645D01*
X101555482Y-80900000D01*
X102250000Y-80900000D01*
X102250000Y-79935501D01*
X102357685Y-79984680D01*
X102464237Y-80000000D01*
X102535763Y-80000000D01*
X102642315Y-79984680D01*
X102750000Y-79935501D01*
X102750000Y-80900000D01*
X103444518Y-80900000D01*
X103451132Y-80899645D01*
X103507371Y-80893599D01*
X103642089Y-80843352D01*
X103757188Y-80757188D01*
X103843352Y-80642088D01*
X103861679Y-80592953D01*
X103903550Y-80537019D01*
X103969014Y-80512602D01*
X104037287Y-80527453D01*
X104054016Y-80538427D01*
X104231374Y-80676470D01*
X104435497Y-80786936D01*
X104545258Y-80824616D01*
X104655015Y-80862297D01*
X104655017Y-80862297D01*
X104655019Y-80862298D01*
X104883951Y-80900500D01*
X104883952Y-80900500D01*
X105116048Y-80900500D01*
X105116049Y-80900500D01*
X105344981Y-80862298D01*
X105564503Y-80786936D01*
X105768626Y-80676470D01*
X105951784Y-80533913D01*
X106108979Y-80363153D01*
X106146192Y-80306194D01*
X106199337Y-80260838D01*
X106268568Y-80251414D01*
X106331904Y-80280916D01*
X106353807Y-80306192D01*
X106391021Y-80363153D01*
X106548216Y-80533913D01*
X106731374Y-80676470D01*
X106935497Y-80786936D01*
X107045257Y-80824616D01*
X107155015Y-80862297D01*
X107155017Y-80862297D01*
X107155019Y-80862298D01*
X107383951Y-80900500D01*
X107383952Y-80900500D01*
X107616048Y-80900500D01*
X107616049Y-80900500D01*
X107844981Y-80862298D01*
X108064503Y-80786936D01*
X108268626Y-80676470D01*
X108407429Y-80568435D01*
X108459893Y-80527602D01*
X108462220Y-80530592D01*
X108505588Y-80504528D01*
X108536935Y-80500500D01*
X141017210Y-80500500D01*
X141084249Y-80520185D01*
X141130004Y-80572989D01*
X141133385Y-80581150D01*
X141156204Y-80642331D01*
X141242454Y-80757546D01*
X141357669Y-80843796D01*
X141492517Y-80894091D01*
X141552127Y-80900500D01*
X143447872Y-80900499D01*
X143507483Y-80894091D01*
X143642331Y-80843796D01*
X143757546Y-80757546D01*
X143843796Y-80642331D01*
X143862093Y-80593273D01*
X143903963Y-80537341D01*
X143969427Y-80512924D01*
X144037700Y-80527775D01*
X144054434Y-80538752D01*
X144231374Y-80676470D01*
X144435497Y-80786936D01*
X144545258Y-80824617D01*
X144655015Y-80862297D01*
X144655017Y-80862297D01*
X144655019Y-80862298D01*
X144883951Y-80900500D01*
X144883952Y-80900500D01*
X145116048Y-80900500D01*
X145116049Y-80900500D01*
X145344981Y-80862298D01*
X145564503Y-80786936D01*
X145768626Y-80676470D01*
X145951784Y-80533913D01*
X146108979Y-80363153D01*
X146146489Y-80305738D01*
X146199635Y-80260382D01*
X146268866Y-80250958D01*
X146332202Y-80280460D01*
X146346914Y-80297437D01*
X146348811Y-80297634D01*
X147016922Y-79629522D01*
X147040507Y-79709844D01*
X147118239Y-79830798D01*
X147226900Y-79924952D01*
X147357685Y-79984680D01*
X147367466Y-79986086D01*
X146701199Y-80652351D01*
X146731650Y-80676051D01*
X146935700Y-80786477D01*
X147155140Y-80861811D01*
X147383993Y-80900000D01*
X147616007Y-80900000D01*
X147844859Y-80861811D01*
X148064296Y-80786478D01*
X148268353Y-80676048D01*
X148298798Y-80652351D01*
X147632533Y-79986086D01*
X147642315Y-79984680D01*
X147773100Y-79924952D01*
X147881761Y-79830798D01*
X147959493Y-79709844D01*
X147983077Y-79629523D01*
X148651186Y-80297634D01*
X148735483Y-80168607D01*
X148828680Y-79956138D01*
X148885638Y-79731217D01*
X148904798Y-79500000D01*
X148885638Y-79268782D01*
X148828680Y-79043860D01*
X148735484Y-78831392D01*
X148651186Y-78702364D01*
X147983076Y-79370473D01*
X147959493Y-79290156D01*
X147881761Y-79169202D01*
X147773100Y-79075048D01*
X147642315Y-79015320D01*
X147632532Y-79013913D01*
X148298799Y-78347647D01*
X148268349Y-78323948D01*
X148064299Y-78213522D01*
X147844859Y-78138188D01*
X147616007Y-78100000D01*
X147383993Y-78100000D01*
X147155140Y-78138188D01*
X146935703Y-78213521D01*
X146731645Y-78323952D01*
X146701200Y-78347646D01*
X146701200Y-78347647D01*
X147367467Y-79013913D01*
X147357685Y-79015320D01*
X147226900Y-79075048D01*
X147118239Y-79169202D01*
X147040507Y-79290156D01*
X147016923Y-79370474D01*
X146348811Y-78702364D01*
X146344029Y-78702860D01*
X146300957Y-78739618D01*
X146231726Y-78749040D01*
X146168391Y-78719538D01*
X146146491Y-78694263D01*
X146108979Y-78636847D01*
X145951784Y-78466087D01*
X145768626Y-78323530D01*
X145564503Y-78213064D01*
X145564499Y-78213062D01*
X145564498Y-78213062D01*
X145344984Y-78137702D01*
X145154456Y-78105909D01*
X145116049Y-78099500D01*
X144883951Y-78099500D01*
X144845544Y-78105909D01*
X144655015Y-78137702D01*
X144435501Y-78213062D01*
X144435497Y-78213063D01*
X144435497Y-78213064D01*
X144369459Y-78248802D01*
X144231372Y-78323531D01*
X144054436Y-78461245D01*
X143989441Y-78486887D01*
X143920902Y-78473320D01*
X143870577Y-78424851D01*
X143862092Y-78406724D01*
X143843796Y-78357669D01*
X143757546Y-78242454D01*
X143642331Y-78156204D01*
X143507483Y-78105909D01*
X143455816Y-78100354D01*
X143451166Y-78099854D01*
X143451165Y-78099853D01*
X143447873Y-78099500D01*
X143444550Y-78099500D01*
X141555439Y-78099500D01*
X141555420Y-78099500D01*
X141552128Y-78099501D01*
X141548848Y-78099853D01*
X141548840Y-78099854D01*
X141492515Y-78105909D01*
X141414868Y-78134870D01*
X141357669Y-78156204D01*
X141242454Y-78242454D01*
X141156204Y-78357669D01*
X141133390Y-78418834D01*
X141091521Y-78474767D01*
X141026057Y-78499184D01*
X141017210Y-78499500D01*
X108624500Y-78499500D01*
X108557461Y-78479815D01*
X108511706Y-78427011D01*
X108500500Y-78375500D01*
X108500500Y-77003894D01*
X165495302Y-77003894D01*
X165514564Y-77310059D01*
X165515538Y-77317779D01*
X165573023Y-77619124D01*
X165574959Y-77626663D01*
X165669759Y-77918426D01*
X165672622Y-77925657D01*
X165803243Y-78203240D01*
X165806987Y-78210051D01*
X165971368Y-78469075D01*
X165975949Y-78475380D01*
X166064286Y-78582160D01*
X166702266Y-77944180D01*
X166865130Y-78134870D01*
X167055818Y-78297732D01*
X166414971Y-78938579D01*
X166414972Y-78938580D01*
X166654620Y-79112694D01*
X166661210Y-79116876D01*
X166930032Y-79264662D01*
X166937071Y-79267975D01*
X167222307Y-79380907D01*
X167229702Y-79383310D01*
X167526837Y-79459602D01*
X167534495Y-79461063D01*
X167838846Y-79499511D01*
X167846608Y-79500000D01*
X168153392Y-79500000D01*
X168161153Y-79499511D01*
X168465504Y-79461063D01*
X168473162Y-79459602D01*
X168770297Y-79383310D01*
X168777692Y-79380907D01*
X169062928Y-79267975D01*
X169069967Y-79264662D01*
X169338798Y-79116872D01*
X169345368Y-79112702D01*
X169585026Y-78938579D01*
X169585027Y-78938579D01*
X168944180Y-78297733D01*
X169134870Y-78134870D01*
X169297733Y-77944180D01*
X169935712Y-78582160D01*
X170024054Y-78475374D01*
X170028630Y-78469076D01*
X170193012Y-78210051D01*
X170196756Y-78203240D01*
X170327377Y-77925657D01*
X170330240Y-77918426D01*
X170425040Y-77626663D01*
X170426976Y-77619124D01*
X170484461Y-77317779D01*
X170485435Y-77310059D01*
X170504698Y-77003894D01*
X170504698Y-76996105D01*
X170485435Y-76689940D01*
X170484461Y-76682220D01*
X170426976Y-76380875D01*
X170425040Y-76373336D01*
X170330240Y-76081573D01*
X170327377Y-76074342D01*
X170196756Y-75796759D01*
X170193012Y-75789948D01*
X170028631Y-75530924D01*
X170024050Y-75524619D01*
X169935712Y-75417838D01*
X169297732Y-76055818D01*
X169134870Y-75865130D01*
X168944179Y-75702265D01*
X169585027Y-75061419D01*
X169585026Y-75061418D01*
X169345379Y-74887305D01*
X169338789Y-74883123D01*
X169069967Y-74735337D01*
X169062928Y-74732024D01*
X168777692Y-74619092D01*
X168770297Y-74616689D01*
X168473162Y-74540397D01*
X168465504Y-74538936D01*
X168161153Y-74500488D01*
X168153392Y-74500000D01*
X167846608Y-74500000D01*
X167838846Y-74500488D01*
X167534495Y-74538936D01*
X167526837Y-74540397D01*
X167229702Y-74616689D01*
X167222307Y-74619092D01*
X166937071Y-74732024D01*
X166930032Y-74735337D01*
X166661210Y-74883123D01*
X166654631Y-74887298D01*
X166414971Y-75061419D01*
X167055819Y-75702266D01*
X166865130Y-75865130D01*
X166702266Y-76055818D01*
X166064286Y-75417838D01*
X166064285Y-75417838D01*
X165975940Y-75524631D01*
X165971373Y-75530917D01*
X165806987Y-75789948D01*
X165803243Y-75796759D01*
X165672622Y-76074342D01*
X165669759Y-76081573D01*
X165574959Y-76373336D01*
X165573023Y-76380875D01*
X165515538Y-76682220D01*
X165514564Y-76689940D01*
X165495302Y-76996105D01*
X165495302Y-77003894D01*
X108500500Y-77003894D01*
X108500500Y-73858476D01*
X108520185Y-73791437D01*
X108572989Y-73745682D01*
X108642147Y-73735738D01*
X108696651Y-73757628D01*
X108828464Y-73851933D01*
X109070593Y-73976420D01*
X109328291Y-74064334D01*
X109549999Y-74105285D01*
X109550000Y-74105285D01*
X109550000Y-72844852D01*
X109687047Y-72893559D01*
X109837886Y-72903877D01*
X109985915Y-72873116D01*
X110050000Y-72839909D01*
X110050000Y-74103716D01*
X110050001Y-74103717D01*
X110138748Y-74093952D01*
X110402162Y-74025088D01*
X110652742Y-73918602D01*
X110885154Y-73776763D01*
X111094428Y-73602603D01*
X111276122Y-73399821D01*
X111426351Y-73172748D01*
X111541915Y-72926231D01*
X111620356Y-72665501D01*
X111660000Y-72396130D01*
X111660000Y-72250000D01*
X110350000Y-72250000D01*
X110350000Y-71750000D01*
X111660000Y-71750000D01*
X111660000Y-71674287D01*
X111659834Y-71669765D01*
X111645101Y-71468456D01*
X111585901Y-71202704D01*
X111488637Y-70948398D01*
X111355384Y-70710967D01*
X111188981Y-70495465D01*
X110992977Y-70306494D01*
X110771536Y-70148066D01*
X110529406Y-70023579D01*
X110271709Y-69935665D01*
X110050000Y-69894713D01*
X110050000Y-71155147D01*
X109912953Y-71106441D01*
X109762114Y-71096123D01*
X109614085Y-71126884D01*
X109550000Y-71160090D01*
X109550000Y-69896281D01*
X109461250Y-69906048D01*
X109197837Y-69974911D01*
X108947257Y-70081397D01*
X108714841Y-70223239D01*
X108703819Y-70232412D01*
X108639698Y-70260165D01*
X108570751Y-70248846D01*
X108518869Y-70202048D01*
X108500500Y-70137100D01*
X108500500Y-62875962D01*
X108520185Y-62808923D01*
X108572989Y-62763168D01*
X108642147Y-62753224D01*
X108695621Y-62774386D01*
X108847266Y-62880568D01*
X109053504Y-62976739D01*
X109273308Y-63035635D01*
X109386307Y-63045521D01*
X109451376Y-63070973D01*
X109492354Y-63127564D01*
X109499500Y-63169049D01*
X109499500Y-63873336D01*
X109479815Y-63940375D01*
X109446626Y-63974909D01*
X109410860Y-63999953D01*
X109249953Y-64160860D01*
X109119432Y-64347264D01*
X109023261Y-64553502D01*
X108964364Y-64773310D01*
X108944531Y-65000000D01*
X108964364Y-65226689D01*
X109023261Y-65446497D01*
X109119432Y-65652735D01*
X109249953Y-65839140D01*
X109410857Y-66000044D01*
X109410860Y-66000046D01*
X109410861Y-66000047D01*
X109446623Y-66025087D01*
X109490247Y-66079661D01*
X109499500Y-66126662D01*
X109499500Y-67186294D01*
X109498191Y-67204264D01*
X109494711Y-67228023D01*
X109499028Y-67277368D01*
X109499500Y-67288175D01*
X109499500Y-67293709D01*
X109499916Y-67297272D01*
X109499917Y-67297282D01*
X109503098Y-67324496D01*
X109503464Y-67328082D01*
X109510109Y-67404041D01*
X109514329Y-67423071D01*
X109514758Y-67424251D01*
X109514759Y-67424255D01*
X109540413Y-67494742D01*
X109541582Y-67498107D01*
X109565580Y-67570524D01*
X109574075Y-67588072D01*
X109615979Y-67651784D01*
X109617889Y-67654782D01*
X109653706Y-67712848D01*
X109657952Y-67719732D01*
X109670253Y-67734830D01*
X109671168Y-67735693D01*
X109671170Y-67735696D01*
X109701493Y-67764304D01*
X109725709Y-67787151D01*
X109728296Y-67789664D01*
X118424267Y-76485634D01*
X118436048Y-76499266D01*
X118450390Y-76518530D01*
X118488339Y-76550373D01*
X118496314Y-76557681D01*
X118500224Y-76561591D01*
X118522026Y-76578830D01*
X118524541Y-76580818D01*
X118527304Y-76583069D01*
X118584786Y-76631302D01*
X118584788Y-76631303D01*
X118585750Y-76632110D01*
X118602180Y-76642578D01*
X118603322Y-76643110D01*
X118603323Y-76643111D01*
X118671350Y-76674832D01*
X118674527Y-76676371D01*
X118740667Y-76709588D01*
X118742702Y-76710610D01*
X118761085Y-76716999D01*
X118762322Y-76717254D01*
X118762328Y-76717257D01*
X118835852Y-76732437D01*
X118839286Y-76733199D01*
X118867510Y-76739889D01*
X118913506Y-76750791D01*
X118932879Y-76752770D01*
X118934141Y-76752733D01*
X118934145Y-76752734D01*
X119006534Y-76750627D01*
X119009132Y-76750552D01*
X119012738Y-76750500D01*
X121476294Y-76750500D01*
X121494264Y-76751809D01*
X121498320Y-76752402D01*
X121518023Y-76755289D01*
X121567368Y-76750972D01*
X121578176Y-76750500D01*
X121580100Y-76750500D01*
X121583709Y-76750500D01*
X121614550Y-76746894D01*
X121618031Y-76746539D01*
X121692797Y-76739999D01*
X121692797Y-76739998D01*
X121694052Y-76739889D01*
X121713062Y-76735674D01*
X121714250Y-76735241D01*
X121714255Y-76735241D01*
X121784820Y-76709557D01*
X121788095Y-76708419D01*
X121859334Y-76684814D01*
X121859336Y-76684812D01*
X121860536Y-76684415D01*
X121878063Y-76675929D01*
X121879112Y-76675238D01*
X121879117Y-76675237D01*
X121941806Y-76634005D01*
X121944798Y-76632099D01*
X122008656Y-76592712D01*
X122008656Y-76592711D01*
X122009729Y-76592050D01*
X122024824Y-76579753D01*
X122025692Y-76578832D01*
X122025696Y-76578830D01*
X122077184Y-76524254D01*
X122079630Y-76521736D01*
X122688499Y-75912867D01*
X122749820Y-75879384D01*
X122786984Y-75877022D01*
X123000000Y-75895659D01*
X123235408Y-75875063D01*
X123463663Y-75813903D01*
X123677830Y-75714035D01*
X123871401Y-75578495D01*
X124038495Y-75411401D01*
X124168427Y-75225838D01*
X124223001Y-75182216D01*
X124292499Y-75175022D01*
X124354854Y-75206545D01*
X124371572Y-75225838D01*
X124501505Y-75411401D01*
X124668599Y-75578495D01*
X124862170Y-75714035D01*
X125076337Y-75813903D01*
X125304592Y-75875063D01*
X125540000Y-75895659D01*
X125775408Y-75875063D01*
X126003663Y-75813903D01*
X126217830Y-75714035D01*
X126411401Y-75578495D01*
X126578495Y-75411401D01*
X126708426Y-75225839D01*
X126763002Y-75182216D01*
X126832500Y-75175022D01*
X126894855Y-75206545D01*
X126911571Y-75225837D01*
X127041505Y-75411401D01*
X127208599Y-75578495D01*
X127402170Y-75714035D01*
X127616337Y-75813903D01*
X127814396Y-75866972D01*
X127844592Y-75875063D01*
X128079999Y-75895659D01*
X128079999Y-75895658D01*
X128080000Y-75895659D01*
X128315408Y-75875063D01*
X128543663Y-75813903D01*
X128757830Y-75714035D01*
X128951401Y-75578495D01*
X129118495Y-75411401D01*
X129248426Y-75225839D01*
X129303002Y-75182216D01*
X129372500Y-75175022D01*
X129434855Y-75206545D01*
X129451571Y-75225837D01*
X129581505Y-75411401D01*
X129748599Y-75578495D01*
X129942170Y-75714035D01*
X130156337Y-75813903D01*
X130354396Y-75866972D01*
X130384592Y-75875063D01*
X130619999Y-75895659D01*
X130619999Y-75895658D01*
X130620000Y-75895659D01*
X130855408Y-75875063D01*
X131083663Y-75813903D01*
X131297830Y-75714035D01*
X131491401Y-75578495D01*
X131491713Y-75578182D01*
X131492323Y-75577849D01*
X131500289Y-75572272D01*
X131500910Y-75573159D01*
X131553032Y-75544695D01*
X131582540Y-75541900D01*
X131603460Y-75542430D01*
X131616363Y-75542757D01*
X131616363Y-75542756D01*
X131616364Y-75542757D01*
X131634782Y-75539455D01*
X131674432Y-75532348D01*
X131683736Y-75531043D01*
X131742438Y-75525074D01*
X131771467Y-75515965D01*
X131786700Y-75512226D01*
X131816653Y-75506858D01*
X131871426Y-75484978D01*
X131880301Y-75481819D01*
X131897675Y-75476367D01*
X131936588Y-75464159D01*
X131963194Y-75449390D01*
X131977362Y-75442662D01*
X132005617Y-75431377D01*
X132054879Y-75398909D01*
X132062910Y-75394043D01*
X132114502Y-75365409D01*
X132137587Y-75345589D01*
X132150114Y-75336144D01*
X132175519Y-75319402D01*
X132217251Y-75277668D01*
X132224123Y-75271300D01*
X132268895Y-75232866D01*
X132287524Y-75208798D01*
X132297883Y-75197036D01*
X135169207Y-72325712D01*
X138340000Y-72325712D01*
X138340165Y-72330234D01*
X138354898Y-72531543D01*
X138414098Y-72797295D01*
X138511362Y-73051601D01*
X138644615Y-73289032D01*
X138811018Y-73504534D01*
X139007022Y-73693505D01*
X139228463Y-73851933D01*
X139470593Y-73976420D01*
X139728291Y-74064334D01*
X139949999Y-74105285D01*
X139950000Y-74105285D01*
X139950000Y-72844852D01*
X140087047Y-72893559D01*
X140237886Y-72903877D01*
X140385915Y-72873116D01*
X140450000Y-72839909D01*
X140450000Y-74103716D01*
X140450001Y-74103717D01*
X140538748Y-74093952D01*
X140802162Y-74025088D01*
X141052742Y-73918602D01*
X141285154Y-73776763D01*
X141494428Y-73602603D01*
X141676122Y-73399821D01*
X141826351Y-73172748D01*
X141941915Y-72926231D01*
X142020356Y-72665501D01*
X142060000Y-72396130D01*
X142060000Y-72325712D01*
X147940000Y-72325712D01*
X147940165Y-72330234D01*
X147954898Y-72531543D01*
X148014098Y-72797295D01*
X148111362Y-73051601D01*
X148244615Y-73289032D01*
X148411018Y-73504534D01*
X148607022Y-73693505D01*
X148828463Y-73851933D01*
X149070593Y-73976420D01*
X149328291Y-74064334D01*
X149549999Y-74105285D01*
X149550000Y-74105285D01*
X149550000Y-72844852D01*
X149687047Y-72893559D01*
X149837886Y-72903877D01*
X149985915Y-72873116D01*
X150050000Y-72839909D01*
X150050000Y-74103716D01*
X150050001Y-74103717D01*
X150138748Y-74093952D01*
X150402162Y-74025088D01*
X150652742Y-73918602D01*
X150885154Y-73776763D01*
X151094428Y-73602603D01*
X151276122Y-73399821D01*
X151426351Y-73172748D01*
X151541915Y-72926231D01*
X151620356Y-72665501D01*
X151660000Y-72396130D01*
X151660000Y-72250000D01*
X150350000Y-72250000D01*
X150350000Y-71750000D01*
X151660000Y-71750000D01*
X151660000Y-71674287D01*
X151659834Y-71669765D01*
X151645101Y-71468456D01*
X151585901Y-71202704D01*
X151488637Y-70948398D01*
X151355384Y-70710967D01*
X151188981Y-70495465D01*
X150992977Y-70306494D01*
X150771536Y-70148066D01*
X150529406Y-70023579D01*
X150271709Y-69935665D01*
X150050000Y-69894713D01*
X150050000Y-71155147D01*
X149912953Y-71106441D01*
X149762114Y-71096123D01*
X149614085Y-71126884D01*
X149550000Y-71160090D01*
X149550000Y-69896281D01*
X149461250Y-69906048D01*
X149197837Y-69974911D01*
X148947257Y-70081397D01*
X148714845Y-70223236D01*
X148505571Y-70397396D01*
X148323877Y-70600178D01*
X148173648Y-70827251D01*
X148058084Y-71073768D01*
X147979643Y-71334498D01*
X147940000Y-71603869D01*
X147940000Y-71750000D01*
X149250000Y-71750000D01*
X149250000Y-72250000D01*
X147940000Y-72250000D01*
X147940000Y-72325712D01*
X142060000Y-72325712D01*
X142060000Y-72250000D01*
X140750000Y-72250000D01*
X140750000Y-71750000D01*
X142060000Y-71750000D01*
X142060000Y-71674287D01*
X142059834Y-71669765D01*
X142045101Y-71468456D01*
X141985901Y-71202704D01*
X141888637Y-70948398D01*
X141755384Y-70710967D01*
X141588981Y-70495465D01*
X141392977Y-70306494D01*
X141171536Y-70148066D01*
X140929406Y-70023579D01*
X140671709Y-69935665D01*
X140450000Y-69894713D01*
X140450000Y-71155147D01*
X140312953Y-71106441D01*
X140162114Y-71096123D01*
X140014085Y-71126884D01*
X139950000Y-71160090D01*
X139950000Y-69896281D01*
X139861250Y-69906048D01*
X139597837Y-69974911D01*
X139347257Y-70081397D01*
X139114845Y-70223236D01*
X138905571Y-70397396D01*
X138723877Y-70600178D01*
X138573648Y-70827251D01*
X138458084Y-71073768D01*
X138379643Y-71334498D01*
X138340000Y-71603869D01*
X138340000Y-71750000D01*
X139650000Y-71750000D01*
X139650000Y-72250000D01*
X138340000Y-72250000D01*
X138340000Y-72325712D01*
X135169207Y-72325712D01*
X155958100Y-51536818D01*
X156019424Y-51503334D01*
X156045782Y-51500500D01*
X159122412Y-51500500D01*
X159189451Y-51520185D01*
X159193523Y-51522917D01*
X159347266Y-51630568D01*
X159553504Y-51726739D01*
X159773308Y-51785635D01*
X160000000Y-51805468D01*
X160226692Y-51785635D01*
X160446496Y-51726739D01*
X160652734Y-51630568D01*
X160806465Y-51522924D01*
X160872671Y-51500598D01*
X160877588Y-51500500D01*
X163125857Y-51500500D01*
X163157948Y-51504724D01*
X163273308Y-51535635D01*
X163424435Y-51548856D01*
X163499999Y-51555468D01*
X163499999Y-51555467D01*
X163500000Y-51555468D01*
X163726692Y-51535635D01*
X163946496Y-51476739D01*
X164152734Y-51380568D01*
X164339139Y-51250047D01*
X164500047Y-51089139D01*
X164630568Y-50902734D01*
X164726739Y-50696496D01*
X164785635Y-50476692D01*
X164805468Y-50250000D01*
X164785635Y-50023308D01*
X164726739Y-49803504D01*
X164630568Y-49597266D01*
X164615567Y-49575841D01*
X164500046Y-49410859D01*
X164339140Y-49249953D01*
X164152735Y-49119432D01*
X163946497Y-49023261D01*
X163726689Y-48964364D01*
X163500000Y-48944531D01*
X163273310Y-48964364D01*
X163053502Y-49023261D01*
X162847264Y-49119432D01*
X162660859Y-49249953D01*
X162499953Y-49410859D01*
X162474912Y-49446623D01*
X162420336Y-49490248D01*
X162373337Y-49499500D01*
X160877588Y-49499500D01*
X160810549Y-49479815D01*
X160806465Y-49477075D01*
X160652734Y-49369432D01*
X160446497Y-49273261D01*
X160226689Y-49214364D01*
X159999999Y-49194531D01*
X159773310Y-49214364D01*
X159553502Y-49273261D01*
X159347265Y-49369432D01*
X159193535Y-49477075D01*
X159127329Y-49499402D01*
X159122412Y-49499500D01*
X155594262Y-49499500D01*
X155591121Y-49499460D01*
X155588832Y-49499402D01*
X155503637Y-49497242D01*
X155445580Y-49507648D01*
X155436251Y-49508957D01*
X155377562Y-49514926D01*
X155348527Y-49524035D01*
X155333290Y-49527774D01*
X155303350Y-49533141D01*
X155248567Y-49555022D01*
X155239698Y-49558179D01*
X155183410Y-49575841D01*
X155156809Y-49590605D01*
X155142639Y-49597335D01*
X155114385Y-49608622D01*
X155065121Y-49641087D01*
X155057070Y-49645964D01*
X155005498Y-49674590D01*
X154982414Y-49694407D01*
X154969887Y-49703853D01*
X154944481Y-49720598D01*
X154902775Y-49762303D01*
X154895868Y-49768704D01*
X154851103Y-49807135D01*
X154832480Y-49831193D01*
X154822108Y-49842969D01*
X132108575Y-72556503D01*
X132047252Y-72589988D01*
X131977560Y-72585004D01*
X131921627Y-72543132D01*
X131897210Y-72477668D01*
X131901118Y-72436734D01*
X131955063Y-72235408D01*
X131975659Y-72000000D01*
X131955063Y-71764592D01*
X131893903Y-71536337D01*
X131794035Y-71322171D01*
X131658495Y-71128599D01*
X131491401Y-70961505D01*
X131297830Y-70825965D01*
X131083663Y-70726097D01*
X131011227Y-70706688D01*
X130855407Y-70664936D01*
X130620000Y-70644340D01*
X130384592Y-70664936D01*
X130181593Y-70719329D01*
X130111743Y-70717666D01*
X130053881Y-70678503D01*
X130026377Y-70614275D01*
X130025500Y-70599554D01*
X130025500Y-66000000D01*
X134944531Y-66000000D01*
X134964364Y-66226689D01*
X135023261Y-66446497D01*
X135119432Y-66652735D01*
X135249953Y-66839140D01*
X135410859Y-67000046D01*
X135597264Y-67130567D01*
X135597265Y-67130567D01*
X135597266Y-67130568D01*
X135803504Y-67226739D01*
X136023308Y-67285635D01*
X136250000Y-67305468D01*
X136476692Y-67285635D01*
X136696496Y-67226739D01*
X136902734Y-67130568D01*
X137089139Y-67000047D01*
X137250047Y-66839139D01*
X137380568Y-66652734D01*
X137476739Y-66446496D01*
X137535635Y-66226692D01*
X137555468Y-66000000D01*
X137535635Y-65773308D01*
X137476739Y-65553504D01*
X137380568Y-65347266D01*
X137320994Y-65262184D01*
X137250046Y-65160859D01*
X137089140Y-64999953D01*
X136902735Y-64869432D01*
X136696497Y-64773261D01*
X136476689Y-64714364D01*
X136250000Y-64694531D01*
X136023310Y-64714364D01*
X135803502Y-64773261D01*
X135597264Y-64869432D01*
X135410859Y-64999953D01*
X135249953Y-65160859D01*
X135119432Y-65347264D01*
X135023261Y-65553502D01*
X134964364Y-65773310D01*
X134944531Y-66000000D01*
X130025500Y-66000000D01*
X130025500Y-59500000D01*
X130694531Y-59500000D01*
X130714364Y-59726689D01*
X130773261Y-59946497D01*
X130869432Y-60152735D01*
X130999953Y-60339140D01*
X131160859Y-60500046D01*
X131347264Y-60630567D01*
X131347265Y-60630567D01*
X131347266Y-60630568D01*
X131553504Y-60726739D01*
X131773308Y-60785635D01*
X132000000Y-60805468D01*
X132226692Y-60785635D01*
X132446496Y-60726739D01*
X132652734Y-60630568D01*
X132839139Y-60500047D01*
X133000047Y-60339139D01*
X133130568Y-60152734D01*
X133226739Y-59946496D01*
X133285635Y-59726692D01*
X133305468Y-59500000D01*
X133285635Y-59273308D01*
X133226739Y-59053504D01*
X133130568Y-58847266D01*
X133123276Y-58836851D01*
X133000046Y-58660859D01*
X132839140Y-58499953D01*
X132652735Y-58369432D01*
X132446497Y-58273261D01*
X132226689Y-58214364D01*
X132000000Y-58194531D01*
X131773310Y-58214364D01*
X131553502Y-58273261D01*
X131347264Y-58369432D01*
X131160859Y-58499953D01*
X130999953Y-58660859D01*
X130869432Y-58847264D01*
X130773261Y-59053502D01*
X130714364Y-59273310D01*
X130694531Y-59500000D01*
X130025500Y-59500000D01*
X130025500Y-58160451D01*
X130045185Y-58093412D01*
X130061814Y-58072775D01*
X136392777Y-51741811D01*
X136454098Y-51708328D01*
X136523790Y-51713312D01*
X136532852Y-51717108D01*
X136553504Y-51726739D01*
X136773308Y-51785635D01*
X137000000Y-51805468D01*
X137226692Y-51785635D01*
X137446496Y-51726739D01*
X137652734Y-51630568D01*
X137806465Y-51522924D01*
X137872671Y-51500598D01*
X137877588Y-51500500D01*
X139372412Y-51500500D01*
X139439451Y-51520185D01*
X139443523Y-51522917D01*
X139597266Y-51630568D01*
X139803504Y-51726739D01*
X140023308Y-51785635D01*
X140250000Y-51805468D01*
X140476692Y-51785635D01*
X140696496Y-51726739D01*
X140902734Y-51630568D01*
X141089139Y-51500047D01*
X141250047Y-51339139D01*
X141380568Y-51152734D01*
X141476739Y-50946496D01*
X141535635Y-50726692D01*
X141555468Y-50500000D01*
X141535635Y-50273308D01*
X141476739Y-50053504D01*
X141380568Y-49847266D01*
X141377560Y-49842969D01*
X141250046Y-49660859D01*
X141089140Y-49499953D01*
X140902735Y-49369432D01*
X140696497Y-49273261D01*
X140476689Y-49214364D01*
X140250000Y-49194531D01*
X140023310Y-49214364D01*
X139803502Y-49273261D01*
X139597265Y-49369432D01*
X139443535Y-49477075D01*
X139377329Y-49499402D01*
X139372412Y-49499500D01*
X137877588Y-49499500D01*
X137810549Y-49479815D01*
X137806465Y-49477075D01*
X137652734Y-49369432D01*
X137446497Y-49273261D01*
X137226689Y-49214364D01*
X137000000Y-49194531D01*
X136773310Y-49214364D01*
X136553502Y-49273261D01*
X136347264Y-49369432D01*
X136160859Y-49499953D01*
X135999953Y-49660859D01*
X135869432Y-49847264D01*
X135773261Y-50053502D01*
X135714364Y-50273310D01*
X135694531Y-50500000D01*
X135703239Y-50599528D01*
X135689472Y-50668028D01*
X135667392Y-50698016D01*
X129016208Y-57349199D01*
X129000110Y-57362096D01*
X128952096Y-57413225D01*
X128949392Y-57416016D01*
X128932628Y-57432780D01*
X128932621Y-57432787D01*
X128929880Y-57435529D01*
X128927499Y-57438597D01*
X128927490Y-57438608D01*
X128927411Y-57438711D01*
X128919842Y-57447572D01*
X128889935Y-57479420D01*
X128880285Y-57496974D01*
X128869609Y-57513228D01*
X128857326Y-57529063D01*
X128839975Y-57569158D01*
X128834838Y-57579644D01*
X128813802Y-57617907D01*
X128808821Y-57637309D01*
X128802520Y-57655711D01*
X128794561Y-57674102D01*
X128787728Y-57717242D01*
X128785360Y-57728674D01*
X128774499Y-57770977D01*
X128774500Y-57791016D01*
X128772973Y-57810414D01*
X128769840Y-57830194D01*
X128773950Y-57873673D01*
X128774500Y-57885343D01*
X128774500Y-64891542D01*
X128754815Y-64958581D01*
X128702011Y-65004336D01*
X128632853Y-65014280D01*
X128579377Y-64993117D01*
X128402735Y-64869432D01*
X128196497Y-64773261D01*
X127976689Y-64714364D01*
X127749999Y-64694531D01*
X127523310Y-64714364D01*
X127303502Y-64773261D01*
X127097265Y-64869432D01*
X126943535Y-64977075D01*
X126877329Y-64999402D01*
X126872412Y-64999500D01*
X125877588Y-64999500D01*
X125810549Y-64979815D01*
X125806465Y-64977075D01*
X125652734Y-64869432D01*
X125446497Y-64773261D01*
X125226689Y-64714364D01*
X124999999Y-64694531D01*
X124773310Y-64714364D01*
X124553502Y-64773261D01*
X124347264Y-64869432D01*
X124160859Y-64999953D01*
X123999953Y-65160859D01*
X123869433Y-65347263D01*
X123869433Y-65347264D01*
X123869432Y-65347266D01*
X123861880Y-65363459D01*
X123815709Y-65415897D01*
X123748515Y-65435048D01*
X123681634Y-65414832D01*
X123636300Y-65361666D01*
X123625500Y-65311052D01*
X123625500Y-61484475D01*
X123645185Y-61417436D01*
X123697989Y-61371681D01*
X123767147Y-61361737D01*
X123820923Y-61383160D01*
X123814754Y-61379111D01*
X124054432Y-61524862D01*
X124311725Y-61636620D01*
X124523047Y-61695830D01*
X124577759Y-61711160D01*
X124577761Y-61711160D01*
X124581839Y-61712303D01*
X124859742Y-61750500D01*
X124863979Y-61750500D01*
X125136021Y-61750500D01*
X125140258Y-61750500D01*
X125418161Y-61712303D01*
X125688275Y-61636620D01*
X125945568Y-61524862D01*
X126185246Y-61379111D01*
X126402845Y-61202081D01*
X126594312Y-60997069D01*
X126756081Y-60767896D01*
X126885136Y-60518830D01*
X126979075Y-60254511D01*
X127036148Y-59979862D01*
X127055291Y-59700000D01*
X127036148Y-59420138D01*
X126979075Y-59145489D01*
X126885136Y-58881170D01*
X126756081Y-58632104D01*
X126594312Y-58402931D01*
X126402845Y-58197919D01*
X126399563Y-58195249D01*
X126399560Y-58195246D01*
X126306264Y-58119344D01*
X126185246Y-58020889D01*
X126181622Y-58018685D01*
X126181619Y-58018683D01*
X125949186Y-57877338D01*
X125949184Y-57877337D01*
X125945568Y-57875138D01*
X125924026Y-57865781D01*
X125692156Y-57765065D01*
X125692146Y-57765061D01*
X125688275Y-57763380D01*
X125684203Y-57762239D01*
X125422240Y-57688839D01*
X125422227Y-57688836D01*
X125418161Y-57687697D01*
X125413974Y-57687121D01*
X125413962Y-57687119D01*
X125144455Y-57650076D01*
X125144442Y-57650075D01*
X125140258Y-57649500D01*
X124859742Y-57649500D01*
X124855558Y-57650075D01*
X124855544Y-57650076D01*
X124586037Y-57687119D01*
X124586022Y-57687121D01*
X124581839Y-57687697D01*
X124577775Y-57688835D01*
X124577759Y-57688839D01*
X124315796Y-57762239D01*
X124315791Y-57762240D01*
X124311725Y-57763380D01*
X124307858Y-57765059D01*
X124307843Y-57765065D01*
X124058315Y-57873451D01*
X124058310Y-57873453D01*
X124054432Y-57875138D01*
X124050821Y-57877333D01*
X124050813Y-57877338D01*
X123814754Y-58020889D01*
X123820814Y-58016916D01*
X123754810Y-58039410D01*
X123686989Y-58022615D01*
X123639015Y-57971820D01*
X123625500Y-57915528D01*
X123625500Y-57310447D01*
X123645184Y-57243412D01*
X123661810Y-57222779D01*
X123998450Y-56886138D01*
X124059771Y-56852655D01*
X124129463Y-56857639D01*
X124135506Y-56860076D01*
X124311725Y-56936620D01*
X124467249Y-56980196D01*
X124577759Y-57011160D01*
X124577761Y-57011160D01*
X124581839Y-57012303D01*
X124859742Y-57050500D01*
X124863979Y-57050500D01*
X125136021Y-57050500D01*
X125140258Y-57050500D01*
X125418161Y-57012303D01*
X125688275Y-56936620D01*
X125945568Y-56824862D01*
X126185246Y-56679111D01*
X126402845Y-56502081D01*
X126594312Y-56297069D01*
X126756081Y-56067896D01*
X126885136Y-55818830D01*
X126979075Y-55554511D01*
X127036148Y-55279862D01*
X127055291Y-55000000D01*
X127036148Y-54720138D01*
X126979075Y-54445489D01*
X126885136Y-54181170D01*
X126756081Y-53932104D01*
X126594312Y-53702931D01*
X126402845Y-53497919D01*
X126399563Y-53495249D01*
X126399560Y-53495246D01*
X126306264Y-53419344D01*
X126185246Y-53320889D01*
X126181622Y-53318685D01*
X126181619Y-53318683D01*
X125949186Y-53177338D01*
X125949184Y-53177337D01*
X125945568Y-53175138D01*
X125924026Y-53165781D01*
X125692156Y-53065065D01*
X125692146Y-53065061D01*
X125688275Y-53063380D01*
X125684203Y-53062239D01*
X125422240Y-52988839D01*
X125422227Y-52988836D01*
X125418161Y-52987697D01*
X125413974Y-52987121D01*
X125413962Y-52987119D01*
X125144455Y-52950076D01*
X125144442Y-52950075D01*
X125140258Y-52949500D01*
X124859742Y-52949500D01*
X124855558Y-52950075D01*
X124855544Y-52950076D01*
X124586037Y-52987119D01*
X124586022Y-52987121D01*
X124581839Y-52987697D01*
X124577772Y-52988836D01*
X124577755Y-52988840D01*
X124511687Y-53007352D01*
X124441823Y-53006484D01*
X124390552Y-52975631D01*
X121719145Y-50304225D01*
X122945499Y-50304225D01*
X122964058Y-50575561D01*
X122965211Y-50583950D01*
X123020543Y-50850219D01*
X123022828Y-50858376D01*
X123113902Y-51114634D01*
X123117272Y-51122393D01*
X123242398Y-51363873D01*
X123246794Y-51371101D01*
X123382744Y-51563699D01*
X123382745Y-51563700D01*
X124100975Y-50845469D01*
X124122732Y-50886172D01*
X124253945Y-51046055D01*
X124413828Y-51177268D01*
X124454529Y-51199023D01*
X123737740Y-51915811D01*
X123811751Y-51976023D01*
X123818669Y-51980907D01*
X124051038Y-52122213D01*
X124058555Y-52126108D01*
X124307999Y-52234456D01*
X124315975Y-52237291D01*
X124577861Y-52310669D01*
X124586140Y-52312389D01*
X124855578Y-52349423D01*
X124864013Y-52350000D01*
X125135987Y-52350000D01*
X125144421Y-52349423D01*
X125413859Y-52312389D01*
X125422138Y-52310669D01*
X125684024Y-52237291D01*
X125692000Y-52234456D01*
X125941444Y-52126108D01*
X125948961Y-52122213D01*
X126181340Y-51980901D01*
X126188244Y-51976027D01*
X126262257Y-51915812D01*
X126262258Y-51915811D01*
X125545470Y-51199023D01*
X125586172Y-51177268D01*
X125746055Y-51046055D01*
X125877268Y-50886172D01*
X125899023Y-50845469D01*
X126617253Y-51563699D01*
X126753207Y-51371098D01*
X126757601Y-51363872D01*
X126816606Y-51250000D01*
X130721128Y-51250000D01*
X130773733Y-51446326D01*
X130869865Y-51652480D01*
X131000341Y-51838819D01*
X131161180Y-51999658D01*
X131347519Y-52130134D01*
X131553673Y-52226266D01*
X131749999Y-52278871D01*
X131750000Y-52278871D01*
X131749999Y-51315685D01*
X131761955Y-51327641D01*
X131874852Y-51385165D01*
X131968519Y-51400000D01*
X132031481Y-51400000D01*
X132125148Y-51385165D01*
X132238045Y-51327641D01*
X132250000Y-51315685D01*
X132250000Y-52278871D01*
X132446326Y-52226266D01*
X132652480Y-52130134D01*
X132838819Y-51999658D01*
X132999658Y-51838819D01*
X133130134Y-51652480D01*
X133226266Y-51446326D01*
X133278872Y-51250000D01*
X132315686Y-51250000D01*
X132327641Y-51238045D01*
X132385165Y-51125148D01*
X132404986Y-51000000D01*
X132385165Y-50874852D01*
X132327641Y-50761955D01*
X132315686Y-50750000D01*
X133278872Y-50750000D01*
X133278871Y-50749999D01*
X133226266Y-50553673D01*
X133130134Y-50347519D01*
X132999658Y-50161180D01*
X132838819Y-50000341D01*
X132652480Y-49869865D01*
X132446326Y-49773733D01*
X132249999Y-49721126D01*
X132249999Y-50684313D01*
X132238045Y-50672359D01*
X132125148Y-50614835D01*
X132031481Y-50600000D01*
X131968519Y-50600000D01*
X131874852Y-50614835D01*
X131761955Y-50672359D01*
X131749999Y-50684314D01*
X131749999Y-49721126D01*
X131553673Y-49773733D01*
X131347519Y-49869865D01*
X131161180Y-50000341D01*
X131000341Y-50161180D01*
X130869865Y-50347519D01*
X130773733Y-50553673D01*
X130721128Y-50749999D01*
X130721128Y-50750000D01*
X131684314Y-50750000D01*
X131672359Y-50761955D01*
X131614835Y-50874852D01*
X131595014Y-51000000D01*
X131614835Y-51125148D01*
X131672359Y-51238045D01*
X131684314Y-51250000D01*
X130721128Y-51250000D01*
X126816606Y-51250000D01*
X126882727Y-51122393D01*
X126886097Y-51114634D01*
X126977171Y-50858376D01*
X126979456Y-50850219D01*
X127034788Y-50583950D01*
X127035941Y-50575561D01*
X127054501Y-50304225D01*
X127054501Y-50295774D01*
X127035941Y-50024438D01*
X127034788Y-50016049D01*
X126979456Y-49749780D01*
X126977171Y-49741623D01*
X126886097Y-49485365D01*
X126882727Y-49477606D01*
X126757601Y-49236126D01*
X126753205Y-49228898D01*
X126617254Y-49036299D01*
X126617253Y-49036298D01*
X125899022Y-49754528D01*
X125877268Y-49713828D01*
X125746055Y-49553945D01*
X125586172Y-49422732D01*
X125545469Y-49400976D01*
X126262258Y-48684187D01*
X126188248Y-48623976D01*
X126181330Y-48619092D01*
X125948961Y-48477786D01*
X125941444Y-48473891D01*
X125692000Y-48365543D01*
X125684024Y-48362708D01*
X125422138Y-48289330D01*
X125413859Y-48287610D01*
X125144421Y-48250576D01*
X125135987Y-48250000D01*
X124864013Y-48250000D01*
X124855578Y-48250576D01*
X124586140Y-48287610D01*
X124577861Y-48289330D01*
X124315975Y-48362708D01*
X124307999Y-48365543D01*
X124058555Y-48473891D01*
X124051038Y-48477786D01*
X123818664Y-48619095D01*
X123811756Y-48623971D01*
X123737740Y-48684187D01*
X124454529Y-49400976D01*
X124413828Y-49422732D01*
X124253945Y-49553945D01*
X124122732Y-49713828D01*
X124100976Y-49754529D01*
X123382745Y-49036298D01*
X123246794Y-49228898D01*
X123242398Y-49236126D01*
X123117272Y-49477606D01*
X123113902Y-49485365D01*
X123022828Y-49741623D01*
X123020543Y-49749780D01*
X122965211Y-50016049D01*
X122964058Y-50024438D01*
X122945499Y-50295774D01*
X122945499Y-50304225D01*
X121719145Y-50304225D01*
X121717567Y-50302647D01*
X121715412Y-50300438D01*
X121655059Y-50236947D01*
X121606640Y-50203246D01*
X121599118Y-50197575D01*
X121553405Y-50160300D01*
X121526440Y-50146215D01*
X121513019Y-50138084D01*
X121488049Y-50120705D01*
X121488048Y-50120704D01*
X121488046Y-50120703D01*
X121433845Y-50097443D01*
X121425336Y-50093402D01*
X121373053Y-50066092D01*
X121367126Y-50064396D01*
X121343798Y-50057721D01*
X121329020Y-50052459D01*
X121301058Y-50040460D01*
X121243272Y-50028583D01*
X121234128Y-50026338D01*
X121177421Y-50010113D01*
X121147075Y-50007802D01*
X121131534Y-50005622D01*
X121101742Y-49999500D01*
X121101741Y-49999500D01*
X121042758Y-49999500D01*
X121033344Y-49999142D01*
X121024198Y-49998445D01*
X120974524Y-49994663D01*
X120974523Y-49994663D01*
X120974522Y-49994663D01*
X120944349Y-49998506D01*
X120928683Y-49999500D01*
X118877588Y-49999500D01*
X118810549Y-49979815D01*
X118806465Y-49977075D01*
X118652734Y-49869432D01*
X118446497Y-49773261D01*
X118226689Y-49714364D01*
X118000000Y-49694531D01*
X117773310Y-49714364D01*
X117553502Y-49773261D01*
X117347264Y-49869432D01*
X117160859Y-49999953D01*
X116999953Y-50160859D01*
X116869432Y-50347264D01*
X116773261Y-50553502D01*
X116714364Y-50773310D01*
X116694531Y-50999999D01*
X116714364Y-51226689D01*
X116773261Y-51446497D01*
X116869432Y-51652735D01*
X116999953Y-51839140D01*
X117160859Y-52000046D01*
X117347264Y-52130567D01*
X117347265Y-52130567D01*
X117347266Y-52130568D01*
X117553504Y-52226739D01*
X117773308Y-52285635D01*
X118000000Y-52305468D01*
X118226692Y-52285635D01*
X118446496Y-52226739D01*
X118652734Y-52130568D01*
X118806465Y-52022924D01*
X118872671Y-52000598D01*
X118877588Y-52000500D01*
X120534217Y-52000500D01*
X120601256Y-52020185D01*
X120621898Y-52036819D01*
X122975235Y-54390155D01*
X123008720Y-54451478D01*
X123008960Y-54503064D01*
X122964716Y-54715978D01*
X122963852Y-54720138D01*
X122963563Y-54724362D01*
X122963562Y-54724370D01*
X122953047Y-54878102D01*
X122944709Y-55000000D01*
X122963852Y-55279862D01*
X122964713Y-55284009D01*
X122964715Y-55284018D01*
X123020061Y-55550354D01*
X123020925Y-55554511D01*
X123022343Y-55558503D01*
X123022346Y-55558511D01*
X123113443Y-55814833D01*
X123114864Y-55818830D01*
X123116811Y-55822588D01*
X123116813Y-55822592D01*
X123135138Y-55857957D01*
X123148503Y-55926536D01*
X123122669Y-55991455D01*
X123112721Y-56002686D01*
X122616208Y-56499199D01*
X122600110Y-56512096D01*
X122552096Y-56563225D01*
X122549392Y-56566016D01*
X122532628Y-56582780D01*
X122532621Y-56582787D01*
X122529880Y-56585529D01*
X122527499Y-56588597D01*
X122527490Y-56588608D01*
X122527411Y-56588711D01*
X122519842Y-56597572D01*
X122489935Y-56629420D01*
X122480285Y-56646974D01*
X122469609Y-56663228D01*
X122457326Y-56679063D01*
X122439975Y-56719158D01*
X122434838Y-56729644D01*
X122413802Y-56767907D01*
X122408821Y-56787309D01*
X122402520Y-56805711D01*
X122394561Y-56824102D01*
X122387728Y-56867242D01*
X122385360Y-56878674D01*
X122374499Y-56920977D01*
X122374500Y-56941016D01*
X122372973Y-56960414D01*
X122369839Y-56980196D01*
X122373949Y-57023676D01*
X122374499Y-57035343D01*
X122374500Y-58690547D01*
X122354815Y-58757586D01*
X122302012Y-58803341D01*
X122232853Y-58813285D01*
X122169297Y-58784260D01*
X122162819Y-58778228D01*
X114299413Y-50914822D01*
X114265928Y-50853499D01*
X114267319Y-50795047D01*
X114285635Y-50726692D01*
X114305468Y-50500000D01*
X114285635Y-50273308D01*
X114226739Y-50053504D01*
X114130568Y-49847266D01*
X114127560Y-49842969D01*
X114000046Y-49660859D01*
X113839140Y-49499953D01*
X113652735Y-49369432D01*
X113446497Y-49273261D01*
X113226689Y-49214364D01*
X113000000Y-49194531D01*
X112773310Y-49214364D01*
X112553502Y-49273261D01*
X112347265Y-49369432D01*
X112193535Y-49477075D01*
X112127329Y-49499402D01*
X112122412Y-49499500D01*
X110377588Y-49499500D01*
X110310549Y-49479815D01*
X110306465Y-49477075D01*
X110152734Y-49369432D01*
X109946497Y-49273261D01*
X109726689Y-49214364D01*
X109499999Y-49194531D01*
X109273310Y-49214364D01*
X109053502Y-49273261D01*
X108847264Y-49369432D01*
X108660859Y-49499953D01*
X108499953Y-49660859D01*
X108369432Y-49847264D01*
X108273261Y-50053502D01*
X108214364Y-50273310D01*
X108194531Y-50500000D01*
X108214364Y-50726689D01*
X108273261Y-50946497D01*
X108369432Y-51152735D01*
X108499953Y-51339140D01*
X108660859Y-51500046D01*
X108847264Y-51630567D01*
X108847265Y-51630567D01*
X108847266Y-51630568D01*
X109053504Y-51726739D01*
X109273308Y-51785635D01*
X109500000Y-51805468D01*
X109726692Y-51785635D01*
X109946496Y-51726739D01*
X110152734Y-51630568D01*
X110306465Y-51522924D01*
X110372671Y-51500598D01*
X110377588Y-51500500D01*
X112122412Y-51500500D01*
X112189451Y-51520185D01*
X112193523Y-51522917D01*
X112347266Y-51630568D01*
X112553504Y-51726739D01*
X112773308Y-51785635D01*
X113000000Y-51805468D01*
X113226692Y-51785635D01*
X113295047Y-51767319D01*
X113364897Y-51768982D01*
X113414822Y-51799413D01*
X121138180Y-59522770D01*
X121171665Y-59584093D01*
X121174499Y-59610451D01*
X121174499Y-65147557D01*
X121154814Y-65214596D01*
X121102010Y-65260351D01*
X121091367Y-65262184D01*
X120397953Y-65955598D01*
X120385165Y-65874852D01*
X120327641Y-65761955D01*
X120238045Y-65672359D01*
X120125148Y-65614835D01*
X120044399Y-65602045D01*
X120725472Y-64920973D01*
X120725471Y-64920972D01*
X120652484Y-64869866D01*
X120446326Y-64773733D01*
X120226602Y-64714858D01*
X119999999Y-64695033D01*
X119773397Y-64714858D01*
X119553672Y-64773733D01*
X119347516Y-64869865D01*
X119274526Y-64920973D01*
X119955598Y-65602046D01*
X119874852Y-65614835D01*
X119761955Y-65672359D01*
X119672359Y-65761955D01*
X119614835Y-65874852D01*
X119602046Y-65955598D01*
X118920973Y-65274527D01*
X118869865Y-65347516D01*
X118773733Y-65553672D01*
X118714858Y-65773397D01*
X118695033Y-66000000D01*
X118714858Y-66226602D01*
X118773733Y-66446326D01*
X118869866Y-66652484D01*
X118920972Y-66725471D01*
X118920973Y-66725472D01*
X119602045Y-66044399D01*
X119614835Y-66125148D01*
X119672359Y-66238045D01*
X119761955Y-66327641D01*
X119874852Y-66385165D01*
X119955599Y-66397953D01*
X119274526Y-67079025D01*
X119274526Y-67079026D01*
X119347515Y-67130133D01*
X119553673Y-67226266D01*
X119773397Y-67285141D01*
X120000000Y-67304966D01*
X120226602Y-67285141D01*
X120446326Y-67226266D01*
X120652480Y-67130134D01*
X120725472Y-67079025D01*
X120044401Y-66397953D01*
X120125148Y-66385165D01*
X120238045Y-66327641D01*
X120327641Y-66238045D01*
X120385165Y-66125148D01*
X120397953Y-66044400D01*
X121093223Y-66739670D01*
X121108187Y-66742677D01*
X121158372Y-66791290D01*
X121174499Y-66852441D01*
X121174500Y-70526000D01*
X121154815Y-70593039D01*
X121102011Y-70638794D01*
X121050500Y-70650000D01*
X120710000Y-70650000D01*
X120709999Y-71564498D01*
X120602315Y-71515320D01*
X120495763Y-71500000D01*
X120424237Y-71500000D01*
X120317685Y-71515320D01*
X120210000Y-71564498D01*
X120210000Y-70650000D01*
X119813171Y-70650000D01*
X119806888Y-70650321D01*
X119707304Y-70660493D01*
X119540877Y-70715642D01*
X119391654Y-70807683D01*
X119267683Y-70931654D01*
X119175642Y-71080877D01*
X119120493Y-71247303D01*
X119110319Y-71346890D01*
X119110000Y-71353168D01*
X119110000Y-71750000D01*
X120026314Y-71750000D01*
X120000507Y-71790156D01*
X119960000Y-71928111D01*
X119960000Y-72071889D01*
X120000507Y-72209844D01*
X120026314Y-72250000D01*
X119110001Y-72250000D01*
X119110001Y-72646829D01*
X119110321Y-72653111D01*
X119120493Y-72752695D01*
X119175642Y-72919122D01*
X119267683Y-73068345D01*
X119391654Y-73192316D01*
X119540876Y-73284356D01*
X119549397Y-73287180D01*
X119606843Y-73326951D01*
X119633668Y-73391467D01*
X119621354Y-73460243D01*
X119594197Y-73491761D01*
X119596270Y-73493834D01*
X119421505Y-73668598D01*
X119285965Y-73862170D01*
X119186097Y-74076336D01*
X119124936Y-74304592D01*
X119104340Y-74540000D01*
X119122871Y-74751807D01*
X119109104Y-74820307D01*
X119060489Y-74870490D01*
X118992460Y-74886423D01*
X118926617Y-74863048D01*
X118911662Y-74850295D01*
X115145787Y-71084420D01*
X111036818Y-66975450D01*
X111003333Y-66914127D01*
X111000499Y-66887777D01*
X111000499Y-66126662D01*
X111020184Y-66059624D01*
X111053377Y-66025087D01*
X111053380Y-66025085D01*
X111089139Y-66000047D01*
X111250047Y-65839139D01*
X111380568Y-65652734D01*
X111476739Y-65446496D01*
X111535635Y-65226692D01*
X111555468Y-65000000D01*
X111535635Y-64773308D01*
X111476739Y-64553504D01*
X111380568Y-64347266D01*
X111250047Y-64160861D01*
X111089139Y-63999953D01*
X111053374Y-63974909D01*
X111009751Y-63920331D01*
X111000500Y-63873336D01*
X111000500Y-62563705D01*
X111001809Y-62545735D01*
X111001980Y-62544564D01*
X111005289Y-62521977D01*
X111000971Y-62472633D01*
X111000500Y-62461827D01*
X111000500Y-62459901D01*
X111000500Y-62456291D01*
X110996894Y-62425443D01*
X110996537Y-62421956D01*
X110989998Y-62347203D01*
X110989888Y-62345943D01*
X110985674Y-62326935D01*
X110985241Y-62325745D01*
X110959567Y-62255207D01*
X110958399Y-62251844D01*
X110934814Y-62180666D01*
X110934811Y-62180662D01*
X110934416Y-62179468D01*
X110925929Y-62161936D01*
X110925237Y-62160884D01*
X110925237Y-62160883D01*
X110883999Y-62098184D01*
X110882087Y-62095181D01*
X110842050Y-62030270D01*
X110829749Y-62015171D01*
X110829553Y-62014986D01*
X110829437Y-62014788D01*
X110827939Y-62012949D01*
X110820868Y-62002199D01*
X110821743Y-62001623D01*
X110794299Y-61954663D01*
X110791120Y-61913988D01*
X110805468Y-61750000D01*
X110802220Y-61712880D01*
X110785635Y-61523310D01*
X110785635Y-61523308D01*
X110726739Y-61303504D01*
X110630568Y-61097266D01*
X110579636Y-61024526D01*
X110500046Y-60910859D01*
X110339140Y-60749953D01*
X110152735Y-60619432D01*
X109946497Y-60523261D01*
X109726689Y-60464364D01*
X109499999Y-60444531D01*
X109273310Y-60464364D01*
X109053502Y-60523261D01*
X108847264Y-60619432D01*
X108695623Y-60725612D01*
X108629417Y-60747939D01*
X108561649Y-60730928D01*
X108513837Y-60679980D01*
X108500500Y-60624037D01*
X108500500Y-59500000D01*
X116694531Y-59500000D01*
X116714364Y-59726689D01*
X116773261Y-59946497D01*
X116869432Y-60152735D01*
X116999953Y-60339140D01*
X117160859Y-60500046D01*
X117347264Y-60630567D01*
X117347265Y-60630567D01*
X117347266Y-60630568D01*
X117553504Y-60726739D01*
X117773308Y-60785635D01*
X118000000Y-60805468D01*
X118226692Y-60785635D01*
X118446496Y-60726739D01*
X118652734Y-60630568D01*
X118839139Y-60500047D01*
X119000047Y-60339139D01*
X119130568Y-60152734D01*
X119226739Y-59946496D01*
X119285635Y-59726692D01*
X119305468Y-59500000D01*
X119285635Y-59273308D01*
X119226739Y-59053504D01*
X119130568Y-58847266D01*
X119123276Y-58836851D01*
X119000046Y-58660859D01*
X118839140Y-58499953D01*
X118652735Y-58369432D01*
X118446497Y-58273261D01*
X118226689Y-58214364D01*
X118000000Y-58194531D01*
X117773310Y-58214364D01*
X117553502Y-58273261D01*
X117347264Y-58369432D01*
X117160859Y-58499953D01*
X116999953Y-58660859D01*
X116869432Y-58847264D01*
X116773261Y-59053502D01*
X116714364Y-59273310D01*
X116694531Y-59500000D01*
X108500500Y-59500000D01*
X108500500Y-54514237D01*
X108500540Y-54511095D01*
X108500744Y-54503064D01*
X108502756Y-54423636D01*
X108492345Y-54365554D01*
X108491042Y-54356263D01*
X108485074Y-54297562D01*
X108475964Y-54268528D01*
X108472223Y-54253286D01*
X108466857Y-54223343D01*
X108444976Y-54168565D01*
X108441816Y-54159689D01*
X108439056Y-54150892D01*
X108424159Y-54103412D01*
X108409395Y-54076812D01*
X108402660Y-54062631D01*
X108391377Y-54034383D01*
X108358917Y-53985131D01*
X108354036Y-53977074D01*
X108325409Y-53925498D01*
X108305582Y-53902403D01*
X108296146Y-53889888D01*
X108279402Y-53864481D01*
X108279400Y-53864479D01*
X108279399Y-53864477D01*
X108237693Y-53822772D01*
X108231287Y-53815860D01*
X108192864Y-53771102D01*
X108168804Y-53752478D01*
X108157026Y-53742105D01*
X99914921Y-45500000D01*
X108195033Y-45500000D01*
X108214858Y-45726602D01*
X108273733Y-45946326D01*
X108369866Y-46152484D01*
X108420972Y-46225471D01*
X108420974Y-46225472D01*
X109102046Y-45544399D01*
X109114835Y-45625148D01*
X109172359Y-45738045D01*
X109261955Y-45827641D01*
X109374852Y-45885165D01*
X109455599Y-45897953D01*
X108774526Y-46579025D01*
X108774526Y-46579026D01*
X108847515Y-46630133D01*
X109053673Y-46726266D01*
X109273397Y-46785141D01*
X109500000Y-46804966D01*
X109726602Y-46785141D01*
X109946326Y-46726266D01*
X110152480Y-46630134D01*
X110225472Y-46579025D01*
X109544401Y-45897953D01*
X109625148Y-45885165D01*
X109738045Y-45827641D01*
X109827641Y-45738045D01*
X109885165Y-45625148D01*
X109897953Y-45544400D01*
X110579025Y-46225472D01*
X110630134Y-46152480D01*
X110726266Y-45946326D01*
X110785141Y-45726602D01*
X110804966Y-45500000D01*
X138945033Y-45500000D01*
X138964858Y-45726602D01*
X139023733Y-45946326D01*
X139119866Y-46152484D01*
X139170972Y-46225471D01*
X139170974Y-46225472D01*
X139852046Y-45544399D01*
X139864835Y-45625148D01*
X139922359Y-45738045D01*
X140011955Y-45827641D01*
X140124852Y-45885165D01*
X140205599Y-45897953D01*
X139524526Y-46579025D01*
X139524526Y-46579026D01*
X139597515Y-46630133D01*
X139803673Y-46726266D01*
X140023397Y-46785141D01*
X140250000Y-46804966D01*
X140476602Y-46785141D01*
X140696326Y-46726266D01*
X140902480Y-46630134D01*
X140975472Y-46579025D01*
X140294401Y-45897953D01*
X140375148Y-45885165D01*
X140488045Y-45827641D01*
X140577641Y-45738045D01*
X140635165Y-45625148D01*
X140647953Y-45544399D01*
X141329025Y-46225472D01*
X141380134Y-46152480D01*
X141476266Y-45946326D01*
X141535141Y-45726602D01*
X141554966Y-45500000D01*
X141535141Y-45273397D01*
X141528872Y-45250000D01*
X162195033Y-45250000D01*
X162214858Y-45476602D01*
X162273733Y-45696326D01*
X162369866Y-45902484D01*
X162420972Y-45975471D01*
X162420973Y-45975472D01*
X163102045Y-45294399D01*
X163114835Y-45375148D01*
X163172359Y-45488045D01*
X163261955Y-45577641D01*
X163374852Y-45635165D01*
X163455599Y-45647953D01*
X162774526Y-46329025D01*
X162774526Y-46329026D01*
X162847515Y-46380133D01*
X163053673Y-46476266D01*
X163273397Y-46535141D01*
X163500000Y-46554966D01*
X163726602Y-46535141D01*
X163946326Y-46476266D01*
X164152480Y-46380134D01*
X164225472Y-46329025D01*
X163544401Y-45647953D01*
X163625148Y-45635165D01*
X163738045Y-45577641D01*
X163827641Y-45488045D01*
X163885165Y-45375148D01*
X163897953Y-45294399D01*
X164579025Y-45975472D01*
X164630134Y-45902480D01*
X164726266Y-45696326D01*
X164785141Y-45476602D01*
X164804966Y-45249999D01*
X164785141Y-45023397D01*
X164726266Y-44803673D01*
X164630133Y-44597515D01*
X164579025Y-44524526D01*
X163897953Y-45205597D01*
X163885165Y-45124852D01*
X163827641Y-45011955D01*
X163738045Y-44922359D01*
X163625148Y-44864835D01*
X163544400Y-44852046D01*
X164225472Y-44170974D01*
X164225471Y-44170972D01*
X164152484Y-44119866D01*
X163946326Y-44023733D01*
X163726602Y-43964858D01*
X163499999Y-43945033D01*
X163273397Y-43964858D01*
X163053672Y-44023733D01*
X162847516Y-44119865D01*
X162774527Y-44170973D01*
X162774526Y-44170973D01*
X163455600Y-44852046D01*
X163374852Y-44864835D01*
X163261955Y-44922359D01*
X163172359Y-45011955D01*
X163114835Y-45124852D01*
X163102046Y-45205598D01*
X162420973Y-44524527D01*
X162369865Y-44597516D01*
X162273733Y-44803672D01*
X162214858Y-45023397D01*
X162195033Y-45250000D01*
X141528872Y-45250000D01*
X141476266Y-45053673D01*
X141380133Y-44847515D01*
X141329025Y-44774526D01*
X140647953Y-45455597D01*
X140635165Y-45374852D01*
X140577641Y-45261955D01*
X140488045Y-45172359D01*
X140375148Y-45114835D01*
X140294400Y-45102046D01*
X140975472Y-44420974D01*
X140975471Y-44420972D01*
X140902484Y-44369866D01*
X140696326Y-44273733D01*
X140476602Y-44214858D01*
X140249999Y-44195033D01*
X140023397Y-44214858D01*
X139803672Y-44273733D01*
X139597516Y-44369865D01*
X139524527Y-44420973D01*
X139524526Y-44420973D01*
X140205600Y-45102046D01*
X140124852Y-45114835D01*
X140011955Y-45172359D01*
X139922359Y-45261955D01*
X139864835Y-45374852D01*
X139852046Y-45455599D01*
X139170973Y-44774526D01*
X139170973Y-44774527D01*
X139119865Y-44847516D01*
X139023733Y-45053672D01*
X138964858Y-45273397D01*
X138945033Y-45500000D01*
X110804966Y-45500000D01*
X110785141Y-45273397D01*
X110726266Y-45053673D01*
X110630133Y-44847515D01*
X110579025Y-44774526D01*
X109897953Y-45455598D01*
X109885165Y-45374852D01*
X109827641Y-45261955D01*
X109738045Y-45172359D01*
X109625148Y-45114835D01*
X109544400Y-45102046D01*
X110225472Y-44420974D01*
X110225471Y-44420972D01*
X110152484Y-44369866D01*
X109946326Y-44273733D01*
X109726602Y-44214858D01*
X109500000Y-44195033D01*
X109273397Y-44214858D01*
X109053672Y-44273733D01*
X108847516Y-44369865D01*
X108774527Y-44420973D01*
X108774526Y-44420973D01*
X109455600Y-45102046D01*
X109374852Y-45114835D01*
X109261955Y-45172359D01*
X109172359Y-45261955D01*
X109114835Y-45374852D01*
X109102046Y-45455599D01*
X108420973Y-44774526D01*
X108420973Y-44774527D01*
X108369865Y-44847516D01*
X108273733Y-45053672D01*
X108214858Y-45273397D01*
X108195033Y-45500000D01*
X99914921Y-45500000D01*
X94002601Y-39587680D01*
X93969116Y-39526357D01*
X93974100Y-39456665D01*
X94002599Y-39412320D01*
X95378101Y-38036819D01*
X95439424Y-38003334D01*
X95465782Y-38000500D01*
X109193940Y-38000500D01*
X109260979Y-38020185D01*
X109306734Y-38072989D01*
X109316678Y-38142147D01*
X109287653Y-38205703D01*
X109268250Y-38223767D01*
X109242812Y-38242809D01*
X109156647Y-38357910D01*
X109106400Y-38492628D01*
X109100354Y-38548867D01*
X109100000Y-38555481D01*
X109100000Y-39250000D01*
X110066314Y-39250000D01*
X110040507Y-39290156D01*
X110000000Y-39428111D01*
X110000000Y-39571889D01*
X110040507Y-39709844D01*
X110066314Y-39750000D01*
X109100000Y-39750000D01*
X109100000Y-40444518D01*
X109100354Y-40451132D01*
X109106400Y-40507371D01*
X109156647Y-40642089D01*
X109242811Y-40757188D01*
X109357910Y-40843352D01*
X109492628Y-40893599D01*
X109548867Y-40899645D01*
X109555482Y-40900000D01*
X110250000Y-40900000D01*
X110250000Y-39935501D01*
X110357685Y-39984680D01*
X110464237Y-40000000D01*
X110535763Y-40000000D01*
X110642315Y-39984680D01*
X110750000Y-39935501D01*
X110750000Y-40900000D01*
X111444518Y-40900000D01*
X111451132Y-40899645D01*
X111507371Y-40893599D01*
X111642089Y-40843352D01*
X111757190Y-40757187D01*
X111776233Y-40731750D01*
X111832166Y-40689878D01*
X111901858Y-40684894D01*
X111963181Y-40718379D01*
X111996666Y-40779702D01*
X111999500Y-40806060D01*
X111999500Y-41122410D01*
X111979815Y-41189449D01*
X111977075Y-41193533D01*
X111869432Y-41347264D01*
X111773261Y-41553502D01*
X111714364Y-41773310D01*
X111694531Y-42000000D01*
X111714364Y-42226689D01*
X111773261Y-42446497D01*
X111869432Y-42652735D01*
X111999953Y-42839140D01*
X112160859Y-43000046D01*
X112347264Y-43130567D01*
X112347265Y-43130567D01*
X112347266Y-43130568D01*
X112553504Y-43226739D01*
X112773308Y-43285635D01*
X113000000Y-43305468D01*
X113226692Y-43285635D01*
X113446496Y-43226739D01*
X113652734Y-43130568D01*
X113839139Y-43000047D01*
X114000047Y-42839139D01*
X114130568Y-42652734D01*
X114226739Y-42446496D01*
X114285635Y-42226692D01*
X114305468Y-42000000D01*
X114285635Y-41773308D01*
X114226739Y-41553504D01*
X114130568Y-41347266D01*
X114022925Y-41193533D01*
X114000597Y-41127326D01*
X114000500Y-41122410D01*
X114000500Y-40529378D01*
X114020185Y-40462339D01*
X114033270Y-40445395D01*
X114034077Y-40444518D01*
X114108979Y-40363153D01*
X114146192Y-40306194D01*
X114199337Y-40260838D01*
X114268568Y-40251414D01*
X114331904Y-40280916D01*
X114353807Y-40306192D01*
X114391021Y-40363153D01*
X114548216Y-40533913D01*
X114731374Y-40676470D01*
X114935497Y-40786936D01*
X115045258Y-40824617D01*
X115155015Y-40862297D01*
X115155017Y-40862297D01*
X115155019Y-40862298D01*
X115383951Y-40900500D01*
X115383952Y-40900500D01*
X115616048Y-40900500D01*
X115616049Y-40900500D01*
X115844981Y-40862298D01*
X116064503Y-40786936D01*
X116268626Y-40676470D01*
X116451784Y-40533913D01*
X116608979Y-40363153D01*
X116735924Y-40168849D01*
X116829157Y-39956300D01*
X116886134Y-39731305D01*
X116905300Y-39500000D01*
X116886134Y-39268695D01*
X116829157Y-39043700D01*
X116735924Y-38831151D01*
X116608979Y-38636847D01*
X116533269Y-38554603D01*
X116502348Y-38491948D01*
X116500500Y-38470621D01*
X116500500Y-38124500D01*
X116520185Y-38057461D01*
X116572989Y-38011706D01*
X116624500Y-38000500D01*
X133193940Y-38000500D01*
X133260979Y-38020185D01*
X133306734Y-38072989D01*
X133316678Y-38142147D01*
X133287653Y-38205703D01*
X133268250Y-38223767D01*
X133242812Y-38242809D01*
X133156647Y-38357910D01*
X133106400Y-38492628D01*
X133100354Y-38548867D01*
X133100000Y-38555481D01*
X133100000Y-39250000D01*
X134066314Y-39250000D01*
X134040507Y-39290156D01*
X134000000Y-39428111D01*
X134000000Y-39571889D01*
X134040507Y-39709844D01*
X134066314Y-39750000D01*
X133100000Y-39750000D01*
X133100000Y-40444518D01*
X133100354Y-40451132D01*
X133106400Y-40507371D01*
X133156647Y-40642089D01*
X133242811Y-40757188D01*
X133357910Y-40843352D01*
X133492628Y-40893599D01*
X133548867Y-40899645D01*
X133555482Y-40900000D01*
X134250000Y-40900000D01*
X134250000Y-39935501D01*
X134357685Y-39984680D01*
X134464237Y-40000000D01*
X134535763Y-40000000D01*
X134642315Y-39984680D01*
X134750000Y-39935501D01*
X134750000Y-40900000D01*
X135444518Y-40900000D01*
X135451132Y-40899645D01*
X135507371Y-40893599D01*
X135642089Y-40843352D01*
X135757190Y-40757187D01*
X135776233Y-40731750D01*
X135832166Y-40689878D01*
X135901858Y-40684894D01*
X135963181Y-40718379D01*
X135996666Y-40779702D01*
X135999500Y-40806060D01*
X135999500Y-41122410D01*
X135979815Y-41189449D01*
X135977075Y-41193533D01*
X135869432Y-41347264D01*
X135773261Y-41553502D01*
X135714364Y-41773310D01*
X135694531Y-42000000D01*
X135714364Y-42226689D01*
X135773261Y-42446497D01*
X135869432Y-42652735D01*
X135999953Y-42839140D01*
X136160859Y-43000046D01*
X136347264Y-43130567D01*
X136347265Y-43130567D01*
X136347266Y-43130568D01*
X136553504Y-43226739D01*
X136773308Y-43285635D01*
X137000000Y-43305468D01*
X137226692Y-43285635D01*
X137446496Y-43226739D01*
X137652734Y-43130568D01*
X137839139Y-43000047D01*
X138000047Y-42839139D01*
X138130568Y-42652734D01*
X138226739Y-42446496D01*
X138285635Y-42226692D01*
X138305468Y-42000000D01*
X138285635Y-41773308D01*
X138226739Y-41553504D01*
X138130568Y-41347266D01*
X138022925Y-41193533D01*
X138000597Y-41127326D01*
X138000500Y-41122410D01*
X138000500Y-40529378D01*
X138020185Y-40462339D01*
X138033270Y-40445395D01*
X138034077Y-40444518D01*
X138108979Y-40363153D01*
X138146192Y-40306194D01*
X138199337Y-40260838D01*
X138268568Y-40251414D01*
X138331904Y-40280916D01*
X138353807Y-40306192D01*
X138391021Y-40363153D01*
X138548216Y-40533913D01*
X138731374Y-40676470D01*
X138935497Y-40786936D01*
X139045258Y-40824617D01*
X139155015Y-40862297D01*
X139155017Y-40862297D01*
X139155019Y-40862298D01*
X139383951Y-40900500D01*
X139383952Y-40900500D01*
X139616048Y-40900500D01*
X139616049Y-40900500D01*
X139844981Y-40862298D01*
X140064503Y-40786936D01*
X140268626Y-40676470D01*
X140451784Y-40533913D01*
X140608979Y-40363153D01*
X140735924Y-40168849D01*
X140829157Y-39956300D01*
X140886134Y-39731305D01*
X140900676Y-39555785D01*
X140925829Y-39490603D01*
X140936564Y-39478354D01*
X142378100Y-38036819D01*
X142439424Y-38003334D01*
X142465782Y-38000500D01*
X156193940Y-38000500D01*
X156260979Y-38020185D01*
X156306734Y-38072989D01*
X156316678Y-38142147D01*
X156287653Y-38205703D01*
X156268250Y-38223767D01*
X156242812Y-38242809D01*
X156156647Y-38357910D01*
X156106400Y-38492628D01*
X156100354Y-38548867D01*
X156100000Y-38555481D01*
X156100000Y-39250000D01*
X157066314Y-39250000D01*
X157040507Y-39290156D01*
X157000000Y-39428111D01*
X157000000Y-39571889D01*
X157040507Y-39709844D01*
X157066314Y-39750000D01*
X156100000Y-39750000D01*
X156100000Y-40444518D01*
X156100354Y-40451132D01*
X156106400Y-40507371D01*
X156156647Y-40642089D01*
X156242811Y-40757188D01*
X156357910Y-40843352D01*
X156492628Y-40893599D01*
X156548867Y-40899645D01*
X156555482Y-40900000D01*
X157250000Y-40900000D01*
X157250000Y-39935501D01*
X157357685Y-39984680D01*
X157464237Y-40000000D01*
X157535763Y-40000000D01*
X157642315Y-39984680D01*
X157750000Y-39935501D01*
X157750000Y-40900000D01*
X158444518Y-40900000D01*
X158451132Y-40899645D01*
X158507371Y-40893599D01*
X158642089Y-40843352D01*
X158757190Y-40757187D01*
X158776233Y-40731750D01*
X158832166Y-40689878D01*
X158901858Y-40684894D01*
X158963181Y-40718379D01*
X158996666Y-40779702D01*
X158999500Y-40806060D01*
X158999500Y-41122410D01*
X158979815Y-41189449D01*
X158977075Y-41193533D01*
X158869432Y-41347264D01*
X158773261Y-41553502D01*
X158714364Y-41773310D01*
X158694531Y-41999999D01*
X158714364Y-42226689D01*
X158773261Y-42446497D01*
X158869432Y-42652735D01*
X158999953Y-42839140D01*
X159160859Y-43000046D01*
X159347264Y-43130567D01*
X159347265Y-43130567D01*
X159347266Y-43130568D01*
X159553504Y-43226739D01*
X159773308Y-43285635D01*
X160000000Y-43305468D01*
X160226692Y-43285635D01*
X160446496Y-43226739D01*
X160652734Y-43130568D01*
X160839139Y-43000047D01*
X161000047Y-42839139D01*
X161130568Y-42652734D01*
X161226739Y-42446496D01*
X161285635Y-42226692D01*
X161305468Y-42000000D01*
X161285635Y-41773308D01*
X161226739Y-41553504D01*
X161130568Y-41347266D01*
X161022925Y-41193533D01*
X161000597Y-41127326D01*
X161000500Y-41122410D01*
X161000500Y-40529378D01*
X161020185Y-40462339D01*
X161033270Y-40445395D01*
X161034077Y-40444518D01*
X161108979Y-40363153D01*
X161146192Y-40306194D01*
X161199337Y-40260838D01*
X161268568Y-40251414D01*
X161331904Y-40280916D01*
X161353807Y-40306192D01*
X161391021Y-40363153D01*
X161548216Y-40533913D01*
X161731374Y-40676470D01*
X161935497Y-40786936D01*
X162045258Y-40824616D01*
X162155015Y-40862297D01*
X162155017Y-40862297D01*
X162155019Y-40862298D01*
X162383951Y-40900500D01*
X162383952Y-40900500D01*
X162616048Y-40900500D01*
X162616049Y-40900500D01*
X162844981Y-40862298D01*
X163064503Y-40786936D01*
X163268626Y-40676470D01*
X163451784Y-40533913D01*
X163608979Y-40363153D01*
X163735924Y-40168849D01*
X163829157Y-39956300D01*
X163886134Y-39731305D01*
X163905300Y-39500000D01*
X163886134Y-39268695D01*
X163829157Y-39043700D01*
X163735924Y-38831151D01*
X163608979Y-38636847D01*
X163534343Y-38555770D01*
X163503423Y-38493118D01*
X163501615Y-38468652D01*
X163502756Y-38423636D01*
X163492345Y-38365554D01*
X163491042Y-38356263D01*
X163485074Y-38297562D01*
X163475964Y-38268528D01*
X163472223Y-38253286D01*
X163470345Y-38242809D01*
X163466858Y-38223347D01*
X163466857Y-38223345D01*
X163466857Y-38223343D01*
X163444976Y-38168565D01*
X163441816Y-38159689D01*
X163425096Y-38106400D01*
X163424159Y-38103412D01*
X163409395Y-38076812D01*
X163402660Y-38062631D01*
X163400595Y-38057461D01*
X163391377Y-38034383D01*
X163358917Y-37985131D01*
X163354036Y-37977074D01*
X163325409Y-37925498D01*
X163305582Y-37902403D01*
X163296146Y-37889888D01*
X163279402Y-37864481D01*
X163279400Y-37864479D01*
X163279399Y-37864477D01*
X163237693Y-37822772D01*
X163231287Y-37815860D01*
X163192864Y-37771102D01*
X163168804Y-37752478D01*
X163157026Y-37742105D01*
X161717567Y-36302647D01*
X161715374Y-36300398D01*
X161655059Y-36236946D01*
X161606642Y-36203247D01*
X161599119Y-36197575D01*
X161553405Y-36160300D01*
X161526440Y-36146215D01*
X161513019Y-36138084D01*
X161488049Y-36120705D01*
X161488048Y-36120704D01*
X161488046Y-36120703D01*
X161433845Y-36097443D01*
X161425336Y-36093402D01*
X161373053Y-36066092D01*
X161367126Y-36064396D01*
X161343798Y-36057721D01*
X161329020Y-36052459D01*
X161301058Y-36040460D01*
X161243272Y-36028583D01*
X161234128Y-36026338D01*
X161177421Y-36010113D01*
X161147075Y-36007802D01*
X161131534Y-36005622D01*
X161101742Y-35999500D01*
X161101741Y-35999500D01*
X161042758Y-35999500D01*
X161033344Y-35999142D01*
X161019266Y-35998070D01*
X160974524Y-35994663D01*
X160974523Y-35994663D01*
X160974522Y-35994663D01*
X160944349Y-35998506D01*
X160928683Y-35999500D01*
X142014279Y-35999500D01*
X142011137Y-35999460D01*
X141923640Y-35997242D01*
X141922583Y-35997431D01*
X141921894Y-35997555D01*
X141900019Y-35999500D01*
X115528501Y-35999500D01*
X115522221Y-35999341D01*
X115518297Y-35999142D01*
X115449064Y-35995630D01*
X115434559Y-35997853D01*
X115433142Y-35998070D01*
X115414365Y-35999500D01*
X95014279Y-35999500D01*
X95011137Y-35999460D01*
X94923637Y-35997242D01*
X94865580Y-36007648D01*
X94856251Y-36008957D01*
X94797562Y-36014926D01*
X94768527Y-36024035D01*
X94753290Y-36027774D01*
X94723350Y-36033141D01*
X94668567Y-36055022D01*
X94659698Y-36058179D01*
X94603410Y-36075841D01*
X94576809Y-36090605D01*
X94562639Y-36097335D01*
X94534385Y-36108622D01*
X94485121Y-36141087D01*
X94477070Y-36145964D01*
X94425498Y-36174590D01*
X94402414Y-36194407D01*
X94389887Y-36203853D01*
X94364481Y-36220598D01*
X94322775Y-36262303D01*
X94315868Y-36268704D01*
X94271103Y-36307135D01*
X94252480Y-36331193D01*
X94242108Y-36342969D01*
X92521899Y-38063181D01*
X92460576Y-38096666D01*
X92434218Y-38099500D01*
X92383951Y-38099500D01*
X92360514Y-38103411D01*
X92155015Y-38137702D01*
X91935501Y-38213062D01*
X91935497Y-38213063D01*
X91935497Y-38213064D01*
X91861173Y-38253286D01*
X91731372Y-38323531D01*
X91548215Y-38466087D01*
X91402590Y-38624279D01*
X91391021Y-38636847D01*
X91391021Y-38636848D01*
X91353809Y-38693805D01*
X91300662Y-38739161D01*
X91231431Y-38748585D01*
X91168095Y-38719083D01*
X91146191Y-38693805D01*
X91108979Y-38636847D01*
X90951784Y-38466087D01*
X90768626Y-38323530D01*
X90564503Y-38213064D01*
X90564499Y-38213062D01*
X90564498Y-38213062D01*
X90344984Y-38137702D01*
X90139486Y-38103411D01*
X90116049Y-38099500D01*
X89883951Y-38099500D01*
X89860514Y-38103411D01*
X89655015Y-38137702D01*
X89435501Y-38213062D01*
X89435497Y-38213063D01*
X89435497Y-38213064D01*
X89361173Y-38253286D01*
X89231372Y-38323531D01*
X89054023Y-38461567D01*
X88989029Y-38487209D01*
X88920489Y-38473642D01*
X88870164Y-38425174D01*
X88861679Y-38407046D01*
X88843352Y-38357911D01*
X88757188Y-38242811D01*
X88642089Y-38156647D01*
X88507371Y-38106400D01*
X88451132Y-38100354D01*
X88444518Y-38100000D01*
X87750000Y-38100000D01*
X87750000Y-39064498D01*
X87642315Y-39015320D01*
X87535763Y-39000000D01*
X87464237Y-39000000D01*
X87357685Y-39015320D01*
X87250000Y-39064498D01*
X87250000Y-38100000D01*
X86555482Y-38100000D01*
X86548867Y-38100354D01*
X86492628Y-38106400D01*
X86357910Y-38156647D01*
X86242811Y-38242811D01*
X86156647Y-38357910D01*
X86106400Y-38492628D01*
X86100354Y-38548867D01*
X86100000Y-38555481D01*
X86100000Y-39250000D01*
X87066314Y-39250000D01*
X87040507Y-39290156D01*
X87000000Y-39428111D01*
X87000000Y-39571889D01*
X87040507Y-39709844D01*
X87066314Y-39750000D01*
X86100000Y-39750000D01*
X86100000Y-40444518D01*
X79000500Y-40444518D01*
X79000500Y-32325712D01*
X83340000Y-32325712D01*
X83340165Y-32330234D01*
X83354898Y-32531543D01*
X83414098Y-32797295D01*
X83511362Y-33051601D01*
X83644615Y-33289032D01*
X83811018Y-33504534D01*
X84007022Y-33693505D01*
X84228463Y-33851933D01*
X84470593Y-33976420D01*
X84728291Y-34064334D01*
X84949999Y-34105285D01*
X84950000Y-34105285D01*
X84950000Y-32844852D01*
X85087047Y-32893559D01*
X85237886Y-32903877D01*
X85385915Y-32873116D01*
X85450000Y-32839909D01*
X85450000Y-34103716D01*
X85450001Y-34103717D01*
X85538748Y-34093952D01*
X85802162Y-34025088D01*
X86052742Y-33918602D01*
X86285154Y-33776763D01*
X86494428Y-33602603D01*
X86676122Y-33399821D01*
X86826351Y-33172748D01*
X86941915Y-32926231D01*
X87020356Y-32665501D01*
X87060000Y-32396130D01*
X87060000Y-32325712D01*
X92940000Y-32325712D01*
X92940165Y-32330234D01*
X92954898Y-32531543D01*
X93014098Y-32797295D01*
X93111362Y-33051601D01*
X93244615Y-33289032D01*
X93411018Y-33504534D01*
X93607022Y-33693505D01*
X93828463Y-33851933D01*
X94070593Y-33976420D01*
X94328291Y-34064334D01*
X94549999Y-34105285D01*
X94550000Y-34105285D01*
X94550000Y-32844852D01*
X94687047Y-32893559D01*
X94837886Y-32903877D01*
X94985915Y-32873116D01*
X95050000Y-32839909D01*
X95050000Y-34103716D01*
X95050001Y-34103717D01*
X95138748Y-34093952D01*
X95402162Y-34025088D01*
X95652742Y-33918602D01*
X95885154Y-33776763D01*
X96094428Y-33602603D01*
X96276122Y-33399821D01*
X96426351Y-33172748D01*
X96541915Y-32926231D01*
X96620356Y-32665501D01*
X96660000Y-32396130D01*
X96660000Y-32325712D01*
X106340000Y-32325712D01*
X106340165Y-32330234D01*
X106354898Y-32531543D01*
X106414098Y-32797295D01*
X106511362Y-33051601D01*
X106644615Y-33289032D01*
X106811018Y-33504534D01*
X107007022Y-33693505D01*
X107228463Y-33851933D01*
X107470593Y-33976420D01*
X107728291Y-34064334D01*
X107949999Y-34105285D01*
X107950000Y-34105285D01*
X107950000Y-32844852D01*
X108087047Y-32893559D01*
X108237886Y-32903877D01*
X108385915Y-32873116D01*
X108450000Y-32839909D01*
X108450000Y-34103716D01*
X108450001Y-34103717D01*
X108538748Y-34093952D01*
X108802162Y-34025088D01*
X109052742Y-33918602D01*
X109285154Y-33776763D01*
X109494428Y-33602603D01*
X109676122Y-33399821D01*
X109826351Y-33172748D01*
X109941915Y-32926231D01*
X110020356Y-32665501D01*
X110060000Y-32396130D01*
X110060000Y-32325712D01*
X115940000Y-32325712D01*
X115940165Y-32330234D01*
X115954898Y-32531543D01*
X116014098Y-32797295D01*
X116111362Y-33051601D01*
X116244615Y-33289032D01*
X116411018Y-33504534D01*
X116607022Y-33693505D01*
X116828463Y-33851933D01*
X117070593Y-33976420D01*
X117328291Y-34064334D01*
X117549999Y-34105285D01*
X117549999Y-32844852D01*
X117687047Y-32893559D01*
X117837886Y-32903877D01*
X117985915Y-32873116D01*
X118050000Y-32839909D01*
X118050000Y-34103716D01*
X118050001Y-34103717D01*
X118138748Y-34093952D01*
X118402162Y-34025088D01*
X118652742Y-33918602D01*
X118885154Y-33776763D01*
X119094428Y-33602603D01*
X119276122Y-33399821D01*
X119426351Y-33172748D01*
X119541915Y-32926231D01*
X119620356Y-32665501D01*
X119660000Y-32396130D01*
X119660000Y-32325712D01*
X130340000Y-32325712D01*
X130340165Y-32330234D01*
X130354898Y-32531543D01*
X130414098Y-32797295D01*
X130511362Y-33051601D01*
X130644615Y-33289032D01*
X130811018Y-33504534D01*
X131007022Y-33693505D01*
X131228463Y-33851933D01*
X131470593Y-33976420D01*
X131728291Y-34064334D01*
X131949999Y-34105285D01*
X131950000Y-34105285D01*
X131950000Y-32844852D01*
X132087047Y-32893559D01*
X132237886Y-32903877D01*
X132385915Y-32873116D01*
X132450000Y-32839909D01*
X132450000Y-34103716D01*
X132450001Y-34103717D01*
X132538748Y-34093952D01*
X132802162Y-34025088D01*
X133052742Y-33918602D01*
X133285154Y-33776763D01*
X133494428Y-33602603D01*
X133676122Y-33399821D01*
X133826351Y-33172748D01*
X133941915Y-32926231D01*
X134020356Y-32665501D01*
X134060000Y-32396130D01*
X134060000Y-32325712D01*
X139940000Y-32325712D01*
X139940165Y-32330234D01*
X139954898Y-32531543D01*
X140014098Y-32797295D01*
X140111362Y-33051601D01*
X140244615Y-33289032D01*
X140411018Y-33504534D01*
X140607022Y-33693505D01*
X140828463Y-33851933D01*
X141070593Y-33976420D01*
X141328291Y-34064334D01*
X141549999Y-34105285D01*
X141550000Y-34105285D01*
X141550000Y-32844852D01*
X141687047Y-32893559D01*
X141837886Y-32903877D01*
X141985915Y-32873116D01*
X142050000Y-32839909D01*
X142050000Y-34103716D01*
X142050001Y-34103717D01*
X142138748Y-34093952D01*
X142402162Y-34025088D01*
X142652742Y-33918602D01*
X142885154Y-33776763D01*
X143094428Y-33602603D01*
X143276122Y-33399821D01*
X143426351Y-33172748D01*
X143541915Y-32926231D01*
X143620356Y-32665501D01*
X143660000Y-32396130D01*
X143660000Y-32325712D01*
X153340000Y-32325712D01*
X153340165Y-32330234D01*
X153354898Y-32531543D01*
X153414098Y-32797295D01*
X153511362Y-33051601D01*
X153644615Y-33289032D01*
X153811018Y-33504534D01*
X154007022Y-33693505D01*
X154228463Y-33851933D01*
X154470593Y-33976420D01*
X154728291Y-34064334D01*
X154950000Y-34105285D01*
X154949999Y-32844852D01*
X155087047Y-32893559D01*
X155237886Y-32903877D01*
X155385915Y-32873116D01*
X155450000Y-32839909D01*
X155450000Y-34103716D01*
X155450001Y-34103717D01*
X155538748Y-34093952D01*
X155802162Y-34025088D01*
X156052742Y-33918602D01*
X156285154Y-33776763D01*
X156494428Y-33602603D01*
X156676122Y-33399821D01*
X156826351Y-33172748D01*
X156941915Y-32926231D01*
X157020356Y-32665501D01*
X157060000Y-32396130D01*
X157060000Y-32325712D01*
X162940000Y-32325712D01*
X162940165Y-32330234D01*
X162954898Y-32531543D01*
X163014098Y-32797295D01*
X163111362Y-33051601D01*
X163244615Y-33289032D01*
X163411018Y-33504534D01*
X163607022Y-33693505D01*
X163828463Y-33851933D01*
X164070593Y-33976420D01*
X164328291Y-34064334D01*
X164550000Y-34105285D01*
X164550000Y-32844852D01*
X164687047Y-32893559D01*
X164837886Y-32903877D01*
X164985915Y-32873116D01*
X165050000Y-32839909D01*
X165050000Y-34103716D01*
X165050001Y-34103717D01*
X165138748Y-34093952D01*
X165402162Y-34025088D01*
X165652742Y-33918602D01*
X165885154Y-33776763D01*
X166094428Y-33602603D01*
X166276122Y-33399821D01*
X166426351Y-33172748D01*
X166541915Y-32926231D01*
X166620356Y-32665501D01*
X166660000Y-32396130D01*
X166660000Y-32250000D01*
X165350000Y-32250000D01*
X165350000Y-31750000D01*
X166660000Y-31750000D01*
X166660000Y-31674287D01*
X166659834Y-31669765D01*
X166645101Y-31468456D01*
X166585901Y-31202704D01*
X166488637Y-30948398D01*
X166355384Y-30710967D01*
X166188981Y-30495465D01*
X165992977Y-30306494D01*
X165771536Y-30148066D01*
X165529406Y-30023579D01*
X165271709Y-29935665D01*
X165050000Y-29894713D01*
X165050000Y-31155147D01*
X164912953Y-31106441D01*
X164762114Y-31096123D01*
X164614085Y-31126884D01*
X164550000Y-31160090D01*
X164550000Y-29896281D01*
X164461250Y-29906048D01*
X164197837Y-29974911D01*
X163947257Y-30081397D01*
X163714845Y-30223236D01*
X163505571Y-30397396D01*
X163323877Y-30600178D01*
X163173648Y-30827251D01*
X163058084Y-31073768D01*
X162979643Y-31334498D01*
X162940000Y-31603869D01*
X162940000Y-31750000D01*
X164250000Y-31750000D01*
X164250000Y-32250000D01*
X162940000Y-32250000D01*
X162940000Y-32325712D01*
X157060000Y-32325712D01*
X157060000Y-32250000D01*
X155750000Y-32250000D01*
X155750000Y-31750000D01*
X157060000Y-31750000D01*
X157060000Y-31674287D01*
X157059834Y-31669765D01*
X157045101Y-31468456D01*
X156985901Y-31202704D01*
X156888637Y-30948398D01*
X156755384Y-30710967D01*
X156588981Y-30495465D01*
X156392977Y-30306494D01*
X156171536Y-30148066D01*
X155929406Y-30023579D01*
X155671709Y-29935665D01*
X155450000Y-29894713D01*
X155450000Y-31155147D01*
X155312953Y-31106441D01*
X155162114Y-31096123D01*
X155014085Y-31126884D01*
X154950000Y-31160090D01*
X154950000Y-29896281D01*
X154861250Y-29906048D01*
X154597837Y-29974911D01*
X154347257Y-30081397D01*
X154114845Y-30223236D01*
X153905571Y-30397396D01*
X153723877Y-30600178D01*
X153573648Y-30827251D01*
X153458084Y-31073768D01*
X153379643Y-31334498D01*
X153340000Y-31603869D01*
X153340000Y-31750000D01*
X154650000Y-31750000D01*
X154650000Y-32250000D01*
X153340000Y-32250000D01*
X153340000Y-32325712D01*
X143660000Y-32325712D01*
X143660000Y-32250000D01*
X142350000Y-32250000D01*
X142350000Y-31750000D01*
X143660000Y-31750000D01*
X143660000Y-31674287D01*
X143659834Y-31669765D01*
X143645101Y-31468456D01*
X143585901Y-31202704D01*
X143488637Y-30948398D01*
X143355384Y-30710967D01*
X143188981Y-30495465D01*
X142992977Y-30306494D01*
X142771536Y-30148066D01*
X142529406Y-30023579D01*
X142271709Y-29935665D01*
X142050000Y-29894713D01*
X142050000Y-31155147D01*
X141912953Y-31106441D01*
X141762114Y-31096123D01*
X141614085Y-31126884D01*
X141550000Y-31160090D01*
X141550000Y-29896281D01*
X141461250Y-29906048D01*
X141197837Y-29974911D01*
X140947257Y-30081397D01*
X140714845Y-30223236D01*
X140505571Y-30397396D01*
X140323877Y-30600178D01*
X140173648Y-30827251D01*
X140058084Y-31073768D01*
X139979643Y-31334498D01*
X139940000Y-31603869D01*
X139940000Y-31750000D01*
X141250000Y-31750000D01*
X141250000Y-32250000D01*
X139940000Y-32250000D01*
X139940000Y-32325712D01*
X134060000Y-32325712D01*
X134060000Y-32250000D01*
X132750000Y-32250000D01*
X132750000Y-31750000D01*
X134060000Y-31750000D01*
X134060000Y-31674287D01*
X134059834Y-31669765D01*
X134045101Y-31468456D01*
X133985901Y-31202704D01*
X133888637Y-30948398D01*
X133755384Y-30710967D01*
X133588981Y-30495465D01*
X133392977Y-30306494D01*
X133171536Y-30148066D01*
X132929406Y-30023579D01*
X132671709Y-29935665D01*
X132449999Y-29894713D01*
X132449999Y-31155147D01*
X132312953Y-31106441D01*
X132162114Y-31096123D01*
X132014085Y-31126884D01*
X131950000Y-31160090D01*
X131950000Y-29896281D01*
X131861250Y-29906048D01*
X131597837Y-29974911D01*
X131347257Y-30081397D01*
X131114845Y-30223236D01*
X130905571Y-30397396D01*
X130723877Y-30600178D01*
X130573648Y-30827251D01*
X130458084Y-31073768D01*
X130379643Y-31334498D01*
X130340000Y-31603869D01*
X130340000Y-31750000D01*
X131650000Y-31750000D01*
X131650000Y-32250000D01*
X130340000Y-32250000D01*
X130340000Y-32325712D01*
X119660000Y-32325712D01*
X119660000Y-32250000D01*
X118350000Y-32250000D01*
X118350000Y-31750000D01*
X119660000Y-31750000D01*
X119660000Y-31674287D01*
X119659834Y-31669765D01*
X119645101Y-31468456D01*
X119585901Y-31202704D01*
X119488637Y-30948398D01*
X119355384Y-30710967D01*
X119188981Y-30495465D01*
X118992977Y-30306494D01*
X118771536Y-30148066D01*
X118529406Y-30023579D01*
X118271709Y-29935665D01*
X118050000Y-29894713D01*
X118050000Y-31155147D01*
X117912953Y-31106441D01*
X117762114Y-31096123D01*
X117614085Y-31126884D01*
X117550000Y-31160090D01*
X117550000Y-29896281D01*
X117461250Y-29906048D01*
X117197837Y-29974911D01*
X116947257Y-30081397D01*
X116714845Y-30223236D01*
X116505571Y-30397396D01*
X116323877Y-30600178D01*
X116173648Y-30827251D01*
X116058084Y-31073768D01*
X115979643Y-31334498D01*
X115940000Y-31603869D01*
X115940000Y-31750000D01*
X117250000Y-31750000D01*
X117250000Y-32250000D01*
X115940000Y-32250000D01*
X115940000Y-32325712D01*
X110060000Y-32325712D01*
X110060000Y-32250000D01*
X108750000Y-32250000D01*
X108750000Y-31750000D01*
X110060000Y-31750000D01*
X110060000Y-31674287D01*
X110059834Y-31669765D01*
X110045101Y-31468456D01*
X109985901Y-31202704D01*
X109888637Y-30948398D01*
X109755384Y-30710967D01*
X109588981Y-30495465D01*
X109392977Y-30306494D01*
X109171536Y-30148066D01*
X108929406Y-30023579D01*
X108671709Y-29935665D01*
X108450000Y-29894713D01*
X108450000Y-31155147D01*
X108312953Y-31106441D01*
X108162114Y-31096123D01*
X108014085Y-31126884D01*
X107950000Y-31160090D01*
X107950000Y-29896281D01*
X107861250Y-29906048D01*
X107597837Y-29974911D01*
X107347257Y-30081397D01*
X107114845Y-30223236D01*
X106905571Y-30397396D01*
X106723877Y-30600178D01*
X106573648Y-30827251D01*
X106458084Y-31073768D01*
X106379643Y-31334498D01*
X106340000Y-31603869D01*
X106340000Y-31750000D01*
X107650000Y-31750000D01*
X107650000Y-32250000D01*
X106340000Y-32250000D01*
X106340000Y-32325712D01*
X96660000Y-32325712D01*
X96660000Y-32250000D01*
X95350000Y-32250000D01*
X95350000Y-31750000D01*
X96660000Y-31750000D01*
X96660000Y-31674287D01*
X96659834Y-31669765D01*
X96645101Y-31468456D01*
X96585901Y-31202704D01*
X96488637Y-30948398D01*
X96355384Y-30710967D01*
X96188981Y-30495465D01*
X95992977Y-30306494D01*
X95771536Y-30148066D01*
X95529406Y-30023579D01*
X95271709Y-29935665D01*
X95050000Y-29894713D01*
X95050000Y-31155147D01*
X94912953Y-31106441D01*
X94762114Y-31096123D01*
X94614085Y-31126884D01*
X94550000Y-31160090D01*
X94550000Y-29896281D01*
X94461250Y-29906048D01*
X94197837Y-29974911D01*
X93947257Y-30081397D01*
X93714845Y-30223236D01*
X93505571Y-30397396D01*
X93323877Y-30600178D01*
X93173648Y-30827251D01*
X93058084Y-31073768D01*
X92979643Y-31334498D01*
X92940000Y-31603869D01*
X92940000Y-31750000D01*
X94250000Y-31750000D01*
X94250000Y-32250000D01*
X92940000Y-32250000D01*
X92940000Y-32325712D01*
X87060000Y-32325712D01*
X87060000Y-32250000D01*
X85750000Y-32250000D01*
X85750000Y-31750000D01*
X87060000Y-31750000D01*
X87060000Y-31674287D01*
X87059834Y-31669765D01*
X87045101Y-31468456D01*
X86985901Y-31202704D01*
X86888637Y-30948398D01*
X86755384Y-30710967D01*
X86588981Y-30495465D01*
X86392977Y-30306494D01*
X86171536Y-30148066D01*
X85929406Y-30023579D01*
X85671709Y-29935665D01*
X85450000Y-29894713D01*
X85450000Y-31155147D01*
X85312953Y-31106441D01*
X85162114Y-31096123D01*
X85014085Y-31126884D01*
X84950000Y-31160090D01*
X84950000Y-29896281D01*
X84861250Y-29906048D01*
X84597837Y-29974911D01*
X84347257Y-30081397D01*
X84114845Y-30223236D01*
X83905571Y-30397396D01*
X83723877Y-30600178D01*
X83573648Y-30827251D01*
X83458084Y-31073768D01*
X83379643Y-31334498D01*
X83340000Y-31603869D01*
X83340000Y-31750000D01*
X84650000Y-31750000D01*
X84650000Y-32250000D01*
X83340000Y-32250000D01*
X83340000Y-32325712D01*
X79000500Y-32325712D01*
X79000500Y-23124500D01*
X79020185Y-23057461D01*
X79072989Y-23011706D01*
X79124500Y-23000500D01*
X171875500Y-23000500D01*
X171942539Y-23020185D01*
G37*
%TD.AperFunction*%
%TD*%
M02*
