%TF.GenerationSoftware,KiCad,Pcbnew,7.0.2*%
%TF.CreationDate,2024-01-15T12:29:35-05:00*%
%TF.ProjectId,CONTROL PCB,434f4e54-524f-44c2-9050-43422e6b6963,rev?*%
%TF.SameCoordinates,Original*%
%TF.FileFunction,Legend,Top*%
%TF.FilePolarity,Positive*%
%FSLAX46Y46*%
G04 Gerber Fmt 4.6, Leading zero omitted, Abs format (unit mm)*
G04 Created by KiCad (PCBNEW 7.0.2) date 2024-01-15 12:29:35*
%MOMM*%
%LPD*%
G01*
G04 APERTURE LIST*
%ADD10C,0.150000*%
%ADD11C,0.120000*%
G04 APERTURE END LIST*
D10*
%TO.C,MODE*%
X123642857Y-47946964D02*
X123642857Y-47196964D01*
X123642857Y-47196964D02*
X123892857Y-47732678D01*
X123892857Y-47732678D02*
X124142857Y-47196964D01*
X124142857Y-47196964D02*
X124142857Y-47946964D01*
X124642857Y-47196964D02*
X124785714Y-47196964D01*
X124785714Y-47196964D02*
X124857143Y-47232678D01*
X124857143Y-47232678D02*
X124928571Y-47304107D01*
X124928571Y-47304107D02*
X124964286Y-47446964D01*
X124964286Y-47446964D02*
X124964286Y-47696964D01*
X124964286Y-47696964D02*
X124928571Y-47839821D01*
X124928571Y-47839821D02*
X124857143Y-47911250D01*
X124857143Y-47911250D02*
X124785714Y-47946964D01*
X124785714Y-47946964D02*
X124642857Y-47946964D01*
X124642857Y-47946964D02*
X124571429Y-47911250D01*
X124571429Y-47911250D02*
X124500000Y-47839821D01*
X124500000Y-47839821D02*
X124464286Y-47696964D01*
X124464286Y-47696964D02*
X124464286Y-47446964D01*
X124464286Y-47446964D02*
X124500000Y-47304107D01*
X124500000Y-47304107D02*
X124571429Y-47232678D01*
X124571429Y-47232678D02*
X124642857Y-47196964D01*
X125285714Y-47946964D02*
X125285714Y-47196964D01*
X125285714Y-47196964D02*
X125464285Y-47196964D01*
X125464285Y-47196964D02*
X125571428Y-47232678D01*
X125571428Y-47232678D02*
X125642857Y-47304107D01*
X125642857Y-47304107D02*
X125678571Y-47375535D01*
X125678571Y-47375535D02*
X125714285Y-47518392D01*
X125714285Y-47518392D02*
X125714285Y-47625535D01*
X125714285Y-47625535D02*
X125678571Y-47768392D01*
X125678571Y-47768392D02*
X125642857Y-47839821D01*
X125642857Y-47839821D02*
X125571428Y-47911250D01*
X125571428Y-47911250D02*
X125464285Y-47946964D01*
X125464285Y-47946964D02*
X125285714Y-47946964D01*
X126035714Y-47554107D02*
X126285714Y-47554107D01*
X126392857Y-47946964D02*
X126035714Y-47946964D01*
X126035714Y-47946964D02*
X126035714Y-47196964D01*
X126035714Y-47196964D02*
X126392857Y-47196964D01*
%TO.C,R4*%
X158092619Y-46356666D02*
X157616428Y-46689999D01*
X158092619Y-46928094D02*
X157092619Y-46928094D01*
X157092619Y-46928094D02*
X157092619Y-46547142D01*
X157092619Y-46547142D02*
X157140238Y-46451904D01*
X157140238Y-46451904D02*
X157187857Y-46404285D01*
X157187857Y-46404285D02*
X157283095Y-46356666D01*
X157283095Y-46356666D02*
X157425952Y-46356666D01*
X157425952Y-46356666D02*
X157521190Y-46404285D01*
X157521190Y-46404285D02*
X157568809Y-46451904D01*
X157568809Y-46451904D02*
X157616428Y-46547142D01*
X157616428Y-46547142D02*
X157616428Y-46928094D01*
X157425952Y-45499523D02*
X158092619Y-45499523D01*
X157045000Y-45737618D02*
X157759285Y-45975713D01*
X157759285Y-45975713D02*
X157759285Y-45356666D01*
X160462619Y-46309047D02*
X160462619Y-46880475D01*
X160462619Y-46594761D02*
X159462619Y-46594761D01*
X159462619Y-46594761D02*
X159605476Y-46689999D01*
X159605476Y-46689999D02*
X159700714Y-46785237D01*
X159700714Y-46785237D02*
X159748333Y-46880475D01*
X160462619Y-45880475D02*
X159462619Y-45880475D01*
X160081666Y-45785237D02*
X160462619Y-45499523D01*
X159795952Y-45499523D02*
X160176904Y-45880475D01*
%TO.C,100nf*%
X121446428Y-64096964D02*
X121017857Y-64096964D01*
X121232142Y-64096964D02*
X121232142Y-63346964D01*
X121232142Y-63346964D02*
X121160714Y-63454107D01*
X121160714Y-63454107D02*
X121089285Y-63525535D01*
X121089285Y-63525535D02*
X121017857Y-63561250D01*
X121910714Y-63346964D02*
X121982143Y-63346964D01*
X121982143Y-63346964D02*
X122053571Y-63382678D01*
X122053571Y-63382678D02*
X122089286Y-63418392D01*
X122089286Y-63418392D02*
X122125000Y-63489821D01*
X122125000Y-63489821D02*
X122160714Y-63632678D01*
X122160714Y-63632678D02*
X122160714Y-63811250D01*
X122160714Y-63811250D02*
X122125000Y-63954107D01*
X122125000Y-63954107D02*
X122089286Y-64025535D01*
X122089286Y-64025535D02*
X122053571Y-64061250D01*
X122053571Y-64061250D02*
X121982143Y-64096964D01*
X121982143Y-64096964D02*
X121910714Y-64096964D01*
X121910714Y-64096964D02*
X121839286Y-64061250D01*
X121839286Y-64061250D02*
X121803571Y-64025535D01*
X121803571Y-64025535D02*
X121767857Y-63954107D01*
X121767857Y-63954107D02*
X121732143Y-63811250D01*
X121732143Y-63811250D02*
X121732143Y-63632678D01*
X121732143Y-63632678D02*
X121767857Y-63489821D01*
X121767857Y-63489821D02*
X121803571Y-63418392D01*
X121803571Y-63418392D02*
X121839286Y-63382678D01*
X121839286Y-63382678D02*
X121910714Y-63346964D01*
X122625000Y-63346964D02*
X122696429Y-63346964D01*
X122696429Y-63346964D02*
X122767857Y-63382678D01*
X122767857Y-63382678D02*
X122803572Y-63418392D01*
X122803572Y-63418392D02*
X122839286Y-63489821D01*
X122839286Y-63489821D02*
X122875000Y-63632678D01*
X122875000Y-63632678D02*
X122875000Y-63811250D01*
X122875000Y-63811250D02*
X122839286Y-63954107D01*
X122839286Y-63954107D02*
X122803572Y-64025535D01*
X122803572Y-64025535D02*
X122767857Y-64061250D01*
X122767857Y-64061250D02*
X122696429Y-64096964D01*
X122696429Y-64096964D02*
X122625000Y-64096964D01*
X122625000Y-64096964D02*
X122553572Y-64061250D01*
X122553572Y-64061250D02*
X122517857Y-64025535D01*
X122517857Y-64025535D02*
X122482143Y-63954107D01*
X122482143Y-63954107D02*
X122446429Y-63811250D01*
X122446429Y-63811250D02*
X122446429Y-63632678D01*
X122446429Y-63632678D02*
X122482143Y-63489821D01*
X122482143Y-63489821D02*
X122517857Y-63418392D01*
X122517857Y-63418392D02*
X122553572Y-63382678D01*
X122553572Y-63382678D02*
X122625000Y-63346964D01*
X123196429Y-63596964D02*
X123196429Y-64096964D01*
X123196429Y-63668392D02*
X123232143Y-63632678D01*
X123232143Y-63632678D02*
X123303572Y-63596964D01*
X123303572Y-63596964D02*
X123410715Y-63596964D01*
X123410715Y-63596964D02*
X123482143Y-63632678D01*
X123482143Y-63632678D02*
X123517858Y-63704107D01*
X123517858Y-63704107D02*
X123517858Y-64096964D01*
X123767857Y-63596964D02*
X124053571Y-63596964D01*
X123875000Y-64096964D02*
X123875000Y-63454107D01*
X123875000Y-63454107D02*
X123910714Y-63382678D01*
X123910714Y-63382678D02*
X123982143Y-63346964D01*
X123982143Y-63346964D02*
X124053571Y-63346964D01*
%TO.C,R5*%
X138583333Y-66462619D02*
X138250000Y-65986428D01*
X138011905Y-66462619D02*
X138011905Y-65462619D01*
X138011905Y-65462619D02*
X138392857Y-65462619D01*
X138392857Y-65462619D02*
X138488095Y-65510238D01*
X138488095Y-65510238D02*
X138535714Y-65557857D01*
X138535714Y-65557857D02*
X138583333Y-65653095D01*
X138583333Y-65653095D02*
X138583333Y-65795952D01*
X138583333Y-65795952D02*
X138535714Y-65891190D01*
X138535714Y-65891190D02*
X138488095Y-65938809D01*
X138488095Y-65938809D02*
X138392857Y-65986428D01*
X138392857Y-65986428D02*
X138011905Y-65986428D01*
X139488095Y-65462619D02*
X139011905Y-65462619D01*
X139011905Y-65462619D02*
X138964286Y-65938809D01*
X138964286Y-65938809D02*
X139011905Y-65891190D01*
X139011905Y-65891190D02*
X139107143Y-65843571D01*
X139107143Y-65843571D02*
X139345238Y-65843571D01*
X139345238Y-65843571D02*
X139440476Y-65891190D01*
X139440476Y-65891190D02*
X139488095Y-65938809D01*
X139488095Y-65938809D02*
X139535714Y-66034047D01*
X139535714Y-66034047D02*
X139535714Y-66272142D01*
X139535714Y-66272142D02*
X139488095Y-66367380D01*
X139488095Y-66367380D02*
X139440476Y-66415000D01*
X139440476Y-66415000D02*
X139345238Y-66462619D01*
X139345238Y-66462619D02*
X139107143Y-66462619D01*
X139107143Y-66462619D02*
X139011905Y-66415000D01*
X139011905Y-66415000D02*
X138964286Y-66367380D01*
X131820952Y-66462619D02*
X131249524Y-66462619D01*
X131535238Y-66462619D02*
X131535238Y-65462619D01*
X131535238Y-65462619D02*
X131440000Y-65605476D01*
X131440000Y-65605476D02*
X131344762Y-65700714D01*
X131344762Y-65700714D02*
X131249524Y-65748333D01*
X132249524Y-66462619D02*
X132249524Y-65462619D01*
X132344762Y-66081666D02*
X132630476Y-66462619D01*
X132630476Y-65795952D02*
X132249524Y-66176904D01*
%TO.C,R7*%
X135462619Y-55356666D02*
X134986428Y-55689999D01*
X135462619Y-55928094D02*
X134462619Y-55928094D01*
X134462619Y-55928094D02*
X134462619Y-55547142D01*
X134462619Y-55547142D02*
X134510238Y-55451904D01*
X134510238Y-55451904D02*
X134557857Y-55404285D01*
X134557857Y-55404285D02*
X134653095Y-55356666D01*
X134653095Y-55356666D02*
X134795952Y-55356666D01*
X134795952Y-55356666D02*
X134891190Y-55404285D01*
X134891190Y-55404285D02*
X134938809Y-55451904D01*
X134938809Y-55451904D02*
X134986428Y-55547142D01*
X134986428Y-55547142D02*
X134986428Y-55928094D01*
X134462619Y-55023332D02*
X134462619Y-54356666D01*
X134462619Y-54356666D02*
X135462619Y-54785237D01*
X132462619Y-55880476D02*
X132462619Y-56451904D01*
X132462619Y-56166190D02*
X131462619Y-56166190D01*
X131462619Y-56166190D02*
X131605476Y-56261428D01*
X131605476Y-56261428D02*
X131700714Y-56356666D01*
X131700714Y-56356666D02*
X131748333Y-56451904D01*
X131462619Y-55261428D02*
X131462619Y-55166190D01*
X131462619Y-55166190D02*
X131510238Y-55070952D01*
X131510238Y-55070952D02*
X131557857Y-55023333D01*
X131557857Y-55023333D02*
X131653095Y-54975714D01*
X131653095Y-54975714D02*
X131843571Y-54928095D01*
X131843571Y-54928095D02*
X132081666Y-54928095D01*
X132081666Y-54928095D02*
X132272142Y-54975714D01*
X132272142Y-54975714D02*
X132367380Y-55023333D01*
X132367380Y-55023333D02*
X132415000Y-55070952D01*
X132415000Y-55070952D02*
X132462619Y-55166190D01*
X132462619Y-55166190D02*
X132462619Y-55261428D01*
X132462619Y-55261428D02*
X132415000Y-55356666D01*
X132415000Y-55356666D02*
X132367380Y-55404285D01*
X132367380Y-55404285D02*
X132272142Y-55451904D01*
X132272142Y-55451904D02*
X132081666Y-55499523D01*
X132081666Y-55499523D02*
X131843571Y-55499523D01*
X131843571Y-55499523D02*
X131653095Y-55451904D01*
X131653095Y-55451904D02*
X131557857Y-55404285D01*
X131557857Y-55404285D02*
X131510238Y-55356666D01*
X131510238Y-55356666D02*
X131462619Y-55261428D01*
X132462619Y-54499523D02*
X131462619Y-54499523D01*
X132462619Y-53928095D02*
X131891190Y-54356666D01*
X131462619Y-53928095D02*
X132034047Y-54499523D01*
%TO.C,B100K*%
X137954107Y-75392857D02*
X137989821Y-75285714D01*
X137989821Y-75285714D02*
X138025535Y-75250000D01*
X138025535Y-75250000D02*
X138096964Y-75214286D01*
X138096964Y-75214286D02*
X138204107Y-75214286D01*
X138204107Y-75214286D02*
X138275535Y-75250000D01*
X138275535Y-75250000D02*
X138311250Y-75285714D01*
X138311250Y-75285714D02*
X138346964Y-75357143D01*
X138346964Y-75357143D02*
X138346964Y-75642857D01*
X138346964Y-75642857D02*
X137596964Y-75642857D01*
X137596964Y-75642857D02*
X137596964Y-75392857D01*
X137596964Y-75392857D02*
X137632678Y-75321429D01*
X137632678Y-75321429D02*
X137668392Y-75285714D01*
X137668392Y-75285714D02*
X137739821Y-75250000D01*
X137739821Y-75250000D02*
X137811250Y-75250000D01*
X137811250Y-75250000D02*
X137882678Y-75285714D01*
X137882678Y-75285714D02*
X137918392Y-75321429D01*
X137918392Y-75321429D02*
X137954107Y-75392857D01*
X137954107Y-75392857D02*
X137954107Y-75642857D01*
X138346964Y-74500000D02*
X138346964Y-74928571D01*
X138346964Y-74714286D02*
X137596964Y-74714286D01*
X137596964Y-74714286D02*
X137704107Y-74785714D01*
X137704107Y-74785714D02*
X137775535Y-74857143D01*
X137775535Y-74857143D02*
X137811250Y-74928571D01*
X137596964Y-74035714D02*
X137596964Y-73964285D01*
X137596964Y-73964285D02*
X137632678Y-73892857D01*
X137632678Y-73892857D02*
X137668392Y-73857143D01*
X137668392Y-73857143D02*
X137739821Y-73821428D01*
X137739821Y-73821428D02*
X137882678Y-73785714D01*
X137882678Y-73785714D02*
X138061250Y-73785714D01*
X138061250Y-73785714D02*
X138204107Y-73821428D01*
X138204107Y-73821428D02*
X138275535Y-73857143D01*
X138275535Y-73857143D02*
X138311250Y-73892857D01*
X138311250Y-73892857D02*
X138346964Y-73964285D01*
X138346964Y-73964285D02*
X138346964Y-74035714D01*
X138346964Y-74035714D02*
X138311250Y-74107143D01*
X138311250Y-74107143D02*
X138275535Y-74142857D01*
X138275535Y-74142857D02*
X138204107Y-74178571D01*
X138204107Y-74178571D02*
X138061250Y-74214285D01*
X138061250Y-74214285D02*
X137882678Y-74214285D01*
X137882678Y-74214285D02*
X137739821Y-74178571D01*
X137739821Y-74178571D02*
X137668392Y-74142857D01*
X137668392Y-74142857D02*
X137632678Y-74107143D01*
X137632678Y-74107143D02*
X137596964Y-74035714D01*
X137596964Y-73321428D02*
X137596964Y-73249999D01*
X137596964Y-73249999D02*
X137632678Y-73178571D01*
X137632678Y-73178571D02*
X137668392Y-73142857D01*
X137668392Y-73142857D02*
X137739821Y-73107142D01*
X137739821Y-73107142D02*
X137882678Y-73071428D01*
X137882678Y-73071428D02*
X138061250Y-73071428D01*
X138061250Y-73071428D02*
X138204107Y-73107142D01*
X138204107Y-73107142D02*
X138275535Y-73142857D01*
X138275535Y-73142857D02*
X138311250Y-73178571D01*
X138311250Y-73178571D02*
X138346964Y-73249999D01*
X138346964Y-73249999D02*
X138346964Y-73321428D01*
X138346964Y-73321428D02*
X138311250Y-73392857D01*
X138311250Y-73392857D02*
X138275535Y-73428571D01*
X138275535Y-73428571D02*
X138204107Y-73464285D01*
X138204107Y-73464285D02*
X138061250Y-73499999D01*
X138061250Y-73499999D02*
X137882678Y-73499999D01*
X137882678Y-73499999D02*
X137739821Y-73464285D01*
X137739821Y-73464285D02*
X137668392Y-73428571D01*
X137668392Y-73428571D02*
X137632678Y-73392857D01*
X137632678Y-73392857D02*
X137596964Y-73321428D01*
X138346964Y-72749999D02*
X137596964Y-72749999D01*
X138346964Y-72321428D02*
X137918392Y-72642856D01*
X137596964Y-72321428D02*
X138025535Y-72749999D01*
X143839285Y-65596964D02*
X144267857Y-65596964D01*
X144053571Y-66346964D02*
X144053571Y-65596964D01*
X144517857Y-66346964D02*
X144517857Y-65596964D01*
X144875000Y-66346964D02*
X144875000Y-65596964D01*
X144875000Y-65596964D02*
X145125000Y-66132678D01*
X145125000Y-66132678D02*
X145375000Y-65596964D01*
X145375000Y-65596964D02*
X145375000Y-66346964D01*
X145732143Y-65954107D02*
X145982143Y-65954107D01*
X146089286Y-66346964D02*
X145732143Y-66346964D01*
X145732143Y-66346964D02*
X145732143Y-65596964D01*
X145732143Y-65596964D02*
X146089286Y-65596964D01*
%TO.C,R2*%
X111092619Y-43166666D02*
X110616428Y-43499999D01*
X111092619Y-43738094D02*
X110092619Y-43738094D01*
X110092619Y-43738094D02*
X110092619Y-43357142D01*
X110092619Y-43357142D02*
X110140238Y-43261904D01*
X110140238Y-43261904D02*
X110187857Y-43214285D01*
X110187857Y-43214285D02*
X110283095Y-43166666D01*
X110283095Y-43166666D02*
X110425952Y-43166666D01*
X110425952Y-43166666D02*
X110521190Y-43214285D01*
X110521190Y-43214285D02*
X110568809Y-43261904D01*
X110568809Y-43261904D02*
X110616428Y-43357142D01*
X110616428Y-43357142D02*
X110616428Y-43738094D01*
X110187857Y-42785713D02*
X110140238Y-42738094D01*
X110140238Y-42738094D02*
X110092619Y-42642856D01*
X110092619Y-42642856D02*
X110092619Y-42404761D01*
X110092619Y-42404761D02*
X110140238Y-42309523D01*
X110140238Y-42309523D02*
X110187857Y-42261904D01*
X110187857Y-42261904D02*
X110283095Y-42214285D01*
X110283095Y-42214285D02*
X110378333Y-42214285D01*
X110378333Y-42214285D02*
X110521190Y-42261904D01*
X110521190Y-42261904D02*
X111092619Y-42833332D01*
X111092619Y-42833332D02*
X111092619Y-42214285D01*
X113462619Y-46309047D02*
X113462619Y-46880475D01*
X113462619Y-46594761D02*
X112462619Y-46594761D01*
X112462619Y-46594761D02*
X112605476Y-46689999D01*
X112605476Y-46689999D02*
X112700714Y-46785237D01*
X112700714Y-46785237D02*
X112748333Y-46880475D01*
X113462619Y-45880475D02*
X112462619Y-45880475D01*
X113081666Y-45785237D02*
X113462619Y-45499523D01*
X112795952Y-45499523D02*
X113176904Y-45880475D01*
%TO.C,R7*%
X116092619Y-55356666D02*
X115616428Y-55689999D01*
X116092619Y-55928094D02*
X115092619Y-55928094D01*
X115092619Y-55928094D02*
X115092619Y-55547142D01*
X115092619Y-55547142D02*
X115140238Y-55451904D01*
X115140238Y-55451904D02*
X115187857Y-55404285D01*
X115187857Y-55404285D02*
X115283095Y-55356666D01*
X115283095Y-55356666D02*
X115425952Y-55356666D01*
X115425952Y-55356666D02*
X115521190Y-55404285D01*
X115521190Y-55404285D02*
X115568809Y-55451904D01*
X115568809Y-55451904D02*
X115616428Y-55547142D01*
X115616428Y-55547142D02*
X115616428Y-55928094D01*
X115092619Y-55023332D02*
X115092619Y-54356666D01*
X115092619Y-54356666D02*
X116092619Y-54785237D01*
X118462619Y-55880476D02*
X118462619Y-56451904D01*
X118462619Y-56166190D02*
X117462619Y-56166190D01*
X117462619Y-56166190D02*
X117605476Y-56261428D01*
X117605476Y-56261428D02*
X117700714Y-56356666D01*
X117700714Y-56356666D02*
X117748333Y-56451904D01*
X117462619Y-55261428D02*
X117462619Y-55166190D01*
X117462619Y-55166190D02*
X117510238Y-55070952D01*
X117510238Y-55070952D02*
X117557857Y-55023333D01*
X117557857Y-55023333D02*
X117653095Y-54975714D01*
X117653095Y-54975714D02*
X117843571Y-54928095D01*
X117843571Y-54928095D02*
X118081666Y-54928095D01*
X118081666Y-54928095D02*
X118272142Y-54975714D01*
X118272142Y-54975714D02*
X118367380Y-55023333D01*
X118367380Y-55023333D02*
X118415000Y-55070952D01*
X118415000Y-55070952D02*
X118462619Y-55166190D01*
X118462619Y-55166190D02*
X118462619Y-55261428D01*
X118462619Y-55261428D02*
X118415000Y-55356666D01*
X118415000Y-55356666D02*
X118367380Y-55404285D01*
X118367380Y-55404285D02*
X118272142Y-55451904D01*
X118272142Y-55451904D02*
X118081666Y-55499523D01*
X118081666Y-55499523D02*
X117843571Y-55499523D01*
X117843571Y-55499523D02*
X117653095Y-55451904D01*
X117653095Y-55451904D02*
X117557857Y-55404285D01*
X117557857Y-55404285D02*
X117510238Y-55356666D01*
X117510238Y-55356666D02*
X117462619Y-55261428D01*
X118462619Y-54499523D02*
X117462619Y-54499523D01*
X118462619Y-53928095D02*
X117891190Y-54356666D01*
X117462619Y-53928095D02*
X118034047Y-54499523D01*
%TO.C,B100K*%
X152954107Y-35392857D02*
X152989821Y-35285714D01*
X152989821Y-35285714D02*
X153025535Y-35250000D01*
X153025535Y-35250000D02*
X153096964Y-35214286D01*
X153096964Y-35214286D02*
X153204107Y-35214286D01*
X153204107Y-35214286D02*
X153275535Y-35250000D01*
X153275535Y-35250000D02*
X153311250Y-35285714D01*
X153311250Y-35285714D02*
X153346964Y-35357143D01*
X153346964Y-35357143D02*
X153346964Y-35642857D01*
X153346964Y-35642857D02*
X152596964Y-35642857D01*
X152596964Y-35642857D02*
X152596964Y-35392857D01*
X152596964Y-35392857D02*
X152632678Y-35321429D01*
X152632678Y-35321429D02*
X152668392Y-35285714D01*
X152668392Y-35285714D02*
X152739821Y-35250000D01*
X152739821Y-35250000D02*
X152811250Y-35250000D01*
X152811250Y-35250000D02*
X152882678Y-35285714D01*
X152882678Y-35285714D02*
X152918392Y-35321429D01*
X152918392Y-35321429D02*
X152954107Y-35392857D01*
X152954107Y-35392857D02*
X152954107Y-35642857D01*
X153346964Y-34500000D02*
X153346964Y-34928571D01*
X153346964Y-34714286D02*
X152596964Y-34714286D01*
X152596964Y-34714286D02*
X152704107Y-34785714D01*
X152704107Y-34785714D02*
X152775535Y-34857143D01*
X152775535Y-34857143D02*
X152811250Y-34928571D01*
X152596964Y-34035714D02*
X152596964Y-33964285D01*
X152596964Y-33964285D02*
X152632678Y-33892857D01*
X152632678Y-33892857D02*
X152668392Y-33857143D01*
X152668392Y-33857143D02*
X152739821Y-33821428D01*
X152739821Y-33821428D02*
X152882678Y-33785714D01*
X152882678Y-33785714D02*
X153061250Y-33785714D01*
X153061250Y-33785714D02*
X153204107Y-33821428D01*
X153204107Y-33821428D02*
X153275535Y-33857143D01*
X153275535Y-33857143D02*
X153311250Y-33892857D01*
X153311250Y-33892857D02*
X153346964Y-33964285D01*
X153346964Y-33964285D02*
X153346964Y-34035714D01*
X153346964Y-34035714D02*
X153311250Y-34107143D01*
X153311250Y-34107143D02*
X153275535Y-34142857D01*
X153275535Y-34142857D02*
X153204107Y-34178571D01*
X153204107Y-34178571D02*
X153061250Y-34214285D01*
X153061250Y-34214285D02*
X152882678Y-34214285D01*
X152882678Y-34214285D02*
X152739821Y-34178571D01*
X152739821Y-34178571D02*
X152668392Y-34142857D01*
X152668392Y-34142857D02*
X152632678Y-34107143D01*
X152632678Y-34107143D02*
X152596964Y-34035714D01*
X152596964Y-33321428D02*
X152596964Y-33249999D01*
X152596964Y-33249999D02*
X152632678Y-33178571D01*
X152632678Y-33178571D02*
X152668392Y-33142857D01*
X152668392Y-33142857D02*
X152739821Y-33107142D01*
X152739821Y-33107142D02*
X152882678Y-33071428D01*
X152882678Y-33071428D02*
X153061250Y-33071428D01*
X153061250Y-33071428D02*
X153204107Y-33107142D01*
X153204107Y-33107142D02*
X153275535Y-33142857D01*
X153275535Y-33142857D02*
X153311250Y-33178571D01*
X153311250Y-33178571D02*
X153346964Y-33249999D01*
X153346964Y-33249999D02*
X153346964Y-33321428D01*
X153346964Y-33321428D02*
X153311250Y-33392857D01*
X153311250Y-33392857D02*
X153275535Y-33428571D01*
X153275535Y-33428571D02*
X153204107Y-33464285D01*
X153204107Y-33464285D02*
X153061250Y-33499999D01*
X153061250Y-33499999D02*
X152882678Y-33499999D01*
X152882678Y-33499999D02*
X152739821Y-33464285D01*
X152739821Y-33464285D02*
X152668392Y-33428571D01*
X152668392Y-33428571D02*
X152632678Y-33392857D01*
X152632678Y-33392857D02*
X152596964Y-33321428D01*
X153346964Y-32749999D02*
X152596964Y-32749999D01*
X153346964Y-32321428D02*
X152918392Y-32642856D01*
X152596964Y-32321428D02*
X153025535Y-32749999D01*
X158232143Y-25346964D02*
X157982143Y-24989821D01*
X157803572Y-25346964D02*
X157803572Y-24596964D01*
X157803572Y-24596964D02*
X158089286Y-24596964D01*
X158089286Y-24596964D02*
X158160715Y-24632678D01*
X158160715Y-24632678D02*
X158196429Y-24668392D01*
X158196429Y-24668392D02*
X158232143Y-24739821D01*
X158232143Y-24739821D02*
X158232143Y-24846964D01*
X158232143Y-24846964D02*
X158196429Y-24918392D01*
X158196429Y-24918392D02*
X158160715Y-24954107D01*
X158160715Y-24954107D02*
X158089286Y-24989821D01*
X158089286Y-24989821D02*
X157803572Y-24989821D01*
X158553572Y-24954107D02*
X158803572Y-24954107D01*
X158910715Y-25346964D02*
X158553572Y-25346964D01*
X158553572Y-25346964D02*
X158553572Y-24596964D01*
X158553572Y-24596964D02*
X158910715Y-24596964D01*
X159589286Y-25346964D02*
X159232143Y-25346964D01*
X159232143Y-25346964D02*
X159232143Y-24596964D01*
X159839286Y-24954107D02*
X160089286Y-24954107D01*
X160196429Y-25346964D02*
X159839286Y-25346964D01*
X159839286Y-25346964D02*
X159839286Y-24596964D01*
X159839286Y-24596964D02*
X160196429Y-24596964D01*
X160482143Y-25132678D02*
X160839286Y-25132678D01*
X160410714Y-25346964D02*
X160660714Y-24596964D01*
X160660714Y-24596964D02*
X160910714Y-25346964D01*
X161125000Y-25311250D02*
X161232143Y-25346964D01*
X161232143Y-25346964D02*
X161410714Y-25346964D01*
X161410714Y-25346964D02*
X161482143Y-25311250D01*
X161482143Y-25311250D02*
X161517857Y-25275535D01*
X161517857Y-25275535D02*
X161553571Y-25204107D01*
X161553571Y-25204107D02*
X161553571Y-25132678D01*
X161553571Y-25132678D02*
X161517857Y-25061250D01*
X161517857Y-25061250D02*
X161482143Y-25025535D01*
X161482143Y-25025535D02*
X161410714Y-24989821D01*
X161410714Y-24989821D02*
X161267857Y-24954107D01*
X161267857Y-24954107D02*
X161196428Y-24918392D01*
X161196428Y-24918392D02*
X161160714Y-24882678D01*
X161160714Y-24882678D02*
X161125000Y-24811250D01*
X161125000Y-24811250D02*
X161125000Y-24739821D01*
X161125000Y-24739821D02*
X161160714Y-24668392D01*
X161160714Y-24668392D02*
X161196428Y-24632678D01*
X161196428Y-24632678D02*
X161267857Y-24596964D01*
X161267857Y-24596964D02*
X161446428Y-24596964D01*
X161446428Y-24596964D02*
X161553571Y-24632678D01*
X161875000Y-24954107D02*
X162125000Y-24954107D01*
X162232143Y-25346964D02*
X161875000Y-25346964D01*
X161875000Y-25346964D02*
X161875000Y-24596964D01*
X161875000Y-24596964D02*
X162232143Y-24596964D01*
%TO.C,100nf*%
X105946428Y-59846964D02*
X105517857Y-59846964D01*
X105732142Y-59846964D02*
X105732142Y-59096964D01*
X105732142Y-59096964D02*
X105660714Y-59204107D01*
X105660714Y-59204107D02*
X105589285Y-59275535D01*
X105589285Y-59275535D02*
X105517857Y-59311250D01*
X106410714Y-59096964D02*
X106482143Y-59096964D01*
X106482143Y-59096964D02*
X106553571Y-59132678D01*
X106553571Y-59132678D02*
X106589286Y-59168392D01*
X106589286Y-59168392D02*
X106625000Y-59239821D01*
X106625000Y-59239821D02*
X106660714Y-59382678D01*
X106660714Y-59382678D02*
X106660714Y-59561250D01*
X106660714Y-59561250D02*
X106625000Y-59704107D01*
X106625000Y-59704107D02*
X106589286Y-59775535D01*
X106589286Y-59775535D02*
X106553571Y-59811250D01*
X106553571Y-59811250D02*
X106482143Y-59846964D01*
X106482143Y-59846964D02*
X106410714Y-59846964D01*
X106410714Y-59846964D02*
X106339286Y-59811250D01*
X106339286Y-59811250D02*
X106303571Y-59775535D01*
X106303571Y-59775535D02*
X106267857Y-59704107D01*
X106267857Y-59704107D02*
X106232143Y-59561250D01*
X106232143Y-59561250D02*
X106232143Y-59382678D01*
X106232143Y-59382678D02*
X106267857Y-59239821D01*
X106267857Y-59239821D02*
X106303571Y-59168392D01*
X106303571Y-59168392D02*
X106339286Y-59132678D01*
X106339286Y-59132678D02*
X106410714Y-59096964D01*
X107125000Y-59096964D02*
X107196429Y-59096964D01*
X107196429Y-59096964D02*
X107267857Y-59132678D01*
X107267857Y-59132678D02*
X107303572Y-59168392D01*
X107303572Y-59168392D02*
X107339286Y-59239821D01*
X107339286Y-59239821D02*
X107375000Y-59382678D01*
X107375000Y-59382678D02*
X107375000Y-59561250D01*
X107375000Y-59561250D02*
X107339286Y-59704107D01*
X107339286Y-59704107D02*
X107303572Y-59775535D01*
X107303572Y-59775535D02*
X107267857Y-59811250D01*
X107267857Y-59811250D02*
X107196429Y-59846964D01*
X107196429Y-59846964D02*
X107125000Y-59846964D01*
X107125000Y-59846964D02*
X107053572Y-59811250D01*
X107053572Y-59811250D02*
X107017857Y-59775535D01*
X107017857Y-59775535D02*
X106982143Y-59704107D01*
X106982143Y-59704107D02*
X106946429Y-59561250D01*
X106946429Y-59561250D02*
X106946429Y-59382678D01*
X106946429Y-59382678D02*
X106982143Y-59239821D01*
X106982143Y-59239821D02*
X107017857Y-59168392D01*
X107017857Y-59168392D02*
X107053572Y-59132678D01*
X107053572Y-59132678D02*
X107125000Y-59096964D01*
X107696429Y-59346964D02*
X107696429Y-59846964D01*
X107696429Y-59418392D02*
X107732143Y-59382678D01*
X107732143Y-59382678D02*
X107803572Y-59346964D01*
X107803572Y-59346964D02*
X107910715Y-59346964D01*
X107910715Y-59346964D02*
X107982143Y-59382678D01*
X107982143Y-59382678D02*
X108017858Y-59454107D01*
X108017858Y-59454107D02*
X108017858Y-59846964D01*
X108267857Y-59346964D02*
X108553571Y-59346964D01*
X108375000Y-59846964D02*
X108375000Y-59204107D01*
X108375000Y-59204107D02*
X108410714Y-59132678D01*
X108410714Y-59132678D02*
X108482143Y-59096964D01*
X108482143Y-59096964D02*
X108553571Y-59096964D01*
%TO.C,B100K*%
X97954107Y-74392857D02*
X97989821Y-74285714D01*
X97989821Y-74285714D02*
X98025535Y-74250000D01*
X98025535Y-74250000D02*
X98096964Y-74214286D01*
X98096964Y-74214286D02*
X98204107Y-74214286D01*
X98204107Y-74214286D02*
X98275535Y-74250000D01*
X98275535Y-74250000D02*
X98311250Y-74285714D01*
X98311250Y-74285714D02*
X98346964Y-74357143D01*
X98346964Y-74357143D02*
X98346964Y-74642857D01*
X98346964Y-74642857D02*
X97596964Y-74642857D01*
X97596964Y-74642857D02*
X97596964Y-74392857D01*
X97596964Y-74392857D02*
X97632678Y-74321429D01*
X97632678Y-74321429D02*
X97668392Y-74285714D01*
X97668392Y-74285714D02*
X97739821Y-74250000D01*
X97739821Y-74250000D02*
X97811250Y-74250000D01*
X97811250Y-74250000D02*
X97882678Y-74285714D01*
X97882678Y-74285714D02*
X97918392Y-74321429D01*
X97918392Y-74321429D02*
X97954107Y-74392857D01*
X97954107Y-74392857D02*
X97954107Y-74642857D01*
X98346964Y-73500000D02*
X98346964Y-73928571D01*
X98346964Y-73714286D02*
X97596964Y-73714286D01*
X97596964Y-73714286D02*
X97704107Y-73785714D01*
X97704107Y-73785714D02*
X97775535Y-73857143D01*
X97775535Y-73857143D02*
X97811250Y-73928571D01*
X97596964Y-73035714D02*
X97596964Y-72964285D01*
X97596964Y-72964285D02*
X97632678Y-72892857D01*
X97632678Y-72892857D02*
X97668392Y-72857143D01*
X97668392Y-72857143D02*
X97739821Y-72821428D01*
X97739821Y-72821428D02*
X97882678Y-72785714D01*
X97882678Y-72785714D02*
X98061250Y-72785714D01*
X98061250Y-72785714D02*
X98204107Y-72821428D01*
X98204107Y-72821428D02*
X98275535Y-72857143D01*
X98275535Y-72857143D02*
X98311250Y-72892857D01*
X98311250Y-72892857D02*
X98346964Y-72964285D01*
X98346964Y-72964285D02*
X98346964Y-73035714D01*
X98346964Y-73035714D02*
X98311250Y-73107143D01*
X98311250Y-73107143D02*
X98275535Y-73142857D01*
X98275535Y-73142857D02*
X98204107Y-73178571D01*
X98204107Y-73178571D02*
X98061250Y-73214285D01*
X98061250Y-73214285D02*
X97882678Y-73214285D01*
X97882678Y-73214285D02*
X97739821Y-73178571D01*
X97739821Y-73178571D02*
X97668392Y-73142857D01*
X97668392Y-73142857D02*
X97632678Y-73107143D01*
X97632678Y-73107143D02*
X97596964Y-73035714D01*
X97596964Y-72321428D02*
X97596964Y-72249999D01*
X97596964Y-72249999D02*
X97632678Y-72178571D01*
X97632678Y-72178571D02*
X97668392Y-72142857D01*
X97668392Y-72142857D02*
X97739821Y-72107142D01*
X97739821Y-72107142D02*
X97882678Y-72071428D01*
X97882678Y-72071428D02*
X98061250Y-72071428D01*
X98061250Y-72071428D02*
X98204107Y-72107142D01*
X98204107Y-72107142D02*
X98275535Y-72142857D01*
X98275535Y-72142857D02*
X98311250Y-72178571D01*
X98311250Y-72178571D02*
X98346964Y-72249999D01*
X98346964Y-72249999D02*
X98346964Y-72321428D01*
X98346964Y-72321428D02*
X98311250Y-72392857D01*
X98311250Y-72392857D02*
X98275535Y-72428571D01*
X98275535Y-72428571D02*
X98204107Y-72464285D01*
X98204107Y-72464285D02*
X98061250Y-72499999D01*
X98061250Y-72499999D02*
X97882678Y-72499999D01*
X97882678Y-72499999D02*
X97739821Y-72464285D01*
X97739821Y-72464285D02*
X97668392Y-72428571D01*
X97668392Y-72428571D02*
X97632678Y-72392857D01*
X97632678Y-72392857D02*
X97596964Y-72321428D01*
X98346964Y-71749999D02*
X97596964Y-71749999D01*
X98346964Y-71321428D02*
X97918392Y-71642856D01*
X97596964Y-71321428D02*
X98025535Y-71749999D01*
X103928572Y-66346964D02*
X103571429Y-66346964D01*
X103571429Y-66346964D02*
X103571429Y-65596964D01*
X104178572Y-65954107D02*
X104428572Y-65954107D01*
X104535715Y-66346964D02*
X104178572Y-66346964D01*
X104178572Y-66346964D02*
X104178572Y-65596964D01*
X104178572Y-65596964D02*
X104535715Y-65596964D01*
X104750000Y-65596964D02*
X105000000Y-66346964D01*
X105000000Y-66346964D02*
X105250000Y-65596964D01*
X105500000Y-65954107D02*
X105750000Y-65954107D01*
X105857143Y-66346964D02*
X105500000Y-66346964D01*
X105500000Y-66346964D02*
X105500000Y-65596964D01*
X105500000Y-65596964D02*
X105857143Y-65596964D01*
X106535714Y-66346964D02*
X106178571Y-66346964D01*
X106178571Y-66346964D02*
X106178571Y-65596964D01*
X129954107Y-35392857D02*
X129989821Y-35285714D01*
X129989821Y-35285714D02*
X130025535Y-35250000D01*
X130025535Y-35250000D02*
X130096964Y-35214286D01*
X130096964Y-35214286D02*
X130204107Y-35214286D01*
X130204107Y-35214286D02*
X130275535Y-35250000D01*
X130275535Y-35250000D02*
X130311250Y-35285714D01*
X130311250Y-35285714D02*
X130346964Y-35357143D01*
X130346964Y-35357143D02*
X130346964Y-35642857D01*
X130346964Y-35642857D02*
X129596964Y-35642857D01*
X129596964Y-35642857D02*
X129596964Y-35392857D01*
X129596964Y-35392857D02*
X129632678Y-35321429D01*
X129632678Y-35321429D02*
X129668392Y-35285714D01*
X129668392Y-35285714D02*
X129739821Y-35250000D01*
X129739821Y-35250000D02*
X129811250Y-35250000D01*
X129811250Y-35250000D02*
X129882678Y-35285714D01*
X129882678Y-35285714D02*
X129918392Y-35321429D01*
X129918392Y-35321429D02*
X129954107Y-35392857D01*
X129954107Y-35392857D02*
X129954107Y-35642857D01*
X130346964Y-34500000D02*
X130346964Y-34928571D01*
X130346964Y-34714286D02*
X129596964Y-34714286D01*
X129596964Y-34714286D02*
X129704107Y-34785714D01*
X129704107Y-34785714D02*
X129775535Y-34857143D01*
X129775535Y-34857143D02*
X129811250Y-34928571D01*
X129596964Y-34035714D02*
X129596964Y-33964285D01*
X129596964Y-33964285D02*
X129632678Y-33892857D01*
X129632678Y-33892857D02*
X129668392Y-33857143D01*
X129668392Y-33857143D02*
X129739821Y-33821428D01*
X129739821Y-33821428D02*
X129882678Y-33785714D01*
X129882678Y-33785714D02*
X130061250Y-33785714D01*
X130061250Y-33785714D02*
X130204107Y-33821428D01*
X130204107Y-33821428D02*
X130275535Y-33857143D01*
X130275535Y-33857143D02*
X130311250Y-33892857D01*
X130311250Y-33892857D02*
X130346964Y-33964285D01*
X130346964Y-33964285D02*
X130346964Y-34035714D01*
X130346964Y-34035714D02*
X130311250Y-34107143D01*
X130311250Y-34107143D02*
X130275535Y-34142857D01*
X130275535Y-34142857D02*
X130204107Y-34178571D01*
X130204107Y-34178571D02*
X130061250Y-34214285D01*
X130061250Y-34214285D02*
X129882678Y-34214285D01*
X129882678Y-34214285D02*
X129739821Y-34178571D01*
X129739821Y-34178571D02*
X129668392Y-34142857D01*
X129668392Y-34142857D02*
X129632678Y-34107143D01*
X129632678Y-34107143D02*
X129596964Y-34035714D01*
X129596964Y-33321428D02*
X129596964Y-33249999D01*
X129596964Y-33249999D02*
X129632678Y-33178571D01*
X129632678Y-33178571D02*
X129668392Y-33142857D01*
X129668392Y-33142857D02*
X129739821Y-33107142D01*
X129739821Y-33107142D02*
X129882678Y-33071428D01*
X129882678Y-33071428D02*
X130061250Y-33071428D01*
X130061250Y-33071428D02*
X130204107Y-33107142D01*
X130204107Y-33107142D02*
X130275535Y-33142857D01*
X130275535Y-33142857D02*
X130311250Y-33178571D01*
X130311250Y-33178571D02*
X130346964Y-33249999D01*
X130346964Y-33249999D02*
X130346964Y-33321428D01*
X130346964Y-33321428D02*
X130311250Y-33392857D01*
X130311250Y-33392857D02*
X130275535Y-33428571D01*
X130275535Y-33428571D02*
X130204107Y-33464285D01*
X130204107Y-33464285D02*
X130061250Y-33499999D01*
X130061250Y-33499999D02*
X129882678Y-33499999D01*
X129882678Y-33499999D02*
X129739821Y-33464285D01*
X129739821Y-33464285D02*
X129668392Y-33428571D01*
X129668392Y-33428571D02*
X129632678Y-33392857D01*
X129632678Y-33392857D02*
X129596964Y-33321428D01*
X130346964Y-32749999D02*
X129596964Y-32749999D01*
X130346964Y-32321428D02*
X129918392Y-32642856D01*
X129596964Y-32321428D02*
X130025535Y-32749999D01*
X134857143Y-25311250D02*
X134964286Y-25346964D01*
X134964286Y-25346964D02*
X135142857Y-25346964D01*
X135142857Y-25346964D02*
X135214286Y-25311250D01*
X135214286Y-25311250D02*
X135250000Y-25275535D01*
X135250000Y-25275535D02*
X135285714Y-25204107D01*
X135285714Y-25204107D02*
X135285714Y-25132678D01*
X135285714Y-25132678D02*
X135250000Y-25061250D01*
X135250000Y-25061250D02*
X135214286Y-25025535D01*
X135214286Y-25025535D02*
X135142857Y-24989821D01*
X135142857Y-24989821D02*
X135000000Y-24954107D01*
X135000000Y-24954107D02*
X134928571Y-24918392D01*
X134928571Y-24918392D02*
X134892857Y-24882678D01*
X134892857Y-24882678D02*
X134857143Y-24811250D01*
X134857143Y-24811250D02*
X134857143Y-24739821D01*
X134857143Y-24739821D02*
X134892857Y-24668392D01*
X134892857Y-24668392D02*
X134928571Y-24632678D01*
X134928571Y-24632678D02*
X135000000Y-24596964D01*
X135000000Y-24596964D02*
X135178571Y-24596964D01*
X135178571Y-24596964D02*
X135285714Y-24632678D01*
X135607143Y-24596964D02*
X135607143Y-25204107D01*
X135607143Y-25204107D02*
X135642857Y-25275535D01*
X135642857Y-25275535D02*
X135678572Y-25311250D01*
X135678572Y-25311250D02*
X135750000Y-25346964D01*
X135750000Y-25346964D02*
X135892857Y-25346964D01*
X135892857Y-25346964D02*
X135964286Y-25311250D01*
X135964286Y-25311250D02*
X136000000Y-25275535D01*
X136000000Y-25275535D02*
X136035714Y-25204107D01*
X136035714Y-25204107D02*
X136035714Y-24596964D01*
X136357143Y-25311250D02*
X136464286Y-25346964D01*
X136464286Y-25346964D02*
X136642857Y-25346964D01*
X136642857Y-25346964D02*
X136714286Y-25311250D01*
X136714286Y-25311250D02*
X136750000Y-25275535D01*
X136750000Y-25275535D02*
X136785714Y-25204107D01*
X136785714Y-25204107D02*
X136785714Y-25132678D01*
X136785714Y-25132678D02*
X136750000Y-25061250D01*
X136750000Y-25061250D02*
X136714286Y-25025535D01*
X136714286Y-25025535D02*
X136642857Y-24989821D01*
X136642857Y-24989821D02*
X136500000Y-24954107D01*
X136500000Y-24954107D02*
X136428571Y-24918392D01*
X136428571Y-24918392D02*
X136392857Y-24882678D01*
X136392857Y-24882678D02*
X136357143Y-24811250D01*
X136357143Y-24811250D02*
X136357143Y-24739821D01*
X136357143Y-24739821D02*
X136392857Y-24668392D01*
X136392857Y-24668392D02*
X136428571Y-24632678D01*
X136428571Y-24632678D02*
X136500000Y-24596964D01*
X136500000Y-24596964D02*
X136678571Y-24596964D01*
X136678571Y-24596964D02*
X136785714Y-24632678D01*
X137000000Y-24596964D02*
X137428572Y-24596964D01*
X137214286Y-25346964D02*
X137214286Y-24596964D01*
X137642858Y-25132678D02*
X138000001Y-25132678D01*
X137571429Y-25346964D02*
X137821429Y-24596964D01*
X137821429Y-24596964D02*
X138071429Y-25346964D01*
X138321429Y-25346964D02*
X138321429Y-24596964D01*
X138678572Y-25346964D02*
X138678572Y-24596964D01*
X138678572Y-24596964D02*
X139107143Y-25346964D01*
X139107143Y-25346964D02*
X139107143Y-24596964D01*
%TO.C,100nf*%
X166096964Y-48803571D02*
X166096964Y-49232142D01*
X166096964Y-49017857D02*
X165346964Y-49017857D01*
X165346964Y-49017857D02*
X165454107Y-49089285D01*
X165454107Y-49089285D02*
X165525535Y-49160714D01*
X165525535Y-49160714D02*
X165561250Y-49232142D01*
X165346964Y-48339285D02*
X165346964Y-48267856D01*
X165346964Y-48267856D02*
X165382678Y-48196428D01*
X165382678Y-48196428D02*
X165418392Y-48160714D01*
X165418392Y-48160714D02*
X165489821Y-48124999D01*
X165489821Y-48124999D02*
X165632678Y-48089285D01*
X165632678Y-48089285D02*
X165811250Y-48089285D01*
X165811250Y-48089285D02*
X165954107Y-48124999D01*
X165954107Y-48124999D02*
X166025535Y-48160714D01*
X166025535Y-48160714D02*
X166061250Y-48196428D01*
X166061250Y-48196428D02*
X166096964Y-48267856D01*
X166096964Y-48267856D02*
X166096964Y-48339285D01*
X166096964Y-48339285D02*
X166061250Y-48410714D01*
X166061250Y-48410714D02*
X166025535Y-48446428D01*
X166025535Y-48446428D02*
X165954107Y-48482142D01*
X165954107Y-48482142D02*
X165811250Y-48517856D01*
X165811250Y-48517856D02*
X165632678Y-48517856D01*
X165632678Y-48517856D02*
X165489821Y-48482142D01*
X165489821Y-48482142D02*
X165418392Y-48446428D01*
X165418392Y-48446428D02*
X165382678Y-48410714D01*
X165382678Y-48410714D02*
X165346964Y-48339285D01*
X165346964Y-47624999D02*
X165346964Y-47553570D01*
X165346964Y-47553570D02*
X165382678Y-47482142D01*
X165382678Y-47482142D02*
X165418392Y-47446428D01*
X165418392Y-47446428D02*
X165489821Y-47410713D01*
X165489821Y-47410713D02*
X165632678Y-47374999D01*
X165632678Y-47374999D02*
X165811250Y-47374999D01*
X165811250Y-47374999D02*
X165954107Y-47410713D01*
X165954107Y-47410713D02*
X166025535Y-47446428D01*
X166025535Y-47446428D02*
X166061250Y-47482142D01*
X166061250Y-47482142D02*
X166096964Y-47553570D01*
X166096964Y-47553570D02*
X166096964Y-47624999D01*
X166096964Y-47624999D02*
X166061250Y-47696428D01*
X166061250Y-47696428D02*
X166025535Y-47732142D01*
X166025535Y-47732142D02*
X165954107Y-47767856D01*
X165954107Y-47767856D02*
X165811250Y-47803570D01*
X165811250Y-47803570D02*
X165632678Y-47803570D01*
X165632678Y-47803570D02*
X165489821Y-47767856D01*
X165489821Y-47767856D02*
X165418392Y-47732142D01*
X165418392Y-47732142D02*
X165382678Y-47696428D01*
X165382678Y-47696428D02*
X165346964Y-47624999D01*
X165596964Y-47053570D02*
X166096964Y-47053570D01*
X165668392Y-47053570D02*
X165632678Y-47017856D01*
X165632678Y-47017856D02*
X165596964Y-46946427D01*
X165596964Y-46946427D02*
X165596964Y-46839284D01*
X165596964Y-46839284D02*
X165632678Y-46767856D01*
X165632678Y-46767856D02*
X165704107Y-46732142D01*
X165704107Y-46732142D02*
X166096964Y-46732142D01*
X165596964Y-46482142D02*
X165596964Y-46196428D01*
X166096964Y-46374999D02*
X165454107Y-46374999D01*
X165454107Y-46374999D02*
X165382678Y-46339285D01*
X165382678Y-46339285D02*
X165346964Y-46267856D01*
X165346964Y-46267856D02*
X165346964Y-46196428D01*
X142846964Y-49053571D02*
X142846964Y-49482142D01*
X142846964Y-49267857D02*
X142096964Y-49267857D01*
X142096964Y-49267857D02*
X142204107Y-49339285D01*
X142204107Y-49339285D02*
X142275535Y-49410714D01*
X142275535Y-49410714D02*
X142311250Y-49482142D01*
X142096964Y-48589285D02*
X142096964Y-48517856D01*
X142096964Y-48517856D02*
X142132678Y-48446428D01*
X142132678Y-48446428D02*
X142168392Y-48410714D01*
X142168392Y-48410714D02*
X142239821Y-48374999D01*
X142239821Y-48374999D02*
X142382678Y-48339285D01*
X142382678Y-48339285D02*
X142561250Y-48339285D01*
X142561250Y-48339285D02*
X142704107Y-48374999D01*
X142704107Y-48374999D02*
X142775535Y-48410714D01*
X142775535Y-48410714D02*
X142811250Y-48446428D01*
X142811250Y-48446428D02*
X142846964Y-48517856D01*
X142846964Y-48517856D02*
X142846964Y-48589285D01*
X142846964Y-48589285D02*
X142811250Y-48660714D01*
X142811250Y-48660714D02*
X142775535Y-48696428D01*
X142775535Y-48696428D02*
X142704107Y-48732142D01*
X142704107Y-48732142D02*
X142561250Y-48767856D01*
X142561250Y-48767856D02*
X142382678Y-48767856D01*
X142382678Y-48767856D02*
X142239821Y-48732142D01*
X142239821Y-48732142D02*
X142168392Y-48696428D01*
X142168392Y-48696428D02*
X142132678Y-48660714D01*
X142132678Y-48660714D02*
X142096964Y-48589285D01*
X142096964Y-47874999D02*
X142096964Y-47803570D01*
X142096964Y-47803570D02*
X142132678Y-47732142D01*
X142132678Y-47732142D02*
X142168392Y-47696428D01*
X142168392Y-47696428D02*
X142239821Y-47660713D01*
X142239821Y-47660713D02*
X142382678Y-47624999D01*
X142382678Y-47624999D02*
X142561250Y-47624999D01*
X142561250Y-47624999D02*
X142704107Y-47660713D01*
X142704107Y-47660713D02*
X142775535Y-47696428D01*
X142775535Y-47696428D02*
X142811250Y-47732142D01*
X142811250Y-47732142D02*
X142846964Y-47803570D01*
X142846964Y-47803570D02*
X142846964Y-47874999D01*
X142846964Y-47874999D02*
X142811250Y-47946428D01*
X142811250Y-47946428D02*
X142775535Y-47982142D01*
X142775535Y-47982142D02*
X142704107Y-48017856D01*
X142704107Y-48017856D02*
X142561250Y-48053570D01*
X142561250Y-48053570D02*
X142382678Y-48053570D01*
X142382678Y-48053570D02*
X142239821Y-48017856D01*
X142239821Y-48017856D02*
X142168392Y-47982142D01*
X142168392Y-47982142D02*
X142132678Y-47946428D01*
X142132678Y-47946428D02*
X142096964Y-47874999D01*
X142346964Y-47303570D02*
X142846964Y-47303570D01*
X142418392Y-47303570D02*
X142382678Y-47267856D01*
X142382678Y-47267856D02*
X142346964Y-47196427D01*
X142346964Y-47196427D02*
X142346964Y-47089284D01*
X142346964Y-47089284D02*
X142382678Y-47017856D01*
X142382678Y-47017856D02*
X142454107Y-46982142D01*
X142454107Y-46982142D02*
X142846964Y-46982142D01*
X142346964Y-46732142D02*
X142346964Y-46446428D01*
X142846964Y-46624999D02*
X142204107Y-46624999D01*
X142204107Y-46624999D02*
X142132678Y-46589285D01*
X142132678Y-46589285D02*
X142096964Y-46517856D01*
X142096964Y-46517856D02*
X142096964Y-46446428D01*
X96846964Y-49053571D02*
X96846964Y-49482142D01*
X96846964Y-49267857D02*
X96096964Y-49267857D01*
X96096964Y-49267857D02*
X96204107Y-49339285D01*
X96204107Y-49339285D02*
X96275535Y-49410714D01*
X96275535Y-49410714D02*
X96311250Y-49482142D01*
X96096964Y-48589285D02*
X96096964Y-48517856D01*
X96096964Y-48517856D02*
X96132678Y-48446428D01*
X96132678Y-48446428D02*
X96168392Y-48410714D01*
X96168392Y-48410714D02*
X96239821Y-48374999D01*
X96239821Y-48374999D02*
X96382678Y-48339285D01*
X96382678Y-48339285D02*
X96561250Y-48339285D01*
X96561250Y-48339285D02*
X96704107Y-48374999D01*
X96704107Y-48374999D02*
X96775535Y-48410714D01*
X96775535Y-48410714D02*
X96811250Y-48446428D01*
X96811250Y-48446428D02*
X96846964Y-48517856D01*
X96846964Y-48517856D02*
X96846964Y-48589285D01*
X96846964Y-48589285D02*
X96811250Y-48660714D01*
X96811250Y-48660714D02*
X96775535Y-48696428D01*
X96775535Y-48696428D02*
X96704107Y-48732142D01*
X96704107Y-48732142D02*
X96561250Y-48767856D01*
X96561250Y-48767856D02*
X96382678Y-48767856D01*
X96382678Y-48767856D02*
X96239821Y-48732142D01*
X96239821Y-48732142D02*
X96168392Y-48696428D01*
X96168392Y-48696428D02*
X96132678Y-48660714D01*
X96132678Y-48660714D02*
X96096964Y-48589285D01*
X96096964Y-47874999D02*
X96096964Y-47803570D01*
X96096964Y-47803570D02*
X96132678Y-47732142D01*
X96132678Y-47732142D02*
X96168392Y-47696428D01*
X96168392Y-47696428D02*
X96239821Y-47660713D01*
X96239821Y-47660713D02*
X96382678Y-47624999D01*
X96382678Y-47624999D02*
X96561250Y-47624999D01*
X96561250Y-47624999D02*
X96704107Y-47660713D01*
X96704107Y-47660713D02*
X96775535Y-47696428D01*
X96775535Y-47696428D02*
X96811250Y-47732142D01*
X96811250Y-47732142D02*
X96846964Y-47803570D01*
X96846964Y-47803570D02*
X96846964Y-47874999D01*
X96846964Y-47874999D02*
X96811250Y-47946428D01*
X96811250Y-47946428D02*
X96775535Y-47982142D01*
X96775535Y-47982142D02*
X96704107Y-48017856D01*
X96704107Y-48017856D02*
X96561250Y-48053570D01*
X96561250Y-48053570D02*
X96382678Y-48053570D01*
X96382678Y-48053570D02*
X96239821Y-48017856D01*
X96239821Y-48017856D02*
X96168392Y-47982142D01*
X96168392Y-47982142D02*
X96132678Y-47946428D01*
X96132678Y-47946428D02*
X96096964Y-47874999D01*
X96346964Y-47303570D02*
X96846964Y-47303570D01*
X96418392Y-47303570D02*
X96382678Y-47267856D01*
X96382678Y-47267856D02*
X96346964Y-47196427D01*
X96346964Y-47196427D02*
X96346964Y-47089284D01*
X96346964Y-47089284D02*
X96382678Y-47017856D01*
X96382678Y-47017856D02*
X96454107Y-46982142D01*
X96454107Y-46982142D02*
X96846964Y-46982142D01*
X96346964Y-46732142D02*
X96346964Y-46446428D01*
X96846964Y-46624999D02*
X96204107Y-46624999D01*
X96204107Y-46624999D02*
X96132678Y-46589285D01*
X96132678Y-46589285D02*
X96096964Y-46517856D01*
X96096964Y-46517856D02*
X96096964Y-46446428D01*
%TO.C,R1*%
X88092619Y-46356666D02*
X87616428Y-46689999D01*
X88092619Y-46928094D02*
X87092619Y-46928094D01*
X87092619Y-46928094D02*
X87092619Y-46547142D01*
X87092619Y-46547142D02*
X87140238Y-46451904D01*
X87140238Y-46451904D02*
X87187857Y-46404285D01*
X87187857Y-46404285D02*
X87283095Y-46356666D01*
X87283095Y-46356666D02*
X87425952Y-46356666D01*
X87425952Y-46356666D02*
X87521190Y-46404285D01*
X87521190Y-46404285D02*
X87568809Y-46451904D01*
X87568809Y-46451904D02*
X87616428Y-46547142D01*
X87616428Y-46547142D02*
X87616428Y-46928094D01*
X88092619Y-45404285D02*
X88092619Y-45975713D01*
X88092619Y-45689999D02*
X87092619Y-45689999D01*
X87092619Y-45689999D02*
X87235476Y-45785237D01*
X87235476Y-45785237D02*
X87330714Y-45880475D01*
X87330714Y-45880475D02*
X87378333Y-45975713D01*
X90462619Y-46309047D02*
X90462619Y-46880475D01*
X90462619Y-46594761D02*
X89462619Y-46594761D01*
X89462619Y-46594761D02*
X89605476Y-46689999D01*
X89605476Y-46689999D02*
X89700714Y-46785237D01*
X89700714Y-46785237D02*
X89748333Y-46880475D01*
X90462619Y-45880475D02*
X89462619Y-45880475D01*
X90081666Y-45785237D02*
X90462619Y-45499523D01*
X89795952Y-45499523D02*
X90176904Y-45880475D01*
%TO.C,R6*%
X112583333Y-65462619D02*
X112250000Y-64986428D01*
X112011905Y-65462619D02*
X112011905Y-64462619D01*
X112011905Y-64462619D02*
X112392857Y-64462619D01*
X112392857Y-64462619D02*
X112488095Y-64510238D01*
X112488095Y-64510238D02*
X112535714Y-64557857D01*
X112535714Y-64557857D02*
X112583333Y-64653095D01*
X112583333Y-64653095D02*
X112583333Y-64795952D01*
X112583333Y-64795952D02*
X112535714Y-64891190D01*
X112535714Y-64891190D02*
X112488095Y-64938809D01*
X112488095Y-64938809D02*
X112392857Y-64986428D01*
X112392857Y-64986428D02*
X112011905Y-64986428D01*
X113440476Y-64462619D02*
X113250000Y-64462619D01*
X113250000Y-64462619D02*
X113154762Y-64510238D01*
X113154762Y-64510238D02*
X113107143Y-64557857D01*
X113107143Y-64557857D02*
X113011905Y-64700714D01*
X113011905Y-64700714D02*
X112964286Y-64891190D01*
X112964286Y-64891190D02*
X112964286Y-65272142D01*
X112964286Y-65272142D02*
X113011905Y-65367380D01*
X113011905Y-65367380D02*
X113059524Y-65415000D01*
X113059524Y-65415000D02*
X113154762Y-65462619D01*
X113154762Y-65462619D02*
X113345238Y-65462619D01*
X113345238Y-65462619D02*
X113440476Y-65415000D01*
X113440476Y-65415000D02*
X113488095Y-65367380D01*
X113488095Y-65367380D02*
X113535714Y-65272142D01*
X113535714Y-65272142D02*
X113535714Y-65034047D01*
X113535714Y-65034047D02*
X113488095Y-64938809D01*
X113488095Y-64938809D02*
X113440476Y-64891190D01*
X113440476Y-64891190D02*
X113345238Y-64843571D01*
X113345238Y-64843571D02*
X113154762Y-64843571D01*
X113154762Y-64843571D02*
X113059524Y-64891190D01*
X113059524Y-64891190D02*
X113011905Y-64938809D01*
X113011905Y-64938809D02*
X112964286Y-65034047D01*
X105820952Y-65462619D02*
X105249524Y-65462619D01*
X105535238Y-65462619D02*
X105535238Y-64462619D01*
X105535238Y-64462619D02*
X105440000Y-64605476D01*
X105440000Y-64605476D02*
X105344762Y-64700714D01*
X105344762Y-64700714D02*
X105249524Y-64748333D01*
X106249524Y-65462619D02*
X106249524Y-64462619D01*
X106344762Y-65081666D02*
X106630476Y-65462619D01*
X106630476Y-64795952D02*
X106249524Y-65176904D01*
%TO.C,B100K*%
X105954107Y-35392857D02*
X105989821Y-35285714D01*
X105989821Y-35285714D02*
X106025535Y-35250000D01*
X106025535Y-35250000D02*
X106096964Y-35214286D01*
X106096964Y-35214286D02*
X106204107Y-35214286D01*
X106204107Y-35214286D02*
X106275535Y-35250000D01*
X106275535Y-35250000D02*
X106311250Y-35285714D01*
X106311250Y-35285714D02*
X106346964Y-35357143D01*
X106346964Y-35357143D02*
X106346964Y-35642857D01*
X106346964Y-35642857D02*
X105596964Y-35642857D01*
X105596964Y-35642857D02*
X105596964Y-35392857D01*
X105596964Y-35392857D02*
X105632678Y-35321429D01*
X105632678Y-35321429D02*
X105668392Y-35285714D01*
X105668392Y-35285714D02*
X105739821Y-35250000D01*
X105739821Y-35250000D02*
X105811250Y-35250000D01*
X105811250Y-35250000D02*
X105882678Y-35285714D01*
X105882678Y-35285714D02*
X105918392Y-35321429D01*
X105918392Y-35321429D02*
X105954107Y-35392857D01*
X105954107Y-35392857D02*
X105954107Y-35642857D01*
X106346964Y-34500000D02*
X106346964Y-34928571D01*
X106346964Y-34714286D02*
X105596964Y-34714286D01*
X105596964Y-34714286D02*
X105704107Y-34785714D01*
X105704107Y-34785714D02*
X105775535Y-34857143D01*
X105775535Y-34857143D02*
X105811250Y-34928571D01*
X105596964Y-34035714D02*
X105596964Y-33964285D01*
X105596964Y-33964285D02*
X105632678Y-33892857D01*
X105632678Y-33892857D02*
X105668392Y-33857143D01*
X105668392Y-33857143D02*
X105739821Y-33821428D01*
X105739821Y-33821428D02*
X105882678Y-33785714D01*
X105882678Y-33785714D02*
X106061250Y-33785714D01*
X106061250Y-33785714D02*
X106204107Y-33821428D01*
X106204107Y-33821428D02*
X106275535Y-33857143D01*
X106275535Y-33857143D02*
X106311250Y-33892857D01*
X106311250Y-33892857D02*
X106346964Y-33964285D01*
X106346964Y-33964285D02*
X106346964Y-34035714D01*
X106346964Y-34035714D02*
X106311250Y-34107143D01*
X106311250Y-34107143D02*
X106275535Y-34142857D01*
X106275535Y-34142857D02*
X106204107Y-34178571D01*
X106204107Y-34178571D02*
X106061250Y-34214285D01*
X106061250Y-34214285D02*
X105882678Y-34214285D01*
X105882678Y-34214285D02*
X105739821Y-34178571D01*
X105739821Y-34178571D02*
X105668392Y-34142857D01*
X105668392Y-34142857D02*
X105632678Y-34107143D01*
X105632678Y-34107143D02*
X105596964Y-34035714D01*
X105596964Y-33321428D02*
X105596964Y-33249999D01*
X105596964Y-33249999D02*
X105632678Y-33178571D01*
X105632678Y-33178571D02*
X105668392Y-33142857D01*
X105668392Y-33142857D02*
X105739821Y-33107142D01*
X105739821Y-33107142D02*
X105882678Y-33071428D01*
X105882678Y-33071428D02*
X106061250Y-33071428D01*
X106061250Y-33071428D02*
X106204107Y-33107142D01*
X106204107Y-33107142D02*
X106275535Y-33142857D01*
X106275535Y-33142857D02*
X106311250Y-33178571D01*
X106311250Y-33178571D02*
X106346964Y-33249999D01*
X106346964Y-33249999D02*
X106346964Y-33321428D01*
X106346964Y-33321428D02*
X106311250Y-33392857D01*
X106311250Y-33392857D02*
X106275535Y-33428571D01*
X106275535Y-33428571D02*
X106204107Y-33464285D01*
X106204107Y-33464285D02*
X106061250Y-33499999D01*
X106061250Y-33499999D02*
X105882678Y-33499999D01*
X105882678Y-33499999D02*
X105739821Y-33464285D01*
X105739821Y-33464285D02*
X105668392Y-33428571D01*
X105668392Y-33428571D02*
X105632678Y-33392857D01*
X105632678Y-33392857D02*
X105596964Y-33321428D01*
X106346964Y-32749999D02*
X105596964Y-32749999D01*
X106346964Y-32321428D02*
X105918392Y-32642856D01*
X105596964Y-32321428D02*
X106025535Y-32749999D01*
X111446429Y-25346964D02*
X111446429Y-24596964D01*
X111446429Y-24596964D02*
X111625000Y-24596964D01*
X111625000Y-24596964D02*
X111732143Y-24632678D01*
X111732143Y-24632678D02*
X111803572Y-24704107D01*
X111803572Y-24704107D02*
X111839286Y-24775535D01*
X111839286Y-24775535D02*
X111875000Y-24918392D01*
X111875000Y-24918392D02*
X111875000Y-25025535D01*
X111875000Y-25025535D02*
X111839286Y-25168392D01*
X111839286Y-25168392D02*
X111803572Y-25239821D01*
X111803572Y-25239821D02*
X111732143Y-25311250D01*
X111732143Y-25311250D02*
X111625000Y-25346964D01*
X111625000Y-25346964D02*
X111446429Y-25346964D01*
X112196429Y-24954107D02*
X112446429Y-24954107D01*
X112553572Y-25346964D02*
X112196429Y-25346964D01*
X112196429Y-25346964D02*
X112196429Y-24596964D01*
X112196429Y-24596964D02*
X112553572Y-24596964D01*
X113303571Y-25275535D02*
X113267857Y-25311250D01*
X113267857Y-25311250D02*
X113160714Y-25346964D01*
X113160714Y-25346964D02*
X113089286Y-25346964D01*
X113089286Y-25346964D02*
X112982143Y-25311250D01*
X112982143Y-25311250D02*
X112910714Y-25239821D01*
X112910714Y-25239821D02*
X112875000Y-25168392D01*
X112875000Y-25168392D02*
X112839286Y-25025535D01*
X112839286Y-25025535D02*
X112839286Y-24918392D01*
X112839286Y-24918392D02*
X112875000Y-24775535D01*
X112875000Y-24775535D02*
X112910714Y-24704107D01*
X112910714Y-24704107D02*
X112982143Y-24632678D01*
X112982143Y-24632678D02*
X113089286Y-24596964D01*
X113089286Y-24596964D02*
X113160714Y-24596964D01*
X113160714Y-24596964D02*
X113267857Y-24632678D01*
X113267857Y-24632678D02*
X113303571Y-24668392D01*
X113589286Y-25132678D02*
X113946429Y-25132678D01*
X113517857Y-25346964D02*
X113767857Y-24596964D01*
X113767857Y-24596964D02*
X114017857Y-25346964D01*
X114410714Y-24989821D02*
X114410714Y-25346964D01*
X114160714Y-24596964D02*
X114410714Y-24989821D01*
X114410714Y-24989821D02*
X114660714Y-24596964D01*
X82954107Y-35392857D02*
X82989821Y-35285714D01*
X82989821Y-35285714D02*
X83025535Y-35250000D01*
X83025535Y-35250000D02*
X83096964Y-35214286D01*
X83096964Y-35214286D02*
X83204107Y-35214286D01*
X83204107Y-35214286D02*
X83275535Y-35250000D01*
X83275535Y-35250000D02*
X83311250Y-35285714D01*
X83311250Y-35285714D02*
X83346964Y-35357143D01*
X83346964Y-35357143D02*
X83346964Y-35642857D01*
X83346964Y-35642857D02*
X82596964Y-35642857D01*
X82596964Y-35642857D02*
X82596964Y-35392857D01*
X82596964Y-35392857D02*
X82632678Y-35321429D01*
X82632678Y-35321429D02*
X82668392Y-35285714D01*
X82668392Y-35285714D02*
X82739821Y-35250000D01*
X82739821Y-35250000D02*
X82811250Y-35250000D01*
X82811250Y-35250000D02*
X82882678Y-35285714D01*
X82882678Y-35285714D02*
X82918392Y-35321429D01*
X82918392Y-35321429D02*
X82954107Y-35392857D01*
X82954107Y-35392857D02*
X82954107Y-35642857D01*
X83346964Y-34500000D02*
X83346964Y-34928571D01*
X83346964Y-34714286D02*
X82596964Y-34714286D01*
X82596964Y-34714286D02*
X82704107Y-34785714D01*
X82704107Y-34785714D02*
X82775535Y-34857143D01*
X82775535Y-34857143D02*
X82811250Y-34928571D01*
X82596964Y-34035714D02*
X82596964Y-33964285D01*
X82596964Y-33964285D02*
X82632678Y-33892857D01*
X82632678Y-33892857D02*
X82668392Y-33857143D01*
X82668392Y-33857143D02*
X82739821Y-33821428D01*
X82739821Y-33821428D02*
X82882678Y-33785714D01*
X82882678Y-33785714D02*
X83061250Y-33785714D01*
X83061250Y-33785714D02*
X83204107Y-33821428D01*
X83204107Y-33821428D02*
X83275535Y-33857143D01*
X83275535Y-33857143D02*
X83311250Y-33892857D01*
X83311250Y-33892857D02*
X83346964Y-33964285D01*
X83346964Y-33964285D02*
X83346964Y-34035714D01*
X83346964Y-34035714D02*
X83311250Y-34107143D01*
X83311250Y-34107143D02*
X83275535Y-34142857D01*
X83275535Y-34142857D02*
X83204107Y-34178571D01*
X83204107Y-34178571D02*
X83061250Y-34214285D01*
X83061250Y-34214285D02*
X82882678Y-34214285D01*
X82882678Y-34214285D02*
X82739821Y-34178571D01*
X82739821Y-34178571D02*
X82668392Y-34142857D01*
X82668392Y-34142857D02*
X82632678Y-34107143D01*
X82632678Y-34107143D02*
X82596964Y-34035714D01*
X82596964Y-33321428D02*
X82596964Y-33249999D01*
X82596964Y-33249999D02*
X82632678Y-33178571D01*
X82632678Y-33178571D02*
X82668392Y-33142857D01*
X82668392Y-33142857D02*
X82739821Y-33107142D01*
X82739821Y-33107142D02*
X82882678Y-33071428D01*
X82882678Y-33071428D02*
X83061250Y-33071428D01*
X83061250Y-33071428D02*
X83204107Y-33107142D01*
X83204107Y-33107142D02*
X83275535Y-33142857D01*
X83275535Y-33142857D02*
X83311250Y-33178571D01*
X83311250Y-33178571D02*
X83346964Y-33249999D01*
X83346964Y-33249999D02*
X83346964Y-33321428D01*
X83346964Y-33321428D02*
X83311250Y-33392857D01*
X83311250Y-33392857D02*
X83275535Y-33428571D01*
X83275535Y-33428571D02*
X83204107Y-33464285D01*
X83204107Y-33464285D02*
X83061250Y-33499999D01*
X83061250Y-33499999D02*
X82882678Y-33499999D01*
X82882678Y-33499999D02*
X82739821Y-33464285D01*
X82739821Y-33464285D02*
X82668392Y-33428571D01*
X82668392Y-33428571D02*
X82632678Y-33392857D01*
X82632678Y-33392857D02*
X82596964Y-33321428D01*
X83346964Y-32749999D02*
X82596964Y-32749999D01*
X83346964Y-32321428D02*
X82918392Y-32642856D01*
X82596964Y-32321428D02*
X83025535Y-32749999D01*
X88178571Y-25132678D02*
X88535714Y-25132678D01*
X88107142Y-25346964D02*
X88357142Y-24596964D01*
X88357142Y-24596964D02*
X88607142Y-25346964D01*
X88749999Y-24596964D02*
X89178571Y-24596964D01*
X88964285Y-25346964D02*
X88964285Y-24596964D01*
X89321428Y-24596964D02*
X89750000Y-24596964D01*
X89535714Y-25346964D02*
X89535714Y-24596964D01*
X89964286Y-25132678D02*
X90321429Y-25132678D01*
X89892857Y-25346964D02*
X90142857Y-24596964D01*
X90142857Y-24596964D02*
X90392857Y-25346964D01*
X91071428Y-25275535D02*
X91035714Y-25311250D01*
X91035714Y-25311250D02*
X90928571Y-25346964D01*
X90928571Y-25346964D02*
X90857143Y-25346964D01*
X90857143Y-25346964D02*
X90750000Y-25311250D01*
X90750000Y-25311250D02*
X90678571Y-25239821D01*
X90678571Y-25239821D02*
X90642857Y-25168392D01*
X90642857Y-25168392D02*
X90607143Y-25025535D01*
X90607143Y-25025535D02*
X90607143Y-24918392D01*
X90607143Y-24918392D02*
X90642857Y-24775535D01*
X90642857Y-24775535D02*
X90678571Y-24704107D01*
X90678571Y-24704107D02*
X90750000Y-24632678D01*
X90750000Y-24632678D02*
X90857143Y-24596964D01*
X90857143Y-24596964D02*
X90928571Y-24596964D01*
X90928571Y-24596964D02*
X91035714Y-24632678D01*
X91035714Y-24632678D02*
X91071428Y-24668392D01*
X91392857Y-25346964D02*
X91392857Y-24596964D01*
X91821428Y-25346964D02*
X91500000Y-24918392D01*
X91821428Y-24596964D02*
X91392857Y-25025535D01*
%TO.C,R3*%
X135092619Y-46356666D02*
X134616428Y-46689999D01*
X135092619Y-46928094D02*
X134092619Y-46928094D01*
X134092619Y-46928094D02*
X134092619Y-46547142D01*
X134092619Y-46547142D02*
X134140238Y-46451904D01*
X134140238Y-46451904D02*
X134187857Y-46404285D01*
X134187857Y-46404285D02*
X134283095Y-46356666D01*
X134283095Y-46356666D02*
X134425952Y-46356666D01*
X134425952Y-46356666D02*
X134521190Y-46404285D01*
X134521190Y-46404285D02*
X134568809Y-46451904D01*
X134568809Y-46451904D02*
X134616428Y-46547142D01*
X134616428Y-46547142D02*
X134616428Y-46928094D01*
X134092619Y-46023332D02*
X134092619Y-45404285D01*
X134092619Y-45404285D02*
X134473571Y-45737618D01*
X134473571Y-45737618D02*
X134473571Y-45594761D01*
X134473571Y-45594761D02*
X134521190Y-45499523D01*
X134521190Y-45499523D02*
X134568809Y-45451904D01*
X134568809Y-45451904D02*
X134664047Y-45404285D01*
X134664047Y-45404285D02*
X134902142Y-45404285D01*
X134902142Y-45404285D02*
X134997380Y-45451904D01*
X134997380Y-45451904D02*
X135045000Y-45499523D01*
X135045000Y-45499523D02*
X135092619Y-45594761D01*
X135092619Y-45594761D02*
X135092619Y-45880475D01*
X135092619Y-45880475D02*
X135045000Y-45975713D01*
X135045000Y-45975713D02*
X134997380Y-46023332D01*
X137462619Y-46309047D02*
X137462619Y-46880475D01*
X137462619Y-46594761D02*
X136462619Y-46594761D01*
X136462619Y-46594761D02*
X136605476Y-46689999D01*
X136605476Y-46689999D02*
X136700714Y-46785237D01*
X136700714Y-46785237D02*
X136748333Y-46880475D01*
X137462619Y-45880475D02*
X136462619Y-45880475D01*
X137081666Y-45785237D02*
X137462619Y-45499523D01*
X136795952Y-45499523D02*
X137176904Y-45880475D01*
%TO.C,100nf*%
X107346964Y-49053571D02*
X107346964Y-49482142D01*
X107346964Y-49267857D02*
X106596964Y-49267857D01*
X106596964Y-49267857D02*
X106704107Y-49339285D01*
X106704107Y-49339285D02*
X106775535Y-49410714D01*
X106775535Y-49410714D02*
X106811250Y-49482142D01*
X106596964Y-48589285D02*
X106596964Y-48517856D01*
X106596964Y-48517856D02*
X106632678Y-48446428D01*
X106632678Y-48446428D02*
X106668392Y-48410714D01*
X106668392Y-48410714D02*
X106739821Y-48374999D01*
X106739821Y-48374999D02*
X106882678Y-48339285D01*
X106882678Y-48339285D02*
X107061250Y-48339285D01*
X107061250Y-48339285D02*
X107204107Y-48374999D01*
X107204107Y-48374999D02*
X107275535Y-48410714D01*
X107275535Y-48410714D02*
X107311250Y-48446428D01*
X107311250Y-48446428D02*
X107346964Y-48517856D01*
X107346964Y-48517856D02*
X107346964Y-48589285D01*
X107346964Y-48589285D02*
X107311250Y-48660714D01*
X107311250Y-48660714D02*
X107275535Y-48696428D01*
X107275535Y-48696428D02*
X107204107Y-48732142D01*
X107204107Y-48732142D02*
X107061250Y-48767856D01*
X107061250Y-48767856D02*
X106882678Y-48767856D01*
X106882678Y-48767856D02*
X106739821Y-48732142D01*
X106739821Y-48732142D02*
X106668392Y-48696428D01*
X106668392Y-48696428D02*
X106632678Y-48660714D01*
X106632678Y-48660714D02*
X106596964Y-48589285D01*
X106596964Y-47874999D02*
X106596964Y-47803570D01*
X106596964Y-47803570D02*
X106632678Y-47732142D01*
X106632678Y-47732142D02*
X106668392Y-47696428D01*
X106668392Y-47696428D02*
X106739821Y-47660713D01*
X106739821Y-47660713D02*
X106882678Y-47624999D01*
X106882678Y-47624999D02*
X107061250Y-47624999D01*
X107061250Y-47624999D02*
X107204107Y-47660713D01*
X107204107Y-47660713D02*
X107275535Y-47696428D01*
X107275535Y-47696428D02*
X107311250Y-47732142D01*
X107311250Y-47732142D02*
X107346964Y-47803570D01*
X107346964Y-47803570D02*
X107346964Y-47874999D01*
X107346964Y-47874999D02*
X107311250Y-47946428D01*
X107311250Y-47946428D02*
X107275535Y-47982142D01*
X107275535Y-47982142D02*
X107204107Y-48017856D01*
X107204107Y-48017856D02*
X107061250Y-48053570D01*
X107061250Y-48053570D02*
X106882678Y-48053570D01*
X106882678Y-48053570D02*
X106739821Y-48017856D01*
X106739821Y-48017856D02*
X106668392Y-47982142D01*
X106668392Y-47982142D02*
X106632678Y-47946428D01*
X106632678Y-47946428D02*
X106596964Y-47874999D01*
X106846964Y-47303570D02*
X107346964Y-47303570D01*
X106918392Y-47303570D02*
X106882678Y-47267856D01*
X106882678Y-47267856D02*
X106846964Y-47196427D01*
X106846964Y-47196427D02*
X106846964Y-47089284D01*
X106846964Y-47089284D02*
X106882678Y-47017856D01*
X106882678Y-47017856D02*
X106954107Y-46982142D01*
X106954107Y-46982142D02*
X107346964Y-46982142D01*
X106846964Y-46732142D02*
X106846964Y-46446428D01*
X107346964Y-46624999D02*
X106704107Y-46624999D01*
X106704107Y-46624999D02*
X106632678Y-46589285D01*
X106632678Y-46589285D02*
X106596964Y-46517856D01*
X106596964Y-46517856D02*
X106596964Y-46446428D01*
D11*
%TO.C,MODE*%
X121570000Y-48650000D02*
X128420000Y-48650000D01*
X121570000Y-61340000D02*
X121570000Y-48650000D01*
X128420000Y-48650000D02*
X128420000Y-48660000D01*
X128430000Y-48650000D02*
X128430000Y-61350000D01*
X128430000Y-61350000D02*
X121570000Y-61350000D01*
%TO.C,R4*%
X158630000Y-49460000D02*
X158630000Y-42920000D01*
X158960000Y-49460000D02*
X158630000Y-49460000D01*
X161040000Y-49460000D02*
X161370000Y-49460000D01*
X161370000Y-49460000D02*
X161370000Y-42920000D01*
X158630000Y-42920000D02*
X158960000Y-42920000D01*
X161370000Y-42920000D02*
X161040000Y-42920000D01*
%TO.C,100nf*%
X126220000Y-67370000D02*
X126220000Y-64630000D01*
X126220000Y-67370000D02*
X118780000Y-67370000D01*
X126220000Y-64630000D02*
X118780000Y-64630000D01*
X118780000Y-67370000D02*
X118780000Y-64630000D01*
%TO.C,R5*%
X135210000Y-67370000D02*
X128670000Y-67370000D01*
X135210000Y-67040000D02*
X135210000Y-67370000D01*
X135210000Y-64960000D02*
X135210000Y-64630000D01*
X135210000Y-64630000D02*
X128670000Y-64630000D01*
X128670000Y-67370000D02*
X128670000Y-67040000D01*
X128670000Y-64630000D02*
X128670000Y-64960000D01*
%TO.C,R7*%
X130630000Y-58460000D02*
X130630000Y-51920000D01*
X130960000Y-58460000D02*
X130630000Y-58460000D01*
X133040000Y-58460000D02*
X133370000Y-58460000D01*
X133370000Y-58460000D02*
X133370000Y-51920000D01*
X130630000Y-51920000D02*
X130960000Y-51920000D01*
X133370000Y-51920000D02*
X133040000Y-51920000D01*
%TO.C,B100K*%
X140120000Y-78620000D02*
X140120000Y-73900000D01*
X141310000Y-78620000D02*
X140130000Y-78620000D01*
X144210000Y-78620000D02*
X143680000Y-78620000D01*
X146660000Y-78620000D02*
X145830000Y-78620000D01*
X149870000Y-78620000D02*
X148380000Y-78620000D01*
X149870000Y-78620000D02*
X149870000Y-73900000D01*
X140130000Y-70090000D02*
X140130000Y-67030000D01*
X149870000Y-70090000D02*
X149870000Y-67030000D01*
X149870000Y-67030000D02*
X140130000Y-67030000D01*
%TO.C,R2*%
X114370000Y-42920000D02*
X114040000Y-42920000D01*
X111630000Y-42920000D02*
X111960000Y-42920000D01*
X114370000Y-49460000D02*
X114370000Y-42920000D01*
X114040000Y-49460000D02*
X114370000Y-49460000D01*
X111960000Y-49460000D02*
X111630000Y-49460000D01*
X111630000Y-49460000D02*
X111630000Y-42920000D01*
%TO.C,R7*%
X116630000Y-58460000D02*
X116630000Y-51920000D01*
X116960000Y-58460000D02*
X116630000Y-58460000D01*
X119040000Y-58460000D02*
X119370000Y-58460000D01*
X119370000Y-58460000D02*
X119370000Y-51920000D01*
X116630000Y-51920000D02*
X116960000Y-51920000D01*
X119370000Y-51920000D02*
X119040000Y-51920000D01*
%TO.C,B100K*%
X155120000Y-38620000D02*
X155120000Y-33900000D01*
X156310000Y-38620000D02*
X155130000Y-38620000D01*
X159210000Y-38620000D02*
X158680000Y-38620000D01*
X161660000Y-38620000D02*
X160830000Y-38620000D01*
X164870000Y-38620000D02*
X163380000Y-38620000D01*
X164870000Y-38620000D02*
X164870000Y-33900000D01*
X155130000Y-30090000D02*
X155130000Y-27030000D01*
X164870000Y-30090000D02*
X164870000Y-27030000D01*
X164870000Y-27030000D02*
X155130000Y-27030000D01*
%TO.C,100nf*%
X110720000Y-63120000D02*
X110720000Y-60380000D01*
X110720000Y-63120000D02*
X103280000Y-63120000D01*
X110720000Y-60380000D02*
X103280000Y-60380000D01*
X103280000Y-63120000D02*
X103280000Y-60380000D01*
%TO.C,B100K*%
X100120000Y-78620000D02*
X100120000Y-73900000D01*
X101310000Y-78620000D02*
X100130000Y-78620000D01*
X104210000Y-78620000D02*
X103680000Y-78620000D01*
X106660000Y-78620000D02*
X105830000Y-78620000D01*
X109870000Y-78620000D02*
X108380000Y-78620000D01*
X109870000Y-78620000D02*
X109870000Y-73900000D01*
X100130000Y-70090000D02*
X100130000Y-67030000D01*
X109870000Y-70090000D02*
X109870000Y-67030000D01*
X109870000Y-67030000D02*
X100130000Y-67030000D01*
X132120000Y-38620000D02*
X132120000Y-33900000D01*
X133310000Y-38620000D02*
X132130000Y-38620000D01*
X136210000Y-38620000D02*
X135680000Y-38620000D01*
X138660000Y-38620000D02*
X137830000Y-38620000D01*
X141870000Y-38620000D02*
X140380000Y-38620000D01*
X141870000Y-38620000D02*
X141870000Y-33900000D01*
X132130000Y-30090000D02*
X132130000Y-27030000D01*
X141870000Y-30090000D02*
X141870000Y-27030000D01*
X141870000Y-27030000D02*
X132130000Y-27030000D01*
%TO.C,100nf*%
X162130000Y-51470000D02*
X164870000Y-51470000D01*
X162130000Y-51470000D02*
X162130000Y-44030000D01*
X164870000Y-51470000D02*
X164870000Y-44030000D01*
X162130000Y-44030000D02*
X164870000Y-44030000D01*
X138880000Y-51720000D02*
X141620000Y-51720000D01*
X138880000Y-51720000D02*
X138880000Y-44280000D01*
X141620000Y-51720000D02*
X141620000Y-44280000D01*
X138880000Y-44280000D02*
X141620000Y-44280000D01*
X92630000Y-51720000D02*
X95370000Y-51720000D01*
X92630000Y-51720000D02*
X92630000Y-44280000D01*
X95370000Y-51720000D02*
X95370000Y-44280000D01*
X92630000Y-44280000D02*
X95370000Y-44280000D01*
%TO.C,R1*%
X88630000Y-49460000D02*
X88630000Y-42920000D01*
X88960000Y-49460000D02*
X88630000Y-49460000D01*
X91040000Y-49460000D02*
X91370000Y-49460000D01*
X91370000Y-49460000D02*
X91370000Y-42920000D01*
X88630000Y-42920000D02*
X88960000Y-42920000D01*
X91370000Y-42920000D02*
X91040000Y-42920000D01*
%TO.C,R6*%
X109210000Y-66370000D02*
X102670000Y-66370000D01*
X109210000Y-66040000D02*
X109210000Y-66370000D01*
X109210000Y-63960000D02*
X109210000Y-63630000D01*
X109210000Y-63630000D02*
X102670000Y-63630000D01*
X102670000Y-66370000D02*
X102670000Y-66040000D01*
X102670000Y-63630000D02*
X102670000Y-63960000D01*
%TO.C,B100K*%
X108120000Y-38620000D02*
X108120000Y-33900000D01*
X109310000Y-38620000D02*
X108130000Y-38620000D01*
X112210000Y-38620000D02*
X111680000Y-38620000D01*
X114660000Y-38620000D02*
X113830000Y-38620000D01*
X117870000Y-38620000D02*
X116380000Y-38620000D01*
X117870000Y-38620000D02*
X117870000Y-33900000D01*
X108130000Y-30090000D02*
X108130000Y-27030000D01*
X117870000Y-30090000D02*
X117870000Y-27030000D01*
X117870000Y-27030000D02*
X108130000Y-27030000D01*
X85120000Y-38620000D02*
X85120000Y-33900000D01*
X86310000Y-38620000D02*
X85130000Y-38620000D01*
X89210000Y-38620000D02*
X88680000Y-38620000D01*
X91660000Y-38620000D02*
X90830000Y-38620000D01*
X94870000Y-38620000D02*
X93380000Y-38620000D01*
X94870000Y-38620000D02*
X94870000Y-33900000D01*
X85130000Y-30090000D02*
X85130000Y-27030000D01*
X94870000Y-30090000D02*
X94870000Y-27030000D01*
X94870000Y-27030000D02*
X85130000Y-27030000D01*
%TO.C,R3*%
X135630000Y-49460000D02*
X135630000Y-42920000D01*
X135960000Y-49460000D02*
X135630000Y-49460000D01*
X138040000Y-49460000D02*
X138370000Y-49460000D01*
X138370000Y-49460000D02*
X138370000Y-42920000D01*
X135630000Y-42920000D02*
X135960000Y-42920000D01*
X138370000Y-42920000D02*
X138040000Y-42920000D01*
%TO.C,100nf*%
X108130000Y-51720000D02*
X110870000Y-51720000D01*
X108130000Y-51720000D02*
X108130000Y-44280000D01*
X110870000Y-51720000D02*
X110870000Y-44280000D01*
X108130000Y-44280000D02*
X110870000Y-44280000D01*
%TD*%
M02*
