%TF.GenerationSoftware,KiCad,Pcbnew,7.0.2*%
%TF.CreationDate,2024-01-15T12:29:35-05:00*%
%TF.ProjectId,CONTROL PCB,434f4e54-524f-44c2-9050-43422e6b6963,rev?*%
%TF.SameCoordinates,Original*%
%TF.FileFunction,Legend,Bot*%
%TF.FilePolarity,Positive*%
%FSLAX46Y46*%
G04 Gerber Fmt 4.6, Leading zero omitted, Abs format (unit mm)*
G04 Created by KiCad (PCBNEW 7.0.2) date 2024-01-15 12:29:35*
%MOMM*%
%LPD*%
G01*
G04 APERTURE LIST*
%ADD10C,0.150000*%
%ADD11C,0.120000*%
%ADD12C,3.100000*%
%ADD13C,1.700000*%
G04 APERTURE END LIST*
D10*
%TO.C,NOT POWER*%
X114822619Y-69150952D02*
X113822619Y-69150952D01*
X113822619Y-69150952D02*
X114822619Y-69722380D01*
X114822619Y-69722380D02*
X113822619Y-69722380D01*
X113822619Y-70389047D02*
X113822619Y-70579523D01*
X113822619Y-70579523D02*
X113870238Y-70674761D01*
X113870238Y-70674761D02*
X113965476Y-70769999D01*
X113965476Y-70769999D02*
X114155952Y-70817618D01*
X114155952Y-70817618D02*
X114489285Y-70817618D01*
X114489285Y-70817618D02*
X114679761Y-70769999D01*
X114679761Y-70769999D02*
X114775000Y-70674761D01*
X114775000Y-70674761D02*
X114822619Y-70579523D01*
X114822619Y-70579523D02*
X114822619Y-70389047D01*
X114822619Y-70389047D02*
X114775000Y-70293809D01*
X114775000Y-70293809D02*
X114679761Y-70198571D01*
X114679761Y-70198571D02*
X114489285Y-70150952D01*
X114489285Y-70150952D02*
X114155952Y-70150952D01*
X114155952Y-70150952D02*
X113965476Y-70198571D01*
X113965476Y-70198571D02*
X113870238Y-70293809D01*
X113870238Y-70293809D02*
X113822619Y-70389047D01*
X113822619Y-71103333D02*
X113822619Y-71674761D01*
X114822619Y-71389047D02*
X113822619Y-71389047D01*
X114822619Y-72770000D02*
X113822619Y-72770000D01*
X113822619Y-72770000D02*
X113822619Y-73150952D01*
X113822619Y-73150952D02*
X113870238Y-73246190D01*
X113870238Y-73246190D02*
X113917857Y-73293809D01*
X113917857Y-73293809D02*
X114013095Y-73341428D01*
X114013095Y-73341428D02*
X114155952Y-73341428D01*
X114155952Y-73341428D02*
X114251190Y-73293809D01*
X114251190Y-73293809D02*
X114298809Y-73246190D01*
X114298809Y-73246190D02*
X114346428Y-73150952D01*
X114346428Y-73150952D02*
X114346428Y-72770000D01*
X113822619Y-73960476D02*
X113822619Y-74150952D01*
X113822619Y-74150952D02*
X113870238Y-74246190D01*
X113870238Y-74246190D02*
X113965476Y-74341428D01*
X113965476Y-74341428D02*
X114155952Y-74389047D01*
X114155952Y-74389047D02*
X114489285Y-74389047D01*
X114489285Y-74389047D02*
X114679761Y-74341428D01*
X114679761Y-74341428D02*
X114775000Y-74246190D01*
X114775000Y-74246190D02*
X114822619Y-74150952D01*
X114822619Y-74150952D02*
X114822619Y-73960476D01*
X114822619Y-73960476D02*
X114775000Y-73865238D01*
X114775000Y-73865238D02*
X114679761Y-73770000D01*
X114679761Y-73770000D02*
X114489285Y-73722381D01*
X114489285Y-73722381D02*
X114155952Y-73722381D01*
X114155952Y-73722381D02*
X113965476Y-73770000D01*
X113965476Y-73770000D02*
X113870238Y-73865238D01*
X113870238Y-73865238D02*
X113822619Y-73960476D01*
X113822619Y-74722381D02*
X114822619Y-74960476D01*
X114822619Y-74960476D02*
X114108333Y-75150952D01*
X114108333Y-75150952D02*
X114822619Y-75341428D01*
X114822619Y-75341428D02*
X113822619Y-75579524D01*
X114298809Y-75960476D02*
X114298809Y-76293809D01*
X114822619Y-76436666D02*
X114822619Y-75960476D01*
X114822619Y-75960476D02*
X113822619Y-75960476D01*
X113822619Y-75960476D02*
X113822619Y-76436666D01*
X114822619Y-77436666D02*
X114346428Y-77103333D01*
X114822619Y-76865238D02*
X113822619Y-76865238D01*
X113822619Y-76865238D02*
X113822619Y-77246190D01*
X113822619Y-77246190D02*
X113870238Y-77341428D01*
X113870238Y-77341428D02*
X113917857Y-77389047D01*
X113917857Y-77389047D02*
X114013095Y-77436666D01*
X114013095Y-77436666D02*
X114155952Y-77436666D01*
X114155952Y-77436666D02*
X114251190Y-77389047D01*
X114251190Y-77389047D02*
X114298809Y-77341428D01*
X114298809Y-77341428D02*
X114346428Y-77246190D01*
X114346428Y-77246190D02*
X114346428Y-76865238D01*
D11*
X120960000Y-67320000D02*
X120460000Y-68320000D01*
X119960000Y-67320000D02*
X120960000Y-67320000D01*
X120460000Y-68320000D02*
X119960000Y-67320000D01*
X135830000Y-68710000D02*
X115250000Y-68710000D01*
X123490000Y-68710000D02*
X123490000Y-70020000D01*
X115250000Y-68710000D02*
X115250000Y-77830000D01*
X134530000Y-70020000D02*
X127590000Y-70020000D01*
X127590000Y-70020000D02*
X127590000Y-68710000D01*
X127590000Y-70020000D02*
X127590000Y-70020000D01*
X123490000Y-70020000D02*
X116550000Y-70020000D01*
X116550000Y-70020000D02*
X116550000Y-76520000D01*
X134530000Y-76520000D02*
X134530000Y-70020000D01*
X116550000Y-76520000D02*
X134530000Y-76520000D01*
X135830000Y-77830000D02*
X135830000Y-68710000D01*
X115250000Y-77830000D02*
X135830000Y-77830000D01*
%TD*%
D12*
%TO.C,MODE*%
X125000000Y-55000000D03*
%TD*%
D13*
%TO.C,NOT POWER*%
X128080000Y-72000000D03*
X130620000Y-74540000D03*
%TD*%
M02*
