M48
; DRILL file {KiCad 7.0.2} date Mon Jan 15 12:29:37 2024
; FORMAT={-:-/ absolute / metric / decimal}
; #@! TF.CreationDate,2024-01-15T12:29:37-05:00
; #@! TF.GenerationSoftware,Kicad,Pcbnew,7.0.2
; #@! TF.FileFunction,Plated,1,2,PTH
FMAT,2
METRIC
; #@! TA.AperFunction,Plated,PTH,ComponentDrill
T1C0.800
; #@! TA.AperFunction,Plated,PTH,ComponentDrill
T2C1.000
; #@! TA.AperFunction,Plated,PTH,ComponentDrill
T3C1.100
; #@! TA.AperFunction,Plated,PTH,ComponentDrill
T4C2.100
; #@! TA.AperFunction,Plated,PTH,ComponentDrill
T5C3.200
%
G90
G05
T1
X90.0Y-42.0
X90.0Y-50.5
X94.0Y-45.5
X94.0Y-50.5
X101.75Y-65.0
X104.5Y-61.75
X109.5Y-45.5
X109.5Y-50.5
X109.5Y-61.75
X110.25Y-65.0
X113.0Y-42.0
X113.0Y-50.5
X118.0Y-51.0
X118.0Y-59.5
X120.0Y-66.0
X125.0Y-66.0
X127.75Y-66.0
X132.0Y-51.0
X132.0Y-59.5
X136.25Y-66.0
X137.0Y-42.0
X137.0Y-50.5
X140.25Y-45.5
X140.25Y-50.5
X160.0Y-42.0
X160.0Y-50.5
X163.5Y-45.25
X163.5Y-50.25
T2
X87.5Y-39.5
X90.0Y-39.5
X92.5Y-39.5
X102.5Y-79.5
X105.0Y-79.5
X107.5Y-79.5
X110.5Y-39.5
X113.0Y-39.5
X115.5Y-39.5
X120.46Y-72.0
X120.46Y-74.54
X123.0Y-72.0
X123.0Y-74.54
X125.54Y-72.0
X125.54Y-74.54
X128.08Y-72.0
X128.08Y-74.54
X130.62Y-72.0
X130.62Y-74.54
X134.5Y-39.5
X137.0Y-39.5
X139.5Y-39.5
X142.5Y-79.5
X145.0Y-79.5
X147.5Y-79.5
X157.5Y-39.5
X160.0Y-39.5
X162.5Y-39.5
T4
X125.0Y-50.3
X125.0Y-55.0
X125.0Y-59.7
T5
X83.0Y-77.0
X168.0Y-77.0
T3
X85.2Y-32.35G85X85.2Y-31.65
G05
X94.8Y-32.35G85X94.8Y-31.65
G05
X100.2Y-72.35G85X100.2Y-71.65
G05
X108.2Y-32.35G85X108.2Y-31.65
G05
X109.8Y-72.35G85X109.8Y-71.65
G05
X117.8Y-32.35G85X117.8Y-31.65
G05
X132.2Y-32.35G85X132.2Y-31.65
G05
X140.2Y-72.35G85X140.2Y-71.65
G05
X141.8Y-32.35G85X141.8Y-31.65
G05
X149.8Y-72.35G85X149.8Y-71.65
G05
X155.2Y-32.35G85X155.2Y-31.65
G05
X164.8Y-32.35G85X164.8Y-31.65
G05
T0
M30
