%TF.GenerationSoftware,KiCad,Pcbnew,7.0.2*%
%TF.CreationDate,2024-01-15T12:29:37-05:00*%
%TF.ProjectId,CONTROL PCB,434f4e54-524f-44c2-9050-43422e6b6963,rev?*%
%TF.SameCoordinates,Original*%
%TF.FileFunction,Drillmap*%
%TF.FilePolarity,Positive*%
%FSLAX45Y45*%
G04 Gerber Fmt 4.5, Leading zero omitted, Abs format (unit mm)*
G04 Created by KiCad (PCBNEW 7.0.2) date 2024-01-15 12:29:37*
%MOMM*%
%LPD*%
G01*
G04 APERTURE LIST*
%ADD10C,0.100000*%
%ADD11C,0.200000*%
G04 APERTURE END LIST*
D10*
X17200000Y-8200000D02*
X7900000Y-8200000D01*
X7900000Y-2300000D01*
X17200000Y-2300000D01*
X17200000Y-8200000D01*
D11*
X8142619Y-8517524D02*
X8142619Y-8317524D01*
X8142619Y-8317524D02*
X8190238Y-8317524D01*
X8190238Y-8317524D02*
X8218809Y-8327048D01*
X8218809Y-8327048D02*
X8237857Y-8346095D01*
X8237857Y-8346095D02*
X8247381Y-8365143D01*
X8247381Y-8365143D02*
X8256905Y-8403238D01*
X8256905Y-8403238D02*
X8256905Y-8431810D01*
X8256905Y-8431810D02*
X8247381Y-8469905D01*
X8247381Y-8469905D02*
X8237857Y-8488952D01*
X8237857Y-8488952D02*
X8218809Y-8508000D01*
X8218809Y-8508000D02*
X8190238Y-8517524D01*
X8190238Y-8517524D02*
X8142619Y-8517524D01*
X8342619Y-8517524D02*
X8342619Y-8384190D01*
X8342619Y-8422286D02*
X8352143Y-8403238D01*
X8352143Y-8403238D02*
X8361667Y-8393714D01*
X8361667Y-8393714D02*
X8380714Y-8384190D01*
X8380714Y-8384190D02*
X8399762Y-8384190D01*
X8466429Y-8517524D02*
X8466429Y-8384190D01*
X8466429Y-8317524D02*
X8456905Y-8327048D01*
X8456905Y-8327048D02*
X8466429Y-8336571D01*
X8466429Y-8336571D02*
X8475952Y-8327048D01*
X8475952Y-8327048D02*
X8466429Y-8317524D01*
X8466429Y-8317524D02*
X8466429Y-8336571D01*
X8590238Y-8517524D02*
X8571190Y-8508000D01*
X8571190Y-8508000D02*
X8561667Y-8488952D01*
X8561667Y-8488952D02*
X8561667Y-8317524D01*
X8695000Y-8517524D02*
X8675952Y-8508000D01*
X8675952Y-8508000D02*
X8666429Y-8488952D01*
X8666429Y-8488952D02*
X8666429Y-8317524D01*
X8923571Y-8517524D02*
X8923571Y-8317524D01*
X8923571Y-8317524D02*
X8990238Y-8460381D01*
X8990238Y-8460381D02*
X9056905Y-8317524D01*
X9056905Y-8317524D02*
X9056905Y-8517524D01*
X9237857Y-8517524D02*
X9237857Y-8412762D01*
X9237857Y-8412762D02*
X9228333Y-8393714D01*
X9228333Y-8393714D02*
X9209286Y-8384190D01*
X9209286Y-8384190D02*
X9171190Y-8384190D01*
X9171190Y-8384190D02*
X9152143Y-8393714D01*
X9237857Y-8508000D02*
X9218810Y-8517524D01*
X9218810Y-8517524D02*
X9171190Y-8517524D01*
X9171190Y-8517524D02*
X9152143Y-8508000D01*
X9152143Y-8508000D02*
X9142619Y-8488952D01*
X9142619Y-8488952D02*
X9142619Y-8469905D01*
X9142619Y-8469905D02*
X9152143Y-8450857D01*
X9152143Y-8450857D02*
X9171190Y-8441333D01*
X9171190Y-8441333D02*
X9218810Y-8441333D01*
X9218810Y-8441333D02*
X9237857Y-8431810D01*
X9333095Y-8384190D02*
X9333095Y-8584190D01*
X9333095Y-8393714D02*
X9352143Y-8384190D01*
X9352143Y-8384190D02*
X9390238Y-8384190D01*
X9390238Y-8384190D02*
X9409286Y-8393714D01*
X9409286Y-8393714D02*
X9418810Y-8403238D01*
X9418810Y-8403238D02*
X9428333Y-8422286D01*
X9428333Y-8422286D02*
X9428333Y-8479429D01*
X9428333Y-8479429D02*
X9418810Y-8498476D01*
X9418810Y-8498476D02*
X9409286Y-8508000D01*
X9409286Y-8508000D02*
X9390238Y-8517524D01*
X9390238Y-8517524D02*
X9352143Y-8517524D01*
X9352143Y-8517524D02*
X9333095Y-8508000D01*
X9514048Y-8498476D02*
X9523571Y-8508000D01*
X9523571Y-8508000D02*
X9514048Y-8517524D01*
X9514048Y-8517524D02*
X9504524Y-8508000D01*
X9504524Y-8508000D02*
X9514048Y-8498476D01*
X9514048Y-8498476D02*
X9514048Y-8517524D01*
X9514048Y-8393714D02*
X9523571Y-8403238D01*
X9523571Y-8403238D02*
X9514048Y-8412762D01*
X9514048Y-8412762D02*
X9504524Y-8403238D01*
X9504524Y-8403238D02*
X9514048Y-8393714D01*
X9514048Y-8393714D02*
X9514048Y-8412762D01*
M02*
