%TF.GenerationSoftware,KiCad,Pcbnew,7.0.2*%
%TF.CreationDate,2024-01-15T01:52:45-05:00*%
%TF.ProjectId,ADSR Main Pcb,41445352-204d-4616-996e-205063622e6b,rev?*%
%TF.SameCoordinates,Original*%
%TF.FileFunction,Drillmap*%
%TF.FilePolarity,Positive*%
%FSLAX45Y45*%
G04 Gerber Fmt 4.5, Leading zero omitted, Abs format (unit mm)*
G04 Created by KiCad (PCBNEW 7.0.2) date 2024-01-15 01:52:45*
%MOMM*%
%LPD*%
G01*
G04 APERTURE LIST*
%ADD10C,0.100000*%
%ADD11C,0.200000*%
%ADD12C,0.080000*%
%ADD13C,0.101600*%
%ADD14C,0.110000*%
G04 APERTURE END LIST*
D10*
X14400000Y-18950000D02*
X4600000Y-18950000D01*
X4600000Y-10750000D01*
X8050000Y-10750000D01*
X8050000Y-9100000D01*
X5700000Y-9100000D01*
X5700000Y-3300000D01*
X6600000Y-2550000D01*
X14400000Y-2550000D01*
X14400000Y-18950000D01*
D11*
D12*
X6098000Y-4260000D02*
X6178000Y-4340000D01*
X6178000Y-4260000D02*
X6098000Y-4340000D01*
X6098000Y-4560000D02*
X6178000Y-4640000D01*
X6178000Y-4560000D02*
X6098000Y-4640000D01*
X6098000Y-4860000D02*
X6178000Y-4940000D01*
X6178000Y-4860000D02*
X6098000Y-4940000D01*
X6098000Y-6830000D02*
X6178000Y-6910000D01*
X6178000Y-6830000D02*
X6098000Y-6910000D01*
X6098000Y-7130000D02*
X6178000Y-7210000D01*
X6178000Y-7130000D02*
X6098000Y-7210000D01*
X6098000Y-7430000D02*
X6178000Y-7510000D01*
X6178000Y-7430000D02*
X6098000Y-7510000D01*
X6206000Y-3524000D02*
X6286000Y-3604000D01*
X6286000Y-3524000D02*
X6206000Y-3604000D01*
X6206000Y-6094000D02*
X6286000Y-6174000D01*
X6286000Y-6094000D02*
X6206000Y-6174000D01*
X6460000Y-3524000D02*
X6540000Y-3604000D01*
X6540000Y-3524000D02*
X6460000Y-3604000D01*
X6460000Y-6094000D02*
X6540000Y-6174000D01*
X6540000Y-6094000D02*
X6460000Y-6174000D01*
X6660000Y-5555000D02*
X6740000Y-5635000D01*
X6740000Y-5555000D02*
X6660000Y-5635000D01*
X6714000Y-3524000D02*
X6794000Y-3604000D01*
X6794000Y-3524000D02*
X6714000Y-3604000D01*
X6714000Y-6094000D02*
X6794000Y-6174000D01*
X6794000Y-6094000D02*
X6714000Y-6174000D01*
X6860000Y-4260000D02*
X6940000Y-4340000D01*
X6940000Y-4260000D02*
X6860000Y-4340000D01*
X6860000Y-4560000D02*
X6940000Y-4640000D01*
X6940000Y-4560000D02*
X6860000Y-4640000D01*
X6860000Y-4860000D02*
X6940000Y-4940000D01*
X6940000Y-4860000D02*
X6860000Y-4940000D01*
X6860000Y-6830000D02*
X6940000Y-6910000D01*
X6940000Y-6830000D02*
X6860000Y-6910000D01*
X6860000Y-7130000D02*
X6940000Y-7210000D01*
X6940000Y-7130000D02*
X6860000Y-7210000D01*
X6860000Y-7430000D02*
X6940000Y-7510000D01*
X6940000Y-7430000D02*
X6860000Y-7510000D01*
X7160000Y-5555000D02*
X7240000Y-5635000D01*
X7240000Y-5555000D02*
X7160000Y-5635000D01*
X7180000Y-3336000D02*
X7260000Y-3416000D01*
X7260000Y-3336000D02*
X7180000Y-3416000D01*
X7180000Y-3590000D02*
X7260000Y-3670000D01*
X7260000Y-3590000D02*
X7180000Y-3670000D01*
X7180000Y-3844000D02*
X7260000Y-3924000D01*
X7260000Y-3844000D02*
X7180000Y-3924000D01*
X7180000Y-4098000D02*
X7260000Y-4178000D01*
X7260000Y-4098000D02*
X7180000Y-4178000D01*
X7180000Y-4352000D02*
X7260000Y-4432000D01*
X7260000Y-4352000D02*
X7180000Y-4432000D01*
X7180000Y-4606000D02*
X7260000Y-4686000D01*
X7260000Y-4606000D02*
X7180000Y-4686000D01*
X7180000Y-4860000D02*
X7260000Y-4940000D01*
X7260000Y-4860000D02*
X7180000Y-4940000D01*
X7180000Y-5906000D02*
X7260000Y-5986000D01*
X7260000Y-5906000D02*
X7180000Y-5986000D01*
X7180000Y-6160000D02*
X7260000Y-6240000D01*
X7260000Y-6160000D02*
X7180000Y-6240000D01*
X7180000Y-6414000D02*
X7260000Y-6494000D01*
X7260000Y-6414000D02*
X7180000Y-6494000D01*
X7180000Y-6668000D02*
X7260000Y-6748000D01*
X7260000Y-6668000D02*
X7180000Y-6748000D01*
X7180000Y-6922000D02*
X7260000Y-7002000D01*
X7260000Y-6922000D02*
X7180000Y-7002000D01*
X7180000Y-7176000D02*
X7260000Y-7256000D01*
X7260000Y-7176000D02*
X7180000Y-7256000D01*
X7180000Y-7430000D02*
X7260000Y-7510000D01*
X7260000Y-7430000D02*
X7180000Y-7510000D01*
X7310000Y-3010000D02*
X7390000Y-3090000D01*
X7390000Y-3010000D02*
X7310000Y-3090000D01*
X7810000Y-3010000D02*
X7890000Y-3090000D01*
X7890000Y-3010000D02*
X7810000Y-3090000D01*
X7942000Y-3336000D02*
X8022000Y-3416000D01*
X8022000Y-3336000D02*
X7942000Y-3416000D01*
X7942000Y-3590000D02*
X8022000Y-3670000D01*
X8022000Y-3590000D02*
X7942000Y-3670000D01*
X7942000Y-3844000D02*
X8022000Y-3924000D01*
X8022000Y-3844000D02*
X7942000Y-3924000D01*
X7942000Y-4098000D02*
X8022000Y-4178000D01*
X8022000Y-4098000D02*
X7942000Y-4178000D01*
X7942000Y-4352000D02*
X8022000Y-4432000D01*
X8022000Y-4352000D02*
X7942000Y-4432000D01*
X7942000Y-4606000D02*
X8022000Y-4686000D01*
X8022000Y-4606000D02*
X7942000Y-4686000D01*
X7942000Y-4860000D02*
X8022000Y-4940000D01*
X8022000Y-4860000D02*
X7942000Y-4940000D01*
X7942000Y-5906000D02*
X8022000Y-5986000D01*
X8022000Y-5906000D02*
X7942000Y-5986000D01*
X7942000Y-6160000D02*
X8022000Y-6240000D01*
X8022000Y-6160000D02*
X7942000Y-6240000D01*
X7942000Y-6414000D02*
X8022000Y-6494000D01*
X8022000Y-6414000D02*
X7942000Y-6494000D01*
X7942000Y-6668000D02*
X8022000Y-6748000D01*
X8022000Y-6668000D02*
X7942000Y-6748000D01*
X7942000Y-6922000D02*
X8022000Y-7002000D01*
X8022000Y-6922000D02*
X7942000Y-7002000D01*
X7942000Y-7176000D02*
X8022000Y-7256000D01*
X8022000Y-7176000D02*
X7942000Y-7256000D01*
X7942000Y-7430000D02*
X8022000Y-7510000D01*
X8022000Y-7430000D02*
X7942000Y-7510000D01*
X8479000Y-3660000D02*
X8559000Y-3740000D01*
X8559000Y-3660000D02*
X8479000Y-3740000D01*
X8479000Y-3960000D02*
X8559000Y-4040000D01*
X8559000Y-3960000D02*
X8479000Y-4040000D01*
X8479000Y-4260000D02*
X8559000Y-4340000D01*
X8559000Y-4260000D02*
X8479000Y-4340000D01*
X8479000Y-4560000D02*
X8559000Y-4640000D01*
X8559000Y-4560000D02*
X8479000Y-4640000D01*
X8479000Y-6230000D02*
X8559000Y-6310000D01*
X8559000Y-6230000D02*
X8479000Y-6310000D01*
X8479000Y-6530000D02*
X8559000Y-6610000D01*
X8559000Y-6530000D02*
X8479000Y-6610000D01*
X8479000Y-6830000D02*
X8559000Y-6910000D01*
X8559000Y-6830000D02*
X8479000Y-6910000D01*
X8479000Y-7130000D02*
X8559000Y-7210000D01*
X8559000Y-7130000D02*
X8479000Y-7210000D01*
X9241000Y-3660000D02*
X9321000Y-3740000D01*
X9321000Y-3660000D02*
X9241000Y-3740000D01*
X9241000Y-3960000D02*
X9321000Y-4040000D01*
X9321000Y-3960000D02*
X9241000Y-4040000D01*
X9241000Y-4260000D02*
X9321000Y-4340000D01*
X9321000Y-4260000D02*
X9241000Y-4340000D01*
X9241000Y-4560000D02*
X9321000Y-4640000D01*
X9321000Y-4560000D02*
X9241000Y-4640000D01*
X9241000Y-6230000D02*
X9321000Y-6310000D01*
X9321000Y-6230000D02*
X9241000Y-6310000D01*
X9241000Y-6530000D02*
X9321000Y-6610000D01*
X9321000Y-6530000D02*
X9241000Y-6610000D01*
X9241000Y-6830000D02*
X9321000Y-6910000D01*
X9321000Y-6830000D02*
X9241000Y-6910000D01*
X9241000Y-7130000D02*
X9321000Y-7210000D01*
X9321000Y-7130000D02*
X9241000Y-7210000D01*
X9680000Y-3336000D02*
X9760000Y-3416000D01*
X9760000Y-3336000D02*
X9680000Y-3416000D01*
X9680000Y-3590000D02*
X9760000Y-3670000D01*
X9760000Y-3590000D02*
X9680000Y-3670000D01*
X9680000Y-3844000D02*
X9760000Y-3924000D01*
X9760000Y-3844000D02*
X9680000Y-3924000D01*
X9680000Y-4098000D02*
X9760000Y-4178000D01*
X9760000Y-4098000D02*
X9680000Y-4178000D01*
X9680000Y-4352000D02*
X9760000Y-4432000D01*
X9760000Y-4352000D02*
X9680000Y-4432000D01*
X9680000Y-4606000D02*
X9760000Y-4686000D01*
X9760000Y-4606000D02*
X9680000Y-4686000D01*
X9680000Y-4860000D02*
X9760000Y-4940000D01*
X9760000Y-4860000D02*
X9680000Y-4940000D01*
X9680000Y-5906000D02*
X9760000Y-5986000D01*
X9760000Y-5906000D02*
X9680000Y-5986000D01*
X9680000Y-6160000D02*
X9760000Y-6240000D01*
X9760000Y-6160000D02*
X9680000Y-6240000D01*
X9680000Y-6414000D02*
X9760000Y-6494000D01*
X9760000Y-6414000D02*
X9680000Y-6494000D01*
X9680000Y-6668000D02*
X9760000Y-6748000D01*
X9760000Y-6668000D02*
X9680000Y-6748000D01*
X9680000Y-6922000D02*
X9760000Y-7002000D01*
X9760000Y-6922000D02*
X9680000Y-7002000D01*
X9680000Y-7176000D02*
X9760000Y-7256000D01*
X9760000Y-7176000D02*
X9680000Y-7256000D01*
X9680000Y-7430000D02*
X9760000Y-7510000D01*
X9760000Y-7430000D02*
X9680000Y-7510000D01*
X9810000Y-3010000D02*
X9890000Y-3090000D01*
X9890000Y-3010000D02*
X9810000Y-3090000D01*
X9810000Y-5185000D02*
X9890000Y-5265000D01*
X9890000Y-5185000D02*
X9810000Y-5265000D01*
X9810000Y-5580000D02*
X9890000Y-5660000D01*
X9890000Y-5580000D02*
X9810000Y-5660000D01*
X9810000Y-7755000D02*
X9890000Y-7835000D01*
X9890000Y-7755000D02*
X9810000Y-7835000D01*
X10310000Y-3010000D02*
X10390000Y-3090000D01*
X10390000Y-3010000D02*
X10310000Y-3090000D01*
X10310000Y-5185000D02*
X10390000Y-5265000D01*
X10390000Y-5185000D02*
X10310000Y-5265000D01*
X10310000Y-5580000D02*
X10390000Y-5660000D01*
X10390000Y-5580000D02*
X10310000Y-5660000D01*
X10310000Y-7755000D02*
X10390000Y-7835000D01*
X10390000Y-7755000D02*
X10310000Y-7835000D01*
X10442000Y-3336000D02*
X10522000Y-3416000D01*
X10522000Y-3336000D02*
X10442000Y-3416000D01*
X10442000Y-3590000D02*
X10522000Y-3670000D01*
X10522000Y-3590000D02*
X10442000Y-3670000D01*
X10442000Y-3844000D02*
X10522000Y-3924000D01*
X10522000Y-3844000D02*
X10442000Y-3924000D01*
X10442000Y-4098000D02*
X10522000Y-4178000D01*
X10522000Y-4098000D02*
X10442000Y-4178000D01*
X10442000Y-4352000D02*
X10522000Y-4432000D01*
X10522000Y-4352000D02*
X10442000Y-4432000D01*
X10442000Y-4606000D02*
X10522000Y-4686000D01*
X10522000Y-4606000D02*
X10442000Y-4686000D01*
X10442000Y-4860000D02*
X10522000Y-4940000D01*
X10522000Y-4860000D02*
X10442000Y-4940000D01*
X10442000Y-5906000D02*
X10522000Y-5986000D01*
X10522000Y-5906000D02*
X10442000Y-5986000D01*
X10442000Y-6160000D02*
X10522000Y-6240000D01*
X10522000Y-6160000D02*
X10442000Y-6240000D01*
X10442000Y-6414000D02*
X10522000Y-6494000D01*
X10522000Y-6414000D02*
X10442000Y-6494000D01*
X10442000Y-6668000D02*
X10522000Y-6748000D01*
X10522000Y-6668000D02*
X10442000Y-6748000D01*
X10442000Y-6922000D02*
X10522000Y-7002000D01*
X10522000Y-6922000D02*
X10442000Y-7002000D01*
X10442000Y-7176000D02*
X10522000Y-7256000D01*
X10522000Y-7176000D02*
X10442000Y-7256000D01*
X10442000Y-7430000D02*
X10522000Y-7510000D01*
X10522000Y-7430000D02*
X10442000Y-7510000D01*
X10572900Y-8486600D02*
X10652900Y-8566600D01*
X10652900Y-8486600D02*
X10572900Y-8566600D01*
X10572900Y-9886600D02*
X10652900Y-9966600D01*
X10652900Y-9886600D02*
X10572900Y-9966600D01*
X10779000Y-11560000D02*
X10859000Y-11640000D01*
X10859000Y-11560000D02*
X10779000Y-11640000D01*
X10779000Y-13560000D02*
X10859000Y-13640000D01*
X10859000Y-13560000D02*
X10779000Y-13640000D01*
X10779000Y-15560000D02*
X10859000Y-15640000D01*
X10859000Y-15560000D02*
X10779000Y-15640000D01*
X10779000Y-17560000D02*
X10859000Y-17640000D01*
X10859000Y-17560000D02*
X10779000Y-17640000D01*
X10879000Y-3635000D02*
X10959000Y-3715000D01*
X10959000Y-3635000D02*
X10879000Y-3715000D01*
X10879000Y-3935000D02*
X10959000Y-4015000D01*
X10959000Y-3935000D02*
X10879000Y-4015000D01*
X10879000Y-4235000D02*
X10959000Y-4315000D01*
X10959000Y-4235000D02*
X10879000Y-4315000D01*
X10879000Y-4535000D02*
X10959000Y-4615000D01*
X10959000Y-4535000D02*
X10879000Y-4615000D01*
X10879000Y-6205000D02*
X10959000Y-6285000D01*
X10959000Y-6205000D02*
X10879000Y-6285000D01*
X10879000Y-6505000D02*
X10959000Y-6585000D01*
X10959000Y-6505000D02*
X10879000Y-6585000D01*
X10879000Y-6805000D02*
X10959000Y-6885000D01*
X10959000Y-6805000D02*
X10879000Y-6885000D01*
X10879000Y-7105000D02*
X10959000Y-7185000D01*
X10959000Y-7105000D02*
X10879000Y-7185000D01*
X11072900Y-8486600D02*
X11152900Y-8566600D01*
X11152900Y-8486600D02*
X11072900Y-8566600D01*
X11072900Y-9886600D02*
X11152900Y-9966600D01*
X11152900Y-9886600D02*
X11072900Y-9966600D01*
X11222900Y-8936600D02*
X11302900Y-9016600D01*
X11302900Y-8936600D02*
X11222900Y-9016600D01*
X11222900Y-9136600D02*
X11302900Y-9216600D01*
X11302900Y-9136600D02*
X11222900Y-9216600D01*
X11541000Y-11560000D02*
X11621000Y-11640000D01*
X11621000Y-11560000D02*
X11541000Y-11640000D01*
X11541000Y-13560000D02*
X11621000Y-13640000D01*
X11621000Y-13560000D02*
X11541000Y-13640000D01*
X11541000Y-15560000D02*
X11621000Y-15640000D01*
X11621000Y-15560000D02*
X11541000Y-15640000D01*
X11541000Y-17560000D02*
X11621000Y-17640000D01*
X11621000Y-17560000D02*
X11541000Y-17640000D01*
X11641000Y-3635000D02*
X11721000Y-3715000D01*
X11721000Y-3635000D02*
X11641000Y-3715000D01*
X11641000Y-3935000D02*
X11721000Y-4015000D01*
X11721000Y-3935000D02*
X11641000Y-4015000D01*
X11641000Y-4235000D02*
X11721000Y-4315000D01*
X11721000Y-4235000D02*
X11641000Y-4315000D01*
X11641000Y-4535000D02*
X11721000Y-4615000D01*
X11721000Y-4535000D02*
X11641000Y-4615000D01*
X11641000Y-6205000D02*
X11721000Y-6285000D01*
X11721000Y-6205000D02*
X11641000Y-6285000D01*
X11641000Y-6505000D02*
X11721000Y-6585000D01*
X11721000Y-6505000D02*
X11641000Y-6585000D01*
X11641000Y-6805000D02*
X11721000Y-6885000D01*
X11721000Y-6805000D02*
X11641000Y-6885000D01*
X11641000Y-7105000D02*
X11721000Y-7185000D01*
X11721000Y-7105000D02*
X11641000Y-7185000D01*
X12178000Y-3285000D02*
X12258000Y-3365000D01*
X12258000Y-3285000D02*
X12178000Y-3365000D01*
X12178000Y-3539000D02*
X12258000Y-3619000D01*
X12258000Y-3539000D02*
X12178000Y-3619000D01*
X12178000Y-3793000D02*
X12258000Y-3873000D01*
X12258000Y-3793000D02*
X12178000Y-3873000D01*
X12178000Y-4047000D02*
X12258000Y-4127000D01*
X12258000Y-4047000D02*
X12178000Y-4127000D01*
X12178000Y-4301000D02*
X12258000Y-4381000D01*
X12258000Y-4301000D02*
X12178000Y-4381000D01*
X12178000Y-4555000D02*
X12258000Y-4635000D01*
X12258000Y-4555000D02*
X12178000Y-4635000D01*
X12178000Y-4809000D02*
X12258000Y-4889000D01*
X12258000Y-4809000D02*
X12178000Y-4889000D01*
X12178000Y-5855000D02*
X12258000Y-5935000D01*
X12258000Y-5855000D02*
X12178000Y-5935000D01*
X12178000Y-6109000D02*
X12258000Y-6189000D01*
X12258000Y-6109000D02*
X12178000Y-6189000D01*
X12178000Y-6363000D02*
X12258000Y-6443000D01*
X12258000Y-6363000D02*
X12178000Y-6443000D01*
X12178000Y-6617000D02*
X12258000Y-6697000D01*
X12258000Y-6617000D02*
X12178000Y-6697000D01*
X12178000Y-6871000D02*
X12258000Y-6951000D01*
X12258000Y-6871000D02*
X12178000Y-6951000D01*
X12178000Y-7125000D02*
X12258000Y-7205000D01*
X12258000Y-7125000D02*
X12178000Y-7205000D01*
X12178000Y-7379000D02*
X12258000Y-7459000D01*
X12258000Y-7379000D02*
X12178000Y-7459000D01*
X12260000Y-8801000D02*
X12340000Y-8881000D01*
X12340000Y-8801000D02*
X12260000Y-8881000D01*
X12260000Y-9001000D02*
X12340000Y-9081000D01*
X12340000Y-9001000D02*
X12260000Y-9081000D01*
X12260000Y-10201000D02*
X12340000Y-10281000D01*
X12340000Y-10201000D02*
X12260000Y-10281000D01*
X12260000Y-10401000D02*
X12340000Y-10481000D01*
X12340000Y-10401000D02*
X12260000Y-10481000D01*
X12910000Y-5155000D02*
X12990000Y-5235000D01*
X12990000Y-5155000D02*
X12910000Y-5235000D01*
X12910000Y-7725000D02*
X12990000Y-7805000D01*
X12990000Y-7725000D02*
X12910000Y-7805000D01*
X12940000Y-3285000D02*
X13020000Y-3365000D01*
X13020000Y-3285000D02*
X12940000Y-3365000D01*
X12940000Y-3539000D02*
X13020000Y-3619000D01*
X13020000Y-3539000D02*
X12940000Y-3619000D01*
X12940000Y-3793000D02*
X13020000Y-3873000D01*
X13020000Y-3793000D02*
X12940000Y-3873000D01*
X12940000Y-4047000D02*
X13020000Y-4127000D01*
X13020000Y-4047000D02*
X12940000Y-4127000D01*
X12940000Y-4301000D02*
X13020000Y-4381000D01*
X13020000Y-4301000D02*
X12940000Y-4381000D01*
X12940000Y-4555000D02*
X13020000Y-4635000D01*
X13020000Y-4555000D02*
X12940000Y-4635000D01*
X12940000Y-4809000D02*
X13020000Y-4889000D01*
X13020000Y-4809000D02*
X12940000Y-4889000D01*
X12940000Y-5855000D02*
X13020000Y-5935000D01*
X13020000Y-5855000D02*
X12940000Y-5935000D01*
X12940000Y-6109000D02*
X13020000Y-6189000D01*
X13020000Y-6109000D02*
X12940000Y-6189000D01*
X12940000Y-6363000D02*
X13020000Y-6443000D01*
X13020000Y-6363000D02*
X12940000Y-6443000D01*
X12940000Y-6617000D02*
X13020000Y-6697000D01*
X13020000Y-6617000D02*
X12940000Y-6697000D01*
X12940000Y-6871000D02*
X13020000Y-6951000D01*
X13020000Y-6871000D02*
X12940000Y-6951000D01*
X12940000Y-7125000D02*
X13020000Y-7205000D01*
X13020000Y-7125000D02*
X12940000Y-7205000D01*
X12940000Y-7379000D02*
X13020000Y-7459000D01*
X13020000Y-7379000D02*
X12940000Y-7459000D01*
X13279000Y-3260000D02*
X13359000Y-3340000D01*
X13359000Y-3260000D02*
X13279000Y-3340000D01*
X13279000Y-3560000D02*
X13359000Y-3640000D01*
X13359000Y-3560000D02*
X13279000Y-3640000D01*
X13279000Y-3860000D02*
X13359000Y-3940000D01*
X13359000Y-3860000D02*
X13279000Y-3940000D01*
X13279000Y-5830000D02*
X13359000Y-5910000D01*
X13359000Y-5830000D02*
X13279000Y-5910000D01*
X13279000Y-6130000D02*
X13359000Y-6210000D01*
X13359000Y-6130000D02*
X13279000Y-6210000D01*
X13279000Y-6430000D02*
X13359000Y-6510000D01*
X13359000Y-6430000D02*
X13279000Y-6510000D01*
X13410000Y-5155000D02*
X13490000Y-5235000D01*
X13490000Y-5155000D02*
X13410000Y-5235000D01*
X13410000Y-7725000D02*
X13490000Y-7805000D01*
X13490000Y-7725000D02*
X13410000Y-7805000D01*
X13425000Y-4621000D02*
X13505000Y-4701000D01*
X13505000Y-4621000D02*
X13425000Y-4701000D01*
X13425000Y-7191000D02*
X13505000Y-7271000D01*
X13505000Y-7191000D02*
X13425000Y-7271000D01*
X13679000Y-4621000D02*
X13759000Y-4701000D01*
X13759000Y-4621000D02*
X13679000Y-4701000D01*
X13679000Y-7191000D02*
X13759000Y-7271000D01*
X13759000Y-7191000D02*
X13679000Y-7271000D01*
X13933000Y-4621000D02*
X14013000Y-4701000D01*
X14013000Y-4621000D02*
X13933000Y-4701000D01*
X13933000Y-7191000D02*
X14013000Y-7271000D01*
X14013000Y-7191000D02*
X13933000Y-7271000D01*
X14041000Y-3260000D02*
X14121000Y-3340000D01*
X14121000Y-3260000D02*
X14041000Y-3340000D01*
X14041000Y-3560000D02*
X14121000Y-3640000D01*
X14121000Y-3560000D02*
X14041000Y-3640000D01*
X14041000Y-3860000D02*
X14121000Y-3940000D01*
X14121000Y-3860000D02*
X14041000Y-3940000D01*
X14041000Y-5830000D02*
X14121000Y-5910000D01*
X14121000Y-5830000D02*
X14041000Y-5910000D01*
X14041000Y-6130000D02*
X14121000Y-6210000D01*
X14121000Y-6130000D02*
X14041000Y-6210000D01*
X14041000Y-6430000D02*
X14121000Y-6510000D01*
X14121000Y-6430000D02*
X14041000Y-6510000D01*
D10*
X4910000Y-11776000D02*
G75*
G03*
X4910000Y-11776000I-50000J0D01*
G01*
D11*
X4910000Y-11861000D02*
X4910000Y-11691000D01*
X4910000Y-11691000D02*
G75*
G03*
X4810000Y-11691000I-50000J0D01*
G01*
X4810000Y-11691000D02*
X4810000Y-11861000D01*
X4810000Y-11861000D02*
G75*
G03*
X4910000Y-11861000I50000J0D01*
G01*
D10*
X4910000Y-13776000D02*
G75*
G03*
X4910000Y-13776000I-50000J0D01*
G01*
D11*
X4910000Y-13861000D02*
X4910000Y-13691000D01*
X4910000Y-13691000D02*
G75*
G03*
X4810000Y-13691000I-50000J0D01*
G01*
X4810000Y-13691000D02*
X4810000Y-13861000D01*
X4810000Y-13861000D02*
G75*
G03*
X4910000Y-13861000I50000J0D01*
G01*
D10*
X4910000Y-15776000D02*
G75*
G03*
X4910000Y-15776000I-50000J0D01*
G01*
D11*
X4910000Y-15861000D02*
X4910000Y-15691000D01*
X4910000Y-15691000D02*
G75*
G03*
X4810000Y-15691000I-50000J0D01*
G01*
X4810000Y-15691000D02*
X4810000Y-15861000D01*
X4810000Y-15861000D02*
G75*
G03*
X4910000Y-15861000I50000J0D01*
G01*
D10*
X4910000Y-17776000D02*
G75*
G03*
X4910000Y-17776000I-50000J0D01*
G01*
D11*
X4910000Y-17861000D02*
X4910000Y-17691000D01*
X4910000Y-17691000D02*
G75*
G03*
X4810000Y-17691000I-50000J0D01*
G01*
X4810000Y-17691000D02*
X4810000Y-17861000D01*
X4810000Y-17861000D02*
G75*
G03*
X4910000Y-17861000I50000J0D01*
G01*
D10*
X5076000Y-12500000D02*
G75*
G03*
X5076000Y-12500000I-50000J0D01*
G01*
D11*
X5121459Y-12524749D02*
X5001251Y-12404541D01*
X5001251Y-12404541D02*
G75*
G03*
X4930541Y-12475251I-35355J-35355D01*
G01*
X4930541Y-12475251D02*
X5050749Y-12595459D01*
X5050749Y-12595459D02*
G75*
G03*
X5121459Y-12524749I35355J35355D01*
G01*
D10*
X5076000Y-14500000D02*
G75*
G03*
X5076000Y-14500000I-50000J0D01*
G01*
D11*
X5121459Y-14524749D02*
X5001251Y-14404541D01*
X5001251Y-14404541D02*
G75*
G03*
X4930541Y-14475251I-35355J-35355D01*
G01*
X4930541Y-14475251D02*
X5050749Y-14595459D01*
X5050749Y-14595459D02*
G75*
G03*
X5121459Y-14524749I35355J35355D01*
G01*
D10*
X5076000Y-16500000D02*
G75*
G03*
X5076000Y-16500000I-50000J0D01*
G01*
D11*
X5121459Y-16524749D02*
X5001251Y-16404541D01*
X5001251Y-16404541D02*
G75*
G03*
X4930541Y-16475251I-35355J-35355D01*
G01*
X4930541Y-16475251D02*
X5050749Y-16595459D01*
X5050749Y-16595459D02*
G75*
G03*
X5121459Y-16524749I35355J35355D01*
G01*
D10*
X5076000Y-18500000D02*
G75*
G03*
X5076000Y-18500000I-50000J0D01*
G01*
D11*
X5121459Y-18524749D02*
X5001251Y-18404541D01*
X5001251Y-18404541D02*
G75*
G03*
X4930541Y-18475251I-35355J-35355D01*
G01*
X4930541Y-18475251D02*
X5050749Y-18595459D01*
X5050749Y-18595459D02*
G75*
G03*
X5121459Y-18524749I35355J35355D01*
G01*
D10*
X5500000Y-11386000D02*
G75*
G03*
X5500000Y-11386000I-50000J0D01*
G01*
D11*
X5535000Y-11336000D02*
X5365000Y-11336000D01*
X5365000Y-11336000D02*
G75*
G03*
X5365000Y-11436000I0J-50000D01*
G01*
X5365000Y-11436000D02*
X5535000Y-11436000D01*
X5535000Y-11436000D02*
G75*
G03*
X5535000Y-11336000I0J50000D01*
G01*
D10*
X5500000Y-13386000D02*
G75*
G03*
X5500000Y-13386000I-50000J0D01*
G01*
D11*
X5535000Y-13336000D02*
X5365000Y-13336000D01*
X5365000Y-13336000D02*
G75*
G03*
X5365000Y-13436000I0J-50000D01*
G01*
X5365000Y-13436000D02*
X5535000Y-13436000D01*
X5535000Y-13436000D02*
G75*
G03*
X5535000Y-13336000I0J50000D01*
G01*
D10*
X5500000Y-15386000D02*
G75*
G03*
X5500000Y-15386000I-50000J0D01*
G01*
D11*
X5535000Y-15336000D02*
X5365000Y-15336000D01*
X5365000Y-15336000D02*
G75*
G03*
X5365000Y-15436000I0J-50000D01*
G01*
X5365000Y-15436000D02*
X5535000Y-15436000D01*
X5535000Y-15436000D02*
G75*
G03*
X5535000Y-15336000I0J50000D01*
G01*
D10*
X5500000Y-17386000D02*
G75*
G03*
X5500000Y-17386000I-50000J0D01*
G01*
D11*
X5535000Y-17336000D02*
X5365000Y-17336000D01*
X5365000Y-17336000D02*
G75*
G03*
X5365000Y-17436000I0J-50000D01*
G01*
X5365000Y-17436000D02*
X5535000Y-17436000D01*
X5535000Y-17436000D02*
G75*
G03*
X5535000Y-17336000I0J50000D01*
G01*
D10*
X5800000Y-12666000D02*
G75*
G03*
X5800000Y-12666000I-50000J0D01*
G01*
D11*
X5835000Y-12616000D02*
X5665000Y-12616000D01*
X5665000Y-12616000D02*
G75*
G03*
X5665000Y-12716000I0J-50000D01*
G01*
X5665000Y-12716000D02*
X5835000Y-12716000D01*
X5835000Y-12716000D02*
G75*
G03*
X5835000Y-12616000I0J50000D01*
G01*
D10*
X5800000Y-14666000D02*
G75*
G03*
X5800000Y-14666000I-50000J0D01*
G01*
D11*
X5835000Y-14616000D02*
X5665000Y-14616000D01*
X5665000Y-14616000D02*
G75*
G03*
X5665000Y-14716000I0J-50000D01*
G01*
X5665000Y-14716000D02*
X5835000Y-14716000D01*
X5835000Y-14716000D02*
G75*
G03*
X5835000Y-14616000I0J50000D01*
G01*
D10*
X5800000Y-16666000D02*
G75*
G03*
X5800000Y-16666000I-50000J0D01*
G01*
D11*
X5835000Y-16616000D02*
X5665000Y-16616000D01*
X5665000Y-16616000D02*
G75*
G03*
X5665000Y-16716000I0J-50000D01*
G01*
X5665000Y-16716000D02*
X5835000Y-16716000D01*
X5835000Y-16716000D02*
G75*
G03*
X5835000Y-16616000I0J50000D01*
G01*
D10*
X5800000Y-18666000D02*
G75*
G03*
X5800000Y-18666000I-50000J0D01*
G01*
D11*
X5835000Y-18616000D02*
X5665000Y-18616000D01*
X5665000Y-18616000D02*
G75*
G03*
X5665000Y-18716000I0J-50000D01*
G01*
X5665000Y-18716000D02*
X5835000Y-18716000D01*
X5835000Y-18716000D02*
G75*
G03*
X5835000Y-18616000I0J50000D01*
G01*
D10*
X6190000Y-12076000D02*
G75*
G03*
X6190000Y-12076000I-50000J0D01*
G01*
D11*
X6190000Y-12161000D02*
X6190000Y-11991000D01*
X6190000Y-11991000D02*
G75*
G03*
X6090000Y-11991000I-50000J0D01*
G01*
X6090000Y-11991000D02*
X6090000Y-12161000D01*
X6090000Y-12161000D02*
G75*
G03*
X6190000Y-12161000I50000J0D01*
G01*
D10*
X6190000Y-14076000D02*
G75*
G03*
X6190000Y-14076000I-50000J0D01*
G01*
D11*
X6190000Y-14161000D02*
X6190000Y-13991000D01*
X6190000Y-13991000D02*
G75*
G03*
X6090000Y-13991000I-50000J0D01*
G01*
X6090000Y-13991000D02*
X6090000Y-14161000D01*
X6090000Y-14161000D02*
G75*
G03*
X6190000Y-14161000I50000J0D01*
G01*
D10*
X6190000Y-16076000D02*
G75*
G03*
X6190000Y-16076000I-50000J0D01*
G01*
D11*
X6190000Y-16161000D02*
X6190000Y-15991000D01*
X6190000Y-15991000D02*
G75*
G03*
X6090000Y-15991000I-50000J0D01*
G01*
X6090000Y-15991000D02*
X6090000Y-16161000D01*
X6090000Y-16161000D02*
G75*
G03*
X6190000Y-16161000I50000J0D01*
G01*
D10*
X6190000Y-18076000D02*
G75*
G03*
X6190000Y-18076000I-50000J0D01*
G01*
D11*
X6190000Y-18161000D02*
X6190000Y-17991000D01*
X6190000Y-17991000D02*
G75*
G03*
X6090000Y-17991000I-50000J0D01*
G01*
X6090000Y-17991000D02*
X6090000Y-18161000D01*
X6090000Y-18161000D02*
G75*
G03*
X6190000Y-18161000I50000J0D01*
G01*
D10*
X6910000Y-11776000D02*
G75*
G03*
X6910000Y-11776000I-50000J0D01*
G01*
D11*
X6910000Y-11861000D02*
X6910000Y-11691000D01*
X6910000Y-11691000D02*
G75*
G03*
X6810000Y-11691000I-50000J0D01*
G01*
X6810000Y-11691000D02*
X6810000Y-11861000D01*
X6810000Y-11861000D02*
G75*
G03*
X6910000Y-11861000I50000J0D01*
G01*
D10*
X6910000Y-13776000D02*
G75*
G03*
X6910000Y-13776000I-50000J0D01*
G01*
D11*
X6910000Y-13861000D02*
X6910000Y-13691000D01*
X6910000Y-13691000D02*
G75*
G03*
X6810000Y-13691000I-50000J0D01*
G01*
X6810000Y-13691000D02*
X6810000Y-13861000D01*
X6810000Y-13861000D02*
G75*
G03*
X6910000Y-13861000I50000J0D01*
G01*
D10*
X6910000Y-15776000D02*
G75*
G03*
X6910000Y-15776000I-50000J0D01*
G01*
D11*
X6910000Y-15861000D02*
X6910000Y-15691000D01*
X6910000Y-15691000D02*
G75*
G03*
X6810000Y-15691000I-50000J0D01*
G01*
X6810000Y-15691000D02*
X6810000Y-15861000D01*
X6810000Y-15861000D02*
G75*
G03*
X6910000Y-15861000I50000J0D01*
G01*
D10*
X6910000Y-17776000D02*
G75*
G03*
X6910000Y-17776000I-50000J0D01*
G01*
D11*
X6910000Y-17861000D02*
X6910000Y-17691000D01*
X6910000Y-17691000D02*
G75*
G03*
X6810000Y-17691000I-50000J0D01*
G01*
X6810000Y-17691000D02*
X6810000Y-17861000D01*
X6810000Y-17861000D02*
G75*
G03*
X6910000Y-17861000I50000J0D01*
G01*
D10*
X7076000Y-12500000D02*
G75*
G03*
X7076000Y-12500000I-50000J0D01*
G01*
D11*
X7121459Y-12524749D02*
X7001251Y-12404541D01*
X7001251Y-12404541D02*
G75*
G03*
X6930541Y-12475251I-35355J-35355D01*
G01*
X6930541Y-12475251D02*
X7050749Y-12595459D01*
X7050749Y-12595459D02*
G75*
G03*
X7121459Y-12524749I35355J35355D01*
G01*
D10*
X7076000Y-14500000D02*
G75*
G03*
X7076000Y-14500000I-50000J0D01*
G01*
D11*
X7121459Y-14524749D02*
X7001251Y-14404541D01*
X7001251Y-14404541D02*
G75*
G03*
X6930541Y-14475251I-35355J-35355D01*
G01*
X6930541Y-14475251D02*
X7050749Y-14595459D01*
X7050749Y-14595459D02*
G75*
G03*
X7121459Y-14524749I35355J35355D01*
G01*
D10*
X7076000Y-16500000D02*
G75*
G03*
X7076000Y-16500000I-50000J0D01*
G01*
D11*
X7121459Y-16524749D02*
X7001251Y-16404541D01*
X7001251Y-16404541D02*
G75*
G03*
X6930541Y-16475251I-35355J-35355D01*
G01*
X6930541Y-16475251D02*
X7050749Y-16595459D01*
X7050749Y-16595459D02*
G75*
G03*
X7121459Y-16524749I35355J35355D01*
G01*
D10*
X7076000Y-18500000D02*
G75*
G03*
X7076000Y-18500000I-50000J0D01*
G01*
D11*
X7121459Y-18524749D02*
X7001251Y-18404541D01*
X7001251Y-18404541D02*
G75*
G03*
X6930541Y-18475251I-35355J-35355D01*
G01*
X6930541Y-18475251D02*
X7050749Y-18595459D01*
X7050749Y-18595459D02*
G75*
G03*
X7121459Y-18524749I35355J35355D01*
G01*
D10*
X7167000Y-8196250D02*
G75*
G03*
X7167000Y-8196250I-50000J0D01*
G01*
X7167000Y-8450250D02*
G75*
G03*
X7167000Y-8450250I-50000J0D01*
G01*
X7421000Y-8196250D02*
G75*
G03*
X7421000Y-8196250I-50000J0D01*
G01*
X7421000Y-8450250D02*
G75*
G03*
X7421000Y-8450250I-50000J0D01*
G01*
X7500000Y-11386000D02*
G75*
G03*
X7500000Y-11386000I-50000J0D01*
G01*
D11*
X7535000Y-11336000D02*
X7365000Y-11336000D01*
X7365000Y-11336000D02*
G75*
G03*
X7365000Y-11436000I0J-50000D01*
G01*
X7365000Y-11436000D02*
X7535000Y-11436000D01*
X7535000Y-11436000D02*
G75*
G03*
X7535000Y-11336000I0J50000D01*
G01*
D10*
X7500000Y-13386000D02*
G75*
G03*
X7500000Y-13386000I-50000J0D01*
G01*
D11*
X7535000Y-13336000D02*
X7365000Y-13336000D01*
X7365000Y-13336000D02*
G75*
G03*
X7365000Y-13436000I0J-50000D01*
G01*
X7365000Y-13436000D02*
X7535000Y-13436000D01*
X7535000Y-13436000D02*
G75*
G03*
X7535000Y-13336000I0J50000D01*
G01*
D10*
X7500000Y-15386000D02*
G75*
G03*
X7500000Y-15386000I-50000J0D01*
G01*
D11*
X7535000Y-15336000D02*
X7365000Y-15336000D01*
X7365000Y-15336000D02*
G75*
G03*
X7365000Y-15436000I0J-50000D01*
G01*
X7365000Y-15436000D02*
X7535000Y-15436000D01*
X7535000Y-15436000D02*
G75*
G03*
X7535000Y-15336000I0J50000D01*
G01*
D10*
X7500000Y-17386000D02*
G75*
G03*
X7500000Y-17386000I-50000J0D01*
G01*
D11*
X7535000Y-17336000D02*
X7365000Y-17336000D01*
X7365000Y-17336000D02*
G75*
G03*
X7365000Y-17436000I0J-50000D01*
G01*
X7365000Y-17436000D02*
X7535000Y-17436000D01*
X7535000Y-17436000D02*
G75*
G03*
X7535000Y-17336000I0J50000D01*
G01*
D10*
X7675000Y-8196250D02*
G75*
G03*
X7675000Y-8196250I-50000J0D01*
G01*
X7675000Y-8450250D02*
G75*
G03*
X7675000Y-8450250I-50000J0D01*
G01*
X7800000Y-12666000D02*
G75*
G03*
X7800000Y-12666000I-50000J0D01*
G01*
D11*
X7835000Y-12616000D02*
X7665000Y-12616000D01*
X7665000Y-12616000D02*
G75*
G03*
X7665000Y-12716000I0J-50000D01*
G01*
X7665000Y-12716000D02*
X7835000Y-12716000D01*
X7835000Y-12716000D02*
G75*
G03*
X7835000Y-12616000I0J50000D01*
G01*
D10*
X7800000Y-14666000D02*
G75*
G03*
X7800000Y-14666000I-50000J0D01*
G01*
D11*
X7835000Y-14616000D02*
X7665000Y-14616000D01*
X7665000Y-14616000D02*
G75*
G03*
X7665000Y-14716000I0J-50000D01*
G01*
X7665000Y-14716000D02*
X7835000Y-14716000D01*
X7835000Y-14716000D02*
G75*
G03*
X7835000Y-14616000I0J50000D01*
G01*
D10*
X7800000Y-16666000D02*
G75*
G03*
X7800000Y-16666000I-50000J0D01*
G01*
D11*
X7835000Y-16616000D02*
X7665000Y-16616000D01*
X7665000Y-16616000D02*
G75*
G03*
X7665000Y-16716000I0J-50000D01*
G01*
X7665000Y-16716000D02*
X7835000Y-16716000D01*
X7835000Y-16716000D02*
G75*
G03*
X7835000Y-16616000I0J50000D01*
G01*
D10*
X7800000Y-18666000D02*
G75*
G03*
X7800000Y-18666000I-50000J0D01*
G01*
D11*
X7835000Y-18616000D02*
X7665000Y-18616000D01*
X7665000Y-18616000D02*
G75*
G03*
X7665000Y-18716000I0J-50000D01*
G01*
X7665000Y-18716000D02*
X7835000Y-18716000D01*
X7835000Y-18716000D02*
G75*
G03*
X7835000Y-18616000I0J50000D01*
G01*
D10*
X7929000Y-8196250D02*
G75*
G03*
X7929000Y-8196250I-50000J0D01*
G01*
X7929000Y-8450250D02*
G75*
G03*
X7929000Y-8450250I-50000J0D01*
G01*
X8183000Y-8196250D02*
G75*
G03*
X8183000Y-8196250I-50000J0D01*
G01*
X8183000Y-8450250D02*
G75*
G03*
X8183000Y-8450250I-50000J0D01*
G01*
X8190000Y-12076000D02*
G75*
G03*
X8190000Y-12076000I-50000J0D01*
G01*
D11*
X8190000Y-12161000D02*
X8190000Y-11991000D01*
X8190000Y-11991000D02*
G75*
G03*
X8090000Y-11991000I-50000J0D01*
G01*
X8090000Y-11991000D02*
X8090000Y-12161000D01*
X8090000Y-12161000D02*
G75*
G03*
X8190000Y-12161000I50000J0D01*
G01*
D10*
X8190000Y-14076000D02*
G75*
G03*
X8190000Y-14076000I-50000J0D01*
G01*
D11*
X8190000Y-14161000D02*
X8190000Y-13991000D01*
X8190000Y-13991000D02*
G75*
G03*
X8090000Y-13991000I-50000J0D01*
G01*
X8090000Y-13991000D02*
X8090000Y-14161000D01*
X8090000Y-14161000D02*
G75*
G03*
X8190000Y-14161000I50000J0D01*
G01*
D10*
X8190000Y-16076000D02*
G75*
G03*
X8190000Y-16076000I-50000J0D01*
G01*
D11*
X8190000Y-16161000D02*
X8190000Y-15991000D01*
X8190000Y-15991000D02*
G75*
G03*
X8090000Y-15991000I-50000J0D01*
G01*
X8090000Y-15991000D02*
X8090000Y-16161000D01*
X8090000Y-16161000D02*
G75*
G03*
X8190000Y-16161000I50000J0D01*
G01*
D10*
X8190000Y-18076000D02*
G75*
G03*
X8190000Y-18076000I-50000J0D01*
G01*
D11*
X8190000Y-18161000D02*
X8190000Y-17991000D01*
X8190000Y-17991000D02*
G75*
G03*
X8090000Y-17991000I-50000J0D01*
G01*
X8090000Y-17991000D02*
X8090000Y-18161000D01*
X8090000Y-18161000D02*
G75*
G03*
X8190000Y-18161000I50000J0D01*
G01*
D10*
X8910000Y-11776000D02*
G75*
G03*
X8910000Y-11776000I-50000J0D01*
G01*
D11*
X8910000Y-11861000D02*
X8910000Y-11691000D01*
X8910000Y-11691000D02*
G75*
G03*
X8810000Y-11691000I-50000J0D01*
G01*
X8810000Y-11691000D02*
X8810000Y-11861000D01*
X8810000Y-11861000D02*
G75*
G03*
X8910000Y-11861000I50000J0D01*
G01*
D10*
X8910000Y-13776000D02*
G75*
G03*
X8910000Y-13776000I-50000J0D01*
G01*
D11*
X8910000Y-13861000D02*
X8910000Y-13691000D01*
X8910000Y-13691000D02*
G75*
G03*
X8810000Y-13691000I-50000J0D01*
G01*
X8810000Y-13691000D02*
X8810000Y-13861000D01*
X8810000Y-13861000D02*
G75*
G03*
X8910000Y-13861000I50000J0D01*
G01*
D10*
X8910000Y-15776000D02*
G75*
G03*
X8910000Y-15776000I-50000J0D01*
G01*
D11*
X8910000Y-15861000D02*
X8910000Y-15691000D01*
X8910000Y-15691000D02*
G75*
G03*
X8810000Y-15691000I-50000J0D01*
G01*
X8810000Y-15691000D02*
X8810000Y-15861000D01*
X8810000Y-15861000D02*
G75*
G03*
X8910000Y-15861000I50000J0D01*
G01*
D10*
X8910000Y-17776000D02*
G75*
G03*
X8910000Y-17776000I-50000J0D01*
G01*
D11*
X8910000Y-17861000D02*
X8910000Y-17691000D01*
X8910000Y-17691000D02*
G75*
G03*
X8810000Y-17691000I-50000J0D01*
G01*
X8810000Y-17691000D02*
X8810000Y-17861000D01*
X8810000Y-17861000D02*
G75*
G03*
X8910000Y-17861000I50000J0D01*
G01*
D10*
X9076000Y-12500000D02*
G75*
G03*
X9076000Y-12500000I-50000J0D01*
G01*
D11*
X9121459Y-12524749D02*
X9001251Y-12404541D01*
X9001251Y-12404541D02*
G75*
G03*
X8930541Y-12475251I-35355J-35355D01*
G01*
X8930541Y-12475251D02*
X9050749Y-12595459D01*
X9050749Y-12595459D02*
G75*
G03*
X9121459Y-12524749I35355J35355D01*
G01*
D10*
X9076000Y-14500000D02*
G75*
G03*
X9076000Y-14500000I-50000J0D01*
G01*
D11*
X9121459Y-14524749D02*
X9001251Y-14404541D01*
X9001251Y-14404541D02*
G75*
G03*
X8930541Y-14475251I-35355J-35355D01*
G01*
X8930541Y-14475251D02*
X9050749Y-14595459D01*
X9050749Y-14595459D02*
G75*
G03*
X9121459Y-14524749I35355J35355D01*
G01*
D10*
X9076000Y-16500000D02*
G75*
G03*
X9076000Y-16500000I-50000J0D01*
G01*
D11*
X9121459Y-16524749D02*
X9001251Y-16404541D01*
X9001251Y-16404541D02*
G75*
G03*
X8930541Y-16475251I-35355J-35355D01*
G01*
X8930541Y-16475251D02*
X9050749Y-16595459D01*
X9050749Y-16595459D02*
G75*
G03*
X9121459Y-16524749I35355J35355D01*
G01*
D10*
X9076000Y-18500000D02*
G75*
G03*
X9076000Y-18500000I-50000J0D01*
G01*
D11*
X9121459Y-18524749D02*
X9001251Y-18404541D01*
X9001251Y-18404541D02*
G75*
G03*
X8930541Y-18475251I-35355J-35355D01*
G01*
X8930541Y-18475251D02*
X9050749Y-18595459D01*
X9050749Y-18595459D02*
G75*
G03*
X9121459Y-18524749I35355J35355D01*
G01*
D10*
X9500000Y-11386000D02*
G75*
G03*
X9500000Y-11386000I-50000J0D01*
G01*
D11*
X9535000Y-11336000D02*
X9365000Y-11336000D01*
X9365000Y-11336000D02*
G75*
G03*
X9365000Y-11436000I0J-50000D01*
G01*
X9365000Y-11436000D02*
X9535000Y-11436000D01*
X9535000Y-11436000D02*
G75*
G03*
X9535000Y-11336000I0J50000D01*
G01*
D10*
X9500000Y-13386000D02*
G75*
G03*
X9500000Y-13386000I-50000J0D01*
G01*
D11*
X9535000Y-13336000D02*
X9365000Y-13336000D01*
X9365000Y-13336000D02*
G75*
G03*
X9365000Y-13436000I0J-50000D01*
G01*
X9365000Y-13436000D02*
X9535000Y-13436000D01*
X9535000Y-13436000D02*
G75*
G03*
X9535000Y-13336000I0J50000D01*
G01*
D10*
X9500000Y-15386000D02*
G75*
G03*
X9500000Y-15386000I-50000J0D01*
G01*
D11*
X9535000Y-15336000D02*
X9365000Y-15336000D01*
X9365000Y-15336000D02*
G75*
G03*
X9365000Y-15436000I0J-50000D01*
G01*
X9365000Y-15436000D02*
X9535000Y-15436000D01*
X9535000Y-15436000D02*
G75*
G03*
X9535000Y-15336000I0J50000D01*
G01*
D10*
X9500000Y-17386000D02*
G75*
G03*
X9500000Y-17386000I-50000J0D01*
G01*
D11*
X9535000Y-17336000D02*
X9365000Y-17336000D01*
X9365000Y-17336000D02*
G75*
G03*
X9365000Y-17436000I0J-50000D01*
G01*
X9365000Y-17436000D02*
X9535000Y-17436000D01*
X9535000Y-17436000D02*
G75*
G03*
X9535000Y-17336000I0J50000D01*
G01*
D10*
X9800000Y-12666000D02*
G75*
G03*
X9800000Y-12666000I-50000J0D01*
G01*
D11*
X9835000Y-12616000D02*
X9665000Y-12616000D01*
X9665000Y-12616000D02*
G75*
G03*
X9665000Y-12716000I0J-50000D01*
G01*
X9665000Y-12716000D02*
X9835000Y-12716000D01*
X9835000Y-12716000D02*
G75*
G03*
X9835000Y-12616000I0J50000D01*
G01*
D10*
X9800000Y-14666000D02*
G75*
G03*
X9800000Y-14666000I-50000J0D01*
G01*
D11*
X9835000Y-14616000D02*
X9665000Y-14616000D01*
X9665000Y-14616000D02*
G75*
G03*
X9665000Y-14716000I0J-50000D01*
G01*
X9665000Y-14716000D02*
X9835000Y-14716000D01*
X9835000Y-14716000D02*
G75*
G03*
X9835000Y-14616000I0J50000D01*
G01*
D10*
X9800000Y-16666000D02*
G75*
G03*
X9800000Y-16666000I-50000J0D01*
G01*
D11*
X9835000Y-16616000D02*
X9665000Y-16616000D01*
X9665000Y-16616000D02*
G75*
G03*
X9665000Y-16716000I0J-50000D01*
G01*
X9665000Y-16716000D02*
X9835000Y-16716000D01*
X9835000Y-16716000D02*
G75*
G03*
X9835000Y-16616000I0J50000D01*
G01*
D10*
X9800000Y-18666000D02*
G75*
G03*
X9800000Y-18666000I-50000J0D01*
G01*
D11*
X9835000Y-18616000D02*
X9665000Y-18616000D01*
X9665000Y-18616000D02*
G75*
G03*
X9665000Y-18716000I0J-50000D01*
G01*
X9665000Y-18716000D02*
X9835000Y-18716000D01*
X9835000Y-18716000D02*
G75*
G03*
X9835000Y-18616000I0J50000D01*
G01*
D10*
X10190000Y-12076000D02*
G75*
G03*
X10190000Y-12076000I-50000J0D01*
G01*
D11*
X10190000Y-12161000D02*
X10190000Y-11991000D01*
X10190000Y-11991000D02*
G75*
G03*
X10090000Y-11991000I-50000J0D01*
G01*
X10090000Y-11991000D02*
X10090000Y-12161000D01*
X10090000Y-12161000D02*
G75*
G03*
X10190000Y-12161000I50000J0D01*
G01*
D10*
X10190000Y-14076000D02*
G75*
G03*
X10190000Y-14076000I-50000J0D01*
G01*
D11*
X10190000Y-14161000D02*
X10190000Y-13991000D01*
X10190000Y-13991000D02*
G75*
G03*
X10090000Y-13991000I-50000J0D01*
G01*
X10090000Y-13991000D02*
X10090000Y-14161000D01*
X10090000Y-14161000D02*
G75*
G03*
X10190000Y-14161000I50000J0D01*
G01*
D10*
X10190000Y-16076000D02*
G75*
G03*
X10190000Y-16076000I-50000J0D01*
G01*
D11*
X10190000Y-16161000D02*
X10190000Y-15991000D01*
X10190000Y-15991000D02*
G75*
G03*
X10090000Y-15991000I-50000J0D01*
G01*
X10090000Y-15991000D02*
X10090000Y-16161000D01*
X10090000Y-16161000D02*
G75*
G03*
X10190000Y-16161000I50000J0D01*
G01*
D10*
X10190000Y-18076000D02*
G75*
G03*
X10190000Y-18076000I-50000J0D01*
G01*
D11*
X10190000Y-18161000D02*
X10190000Y-17991000D01*
X10190000Y-17991000D02*
G75*
G03*
X10090000Y-17991000I-50000J0D01*
G01*
X10090000Y-17991000D02*
X10090000Y-18161000D01*
X10090000Y-18161000D02*
G75*
G03*
X10190000Y-18161000I50000J0D01*
G01*
D10*
X11396000Y-12000000D02*
G75*
G03*
X11396000Y-12000000I-50000J0D01*
G01*
X11396000Y-14000000D02*
G75*
G03*
X11396000Y-14000000I-50000J0D01*
G01*
X11396000Y-16000000D02*
G75*
G03*
X11396000Y-16000000I-50000J0D01*
G01*
X11396000Y-18000000D02*
G75*
G03*
X11396000Y-18000000I-50000J0D01*
G01*
X11650000Y-12000000D02*
G75*
G03*
X11650000Y-12000000I-50000J0D01*
G01*
X11650000Y-14000000D02*
G75*
G03*
X11650000Y-14000000I-50000J0D01*
G01*
X11650000Y-16000000D02*
G75*
G03*
X11650000Y-16000000I-50000J0D01*
G01*
X11650000Y-18000000D02*
G75*
G03*
X11650000Y-18000000I-50000J0D01*
G01*
X12910000Y-11776000D02*
G75*
G03*
X12910000Y-11776000I-50000J0D01*
G01*
D11*
X12910000Y-11861000D02*
X12910000Y-11691000D01*
X12910000Y-11691000D02*
G75*
G03*
X12810000Y-11691000I-50000J0D01*
G01*
X12810000Y-11691000D02*
X12810000Y-11861000D01*
X12810000Y-11861000D02*
G75*
G03*
X12910000Y-11861000I50000J0D01*
G01*
D10*
X12910000Y-13776000D02*
G75*
G03*
X12910000Y-13776000I-50000J0D01*
G01*
D11*
X12910000Y-13861000D02*
X12910000Y-13691000D01*
X12910000Y-13691000D02*
G75*
G03*
X12810000Y-13691000I-50000J0D01*
G01*
X12810000Y-13691000D02*
X12810000Y-13861000D01*
X12810000Y-13861000D02*
G75*
G03*
X12910000Y-13861000I50000J0D01*
G01*
D10*
X12910000Y-15776000D02*
G75*
G03*
X12910000Y-15776000I-50000J0D01*
G01*
D11*
X12910000Y-15861000D02*
X12910000Y-15691000D01*
X12910000Y-15691000D02*
G75*
G03*
X12810000Y-15691000I-50000J0D01*
G01*
X12810000Y-15691000D02*
X12810000Y-15861000D01*
X12810000Y-15861000D02*
G75*
G03*
X12910000Y-15861000I50000J0D01*
G01*
D10*
X12910000Y-17776000D02*
G75*
G03*
X12910000Y-17776000I-50000J0D01*
G01*
D11*
X12910000Y-17861000D02*
X12910000Y-17691000D01*
X12910000Y-17691000D02*
G75*
G03*
X12810000Y-17691000I-50000J0D01*
G01*
X12810000Y-17691000D02*
X12810000Y-17861000D01*
X12810000Y-17861000D02*
G75*
G03*
X12910000Y-17861000I50000J0D01*
G01*
D10*
X13076000Y-12500000D02*
G75*
G03*
X13076000Y-12500000I-50000J0D01*
G01*
D11*
X13121459Y-12524749D02*
X13001251Y-12404541D01*
X13001251Y-12404541D02*
G75*
G03*
X12930541Y-12475251I-35355J-35355D01*
G01*
X12930541Y-12475251D02*
X13050749Y-12595459D01*
X13050749Y-12595459D02*
G75*
G03*
X13121459Y-12524749I35355J35355D01*
G01*
D10*
X13076000Y-14500000D02*
G75*
G03*
X13076000Y-14500000I-50000J0D01*
G01*
D11*
X13121459Y-14524749D02*
X13001251Y-14404541D01*
X13001251Y-14404541D02*
G75*
G03*
X12930541Y-14475251I-35355J-35355D01*
G01*
X12930541Y-14475251D02*
X13050749Y-14595459D01*
X13050749Y-14595459D02*
G75*
G03*
X13121459Y-14524749I35355J35355D01*
G01*
D10*
X13076000Y-16500000D02*
G75*
G03*
X13076000Y-16500000I-50000J0D01*
G01*
D11*
X13121459Y-16524749D02*
X13001251Y-16404541D01*
X13001251Y-16404541D02*
G75*
G03*
X12930541Y-16475251I-35355J-35355D01*
G01*
X12930541Y-16475251D02*
X13050749Y-16595459D01*
X13050749Y-16595459D02*
G75*
G03*
X13121459Y-16524749I35355J35355D01*
G01*
D10*
X13076000Y-18500000D02*
G75*
G03*
X13076000Y-18500000I-50000J0D01*
G01*
D11*
X13121459Y-18524749D02*
X13001251Y-18404541D01*
X13001251Y-18404541D02*
G75*
G03*
X12930541Y-18475251I-35355J-35355D01*
G01*
X12930541Y-18475251D02*
X13050749Y-18595459D01*
X13050749Y-18595459D02*
G75*
G03*
X13121459Y-18524749I35355J35355D01*
G01*
D10*
X13500000Y-11386000D02*
G75*
G03*
X13500000Y-11386000I-50000J0D01*
G01*
D11*
X13535000Y-11336000D02*
X13365000Y-11336000D01*
X13365000Y-11336000D02*
G75*
G03*
X13365000Y-11436000I0J-50000D01*
G01*
X13365000Y-11436000D02*
X13535000Y-11436000D01*
X13535000Y-11436000D02*
G75*
G03*
X13535000Y-11336000I0J50000D01*
G01*
D10*
X13500000Y-13386000D02*
G75*
G03*
X13500000Y-13386000I-50000J0D01*
G01*
D11*
X13535000Y-13336000D02*
X13365000Y-13336000D01*
X13365000Y-13336000D02*
G75*
G03*
X13365000Y-13436000I0J-50000D01*
G01*
X13365000Y-13436000D02*
X13535000Y-13436000D01*
X13535000Y-13436000D02*
G75*
G03*
X13535000Y-13336000I0J50000D01*
G01*
D10*
X13500000Y-15386000D02*
G75*
G03*
X13500000Y-15386000I-50000J0D01*
G01*
D11*
X13535000Y-15336000D02*
X13365000Y-15336000D01*
X13365000Y-15336000D02*
G75*
G03*
X13365000Y-15436000I0J-50000D01*
G01*
X13365000Y-15436000D02*
X13535000Y-15436000D01*
X13535000Y-15436000D02*
G75*
G03*
X13535000Y-15336000I0J50000D01*
G01*
D10*
X13500000Y-17386000D02*
G75*
G03*
X13500000Y-17386000I-50000J0D01*
G01*
D11*
X13535000Y-17336000D02*
X13365000Y-17336000D01*
X13365000Y-17336000D02*
G75*
G03*
X13365000Y-17436000I0J-50000D01*
G01*
X13365000Y-17436000D02*
X13535000Y-17436000D01*
X13535000Y-17436000D02*
G75*
G03*
X13535000Y-17336000I0J50000D01*
G01*
D10*
X13800000Y-12666000D02*
G75*
G03*
X13800000Y-12666000I-50000J0D01*
G01*
D11*
X13835000Y-12616000D02*
X13665000Y-12616000D01*
X13665000Y-12616000D02*
G75*
G03*
X13665000Y-12716000I0J-50000D01*
G01*
X13665000Y-12716000D02*
X13835000Y-12716000D01*
X13835000Y-12716000D02*
G75*
G03*
X13835000Y-12616000I0J50000D01*
G01*
D10*
X13800000Y-14666000D02*
G75*
G03*
X13800000Y-14666000I-50000J0D01*
G01*
D11*
X13835000Y-14616000D02*
X13665000Y-14616000D01*
X13665000Y-14616000D02*
G75*
G03*
X13665000Y-14716000I0J-50000D01*
G01*
X13665000Y-14716000D02*
X13835000Y-14716000D01*
X13835000Y-14716000D02*
G75*
G03*
X13835000Y-14616000I0J50000D01*
G01*
D10*
X13800000Y-16666000D02*
G75*
G03*
X13800000Y-16666000I-50000J0D01*
G01*
D11*
X13835000Y-16616000D02*
X13665000Y-16616000D01*
X13665000Y-16616000D02*
G75*
G03*
X13665000Y-16716000I0J-50000D01*
G01*
X13665000Y-16716000D02*
X13835000Y-16716000D01*
X13835000Y-16716000D02*
G75*
G03*
X13835000Y-16616000I0J50000D01*
G01*
D10*
X13800000Y-18666000D02*
G75*
G03*
X13800000Y-18666000I-50000J0D01*
G01*
D11*
X13835000Y-18616000D02*
X13665000Y-18616000D01*
X13665000Y-18616000D02*
G75*
G03*
X13665000Y-18716000I0J-50000D01*
G01*
X13665000Y-18716000D02*
X13835000Y-18716000D01*
X13835000Y-18716000D02*
G75*
G03*
X13835000Y-18616000I0J50000D01*
G01*
D10*
X14190000Y-12076000D02*
G75*
G03*
X14190000Y-12076000I-50000J0D01*
G01*
D11*
X14190000Y-12161000D02*
X14190000Y-11991000D01*
X14190000Y-11991000D02*
G75*
G03*
X14090000Y-11991000I-50000J0D01*
G01*
X14090000Y-11991000D02*
X14090000Y-12161000D01*
X14090000Y-12161000D02*
G75*
G03*
X14190000Y-12161000I50000J0D01*
G01*
D10*
X14190000Y-14076000D02*
G75*
G03*
X14190000Y-14076000I-50000J0D01*
G01*
D11*
X14190000Y-14161000D02*
X14190000Y-13991000D01*
X14190000Y-13991000D02*
G75*
G03*
X14090000Y-13991000I-50000J0D01*
G01*
X14090000Y-13991000D02*
X14090000Y-14161000D01*
X14090000Y-14161000D02*
G75*
G03*
X14190000Y-14161000I50000J0D01*
G01*
D10*
X14190000Y-16076000D02*
G75*
G03*
X14190000Y-16076000I-50000J0D01*
G01*
D11*
X14190000Y-16161000D02*
X14190000Y-15991000D01*
X14190000Y-15991000D02*
G75*
G03*
X14090000Y-15991000I-50000J0D01*
G01*
X14090000Y-15991000D02*
X14090000Y-16161000D01*
X14090000Y-16161000D02*
G75*
G03*
X14190000Y-16161000I50000J0D01*
G01*
D10*
X14190000Y-18076000D02*
G75*
G03*
X14190000Y-18076000I-50000J0D01*
G01*
D11*
X14190000Y-18161000D02*
X14190000Y-17991000D01*
X14190000Y-17991000D02*
G75*
G03*
X14090000Y-17991000I-50000J0D01*
G01*
X14090000Y-17991000D02*
X14090000Y-18161000D01*
X14090000Y-18161000D02*
G75*
G03*
X14190000Y-18161000I50000J0D01*
G01*
D13*
X13146000Y-9082200D02*
X13146000Y-9183800D01*
X13095200Y-9133000D02*
X13196800Y-9133000D01*
X13146000Y-9336200D02*
X13146000Y-9437800D01*
X13095200Y-9387000D02*
X13196800Y-9387000D01*
X13146000Y-9590200D02*
X13146000Y-9691800D01*
X13095200Y-9641000D02*
X13196800Y-9641000D01*
X13146000Y-9844200D02*
X13146000Y-9945800D01*
X13095200Y-9895000D02*
X13196800Y-9895000D01*
X13146000Y-10098200D02*
X13146000Y-10199800D01*
X13095200Y-10149000D02*
X13196800Y-10149000D01*
X13400000Y-9082200D02*
X13400000Y-9183800D01*
X13349200Y-9133000D02*
X13450800Y-9133000D01*
X13400000Y-9336200D02*
X13400000Y-9437800D01*
X13349200Y-9387000D02*
X13450800Y-9387000D01*
X13400000Y-9590200D02*
X13400000Y-9691800D01*
X13349200Y-9641000D02*
X13450800Y-9641000D01*
X13400000Y-9844200D02*
X13400000Y-9945800D01*
X13349200Y-9895000D02*
X13450800Y-9895000D01*
X13400000Y-10098200D02*
X13400000Y-10199800D01*
X13349200Y-10149000D02*
X13450800Y-10149000D01*
D14*
X10801791Y-9007491D02*
X10801791Y-8929709D01*
X10724009Y-8929709D01*
X10724009Y-9007491D01*
X10801791Y-9007491D01*
X10801791Y-9261491D02*
X10801791Y-9183709D01*
X10724009Y-9183709D01*
X10724009Y-9261491D01*
X10801791Y-9261491D01*
X10801791Y-9515491D02*
X10801791Y-9437709D01*
X10724009Y-9437709D01*
X10724009Y-9515491D01*
X10801791Y-9515491D01*
X11876891Y-9479891D02*
X11876891Y-9402109D01*
X11799109Y-9402109D01*
X11799109Y-9479891D01*
X11876891Y-9479891D01*
X11876891Y-9879891D02*
X11876891Y-9802109D01*
X11799109Y-9802109D01*
X11799109Y-9879891D01*
X11876891Y-9879891D01*
X12638891Y-9479891D02*
X12638891Y-9402109D01*
X12561109Y-9402109D01*
X12561109Y-9479891D01*
X12638891Y-9479891D01*
X12638891Y-9879891D02*
X12638891Y-9802109D01*
X12561109Y-9802109D01*
X12561109Y-9879891D01*
X12638891Y-9879891D01*
D11*
X4842619Y-19267524D02*
X4842619Y-19067524D01*
X4842619Y-19067524D02*
X4890238Y-19067524D01*
X4890238Y-19067524D02*
X4918810Y-19077048D01*
X4918810Y-19077048D02*
X4937857Y-19096095D01*
X4937857Y-19096095D02*
X4947381Y-19115143D01*
X4947381Y-19115143D02*
X4956905Y-19153238D01*
X4956905Y-19153238D02*
X4956905Y-19181810D01*
X4956905Y-19181810D02*
X4947381Y-19219905D01*
X4947381Y-19219905D02*
X4937857Y-19238952D01*
X4937857Y-19238952D02*
X4918810Y-19258000D01*
X4918810Y-19258000D02*
X4890238Y-19267524D01*
X4890238Y-19267524D02*
X4842619Y-19267524D01*
X5042619Y-19267524D02*
X5042619Y-19134190D01*
X5042619Y-19172286D02*
X5052143Y-19153238D01*
X5052143Y-19153238D02*
X5061667Y-19143714D01*
X5061667Y-19143714D02*
X5080714Y-19134190D01*
X5080714Y-19134190D02*
X5099762Y-19134190D01*
X5166429Y-19267524D02*
X5166429Y-19134190D01*
X5166429Y-19067524D02*
X5156905Y-19077048D01*
X5156905Y-19077048D02*
X5166429Y-19086571D01*
X5166429Y-19086571D02*
X5175952Y-19077048D01*
X5175952Y-19077048D02*
X5166429Y-19067524D01*
X5166429Y-19067524D02*
X5166429Y-19086571D01*
X5290238Y-19267524D02*
X5271190Y-19258000D01*
X5271190Y-19258000D02*
X5261667Y-19238952D01*
X5261667Y-19238952D02*
X5261667Y-19067524D01*
X5395000Y-19267524D02*
X5375952Y-19258000D01*
X5375952Y-19258000D02*
X5366429Y-19238952D01*
X5366429Y-19238952D02*
X5366429Y-19067524D01*
X5623571Y-19267524D02*
X5623571Y-19067524D01*
X5623571Y-19067524D02*
X5690238Y-19210381D01*
X5690238Y-19210381D02*
X5756905Y-19067524D01*
X5756905Y-19067524D02*
X5756905Y-19267524D01*
X5937857Y-19267524D02*
X5937857Y-19162762D01*
X5937857Y-19162762D02*
X5928333Y-19143714D01*
X5928333Y-19143714D02*
X5909286Y-19134190D01*
X5909286Y-19134190D02*
X5871190Y-19134190D01*
X5871190Y-19134190D02*
X5852143Y-19143714D01*
X5937857Y-19258000D02*
X5918809Y-19267524D01*
X5918809Y-19267524D02*
X5871190Y-19267524D01*
X5871190Y-19267524D02*
X5852143Y-19258000D01*
X5852143Y-19258000D02*
X5842619Y-19238952D01*
X5842619Y-19238952D02*
X5842619Y-19219905D01*
X5842619Y-19219905D02*
X5852143Y-19200857D01*
X5852143Y-19200857D02*
X5871190Y-19191333D01*
X5871190Y-19191333D02*
X5918809Y-19191333D01*
X5918809Y-19191333D02*
X5937857Y-19181810D01*
X6033095Y-19134190D02*
X6033095Y-19334190D01*
X6033095Y-19143714D02*
X6052143Y-19134190D01*
X6052143Y-19134190D02*
X6090238Y-19134190D01*
X6090238Y-19134190D02*
X6109286Y-19143714D01*
X6109286Y-19143714D02*
X6118809Y-19153238D01*
X6118809Y-19153238D02*
X6128333Y-19172286D01*
X6128333Y-19172286D02*
X6128333Y-19229429D01*
X6128333Y-19229429D02*
X6118809Y-19248476D01*
X6118809Y-19248476D02*
X6109286Y-19258000D01*
X6109286Y-19258000D02*
X6090238Y-19267524D01*
X6090238Y-19267524D02*
X6052143Y-19267524D01*
X6052143Y-19267524D02*
X6033095Y-19258000D01*
X6214048Y-19248476D02*
X6223571Y-19258000D01*
X6223571Y-19258000D02*
X6214048Y-19267524D01*
X6214048Y-19267524D02*
X6204524Y-19258000D01*
X6204524Y-19258000D02*
X6214048Y-19248476D01*
X6214048Y-19248476D02*
X6214048Y-19267524D01*
X6214048Y-19143714D02*
X6223571Y-19153238D01*
X6223571Y-19153238D02*
X6214048Y-19162762D01*
X6214048Y-19162762D02*
X6204524Y-19153238D01*
X6204524Y-19153238D02*
X6214048Y-19143714D01*
X6214048Y-19143714D02*
X6214048Y-19162762D01*
D12*
X4515000Y-19555000D02*
X4595000Y-19635000D01*
X4595000Y-19555000D02*
X4515000Y-19635000D01*
D11*
X4880714Y-19487524D02*
X4899762Y-19487524D01*
X4899762Y-19487524D02*
X4918810Y-19497048D01*
X4918810Y-19497048D02*
X4928333Y-19506571D01*
X4928333Y-19506571D02*
X4937857Y-19525619D01*
X4937857Y-19525619D02*
X4947381Y-19563714D01*
X4947381Y-19563714D02*
X4947381Y-19611333D01*
X4947381Y-19611333D02*
X4937857Y-19649429D01*
X4937857Y-19649429D02*
X4928333Y-19668476D01*
X4928333Y-19668476D02*
X4918810Y-19678000D01*
X4918810Y-19678000D02*
X4899762Y-19687524D01*
X4899762Y-19687524D02*
X4880714Y-19687524D01*
X4880714Y-19687524D02*
X4861667Y-19678000D01*
X4861667Y-19678000D02*
X4852143Y-19668476D01*
X4852143Y-19668476D02*
X4842619Y-19649429D01*
X4842619Y-19649429D02*
X4833095Y-19611333D01*
X4833095Y-19611333D02*
X4833095Y-19563714D01*
X4833095Y-19563714D02*
X4842619Y-19525619D01*
X4842619Y-19525619D02*
X4852143Y-19506571D01*
X4852143Y-19506571D02*
X4861667Y-19497048D01*
X4861667Y-19497048D02*
X4880714Y-19487524D01*
X5033095Y-19668476D02*
X5042619Y-19678000D01*
X5042619Y-19678000D02*
X5033095Y-19687524D01*
X5033095Y-19687524D02*
X5023571Y-19678000D01*
X5023571Y-19678000D02*
X5033095Y-19668476D01*
X5033095Y-19668476D02*
X5033095Y-19687524D01*
X5156905Y-19573238D02*
X5137857Y-19563714D01*
X5137857Y-19563714D02*
X5128333Y-19554190D01*
X5128333Y-19554190D02*
X5118810Y-19535143D01*
X5118810Y-19535143D02*
X5118810Y-19525619D01*
X5118810Y-19525619D02*
X5128333Y-19506571D01*
X5128333Y-19506571D02*
X5137857Y-19497048D01*
X5137857Y-19497048D02*
X5156905Y-19487524D01*
X5156905Y-19487524D02*
X5195000Y-19487524D01*
X5195000Y-19487524D02*
X5214048Y-19497048D01*
X5214048Y-19497048D02*
X5223571Y-19506571D01*
X5223571Y-19506571D02*
X5233095Y-19525619D01*
X5233095Y-19525619D02*
X5233095Y-19535143D01*
X5233095Y-19535143D02*
X5223571Y-19554190D01*
X5223571Y-19554190D02*
X5214048Y-19563714D01*
X5214048Y-19563714D02*
X5195000Y-19573238D01*
X5195000Y-19573238D02*
X5156905Y-19573238D01*
X5156905Y-19573238D02*
X5137857Y-19582762D01*
X5137857Y-19582762D02*
X5128333Y-19592286D01*
X5128333Y-19592286D02*
X5118810Y-19611333D01*
X5118810Y-19611333D02*
X5118810Y-19649429D01*
X5118810Y-19649429D02*
X5128333Y-19668476D01*
X5128333Y-19668476D02*
X5137857Y-19678000D01*
X5137857Y-19678000D02*
X5156905Y-19687524D01*
X5156905Y-19687524D02*
X5195000Y-19687524D01*
X5195000Y-19687524D02*
X5214048Y-19678000D01*
X5214048Y-19678000D02*
X5223571Y-19668476D01*
X5223571Y-19668476D02*
X5233095Y-19649429D01*
X5233095Y-19649429D02*
X5233095Y-19611333D01*
X5233095Y-19611333D02*
X5223571Y-19592286D01*
X5223571Y-19592286D02*
X5214048Y-19582762D01*
X5214048Y-19582762D02*
X5195000Y-19573238D01*
X5356905Y-19487524D02*
X5375952Y-19487524D01*
X5375952Y-19487524D02*
X5395000Y-19497048D01*
X5395000Y-19497048D02*
X5404524Y-19506571D01*
X5404524Y-19506571D02*
X5414048Y-19525619D01*
X5414048Y-19525619D02*
X5423571Y-19563714D01*
X5423571Y-19563714D02*
X5423571Y-19611333D01*
X5423571Y-19611333D02*
X5414048Y-19649429D01*
X5414048Y-19649429D02*
X5404524Y-19668476D01*
X5404524Y-19668476D02*
X5395000Y-19678000D01*
X5395000Y-19678000D02*
X5375952Y-19687524D01*
X5375952Y-19687524D02*
X5356905Y-19687524D01*
X5356905Y-19687524D02*
X5337857Y-19678000D01*
X5337857Y-19678000D02*
X5328333Y-19668476D01*
X5328333Y-19668476D02*
X5318810Y-19649429D01*
X5318810Y-19649429D02*
X5309286Y-19611333D01*
X5309286Y-19611333D02*
X5309286Y-19563714D01*
X5309286Y-19563714D02*
X5318810Y-19525619D01*
X5318810Y-19525619D02*
X5328333Y-19506571D01*
X5328333Y-19506571D02*
X5337857Y-19497048D01*
X5337857Y-19497048D02*
X5356905Y-19487524D01*
X5547381Y-19487524D02*
X5566429Y-19487524D01*
X5566429Y-19487524D02*
X5585476Y-19497048D01*
X5585476Y-19497048D02*
X5595000Y-19506571D01*
X5595000Y-19506571D02*
X5604524Y-19525619D01*
X5604524Y-19525619D02*
X5614048Y-19563714D01*
X5614048Y-19563714D02*
X5614048Y-19611333D01*
X5614048Y-19611333D02*
X5604524Y-19649429D01*
X5604524Y-19649429D02*
X5595000Y-19668476D01*
X5595000Y-19668476D02*
X5585476Y-19678000D01*
X5585476Y-19678000D02*
X5566429Y-19687524D01*
X5566429Y-19687524D02*
X5547381Y-19687524D01*
X5547381Y-19687524D02*
X5528333Y-19678000D01*
X5528333Y-19678000D02*
X5518810Y-19668476D01*
X5518810Y-19668476D02*
X5509286Y-19649429D01*
X5509286Y-19649429D02*
X5499762Y-19611333D01*
X5499762Y-19611333D02*
X5499762Y-19563714D01*
X5499762Y-19563714D02*
X5509286Y-19525619D01*
X5509286Y-19525619D02*
X5518810Y-19506571D01*
X5518810Y-19506571D02*
X5528333Y-19497048D01*
X5528333Y-19497048D02*
X5547381Y-19487524D01*
X5699762Y-19687524D02*
X5699762Y-19554190D01*
X5699762Y-19573238D02*
X5709286Y-19563714D01*
X5709286Y-19563714D02*
X5728333Y-19554190D01*
X5728333Y-19554190D02*
X5756905Y-19554190D01*
X5756905Y-19554190D02*
X5775952Y-19563714D01*
X5775952Y-19563714D02*
X5785476Y-19582762D01*
X5785476Y-19582762D02*
X5785476Y-19687524D01*
X5785476Y-19582762D02*
X5795000Y-19563714D01*
X5795000Y-19563714D02*
X5814048Y-19554190D01*
X5814048Y-19554190D02*
X5842619Y-19554190D01*
X5842619Y-19554190D02*
X5861667Y-19563714D01*
X5861667Y-19563714D02*
X5871190Y-19582762D01*
X5871190Y-19582762D02*
X5871190Y-19687524D01*
X5966429Y-19687524D02*
X5966429Y-19554190D01*
X5966429Y-19573238D02*
X5975952Y-19563714D01*
X5975952Y-19563714D02*
X5995000Y-19554190D01*
X5995000Y-19554190D02*
X6023571Y-19554190D01*
X6023571Y-19554190D02*
X6042619Y-19563714D01*
X6042619Y-19563714D02*
X6052143Y-19582762D01*
X6052143Y-19582762D02*
X6052143Y-19687524D01*
X6052143Y-19582762D02*
X6061667Y-19563714D01*
X6061667Y-19563714D02*
X6080714Y-19554190D01*
X6080714Y-19554190D02*
X6109286Y-19554190D01*
X6109286Y-19554190D02*
X6128333Y-19563714D01*
X6128333Y-19563714D02*
X6137857Y-19582762D01*
X6137857Y-19582762D02*
X6137857Y-19687524D01*
X6528333Y-19478000D02*
X6356905Y-19735143D01*
X6785476Y-19487524D02*
X6804524Y-19487524D01*
X6804524Y-19487524D02*
X6823572Y-19497048D01*
X6823572Y-19497048D02*
X6833095Y-19506571D01*
X6833095Y-19506571D02*
X6842619Y-19525619D01*
X6842619Y-19525619D02*
X6852143Y-19563714D01*
X6852143Y-19563714D02*
X6852143Y-19611333D01*
X6852143Y-19611333D02*
X6842619Y-19649429D01*
X6842619Y-19649429D02*
X6833095Y-19668476D01*
X6833095Y-19668476D02*
X6823572Y-19678000D01*
X6823572Y-19678000D02*
X6804524Y-19687524D01*
X6804524Y-19687524D02*
X6785476Y-19687524D01*
X6785476Y-19687524D02*
X6766429Y-19678000D01*
X6766429Y-19678000D02*
X6756905Y-19668476D01*
X6756905Y-19668476D02*
X6747381Y-19649429D01*
X6747381Y-19649429D02*
X6737857Y-19611333D01*
X6737857Y-19611333D02*
X6737857Y-19563714D01*
X6737857Y-19563714D02*
X6747381Y-19525619D01*
X6747381Y-19525619D02*
X6756905Y-19506571D01*
X6756905Y-19506571D02*
X6766429Y-19497048D01*
X6766429Y-19497048D02*
X6785476Y-19487524D01*
X6937857Y-19668476D02*
X6947381Y-19678000D01*
X6947381Y-19678000D02*
X6937857Y-19687524D01*
X6937857Y-19687524D02*
X6928333Y-19678000D01*
X6928333Y-19678000D02*
X6937857Y-19668476D01*
X6937857Y-19668476D02*
X6937857Y-19687524D01*
X7071191Y-19487524D02*
X7090238Y-19487524D01*
X7090238Y-19487524D02*
X7109286Y-19497048D01*
X7109286Y-19497048D02*
X7118810Y-19506571D01*
X7118810Y-19506571D02*
X7128333Y-19525619D01*
X7128333Y-19525619D02*
X7137857Y-19563714D01*
X7137857Y-19563714D02*
X7137857Y-19611333D01*
X7137857Y-19611333D02*
X7128333Y-19649429D01*
X7128333Y-19649429D02*
X7118810Y-19668476D01*
X7118810Y-19668476D02*
X7109286Y-19678000D01*
X7109286Y-19678000D02*
X7090238Y-19687524D01*
X7090238Y-19687524D02*
X7071191Y-19687524D01*
X7071191Y-19687524D02*
X7052143Y-19678000D01*
X7052143Y-19678000D02*
X7042619Y-19668476D01*
X7042619Y-19668476D02*
X7033095Y-19649429D01*
X7033095Y-19649429D02*
X7023572Y-19611333D01*
X7023572Y-19611333D02*
X7023572Y-19563714D01*
X7023572Y-19563714D02*
X7033095Y-19525619D01*
X7033095Y-19525619D02*
X7042619Y-19506571D01*
X7042619Y-19506571D02*
X7052143Y-19497048D01*
X7052143Y-19497048D02*
X7071191Y-19487524D01*
X7204524Y-19487524D02*
X7328333Y-19487524D01*
X7328333Y-19487524D02*
X7261667Y-19563714D01*
X7261667Y-19563714D02*
X7290238Y-19563714D01*
X7290238Y-19563714D02*
X7309286Y-19573238D01*
X7309286Y-19573238D02*
X7318810Y-19582762D01*
X7318810Y-19582762D02*
X7328333Y-19601810D01*
X7328333Y-19601810D02*
X7328333Y-19649429D01*
X7328333Y-19649429D02*
X7318810Y-19668476D01*
X7318810Y-19668476D02*
X7309286Y-19678000D01*
X7309286Y-19678000D02*
X7290238Y-19687524D01*
X7290238Y-19687524D02*
X7233095Y-19687524D01*
X7233095Y-19687524D02*
X7214048Y-19678000D01*
X7214048Y-19678000D02*
X7204524Y-19668476D01*
X7518810Y-19687524D02*
X7404524Y-19687524D01*
X7461667Y-19687524D02*
X7461667Y-19487524D01*
X7461667Y-19487524D02*
X7442619Y-19516095D01*
X7442619Y-19516095D02*
X7423572Y-19535143D01*
X7423572Y-19535143D02*
X7404524Y-19544667D01*
X7699762Y-19487524D02*
X7604524Y-19487524D01*
X7604524Y-19487524D02*
X7595000Y-19582762D01*
X7595000Y-19582762D02*
X7604524Y-19573238D01*
X7604524Y-19573238D02*
X7623572Y-19563714D01*
X7623572Y-19563714D02*
X7671191Y-19563714D01*
X7671191Y-19563714D02*
X7690238Y-19573238D01*
X7690238Y-19573238D02*
X7699762Y-19582762D01*
X7699762Y-19582762D02*
X7709286Y-19601810D01*
X7709286Y-19601810D02*
X7709286Y-19649429D01*
X7709286Y-19649429D02*
X7699762Y-19668476D01*
X7699762Y-19668476D02*
X7690238Y-19678000D01*
X7690238Y-19678000D02*
X7671191Y-19687524D01*
X7671191Y-19687524D02*
X7623572Y-19687524D01*
X7623572Y-19687524D02*
X7604524Y-19678000D01*
X7604524Y-19678000D02*
X7595000Y-19668476D01*
X7785476Y-19487524D02*
X7785476Y-19525619D01*
X7861667Y-19487524D02*
X7861667Y-19525619D01*
X8156905Y-19763714D02*
X8147381Y-19754190D01*
X8147381Y-19754190D02*
X8128334Y-19725619D01*
X8128334Y-19725619D02*
X8118810Y-19706571D01*
X8118810Y-19706571D02*
X8109286Y-19678000D01*
X8109286Y-19678000D02*
X8099762Y-19630381D01*
X8099762Y-19630381D02*
X8099762Y-19592286D01*
X8099762Y-19592286D02*
X8109286Y-19544667D01*
X8109286Y-19544667D02*
X8118810Y-19516095D01*
X8118810Y-19516095D02*
X8128334Y-19497048D01*
X8128334Y-19497048D02*
X8147381Y-19468476D01*
X8147381Y-19468476D02*
X8156905Y-19458952D01*
X8337857Y-19687524D02*
X8223572Y-19687524D01*
X8280714Y-19687524D02*
X8280714Y-19487524D01*
X8280714Y-19487524D02*
X8261667Y-19516095D01*
X8261667Y-19516095D02*
X8242619Y-19535143D01*
X8242619Y-19535143D02*
X8223572Y-19544667D01*
X8452143Y-19573238D02*
X8433096Y-19563714D01*
X8433096Y-19563714D02*
X8423572Y-19554190D01*
X8423572Y-19554190D02*
X8414048Y-19535143D01*
X8414048Y-19535143D02*
X8414048Y-19525619D01*
X8414048Y-19525619D02*
X8423572Y-19506571D01*
X8423572Y-19506571D02*
X8433096Y-19497048D01*
X8433096Y-19497048D02*
X8452143Y-19487524D01*
X8452143Y-19487524D02*
X8490238Y-19487524D01*
X8490238Y-19487524D02*
X8509286Y-19497048D01*
X8509286Y-19497048D02*
X8518810Y-19506571D01*
X8518810Y-19506571D02*
X8528334Y-19525619D01*
X8528334Y-19525619D02*
X8528334Y-19535143D01*
X8528334Y-19535143D02*
X8518810Y-19554190D01*
X8518810Y-19554190D02*
X8509286Y-19563714D01*
X8509286Y-19563714D02*
X8490238Y-19573238D01*
X8490238Y-19573238D02*
X8452143Y-19573238D01*
X8452143Y-19573238D02*
X8433096Y-19582762D01*
X8433096Y-19582762D02*
X8423572Y-19592286D01*
X8423572Y-19592286D02*
X8414048Y-19611333D01*
X8414048Y-19611333D02*
X8414048Y-19649429D01*
X8414048Y-19649429D02*
X8423572Y-19668476D01*
X8423572Y-19668476D02*
X8433096Y-19678000D01*
X8433096Y-19678000D02*
X8452143Y-19687524D01*
X8452143Y-19687524D02*
X8490238Y-19687524D01*
X8490238Y-19687524D02*
X8509286Y-19678000D01*
X8509286Y-19678000D02*
X8518810Y-19668476D01*
X8518810Y-19668476D02*
X8528334Y-19649429D01*
X8528334Y-19649429D02*
X8528334Y-19611333D01*
X8528334Y-19611333D02*
X8518810Y-19592286D01*
X8518810Y-19592286D02*
X8509286Y-19582762D01*
X8509286Y-19582762D02*
X8490238Y-19573238D01*
X8699762Y-19487524D02*
X8661667Y-19487524D01*
X8661667Y-19487524D02*
X8642619Y-19497048D01*
X8642619Y-19497048D02*
X8633096Y-19506571D01*
X8633096Y-19506571D02*
X8614048Y-19535143D01*
X8614048Y-19535143D02*
X8604524Y-19573238D01*
X8604524Y-19573238D02*
X8604524Y-19649429D01*
X8604524Y-19649429D02*
X8614048Y-19668476D01*
X8614048Y-19668476D02*
X8623572Y-19678000D01*
X8623572Y-19678000D02*
X8642619Y-19687524D01*
X8642619Y-19687524D02*
X8680715Y-19687524D01*
X8680715Y-19687524D02*
X8699762Y-19678000D01*
X8699762Y-19678000D02*
X8709286Y-19668476D01*
X8709286Y-19668476D02*
X8718810Y-19649429D01*
X8718810Y-19649429D02*
X8718810Y-19601810D01*
X8718810Y-19601810D02*
X8709286Y-19582762D01*
X8709286Y-19582762D02*
X8699762Y-19573238D01*
X8699762Y-19573238D02*
X8680715Y-19563714D01*
X8680715Y-19563714D02*
X8642619Y-19563714D01*
X8642619Y-19563714D02*
X8623572Y-19573238D01*
X8623572Y-19573238D02*
X8614048Y-19582762D01*
X8614048Y-19582762D02*
X8604524Y-19601810D01*
X8956905Y-19687524D02*
X8956905Y-19487524D01*
X9042619Y-19687524D02*
X9042619Y-19582762D01*
X9042619Y-19582762D02*
X9033096Y-19563714D01*
X9033096Y-19563714D02*
X9014048Y-19554190D01*
X9014048Y-19554190D02*
X8985477Y-19554190D01*
X8985477Y-19554190D02*
X8966429Y-19563714D01*
X8966429Y-19563714D02*
X8956905Y-19573238D01*
X9166429Y-19687524D02*
X9147381Y-19678000D01*
X9147381Y-19678000D02*
X9137858Y-19668476D01*
X9137858Y-19668476D02*
X9128334Y-19649429D01*
X9128334Y-19649429D02*
X9128334Y-19592286D01*
X9128334Y-19592286D02*
X9137858Y-19573238D01*
X9137858Y-19573238D02*
X9147381Y-19563714D01*
X9147381Y-19563714D02*
X9166429Y-19554190D01*
X9166429Y-19554190D02*
X9195000Y-19554190D01*
X9195000Y-19554190D02*
X9214048Y-19563714D01*
X9214048Y-19563714D02*
X9223572Y-19573238D01*
X9223572Y-19573238D02*
X9233096Y-19592286D01*
X9233096Y-19592286D02*
X9233096Y-19649429D01*
X9233096Y-19649429D02*
X9223572Y-19668476D01*
X9223572Y-19668476D02*
X9214048Y-19678000D01*
X9214048Y-19678000D02*
X9195000Y-19687524D01*
X9195000Y-19687524D02*
X9166429Y-19687524D01*
X9347381Y-19687524D02*
X9328334Y-19678000D01*
X9328334Y-19678000D02*
X9318810Y-19658952D01*
X9318810Y-19658952D02*
X9318810Y-19487524D01*
X9499762Y-19678000D02*
X9480715Y-19687524D01*
X9480715Y-19687524D02*
X9442619Y-19687524D01*
X9442619Y-19687524D02*
X9423572Y-19678000D01*
X9423572Y-19678000D02*
X9414048Y-19658952D01*
X9414048Y-19658952D02*
X9414048Y-19582762D01*
X9414048Y-19582762D02*
X9423572Y-19563714D01*
X9423572Y-19563714D02*
X9442619Y-19554190D01*
X9442619Y-19554190D02*
X9480715Y-19554190D01*
X9480715Y-19554190D02*
X9499762Y-19563714D01*
X9499762Y-19563714D02*
X9509286Y-19582762D01*
X9509286Y-19582762D02*
X9509286Y-19601810D01*
X9509286Y-19601810D02*
X9414048Y-19620857D01*
X9585477Y-19678000D02*
X9604524Y-19687524D01*
X9604524Y-19687524D02*
X9642619Y-19687524D01*
X9642619Y-19687524D02*
X9661667Y-19678000D01*
X9661667Y-19678000D02*
X9671191Y-19658952D01*
X9671191Y-19658952D02*
X9671191Y-19649429D01*
X9671191Y-19649429D02*
X9661667Y-19630381D01*
X9661667Y-19630381D02*
X9642619Y-19620857D01*
X9642619Y-19620857D02*
X9614048Y-19620857D01*
X9614048Y-19620857D02*
X9595000Y-19611333D01*
X9595000Y-19611333D02*
X9585477Y-19592286D01*
X9585477Y-19592286D02*
X9585477Y-19582762D01*
X9585477Y-19582762D02*
X9595000Y-19563714D01*
X9595000Y-19563714D02*
X9614048Y-19554190D01*
X9614048Y-19554190D02*
X9642619Y-19554190D01*
X9642619Y-19554190D02*
X9661667Y-19563714D01*
X9737858Y-19763714D02*
X9747381Y-19754190D01*
X9747381Y-19754190D02*
X9766429Y-19725619D01*
X9766429Y-19725619D02*
X9775953Y-19706571D01*
X9775953Y-19706571D02*
X9785477Y-19678000D01*
X9785477Y-19678000D02*
X9795000Y-19630381D01*
X9795000Y-19630381D02*
X9795000Y-19592286D01*
X9795000Y-19592286D02*
X9785477Y-19544667D01*
X9785477Y-19544667D02*
X9775953Y-19516095D01*
X9775953Y-19516095D02*
X9766429Y-19497048D01*
X9766429Y-19497048D02*
X9747381Y-19468476D01*
X9747381Y-19468476D02*
X9737858Y-19458952D01*
D10*
X4595000Y-19859000D02*
G75*
G03*
X4595000Y-19859000I-50000J0D01*
G01*
D11*
X4947381Y-19951524D02*
X4833095Y-19951524D01*
X4890238Y-19951524D02*
X4890238Y-19751524D01*
X4890238Y-19751524D02*
X4871190Y-19780095D01*
X4871190Y-19780095D02*
X4852143Y-19799143D01*
X4852143Y-19799143D02*
X4833095Y-19808667D01*
X5033095Y-19932476D02*
X5042619Y-19942000D01*
X5042619Y-19942000D02*
X5033095Y-19951524D01*
X5033095Y-19951524D02*
X5023571Y-19942000D01*
X5023571Y-19942000D02*
X5033095Y-19932476D01*
X5033095Y-19932476D02*
X5033095Y-19951524D01*
X5166429Y-19751524D02*
X5185476Y-19751524D01*
X5185476Y-19751524D02*
X5204524Y-19761048D01*
X5204524Y-19761048D02*
X5214048Y-19770571D01*
X5214048Y-19770571D02*
X5223571Y-19789619D01*
X5223571Y-19789619D02*
X5233095Y-19827714D01*
X5233095Y-19827714D02*
X5233095Y-19875333D01*
X5233095Y-19875333D02*
X5223571Y-19913429D01*
X5223571Y-19913429D02*
X5214048Y-19932476D01*
X5214048Y-19932476D02*
X5204524Y-19942000D01*
X5204524Y-19942000D02*
X5185476Y-19951524D01*
X5185476Y-19951524D02*
X5166429Y-19951524D01*
X5166429Y-19951524D02*
X5147381Y-19942000D01*
X5147381Y-19942000D02*
X5137857Y-19932476D01*
X5137857Y-19932476D02*
X5128333Y-19913429D01*
X5128333Y-19913429D02*
X5118810Y-19875333D01*
X5118810Y-19875333D02*
X5118810Y-19827714D01*
X5118810Y-19827714D02*
X5128333Y-19789619D01*
X5128333Y-19789619D02*
X5137857Y-19770571D01*
X5137857Y-19770571D02*
X5147381Y-19761048D01*
X5147381Y-19761048D02*
X5166429Y-19751524D01*
X5356905Y-19751524D02*
X5375952Y-19751524D01*
X5375952Y-19751524D02*
X5395000Y-19761048D01*
X5395000Y-19761048D02*
X5404524Y-19770571D01*
X5404524Y-19770571D02*
X5414048Y-19789619D01*
X5414048Y-19789619D02*
X5423571Y-19827714D01*
X5423571Y-19827714D02*
X5423571Y-19875333D01*
X5423571Y-19875333D02*
X5414048Y-19913429D01*
X5414048Y-19913429D02*
X5404524Y-19932476D01*
X5404524Y-19932476D02*
X5395000Y-19942000D01*
X5395000Y-19942000D02*
X5375952Y-19951524D01*
X5375952Y-19951524D02*
X5356905Y-19951524D01*
X5356905Y-19951524D02*
X5337857Y-19942000D01*
X5337857Y-19942000D02*
X5328333Y-19932476D01*
X5328333Y-19932476D02*
X5318810Y-19913429D01*
X5318810Y-19913429D02*
X5309286Y-19875333D01*
X5309286Y-19875333D02*
X5309286Y-19827714D01*
X5309286Y-19827714D02*
X5318810Y-19789619D01*
X5318810Y-19789619D02*
X5328333Y-19770571D01*
X5328333Y-19770571D02*
X5337857Y-19761048D01*
X5337857Y-19761048D02*
X5356905Y-19751524D01*
X5547381Y-19751524D02*
X5566429Y-19751524D01*
X5566429Y-19751524D02*
X5585476Y-19761048D01*
X5585476Y-19761048D02*
X5595000Y-19770571D01*
X5595000Y-19770571D02*
X5604524Y-19789619D01*
X5604524Y-19789619D02*
X5614048Y-19827714D01*
X5614048Y-19827714D02*
X5614048Y-19875333D01*
X5614048Y-19875333D02*
X5604524Y-19913429D01*
X5604524Y-19913429D02*
X5595000Y-19932476D01*
X5595000Y-19932476D02*
X5585476Y-19942000D01*
X5585476Y-19942000D02*
X5566429Y-19951524D01*
X5566429Y-19951524D02*
X5547381Y-19951524D01*
X5547381Y-19951524D02*
X5528333Y-19942000D01*
X5528333Y-19942000D02*
X5518810Y-19932476D01*
X5518810Y-19932476D02*
X5509286Y-19913429D01*
X5509286Y-19913429D02*
X5499762Y-19875333D01*
X5499762Y-19875333D02*
X5499762Y-19827714D01*
X5499762Y-19827714D02*
X5509286Y-19789619D01*
X5509286Y-19789619D02*
X5518810Y-19770571D01*
X5518810Y-19770571D02*
X5528333Y-19761048D01*
X5528333Y-19761048D02*
X5547381Y-19751524D01*
X5699762Y-19951524D02*
X5699762Y-19818190D01*
X5699762Y-19837238D02*
X5709286Y-19827714D01*
X5709286Y-19827714D02*
X5728333Y-19818190D01*
X5728333Y-19818190D02*
X5756905Y-19818190D01*
X5756905Y-19818190D02*
X5775952Y-19827714D01*
X5775952Y-19827714D02*
X5785476Y-19846762D01*
X5785476Y-19846762D02*
X5785476Y-19951524D01*
X5785476Y-19846762D02*
X5795000Y-19827714D01*
X5795000Y-19827714D02*
X5814048Y-19818190D01*
X5814048Y-19818190D02*
X5842619Y-19818190D01*
X5842619Y-19818190D02*
X5861667Y-19827714D01*
X5861667Y-19827714D02*
X5871190Y-19846762D01*
X5871190Y-19846762D02*
X5871190Y-19951524D01*
X5966429Y-19951524D02*
X5966429Y-19818190D01*
X5966429Y-19837238D02*
X5975952Y-19827714D01*
X5975952Y-19827714D02*
X5995000Y-19818190D01*
X5995000Y-19818190D02*
X6023571Y-19818190D01*
X6023571Y-19818190D02*
X6042619Y-19827714D01*
X6042619Y-19827714D02*
X6052143Y-19846762D01*
X6052143Y-19846762D02*
X6052143Y-19951524D01*
X6052143Y-19846762D02*
X6061667Y-19827714D01*
X6061667Y-19827714D02*
X6080714Y-19818190D01*
X6080714Y-19818190D02*
X6109286Y-19818190D01*
X6109286Y-19818190D02*
X6128333Y-19827714D01*
X6128333Y-19827714D02*
X6137857Y-19846762D01*
X6137857Y-19846762D02*
X6137857Y-19951524D01*
X6528333Y-19742000D02*
X6356905Y-19999143D01*
X6785476Y-19751524D02*
X6804524Y-19751524D01*
X6804524Y-19751524D02*
X6823572Y-19761048D01*
X6823572Y-19761048D02*
X6833095Y-19770571D01*
X6833095Y-19770571D02*
X6842619Y-19789619D01*
X6842619Y-19789619D02*
X6852143Y-19827714D01*
X6852143Y-19827714D02*
X6852143Y-19875333D01*
X6852143Y-19875333D02*
X6842619Y-19913429D01*
X6842619Y-19913429D02*
X6833095Y-19932476D01*
X6833095Y-19932476D02*
X6823572Y-19942000D01*
X6823572Y-19942000D02*
X6804524Y-19951524D01*
X6804524Y-19951524D02*
X6785476Y-19951524D01*
X6785476Y-19951524D02*
X6766429Y-19942000D01*
X6766429Y-19942000D02*
X6756905Y-19932476D01*
X6756905Y-19932476D02*
X6747381Y-19913429D01*
X6747381Y-19913429D02*
X6737857Y-19875333D01*
X6737857Y-19875333D02*
X6737857Y-19827714D01*
X6737857Y-19827714D02*
X6747381Y-19789619D01*
X6747381Y-19789619D02*
X6756905Y-19770571D01*
X6756905Y-19770571D02*
X6766429Y-19761048D01*
X6766429Y-19761048D02*
X6785476Y-19751524D01*
X6937857Y-19932476D02*
X6947381Y-19942000D01*
X6947381Y-19942000D02*
X6937857Y-19951524D01*
X6937857Y-19951524D02*
X6928333Y-19942000D01*
X6928333Y-19942000D02*
X6937857Y-19932476D01*
X6937857Y-19932476D02*
X6937857Y-19951524D01*
X7071191Y-19751524D02*
X7090238Y-19751524D01*
X7090238Y-19751524D02*
X7109286Y-19761048D01*
X7109286Y-19761048D02*
X7118810Y-19770571D01*
X7118810Y-19770571D02*
X7128333Y-19789619D01*
X7128333Y-19789619D02*
X7137857Y-19827714D01*
X7137857Y-19827714D02*
X7137857Y-19875333D01*
X7137857Y-19875333D02*
X7128333Y-19913429D01*
X7128333Y-19913429D02*
X7118810Y-19932476D01*
X7118810Y-19932476D02*
X7109286Y-19942000D01*
X7109286Y-19942000D02*
X7090238Y-19951524D01*
X7090238Y-19951524D02*
X7071191Y-19951524D01*
X7071191Y-19951524D02*
X7052143Y-19942000D01*
X7052143Y-19942000D02*
X7042619Y-19932476D01*
X7042619Y-19932476D02*
X7033095Y-19913429D01*
X7033095Y-19913429D02*
X7023572Y-19875333D01*
X7023572Y-19875333D02*
X7023572Y-19827714D01*
X7023572Y-19827714D02*
X7033095Y-19789619D01*
X7033095Y-19789619D02*
X7042619Y-19770571D01*
X7042619Y-19770571D02*
X7052143Y-19761048D01*
X7052143Y-19761048D02*
X7071191Y-19751524D01*
X7204524Y-19751524D02*
X7328333Y-19751524D01*
X7328333Y-19751524D02*
X7261667Y-19827714D01*
X7261667Y-19827714D02*
X7290238Y-19827714D01*
X7290238Y-19827714D02*
X7309286Y-19837238D01*
X7309286Y-19837238D02*
X7318810Y-19846762D01*
X7318810Y-19846762D02*
X7328333Y-19865810D01*
X7328333Y-19865810D02*
X7328333Y-19913429D01*
X7328333Y-19913429D02*
X7318810Y-19932476D01*
X7318810Y-19932476D02*
X7309286Y-19942000D01*
X7309286Y-19942000D02*
X7290238Y-19951524D01*
X7290238Y-19951524D02*
X7233095Y-19951524D01*
X7233095Y-19951524D02*
X7214048Y-19942000D01*
X7214048Y-19942000D02*
X7204524Y-19932476D01*
X7423572Y-19951524D02*
X7461667Y-19951524D01*
X7461667Y-19951524D02*
X7480714Y-19942000D01*
X7480714Y-19942000D02*
X7490238Y-19932476D01*
X7490238Y-19932476D02*
X7509286Y-19903905D01*
X7509286Y-19903905D02*
X7518810Y-19865810D01*
X7518810Y-19865810D02*
X7518810Y-19789619D01*
X7518810Y-19789619D02*
X7509286Y-19770571D01*
X7509286Y-19770571D02*
X7499762Y-19761048D01*
X7499762Y-19761048D02*
X7480714Y-19751524D01*
X7480714Y-19751524D02*
X7442619Y-19751524D01*
X7442619Y-19751524D02*
X7423572Y-19761048D01*
X7423572Y-19761048D02*
X7414048Y-19770571D01*
X7414048Y-19770571D02*
X7404524Y-19789619D01*
X7404524Y-19789619D02*
X7404524Y-19837238D01*
X7404524Y-19837238D02*
X7414048Y-19856286D01*
X7414048Y-19856286D02*
X7423572Y-19865810D01*
X7423572Y-19865810D02*
X7442619Y-19875333D01*
X7442619Y-19875333D02*
X7480714Y-19875333D01*
X7480714Y-19875333D02*
X7499762Y-19865810D01*
X7499762Y-19865810D02*
X7509286Y-19856286D01*
X7509286Y-19856286D02*
X7518810Y-19837238D01*
X7690238Y-19818190D02*
X7690238Y-19951524D01*
X7642619Y-19742000D02*
X7595000Y-19884857D01*
X7595000Y-19884857D02*
X7718810Y-19884857D01*
X7785476Y-19751524D02*
X7785476Y-19789619D01*
X7861667Y-19751524D02*
X7861667Y-19789619D01*
X8156905Y-20027714D02*
X8147381Y-20018190D01*
X8147381Y-20018190D02*
X8128334Y-19989619D01*
X8128334Y-19989619D02*
X8118810Y-19970571D01*
X8118810Y-19970571D02*
X8109286Y-19942000D01*
X8109286Y-19942000D02*
X8099762Y-19894381D01*
X8099762Y-19894381D02*
X8099762Y-19856286D01*
X8099762Y-19856286D02*
X8109286Y-19808667D01*
X8109286Y-19808667D02*
X8118810Y-19780095D01*
X8118810Y-19780095D02*
X8128334Y-19761048D01*
X8128334Y-19761048D02*
X8147381Y-19732476D01*
X8147381Y-19732476D02*
X8156905Y-19722952D01*
X8337857Y-19951524D02*
X8223572Y-19951524D01*
X8280714Y-19951524D02*
X8280714Y-19751524D01*
X8280714Y-19751524D02*
X8261667Y-19780095D01*
X8261667Y-19780095D02*
X8242619Y-19799143D01*
X8242619Y-19799143D02*
X8223572Y-19808667D01*
X8452143Y-19837238D02*
X8433096Y-19827714D01*
X8433096Y-19827714D02*
X8423572Y-19818190D01*
X8423572Y-19818190D02*
X8414048Y-19799143D01*
X8414048Y-19799143D02*
X8414048Y-19789619D01*
X8414048Y-19789619D02*
X8423572Y-19770571D01*
X8423572Y-19770571D02*
X8433096Y-19761048D01*
X8433096Y-19761048D02*
X8452143Y-19751524D01*
X8452143Y-19751524D02*
X8490238Y-19751524D01*
X8490238Y-19751524D02*
X8509286Y-19761048D01*
X8509286Y-19761048D02*
X8518810Y-19770571D01*
X8518810Y-19770571D02*
X8528334Y-19789619D01*
X8528334Y-19789619D02*
X8528334Y-19799143D01*
X8528334Y-19799143D02*
X8518810Y-19818190D01*
X8518810Y-19818190D02*
X8509286Y-19827714D01*
X8509286Y-19827714D02*
X8490238Y-19837238D01*
X8490238Y-19837238D02*
X8452143Y-19837238D01*
X8452143Y-19837238D02*
X8433096Y-19846762D01*
X8433096Y-19846762D02*
X8423572Y-19856286D01*
X8423572Y-19856286D02*
X8414048Y-19875333D01*
X8414048Y-19875333D02*
X8414048Y-19913429D01*
X8414048Y-19913429D02*
X8423572Y-19932476D01*
X8423572Y-19932476D02*
X8433096Y-19942000D01*
X8433096Y-19942000D02*
X8452143Y-19951524D01*
X8452143Y-19951524D02*
X8490238Y-19951524D01*
X8490238Y-19951524D02*
X8509286Y-19942000D01*
X8509286Y-19942000D02*
X8518810Y-19932476D01*
X8518810Y-19932476D02*
X8528334Y-19913429D01*
X8528334Y-19913429D02*
X8528334Y-19875333D01*
X8528334Y-19875333D02*
X8518810Y-19856286D01*
X8518810Y-19856286D02*
X8509286Y-19846762D01*
X8509286Y-19846762D02*
X8490238Y-19837238D01*
X8766429Y-19951524D02*
X8766429Y-19751524D01*
X8852143Y-19951524D02*
X8852143Y-19846762D01*
X8852143Y-19846762D02*
X8842619Y-19827714D01*
X8842619Y-19827714D02*
X8823572Y-19818190D01*
X8823572Y-19818190D02*
X8795000Y-19818190D01*
X8795000Y-19818190D02*
X8775953Y-19827714D01*
X8775953Y-19827714D02*
X8766429Y-19837238D01*
X8975953Y-19951524D02*
X8956905Y-19942000D01*
X8956905Y-19942000D02*
X8947381Y-19932476D01*
X8947381Y-19932476D02*
X8937858Y-19913429D01*
X8937858Y-19913429D02*
X8937858Y-19856286D01*
X8937858Y-19856286D02*
X8947381Y-19837238D01*
X8947381Y-19837238D02*
X8956905Y-19827714D01*
X8956905Y-19827714D02*
X8975953Y-19818190D01*
X8975953Y-19818190D02*
X9004524Y-19818190D01*
X9004524Y-19818190D02*
X9023572Y-19827714D01*
X9023572Y-19827714D02*
X9033096Y-19837238D01*
X9033096Y-19837238D02*
X9042619Y-19856286D01*
X9042619Y-19856286D02*
X9042619Y-19913429D01*
X9042619Y-19913429D02*
X9033096Y-19932476D01*
X9033096Y-19932476D02*
X9023572Y-19942000D01*
X9023572Y-19942000D02*
X9004524Y-19951524D01*
X9004524Y-19951524D02*
X8975953Y-19951524D01*
X9156905Y-19951524D02*
X9137858Y-19942000D01*
X9137858Y-19942000D02*
X9128334Y-19922952D01*
X9128334Y-19922952D02*
X9128334Y-19751524D01*
X9309286Y-19942000D02*
X9290239Y-19951524D01*
X9290239Y-19951524D02*
X9252143Y-19951524D01*
X9252143Y-19951524D02*
X9233096Y-19942000D01*
X9233096Y-19942000D02*
X9223572Y-19922952D01*
X9223572Y-19922952D02*
X9223572Y-19846762D01*
X9223572Y-19846762D02*
X9233096Y-19827714D01*
X9233096Y-19827714D02*
X9252143Y-19818190D01*
X9252143Y-19818190D02*
X9290239Y-19818190D01*
X9290239Y-19818190D02*
X9309286Y-19827714D01*
X9309286Y-19827714D02*
X9318810Y-19846762D01*
X9318810Y-19846762D02*
X9318810Y-19865810D01*
X9318810Y-19865810D02*
X9223572Y-19884857D01*
X9395000Y-19942000D02*
X9414048Y-19951524D01*
X9414048Y-19951524D02*
X9452143Y-19951524D01*
X9452143Y-19951524D02*
X9471191Y-19942000D01*
X9471191Y-19942000D02*
X9480715Y-19922952D01*
X9480715Y-19922952D02*
X9480715Y-19913429D01*
X9480715Y-19913429D02*
X9471191Y-19894381D01*
X9471191Y-19894381D02*
X9452143Y-19884857D01*
X9452143Y-19884857D02*
X9423572Y-19884857D01*
X9423572Y-19884857D02*
X9404524Y-19875333D01*
X9404524Y-19875333D02*
X9395000Y-19856286D01*
X9395000Y-19856286D02*
X9395000Y-19846762D01*
X9395000Y-19846762D02*
X9404524Y-19827714D01*
X9404524Y-19827714D02*
X9423572Y-19818190D01*
X9423572Y-19818190D02*
X9452143Y-19818190D01*
X9452143Y-19818190D02*
X9471191Y-19827714D01*
X9718810Y-19875333D02*
X9871191Y-19875333D01*
X9795001Y-19951524D02*
X9795001Y-19799143D01*
X10147381Y-19837238D02*
X10128334Y-19827714D01*
X10128334Y-19827714D02*
X10118810Y-19818190D01*
X10118810Y-19818190D02*
X10109286Y-19799143D01*
X10109286Y-19799143D02*
X10109286Y-19789619D01*
X10109286Y-19789619D02*
X10118810Y-19770571D01*
X10118810Y-19770571D02*
X10128334Y-19761048D01*
X10128334Y-19761048D02*
X10147381Y-19751524D01*
X10147381Y-19751524D02*
X10185477Y-19751524D01*
X10185477Y-19751524D02*
X10204524Y-19761048D01*
X10204524Y-19761048D02*
X10214048Y-19770571D01*
X10214048Y-19770571D02*
X10223572Y-19789619D01*
X10223572Y-19789619D02*
X10223572Y-19799143D01*
X10223572Y-19799143D02*
X10214048Y-19818190D01*
X10214048Y-19818190D02*
X10204524Y-19827714D01*
X10204524Y-19827714D02*
X10185477Y-19837238D01*
X10185477Y-19837238D02*
X10147381Y-19837238D01*
X10147381Y-19837238D02*
X10128334Y-19846762D01*
X10128334Y-19846762D02*
X10118810Y-19856286D01*
X10118810Y-19856286D02*
X10109286Y-19875333D01*
X10109286Y-19875333D02*
X10109286Y-19913429D01*
X10109286Y-19913429D02*
X10118810Y-19932476D01*
X10118810Y-19932476D02*
X10128334Y-19942000D01*
X10128334Y-19942000D02*
X10147381Y-19951524D01*
X10147381Y-19951524D02*
X10185477Y-19951524D01*
X10185477Y-19951524D02*
X10204524Y-19942000D01*
X10204524Y-19942000D02*
X10214048Y-19932476D01*
X10214048Y-19932476D02*
X10223572Y-19913429D01*
X10223572Y-19913429D02*
X10223572Y-19875333D01*
X10223572Y-19875333D02*
X10214048Y-19856286D01*
X10214048Y-19856286D02*
X10204524Y-19846762D01*
X10204524Y-19846762D02*
X10185477Y-19837238D01*
X10347381Y-19751524D02*
X10366429Y-19751524D01*
X10366429Y-19751524D02*
X10385477Y-19761048D01*
X10385477Y-19761048D02*
X10395001Y-19770571D01*
X10395001Y-19770571D02*
X10404524Y-19789619D01*
X10404524Y-19789619D02*
X10414048Y-19827714D01*
X10414048Y-19827714D02*
X10414048Y-19875333D01*
X10414048Y-19875333D02*
X10404524Y-19913429D01*
X10404524Y-19913429D02*
X10395001Y-19932476D01*
X10395001Y-19932476D02*
X10385477Y-19942000D01*
X10385477Y-19942000D02*
X10366429Y-19951524D01*
X10366429Y-19951524D02*
X10347381Y-19951524D01*
X10347381Y-19951524D02*
X10328334Y-19942000D01*
X10328334Y-19942000D02*
X10318810Y-19932476D01*
X10318810Y-19932476D02*
X10309286Y-19913429D01*
X10309286Y-19913429D02*
X10299762Y-19875333D01*
X10299762Y-19875333D02*
X10299762Y-19827714D01*
X10299762Y-19827714D02*
X10309286Y-19789619D01*
X10309286Y-19789619D02*
X10318810Y-19770571D01*
X10318810Y-19770571D02*
X10328334Y-19761048D01*
X10328334Y-19761048D02*
X10347381Y-19751524D01*
X10642620Y-19942000D02*
X10661667Y-19951524D01*
X10661667Y-19951524D02*
X10699762Y-19951524D01*
X10699762Y-19951524D02*
X10718810Y-19942000D01*
X10718810Y-19942000D02*
X10728334Y-19922952D01*
X10728334Y-19922952D02*
X10728334Y-19913429D01*
X10728334Y-19913429D02*
X10718810Y-19894381D01*
X10718810Y-19894381D02*
X10699762Y-19884857D01*
X10699762Y-19884857D02*
X10671191Y-19884857D01*
X10671191Y-19884857D02*
X10652143Y-19875333D01*
X10652143Y-19875333D02*
X10642620Y-19856286D01*
X10642620Y-19856286D02*
X10642620Y-19846762D01*
X10642620Y-19846762D02*
X10652143Y-19827714D01*
X10652143Y-19827714D02*
X10671191Y-19818190D01*
X10671191Y-19818190D02*
X10699762Y-19818190D01*
X10699762Y-19818190D02*
X10718810Y-19827714D01*
X10842620Y-19951524D02*
X10823572Y-19942000D01*
X10823572Y-19942000D02*
X10814048Y-19922952D01*
X10814048Y-19922952D02*
X10814048Y-19751524D01*
X10947382Y-19951524D02*
X10928334Y-19942000D01*
X10928334Y-19942000D02*
X10918810Y-19932476D01*
X10918810Y-19932476D02*
X10909286Y-19913429D01*
X10909286Y-19913429D02*
X10909286Y-19856286D01*
X10909286Y-19856286D02*
X10918810Y-19837238D01*
X10918810Y-19837238D02*
X10928334Y-19827714D01*
X10928334Y-19827714D02*
X10947382Y-19818190D01*
X10947382Y-19818190D02*
X10975953Y-19818190D01*
X10975953Y-19818190D02*
X10995001Y-19827714D01*
X10995001Y-19827714D02*
X11004524Y-19837238D01*
X11004524Y-19837238D02*
X11014048Y-19856286D01*
X11014048Y-19856286D02*
X11014048Y-19913429D01*
X11014048Y-19913429D02*
X11004524Y-19932476D01*
X11004524Y-19932476D02*
X10995001Y-19942000D01*
X10995001Y-19942000D02*
X10975953Y-19951524D01*
X10975953Y-19951524D02*
X10947382Y-19951524D01*
X11071191Y-19818190D02*
X11147382Y-19818190D01*
X11099763Y-19751524D02*
X11099763Y-19922952D01*
X11099763Y-19922952D02*
X11109286Y-19942000D01*
X11109286Y-19942000D02*
X11128334Y-19951524D01*
X11128334Y-19951524D02*
X11147382Y-19951524D01*
X11204524Y-19942000D02*
X11223572Y-19951524D01*
X11223572Y-19951524D02*
X11261667Y-19951524D01*
X11261667Y-19951524D02*
X11280715Y-19942000D01*
X11280715Y-19942000D02*
X11290239Y-19922952D01*
X11290239Y-19922952D02*
X11290239Y-19913429D01*
X11290239Y-19913429D02*
X11280715Y-19894381D01*
X11280715Y-19894381D02*
X11261667Y-19884857D01*
X11261667Y-19884857D02*
X11233096Y-19884857D01*
X11233096Y-19884857D02*
X11214048Y-19875333D01*
X11214048Y-19875333D02*
X11204524Y-19856286D01*
X11204524Y-19856286D02*
X11204524Y-19846762D01*
X11204524Y-19846762D02*
X11214048Y-19827714D01*
X11214048Y-19827714D02*
X11233096Y-19818190D01*
X11233096Y-19818190D02*
X11261667Y-19818190D01*
X11261667Y-19818190D02*
X11280715Y-19827714D01*
X11356905Y-20027714D02*
X11366429Y-20018190D01*
X11366429Y-20018190D02*
X11385477Y-19989619D01*
X11385477Y-19989619D02*
X11395001Y-19970571D01*
X11395001Y-19970571D02*
X11404524Y-19942000D01*
X11404524Y-19942000D02*
X11414048Y-19894381D01*
X11414048Y-19894381D02*
X11414048Y-19856286D01*
X11414048Y-19856286D02*
X11404524Y-19808667D01*
X11404524Y-19808667D02*
X11395001Y-19780095D01*
X11395001Y-19780095D02*
X11385477Y-19761048D01*
X11385477Y-19761048D02*
X11366429Y-19732476D01*
X11366429Y-19732476D02*
X11356905Y-19722952D01*
D13*
X4544200Y-20072200D02*
X4544200Y-20173800D01*
X4493400Y-20123000D02*
X4595000Y-20123000D01*
D11*
X4947381Y-20215524D02*
X4833095Y-20215524D01*
X4890238Y-20215524D02*
X4890238Y-20015524D01*
X4890238Y-20015524D02*
X4871190Y-20044095D01*
X4871190Y-20044095D02*
X4852143Y-20063143D01*
X4852143Y-20063143D02*
X4833095Y-20072667D01*
X5033095Y-20196476D02*
X5042619Y-20206000D01*
X5042619Y-20206000D02*
X5033095Y-20215524D01*
X5033095Y-20215524D02*
X5023571Y-20206000D01*
X5023571Y-20206000D02*
X5033095Y-20196476D01*
X5033095Y-20196476D02*
X5033095Y-20215524D01*
X5166429Y-20015524D02*
X5185476Y-20015524D01*
X5185476Y-20015524D02*
X5204524Y-20025048D01*
X5204524Y-20025048D02*
X5214048Y-20034571D01*
X5214048Y-20034571D02*
X5223571Y-20053619D01*
X5223571Y-20053619D02*
X5233095Y-20091714D01*
X5233095Y-20091714D02*
X5233095Y-20139333D01*
X5233095Y-20139333D02*
X5223571Y-20177429D01*
X5223571Y-20177429D02*
X5214048Y-20196476D01*
X5214048Y-20196476D02*
X5204524Y-20206000D01*
X5204524Y-20206000D02*
X5185476Y-20215524D01*
X5185476Y-20215524D02*
X5166429Y-20215524D01*
X5166429Y-20215524D02*
X5147381Y-20206000D01*
X5147381Y-20206000D02*
X5137857Y-20196476D01*
X5137857Y-20196476D02*
X5128333Y-20177429D01*
X5128333Y-20177429D02*
X5118810Y-20139333D01*
X5118810Y-20139333D02*
X5118810Y-20091714D01*
X5118810Y-20091714D02*
X5128333Y-20053619D01*
X5128333Y-20053619D02*
X5137857Y-20034571D01*
X5137857Y-20034571D02*
X5147381Y-20025048D01*
X5147381Y-20025048D02*
X5166429Y-20015524D01*
X5423571Y-20215524D02*
X5309286Y-20215524D01*
X5366429Y-20215524D02*
X5366429Y-20015524D01*
X5366429Y-20015524D02*
X5347381Y-20044095D01*
X5347381Y-20044095D02*
X5328333Y-20063143D01*
X5328333Y-20063143D02*
X5309286Y-20072667D01*
X5595000Y-20015524D02*
X5556905Y-20015524D01*
X5556905Y-20015524D02*
X5537857Y-20025048D01*
X5537857Y-20025048D02*
X5528333Y-20034571D01*
X5528333Y-20034571D02*
X5509286Y-20063143D01*
X5509286Y-20063143D02*
X5499762Y-20101238D01*
X5499762Y-20101238D02*
X5499762Y-20177429D01*
X5499762Y-20177429D02*
X5509286Y-20196476D01*
X5509286Y-20196476D02*
X5518810Y-20206000D01*
X5518810Y-20206000D02*
X5537857Y-20215524D01*
X5537857Y-20215524D02*
X5575952Y-20215524D01*
X5575952Y-20215524D02*
X5595000Y-20206000D01*
X5595000Y-20206000D02*
X5604524Y-20196476D01*
X5604524Y-20196476D02*
X5614048Y-20177429D01*
X5614048Y-20177429D02*
X5614048Y-20129810D01*
X5614048Y-20129810D02*
X5604524Y-20110762D01*
X5604524Y-20110762D02*
X5595000Y-20101238D01*
X5595000Y-20101238D02*
X5575952Y-20091714D01*
X5575952Y-20091714D02*
X5537857Y-20091714D01*
X5537857Y-20091714D02*
X5518810Y-20101238D01*
X5518810Y-20101238D02*
X5509286Y-20110762D01*
X5509286Y-20110762D02*
X5499762Y-20129810D01*
X5699762Y-20215524D02*
X5699762Y-20082190D01*
X5699762Y-20101238D02*
X5709286Y-20091714D01*
X5709286Y-20091714D02*
X5728333Y-20082190D01*
X5728333Y-20082190D02*
X5756905Y-20082190D01*
X5756905Y-20082190D02*
X5775952Y-20091714D01*
X5775952Y-20091714D02*
X5785476Y-20110762D01*
X5785476Y-20110762D02*
X5785476Y-20215524D01*
X5785476Y-20110762D02*
X5795000Y-20091714D01*
X5795000Y-20091714D02*
X5814048Y-20082190D01*
X5814048Y-20082190D02*
X5842619Y-20082190D01*
X5842619Y-20082190D02*
X5861667Y-20091714D01*
X5861667Y-20091714D02*
X5871190Y-20110762D01*
X5871190Y-20110762D02*
X5871190Y-20215524D01*
X5966429Y-20215524D02*
X5966429Y-20082190D01*
X5966429Y-20101238D02*
X5975952Y-20091714D01*
X5975952Y-20091714D02*
X5995000Y-20082190D01*
X5995000Y-20082190D02*
X6023571Y-20082190D01*
X6023571Y-20082190D02*
X6042619Y-20091714D01*
X6042619Y-20091714D02*
X6052143Y-20110762D01*
X6052143Y-20110762D02*
X6052143Y-20215524D01*
X6052143Y-20110762D02*
X6061667Y-20091714D01*
X6061667Y-20091714D02*
X6080714Y-20082190D01*
X6080714Y-20082190D02*
X6109286Y-20082190D01*
X6109286Y-20082190D02*
X6128333Y-20091714D01*
X6128333Y-20091714D02*
X6137857Y-20110762D01*
X6137857Y-20110762D02*
X6137857Y-20215524D01*
X6528333Y-20006000D02*
X6356905Y-20263143D01*
X6785476Y-20015524D02*
X6804524Y-20015524D01*
X6804524Y-20015524D02*
X6823572Y-20025048D01*
X6823572Y-20025048D02*
X6833095Y-20034571D01*
X6833095Y-20034571D02*
X6842619Y-20053619D01*
X6842619Y-20053619D02*
X6852143Y-20091714D01*
X6852143Y-20091714D02*
X6852143Y-20139333D01*
X6852143Y-20139333D02*
X6842619Y-20177429D01*
X6842619Y-20177429D02*
X6833095Y-20196476D01*
X6833095Y-20196476D02*
X6823572Y-20206000D01*
X6823572Y-20206000D02*
X6804524Y-20215524D01*
X6804524Y-20215524D02*
X6785476Y-20215524D01*
X6785476Y-20215524D02*
X6766429Y-20206000D01*
X6766429Y-20206000D02*
X6756905Y-20196476D01*
X6756905Y-20196476D02*
X6747381Y-20177429D01*
X6747381Y-20177429D02*
X6737857Y-20139333D01*
X6737857Y-20139333D02*
X6737857Y-20091714D01*
X6737857Y-20091714D02*
X6747381Y-20053619D01*
X6747381Y-20053619D02*
X6756905Y-20034571D01*
X6756905Y-20034571D02*
X6766429Y-20025048D01*
X6766429Y-20025048D02*
X6785476Y-20015524D01*
X6937857Y-20196476D02*
X6947381Y-20206000D01*
X6947381Y-20206000D02*
X6937857Y-20215524D01*
X6937857Y-20215524D02*
X6928333Y-20206000D01*
X6928333Y-20206000D02*
X6937857Y-20196476D01*
X6937857Y-20196476D02*
X6937857Y-20215524D01*
X7071191Y-20015524D02*
X7090238Y-20015524D01*
X7090238Y-20015524D02*
X7109286Y-20025048D01*
X7109286Y-20025048D02*
X7118810Y-20034571D01*
X7118810Y-20034571D02*
X7128333Y-20053619D01*
X7128333Y-20053619D02*
X7137857Y-20091714D01*
X7137857Y-20091714D02*
X7137857Y-20139333D01*
X7137857Y-20139333D02*
X7128333Y-20177429D01*
X7128333Y-20177429D02*
X7118810Y-20196476D01*
X7118810Y-20196476D02*
X7109286Y-20206000D01*
X7109286Y-20206000D02*
X7090238Y-20215524D01*
X7090238Y-20215524D02*
X7071191Y-20215524D01*
X7071191Y-20215524D02*
X7052143Y-20206000D01*
X7052143Y-20206000D02*
X7042619Y-20196476D01*
X7042619Y-20196476D02*
X7033095Y-20177429D01*
X7033095Y-20177429D02*
X7023572Y-20139333D01*
X7023572Y-20139333D02*
X7023572Y-20091714D01*
X7023572Y-20091714D02*
X7033095Y-20053619D01*
X7033095Y-20053619D02*
X7042619Y-20034571D01*
X7042619Y-20034571D02*
X7052143Y-20025048D01*
X7052143Y-20025048D02*
X7071191Y-20015524D01*
X7309286Y-20082190D02*
X7309286Y-20215524D01*
X7261667Y-20006000D02*
X7214048Y-20148857D01*
X7214048Y-20148857D02*
X7337857Y-20148857D01*
X7452143Y-20015524D02*
X7471191Y-20015524D01*
X7471191Y-20015524D02*
X7490238Y-20025048D01*
X7490238Y-20025048D02*
X7499762Y-20034571D01*
X7499762Y-20034571D02*
X7509286Y-20053619D01*
X7509286Y-20053619D02*
X7518810Y-20091714D01*
X7518810Y-20091714D02*
X7518810Y-20139333D01*
X7518810Y-20139333D02*
X7509286Y-20177429D01*
X7509286Y-20177429D02*
X7499762Y-20196476D01*
X7499762Y-20196476D02*
X7490238Y-20206000D01*
X7490238Y-20206000D02*
X7471191Y-20215524D01*
X7471191Y-20215524D02*
X7452143Y-20215524D01*
X7452143Y-20215524D02*
X7433095Y-20206000D01*
X7433095Y-20206000D02*
X7423572Y-20196476D01*
X7423572Y-20196476D02*
X7414048Y-20177429D01*
X7414048Y-20177429D02*
X7404524Y-20139333D01*
X7404524Y-20139333D02*
X7404524Y-20091714D01*
X7404524Y-20091714D02*
X7414048Y-20053619D01*
X7414048Y-20053619D02*
X7423572Y-20034571D01*
X7423572Y-20034571D02*
X7433095Y-20025048D01*
X7433095Y-20025048D02*
X7452143Y-20015524D01*
X7642619Y-20015524D02*
X7661667Y-20015524D01*
X7661667Y-20015524D02*
X7680714Y-20025048D01*
X7680714Y-20025048D02*
X7690238Y-20034571D01*
X7690238Y-20034571D02*
X7699762Y-20053619D01*
X7699762Y-20053619D02*
X7709286Y-20091714D01*
X7709286Y-20091714D02*
X7709286Y-20139333D01*
X7709286Y-20139333D02*
X7699762Y-20177429D01*
X7699762Y-20177429D02*
X7690238Y-20196476D01*
X7690238Y-20196476D02*
X7680714Y-20206000D01*
X7680714Y-20206000D02*
X7661667Y-20215524D01*
X7661667Y-20215524D02*
X7642619Y-20215524D01*
X7642619Y-20215524D02*
X7623572Y-20206000D01*
X7623572Y-20206000D02*
X7614048Y-20196476D01*
X7614048Y-20196476D02*
X7604524Y-20177429D01*
X7604524Y-20177429D02*
X7595000Y-20139333D01*
X7595000Y-20139333D02*
X7595000Y-20091714D01*
X7595000Y-20091714D02*
X7604524Y-20053619D01*
X7604524Y-20053619D02*
X7614048Y-20034571D01*
X7614048Y-20034571D02*
X7623572Y-20025048D01*
X7623572Y-20025048D02*
X7642619Y-20015524D01*
X7785476Y-20015524D02*
X7785476Y-20053619D01*
X7861667Y-20015524D02*
X7861667Y-20053619D01*
X8156905Y-20291714D02*
X8147381Y-20282190D01*
X8147381Y-20282190D02*
X8128334Y-20253619D01*
X8128334Y-20253619D02*
X8118810Y-20234571D01*
X8118810Y-20234571D02*
X8109286Y-20206000D01*
X8109286Y-20206000D02*
X8099762Y-20158381D01*
X8099762Y-20158381D02*
X8099762Y-20120286D01*
X8099762Y-20120286D02*
X8109286Y-20072667D01*
X8109286Y-20072667D02*
X8118810Y-20044095D01*
X8118810Y-20044095D02*
X8128334Y-20025048D01*
X8128334Y-20025048D02*
X8147381Y-19996476D01*
X8147381Y-19996476D02*
X8156905Y-19986952D01*
X8337857Y-20215524D02*
X8223572Y-20215524D01*
X8280714Y-20215524D02*
X8280714Y-20015524D01*
X8280714Y-20015524D02*
X8261667Y-20044095D01*
X8261667Y-20044095D02*
X8242619Y-20063143D01*
X8242619Y-20063143D02*
X8223572Y-20072667D01*
X8461667Y-20015524D02*
X8480715Y-20015524D01*
X8480715Y-20015524D02*
X8499762Y-20025048D01*
X8499762Y-20025048D02*
X8509286Y-20034571D01*
X8509286Y-20034571D02*
X8518810Y-20053619D01*
X8518810Y-20053619D02*
X8528334Y-20091714D01*
X8528334Y-20091714D02*
X8528334Y-20139333D01*
X8528334Y-20139333D02*
X8518810Y-20177429D01*
X8518810Y-20177429D02*
X8509286Y-20196476D01*
X8509286Y-20196476D02*
X8499762Y-20206000D01*
X8499762Y-20206000D02*
X8480715Y-20215524D01*
X8480715Y-20215524D02*
X8461667Y-20215524D01*
X8461667Y-20215524D02*
X8442619Y-20206000D01*
X8442619Y-20206000D02*
X8433096Y-20196476D01*
X8433096Y-20196476D02*
X8423572Y-20177429D01*
X8423572Y-20177429D02*
X8414048Y-20139333D01*
X8414048Y-20139333D02*
X8414048Y-20091714D01*
X8414048Y-20091714D02*
X8423572Y-20053619D01*
X8423572Y-20053619D02*
X8433096Y-20034571D01*
X8433096Y-20034571D02*
X8442619Y-20025048D01*
X8442619Y-20025048D02*
X8461667Y-20015524D01*
X8766429Y-20215524D02*
X8766429Y-20015524D01*
X8852143Y-20215524D02*
X8852143Y-20110762D01*
X8852143Y-20110762D02*
X8842619Y-20091714D01*
X8842619Y-20091714D02*
X8823572Y-20082190D01*
X8823572Y-20082190D02*
X8795000Y-20082190D01*
X8795000Y-20082190D02*
X8775953Y-20091714D01*
X8775953Y-20091714D02*
X8766429Y-20101238D01*
X8975953Y-20215524D02*
X8956905Y-20206000D01*
X8956905Y-20206000D02*
X8947381Y-20196476D01*
X8947381Y-20196476D02*
X8937858Y-20177429D01*
X8937858Y-20177429D02*
X8937858Y-20120286D01*
X8937858Y-20120286D02*
X8947381Y-20101238D01*
X8947381Y-20101238D02*
X8956905Y-20091714D01*
X8956905Y-20091714D02*
X8975953Y-20082190D01*
X8975953Y-20082190D02*
X9004524Y-20082190D01*
X9004524Y-20082190D02*
X9023572Y-20091714D01*
X9023572Y-20091714D02*
X9033096Y-20101238D01*
X9033096Y-20101238D02*
X9042619Y-20120286D01*
X9042619Y-20120286D02*
X9042619Y-20177429D01*
X9042619Y-20177429D02*
X9033096Y-20196476D01*
X9033096Y-20196476D02*
X9023572Y-20206000D01*
X9023572Y-20206000D02*
X9004524Y-20215524D01*
X9004524Y-20215524D02*
X8975953Y-20215524D01*
X9156905Y-20215524D02*
X9137858Y-20206000D01*
X9137858Y-20206000D02*
X9128334Y-20186952D01*
X9128334Y-20186952D02*
X9128334Y-20015524D01*
X9309286Y-20206000D02*
X9290239Y-20215524D01*
X9290239Y-20215524D02*
X9252143Y-20215524D01*
X9252143Y-20215524D02*
X9233096Y-20206000D01*
X9233096Y-20206000D02*
X9223572Y-20186952D01*
X9223572Y-20186952D02*
X9223572Y-20110762D01*
X9223572Y-20110762D02*
X9233096Y-20091714D01*
X9233096Y-20091714D02*
X9252143Y-20082190D01*
X9252143Y-20082190D02*
X9290239Y-20082190D01*
X9290239Y-20082190D02*
X9309286Y-20091714D01*
X9309286Y-20091714D02*
X9318810Y-20110762D01*
X9318810Y-20110762D02*
X9318810Y-20129810D01*
X9318810Y-20129810D02*
X9223572Y-20148857D01*
X9395000Y-20206000D02*
X9414048Y-20215524D01*
X9414048Y-20215524D02*
X9452143Y-20215524D01*
X9452143Y-20215524D02*
X9471191Y-20206000D01*
X9471191Y-20206000D02*
X9480715Y-20186952D01*
X9480715Y-20186952D02*
X9480715Y-20177429D01*
X9480715Y-20177429D02*
X9471191Y-20158381D01*
X9471191Y-20158381D02*
X9452143Y-20148857D01*
X9452143Y-20148857D02*
X9423572Y-20148857D01*
X9423572Y-20148857D02*
X9404524Y-20139333D01*
X9404524Y-20139333D02*
X9395000Y-20120286D01*
X9395000Y-20120286D02*
X9395000Y-20110762D01*
X9395000Y-20110762D02*
X9404524Y-20091714D01*
X9404524Y-20091714D02*
X9423572Y-20082190D01*
X9423572Y-20082190D02*
X9452143Y-20082190D01*
X9452143Y-20082190D02*
X9471191Y-20091714D01*
X9547381Y-20291714D02*
X9556905Y-20282190D01*
X9556905Y-20282190D02*
X9575953Y-20253619D01*
X9575953Y-20253619D02*
X9585477Y-20234571D01*
X9585477Y-20234571D02*
X9595000Y-20206000D01*
X9595000Y-20206000D02*
X9604524Y-20158381D01*
X9604524Y-20158381D02*
X9604524Y-20120286D01*
X9604524Y-20120286D02*
X9595000Y-20072667D01*
X9595000Y-20072667D02*
X9585477Y-20044095D01*
X9585477Y-20044095D02*
X9575953Y-20025048D01*
X9575953Y-20025048D02*
X9556905Y-19996476D01*
X9556905Y-19996476D02*
X9547381Y-19986952D01*
D14*
X4578891Y-20425891D02*
X4578891Y-20348109D01*
X4501109Y-20348109D01*
X4501109Y-20425891D01*
X4578891Y-20425891D01*
D11*
X4947381Y-20479524D02*
X4833095Y-20479524D01*
X4890238Y-20479524D02*
X4890238Y-20279524D01*
X4890238Y-20279524D02*
X4871190Y-20308095D01*
X4871190Y-20308095D02*
X4852143Y-20327143D01*
X4852143Y-20327143D02*
X4833095Y-20336667D01*
X5033095Y-20460476D02*
X5042619Y-20470000D01*
X5042619Y-20470000D02*
X5033095Y-20479524D01*
X5033095Y-20479524D02*
X5023571Y-20470000D01*
X5023571Y-20470000D02*
X5033095Y-20460476D01*
X5033095Y-20460476D02*
X5033095Y-20479524D01*
X5233095Y-20479524D02*
X5118810Y-20479524D01*
X5175952Y-20479524D02*
X5175952Y-20279524D01*
X5175952Y-20279524D02*
X5156905Y-20308095D01*
X5156905Y-20308095D02*
X5137857Y-20327143D01*
X5137857Y-20327143D02*
X5118810Y-20336667D01*
X5356905Y-20279524D02*
X5375952Y-20279524D01*
X5375952Y-20279524D02*
X5395000Y-20289048D01*
X5395000Y-20289048D02*
X5404524Y-20298571D01*
X5404524Y-20298571D02*
X5414048Y-20317619D01*
X5414048Y-20317619D02*
X5423571Y-20355714D01*
X5423571Y-20355714D02*
X5423571Y-20403333D01*
X5423571Y-20403333D02*
X5414048Y-20441429D01*
X5414048Y-20441429D02*
X5404524Y-20460476D01*
X5404524Y-20460476D02*
X5395000Y-20470000D01*
X5395000Y-20470000D02*
X5375952Y-20479524D01*
X5375952Y-20479524D02*
X5356905Y-20479524D01*
X5356905Y-20479524D02*
X5337857Y-20470000D01*
X5337857Y-20470000D02*
X5328333Y-20460476D01*
X5328333Y-20460476D02*
X5318810Y-20441429D01*
X5318810Y-20441429D02*
X5309286Y-20403333D01*
X5309286Y-20403333D02*
X5309286Y-20355714D01*
X5309286Y-20355714D02*
X5318810Y-20317619D01*
X5318810Y-20317619D02*
X5328333Y-20298571D01*
X5328333Y-20298571D02*
X5337857Y-20289048D01*
X5337857Y-20289048D02*
X5356905Y-20279524D01*
X5547381Y-20279524D02*
X5566429Y-20279524D01*
X5566429Y-20279524D02*
X5585476Y-20289048D01*
X5585476Y-20289048D02*
X5595000Y-20298571D01*
X5595000Y-20298571D02*
X5604524Y-20317619D01*
X5604524Y-20317619D02*
X5614048Y-20355714D01*
X5614048Y-20355714D02*
X5614048Y-20403333D01*
X5614048Y-20403333D02*
X5604524Y-20441429D01*
X5604524Y-20441429D02*
X5595000Y-20460476D01*
X5595000Y-20460476D02*
X5585476Y-20470000D01*
X5585476Y-20470000D02*
X5566429Y-20479524D01*
X5566429Y-20479524D02*
X5547381Y-20479524D01*
X5547381Y-20479524D02*
X5528333Y-20470000D01*
X5528333Y-20470000D02*
X5518810Y-20460476D01*
X5518810Y-20460476D02*
X5509286Y-20441429D01*
X5509286Y-20441429D02*
X5499762Y-20403333D01*
X5499762Y-20403333D02*
X5499762Y-20355714D01*
X5499762Y-20355714D02*
X5509286Y-20317619D01*
X5509286Y-20317619D02*
X5518810Y-20298571D01*
X5518810Y-20298571D02*
X5528333Y-20289048D01*
X5528333Y-20289048D02*
X5547381Y-20279524D01*
X5699762Y-20479524D02*
X5699762Y-20346190D01*
X5699762Y-20365238D02*
X5709286Y-20355714D01*
X5709286Y-20355714D02*
X5728333Y-20346190D01*
X5728333Y-20346190D02*
X5756905Y-20346190D01*
X5756905Y-20346190D02*
X5775952Y-20355714D01*
X5775952Y-20355714D02*
X5785476Y-20374762D01*
X5785476Y-20374762D02*
X5785476Y-20479524D01*
X5785476Y-20374762D02*
X5795000Y-20355714D01*
X5795000Y-20355714D02*
X5814048Y-20346190D01*
X5814048Y-20346190D02*
X5842619Y-20346190D01*
X5842619Y-20346190D02*
X5861667Y-20355714D01*
X5861667Y-20355714D02*
X5871190Y-20374762D01*
X5871190Y-20374762D02*
X5871190Y-20479524D01*
X5966429Y-20479524D02*
X5966429Y-20346190D01*
X5966429Y-20365238D02*
X5975952Y-20355714D01*
X5975952Y-20355714D02*
X5995000Y-20346190D01*
X5995000Y-20346190D02*
X6023571Y-20346190D01*
X6023571Y-20346190D02*
X6042619Y-20355714D01*
X6042619Y-20355714D02*
X6052143Y-20374762D01*
X6052143Y-20374762D02*
X6052143Y-20479524D01*
X6052143Y-20374762D02*
X6061667Y-20355714D01*
X6061667Y-20355714D02*
X6080714Y-20346190D01*
X6080714Y-20346190D02*
X6109286Y-20346190D01*
X6109286Y-20346190D02*
X6128333Y-20355714D01*
X6128333Y-20355714D02*
X6137857Y-20374762D01*
X6137857Y-20374762D02*
X6137857Y-20479524D01*
X6528333Y-20270000D02*
X6356905Y-20527143D01*
X6785476Y-20279524D02*
X6804524Y-20279524D01*
X6804524Y-20279524D02*
X6823572Y-20289048D01*
X6823572Y-20289048D02*
X6833095Y-20298571D01*
X6833095Y-20298571D02*
X6842619Y-20317619D01*
X6842619Y-20317619D02*
X6852143Y-20355714D01*
X6852143Y-20355714D02*
X6852143Y-20403333D01*
X6852143Y-20403333D02*
X6842619Y-20441429D01*
X6842619Y-20441429D02*
X6833095Y-20460476D01*
X6833095Y-20460476D02*
X6823572Y-20470000D01*
X6823572Y-20470000D02*
X6804524Y-20479524D01*
X6804524Y-20479524D02*
X6785476Y-20479524D01*
X6785476Y-20479524D02*
X6766429Y-20470000D01*
X6766429Y-20470000D02*
X6756905Y-20460476D01*
X6756905Y-20460476D02*
X6747381Y-20441429D01*
X6747381Y-20441429D02*
X6737857Y-20403333D01*
X6737857Y-20403333D02*
X6737857Y-20355714D01*
X6737857Y-20355714D02*
X6747381Y-20317619D01*
X6747381Y-20317619D02*
X6756905Y-20298571D01*
X6756905Y-20298571D02*
X6766429Y-20289048D01*
X6766429Y-20289048D02*
X6785476Y-20279524D01*
X6937857Y-20460476D02*
X6947381Y-20470000D01*
X6947381Y-20470000D02*
X6937857Y-20479524D01*
X6937857Y-20479524D02*
X6928333Y-20470000D01*
X6928333Y-20470000D02*
X6937857Y-20460476D01*
X6937857Y-20460476D02*
X6937857Y-20479524D01*
X7071191Y-20279524D02*
X7090238Y-20279524D01*
X7090238Y-20279524D02*
X7109286Y-20289048D01*
X7109286Y-20289048D02*
X7118810Y-20298571D01*
X7118810Y-20298571D02*
X7128333Y-20317619D01*
X7128333Y-20317619D02*
X7137857Y-20355714D01*
X7137857Y-20355714D02*
X7137857Y-20403333D01*
X7137857Y-20403333D02*
X7128333Y-20441429D01*
X7128333Y-20441429D02*
X7118810Y-20460476D01*
X7118810Y-20460476D02*
X7109286Y-20470000D01*
X7109286Y-20470000D02*
X7090238Y-20479524D01*
X7090238Y-20479524D02*
X7071191Y-20479524D01*
X7071191Y-20479524D02*
X7052143Y-20470000D01*
X7052143Y-20470000D02*
X7042619Y-20460476D01*
X7042619Y-20460476D02*
X7033095Y-20441429D01*
X7033095Y-20441429D02*
X7023572Y-20403333D01*
X7023572Y-20403333D02*
X7023572Y-20355714D01*
X7023572Y-20355714D02*
X7033095Y-20317619D01*
X7033095Y-20317619D02*
X7042619Y-20298571D01*
X7042619Y-20298571D02*
X7052143Y-20289048D01*
X7052143Y-20289048D02*
X7071191Y-20279524D01*
X7309286Y-20346190D02*
X7309286Y-20479524D01*
X7261667Y-20270000D02*
X7214048Y-20412857D01*
X7214048Y-20412857D02*
X7337857Y-20412857D01*
X7395000Y-20279524D02*
X7518810Y-20279524D01*
X7518810Y-20279524D02*
X7452143Y-20355714D01*
X7452143Y-20355714D02*
X7480714Y-20355714D01*
X7480714Y-20355714D02*
X7499762Y-20365238D01*
X7499762Y-20365238D02*
X7509286Y-20374762D01*
X7509286Y-20374762D02*
X7518810Y-20393810D01*
X7518810Y-20393810D02*
X7518810Y-20441429D01*
X7518810Y-20441429D02*
X7509286Y-20460476D01*
X7509286Y-20460476D02*
X7499762Y-20470000D01*
X7499762Y-20470000D02*
X7480714Y-20479524D01*
X7480714Y-20479524D02*
X7423572Y-20479524D01*
X7423572Y-20479524D02*
X7404524Y-20470000D01*
X7404524Y-20470000D02*
X7395000Y-20460476D01*
X7585476Y-20279524D02*
X7709286Y-20279524D01*
X7709286Y-20279524D02*
X7642619Y-20355714D01*
X7642619Y-20355714D02*
X7671191Y-20355714D01*
X7671191Y-20355714D02*
X7690238Y-20365238D01*
X7690238Y-20365238D02*
X7699762Y-20374762D01*
X7699762Y-20374762D02*
X7709286Y-20393810D01*
X7709286Y-20393810D02*
X7709286Y-20441429D01*
X7709286Y-20441429D02*
X7699762Y-20460476D01*
X7699762Y-20460476D02*
X7690238Y-20470000D01*
X7690238Y-20470000D02*
X7671191Y-20479524D01*
X7671191Y-20479524D02*
X7614048Y-20479524D01*
X7614048Y-20479524D02*
X7595000Y-20470000D01*
X7595000Y-20470000D02*
X7585476Y-20460476D01*
X7785476Y-20279524D02*
X7785476Y-20317619D01*
X7861667Y-20279524D02*
X7861667Y-20317619D01*
X8156905Y-20555714D02*
X8147381Y-20546190D01*
X8147381Y-20546190D02*
X8128334Y-20517619D01*
X8128334Y-20517619D02*
X8118810Y-20498571D01*
X8118810Y-20498571D02*
X8109286Y-20470000D01*
X8109286Y-20470000D02*
X8099762Y-20422381D01*
X8099762Y-20422381D02*
X8099762Y-20384286D01*
X8099762Y-20384286D02*
X8109286Y-20336667D01*
X8109286Y-20336667D02*
X8118810Y-20308095D01*
X8118810Y-20308095D02*
X8128334Y-20289048D01*
X8128334Y-20289048D02*
X8147381Y-20260476D01*
X8147381Y-20260476D02*
X8156905Y-20250952D01*
X8214048Y-20279524D02*
X8347381Y-20279524D01*
X8347381Y-20279524D02*
X8261667Y-20479524D01*
X8575953Y-20479524D02*
X8575953Y-20279524D01*
X8661667Y-20479524D02*
X8661667Y-20374762D01*
X8661667Y-20374762D02*
X8652143Y-20355714D01*
X8652143Y-20355714D02*
X8633096Y-20346190D01*
X8633096Y-20346190D02*
X8604524Y-20346190D01*
X8604524Y-20346190D02*
X8585477Y-20355714D01*
X8585477Y-20355714D02*
X8575953Y-20365238D01*
X8785477Y-20479524D02*
X8766429Y-20470000D01*
X8766429Y-20470000D02*
X8756905Y-20460476D01*
X8756905Y-20460476D02*
X8747381Y-20441429D01*
X8747381Y-20441429D02*
X8747381Y-20384286D01*
X8747381Y-20384286D02*
X8756905Y-20365238D01*
X8756905Y-20365238D02*
X8766429Y-20355714D01*
X8766429Y-20355714D02*
X8785477Y-20346190D01*
X8785477Y-20346190D02*
X8814048Y-20346190D01*
X8814048Y-20346190D02*
X8833096Y-20355714D01*
X8833096Y-20355714D02*
X8842619Y-20365238D01*
X8842619Y-20365238D02*
X8852143Y-20384286D01*
X8852143Y-20384286D02*
X8852143Y-20441429D01*
X8852143Y-20441429D02*
X8842619Y-20460476D01*
X8842619Y-20460476D02*
X8833096Y-20470000D01*
X8833096Y-20470000D02*
X8814048Y-20479524D01*
X8814048Y-20479524D02*
X8785477Y-20479524D01*
X8966429Y-20479524D02*
X8947381Y-20470000D01*
X8947381Y-20470000D02*
X8937858Y-20450952D01*
X8937858Y-20450952D02*
X8937858Y-20279524D01*
X9118810Y-20470000D02*
X9099762Y-20479524D01*
X9099762Y-20479524D02*
X9061667Y-20479524D01*
X9061667Y-20479524D02*
X9042619Y-20470000D01*
X9042619Y-20470000D02*
X9033096Y-20450952D01*
X9033096Y-20450952D02*
X9033096Y-20374762D01*
X9033096Y-20374762D02*
X9042619Y-20355714D01*
X9042619Y-20355714D02*
X9061667Y-20346190D01*
X9061667Y-20346190D02*
X9099762Y-20346190D01*
X9099762Y-20346190D02*
X9118810Y-20355714D01*
X9118810Y-20355714D02*
X9128334Y-20374762D01*
X9128334Y-20374762D02*
X9128334Y-20393810D01*
X9128334Y-20393810D02*
X9033096Y-20412857D01*
X9204524Y-20470000D02*
X9223572Y-20479524D01*
X9223572Y-20479524D02*
X9261667Y-20479524D01*
X9261667Y-20479524D02*
X9280715Y-20470000D01*
X9280715Y-20470000D02*
X9290239Y-20450952D01*
X9290239Y-20450952D02*
X9290239Y-20441429D01*
X9290239Y-20441429D02*
X9280715Y-20422381D01*
X9280715Y-20422381D02*
X9261667Y-20412857D01*
X9261667Y-20412857D02*
X9233096Y-20412857D01*
X9233096Y-20412857D02*
X9214048Y-20403333D01*
X9214048Y-20403333D02*
X9204524Y-20384286D01*
X9204524Y-20384286D02*
X9204524Y-20374762D01*
X9204524Y-20374762D02*
X9214048Y-20355714D01*
X9214048Y-20355714D02*
X9233096Y-20346190D01*
X9233096Y-20346190D02*
X9261667Y-20346190D01*
X9261667Y-20346190D02*
X9280715Y-20355714D01*
X9356905Y-20555714D02*
X9366429Y-20546190D01*
X9366429Y-20546190D02*
X9385477Y-20517619D01*
X9385477Y-20517619D02*
X9395000Y-20498571D01*
X9395000Y-20498571D02*
X9404524Y-20470000D01*
X9404524Y-20470000D02*
X9414048Y-20422381D01*
X9414048Y-20422381D02*
X9414048Y-20384286D01*
X9414048Y-20384286D02*
X9404524Y-20336667D01*
X9404524Y-20336667D02*
X9395000Y-20308095D01*
X9395000Y-20308095D02*
X9385477Y-20289048D01*
X9385477Y-20289048D02*
X9366429Y-20260476D01*
X9366429Y-20260476D02*
X9356905Y-20250952D01*
M02*
