%TF.GenerationSoftware,KiCad,Pcbnew,7.0.2*%
%TF.CreationDate,2024-01-15T01:52:45-05:00*%
%TF.ProjectId,ADSR Main Pcb,41445352-204d-4616-996e-205063622e6b,rev?*%
%TF.SameCoordinates,Original*%
%TF.FileFunction,Drillmap*%
%TF.FilePolarity,Positive*%
%FSLAX45Y45*%
G04 Gerber Fmt 4.5, Leading zero omitted, Abs format (unit mm)*
G04 Created by KiCad (PCBNEW 7.0.2) date 2024-01-15 01:52:45*
%MOMM*%
%LPD*%
G01*
G04 APERTURE LIST*
%ADD10C,0.100000*%
%ADD11C,0.200000*%
G04 APERTURE END LIST*
D10*
X14400000Y-18950000D02*
X4600000Y-18950000D01*
X4600000Y-10750000D01*
X8050000Y-10750000D01*
X8050000Y-9100000D01*
X5700000Y-9100000D01*
X5700000Y-3300000D01*
X6600000Y-2550000D01*
X14400000Y-2550000D01*
X14400000Y-18950000D01*
D11*
X4842619Y-19267524D02*
X4842619Y-19067524D01*
X4842619Y-19067524D02*
X4890238Y-19067524D01*
X4890238Y-19067524D02*
X4918810Y-19077048D01*
X4918810Y-19077048D02*
X4937857Y-19096095D01*
X4937857Y-19096095D02*
X4947381Y-19115143D01*
X4947381Y-19115143D02*
X4956905Y-19153238D01*
X4956905Y-19153238D02*
X4956905Y-19181810D01*
X4956905Y-19181810D02*
X4947381Y-19219905D01*
X4947381Y-19219905D02*
X4937857Y-19238952D01*
X4937857Y-19238952D02*
X4918810Y-19258000D01*
X4918810Y-19258000D02*
X4890238Y-19267524D01*
X4890238Y-19267524D02*
X4842619Y-19267524D01*
X5042619Y-19267524D02*
X5042619Y-19134190D01*
X5042619Y-19172286D02*
X5052143Y-19153238D01*
X5052143Y-19153238D02*
X5061667Y-19143714D01*
X5061667Y-19143714D02*
X5080714Y-19134190D01*
X5080714Y-19134190D02*
X5099762Y-19134190D01*
X5166429Y-19267524D02*
X5166429Y-19134190D01*
X5166429Y-19067524D02*
X5156905Y-19077048D01*
X5156905Y-19077048D02*
X5166429Y-19086571D01*
X5166429Y-19086571D02*
X5175952Y-19077048D01*
X5175952Y-19077048D02*
X5166429Y-19067524D01*
X5166429Y-19067524D02*
X5166429Y-19086571D01*
X5290238Y-19267524D02*
X5271190Y-19258000D01*
X5271190Y-19258000D02*
X5261667Y-19238952D01*
X5261667Y-19238952D02*
X5261667Y-19067524D01*
X5395000Y-19267524D02*
X5375952Y-19258000D01*
X5375952Y-19258000D02*
X5366429Y-19238952D01*
X5366429Y-19238952D02*
X5366429Y-19067524D01*
X5623571Y-19267524D02*
X5623571Y-19067524D01*
X5623571Y-19067524D02*
X5690238Y-19210381D01*
X5690238Y-19210381D02*
X5756905Y-19067524D01*
X5756905Y-19067524D02*
X5756905Y-19267524D01*
X5937857Y-19267524D02*
X5937857Y-19162762D01*
X5937857Y-19162762D02*
X5928333Y-19143714D01*
X5928333Y-19143714D02*
X5909286Y-19134190D01*
X5909286Y-19134190D02*
X5871190Y-19134190D01*
X5871190Y-19134190D02*
X5852143Y-19143714D01*
X5937857Y-19258000D02*
X5918809Y-19267524D01*
X5918809Y-19267524D02*
X5871190Y-19267524D01*
X5871190Y-19267524D02*
X5852143Y-19258000D01*
X5852143Y-19258000D02*
X5842619Y-19238952D01*
X5842619Y-19238952D02*
X5842619Y-19219905D01*
X5842619Y-19219905D02*
X5852143Y-19200857D01*
X5852143Y-19200857D02*
X5871190Y-19191333D01*
X5871190Y-19191333D02*
X5918809Y-19191333D01*
X5918809Y-19191333D02*
X5937857Y-19181810D01*
X6033095Y-19134190D02*
X6033095Y-19334190D01*
X6033095Y-19143714D02*
X6052143Y-19134190D01*
X6052143Y-19134190D02*
X6090238Y-19134190D01*
X6090238Y-19134190D02*
X6109286Y-19143714D01*
X6109286Y-19143714D02*
X6118809Y-19153238D01*
X6118809Y-19153238D02*
X6128333Y-19172286D01*
X6128333Y-19172286D02*
X6128333Y-19229429D01*
X6128333Y-19229429D02*
X6118809Y-19248476D01*
X6118809Y-19248476D02*
X6109286Y-19258000D01*
X6109286Y-19258000D02*
X6090238Y-19267524D01*
X6090238Y-19267524D02*
X6052143Y-19267524D01*
X6052143Y-19267524D02*
X6033095Y-19258000D01*
X6214048Y-19248476D02*
X6223571Y-19258000D01*
X6223571Y-19258000D02*
X6214048Y-19267524D01*
X6214048Y-19267524D02*
X6204524Y-19258000D01*
X6204524Y-19258000D02*
X6214048Y-19248476D01*
X6214048Y-19248476D02*
X6214048Y-19267524D01*
X6214048Y-19143714D02*
X6223571Y-19153238D01*
X6223571Y-19153238D02*
X6214048Y-19162762D01*
X6214048Y-19162762D02*
X6204524Y-19153238D01*
X6204524Y-19153238D02*
X6214048Y-19143714D01*
X6214048Y-19143714D02*
X6214048Y-19162762D01*
M02*
