M48
; DRILL file {KiCad 7.0.2} date Mon Jan 15 01:52:43 2024
; FORMAT={-:-/ absolute / metric / decimal}
; #@! TF.CreationDate,2024-01-15T01:52:43-05:00
; #@! TF.GenerationSoftware,Kicad,Pcbnew,7.0.2
; #@! TF.FileFunction,Plated,1,2,PTH
FMAT,2
METRIC
; #@! TA.AperFunction,Plated,PTH,ComponentDrill
T1C0.800
; #@! TA.AperFunction,Plated,PTH,ComponentDrill
T2C1.000
; #@! TA.AperFunction,Plated,PTH,ComponentDrill
T3C1.016
; #@! TA.AperFunction,Plated,PTH,ComponentDrill
T4C1.100
%
G90
G05
T1
X61.38Y-43.0
X61.38Y-46.0
X61.38Y-49.0
X61.38Y-68.7
X61.38Y-71.7
X61.38Y-74.7
X62.46Y-35.64
X62.46Y-61.34
X65.0Y-35.64
X65.0Y-61.34
X67.0Y-55.95
X67.54Y-35.64
X67.54Y-61.34
X69.0Y-43.0
X69.0Y-46.0
X69.0Y-49.0
X69.0Y-68.7
X69.0Y-71.7
X69.0Y-74.7
X72.0Y-55.95
X72.2Y-33.76
X72.2Y-36.3
X72.2Y-38.84
X72.2Y-41.38
X72.2Y-43.92
X72.2Y-46.46
X72.2Y-49.0
X72.2Y-59.46
X72.2Y-62.0
X72.2Y-64.54
X72.2Y-67.08
X72.2Y-69.62
X72.2Y-72.16
X72.2Y-74.7
X73.5Y-30.5
X78.5Y-30.5
X79.82Y-33.76
X79.82Y-36.3
X79.82Y-38.84
X79.82Y-41.38
X79.82Y-43.92
X79.82Y-46.46
X79.82Y-49.0
X79.82Y-59.46
X79.82Y-62.0
X79.82Y-64.54
X79.82Y-67.08
X79.82Y-69.62
X79.82Y-72.16
X79.82Y-74.7
X85.19Y-37.0
X85.19Y-40.0
X85.19Y-43.0
X85.19Y-46.0
X85.19Y-62.7
X85.19Y-65.7
X85.19Y-68.7
X85.19Y-71.7
X92.81Y-37.0
X92.81Y-40.0
X92.81Y-43.0
X92.81Y-46.0
X92.81Y-62.7
X92.81Y-65.7
X92.81Y-68.7
X92.81Y-71.7
X97.2Y-33.76
X97.2Y-36.3
X97.2Y-38.84
X97.2Y-41.38
X97.2Y-43.92
X97.2Y-46.46
X97.2Y-49.0
X97.2Y-59.46
X97.2Y-62.0
X97.2Y-64.54
X97.2Y-67.08
X97.2Y-69.62
X97.2Y-72.16
X97.2Y-74.7
X98.5Y-30.5
X98.5Y-52.25
X98.5Y-56.2
X98.5Y-77.95
X103.5Y-30.5
X103.5Y-52.25
X103.5Y-56.2
X103.5Y-77.95
X104.82Y-33.76
X104.82Y-36.3
X104.82Y-38.84
X104.82Y-41.38
X104.82Y-43.92
X104.82Y-46.46
X104.82Y-49.0
X104.82Y-59.46
X104.82Y-62.0
X104.82Y-64.54
X104.82Y-67.08
X104.82Y-69.62
X104.82Y-72.16
X104.82Y-74.7
X106.129Y-85.266
X106.129Y-99.266
X108.19Y-116.0
X108.19Y-136.0
X108.19Y-156.0
X108.19Y-176.0
X109.19Y-36.75
X109.19Y-39.75
X109.19Y-42.75
X109.19Y-45.75
X109.19Y-62.45
X109.19Y-65.45
X109.19Y-68.45
X109.19Y-71.45
X111.129Y-85.266
X111.129Y-99.266
X112.629Y-89.766
X112.629Y-91.766
X115.81Y-116.0
X115.81Y-136.0
X115.81Y-156.0
X115.81Y-176.0
X116.81Y-36.75
X116.81Y-39.75
X116.81Y-42.75
X116.81Y-45.75
X116.81Y-62.45
X116.81Y-65.45
X116.81Y-68.45
X116.81Y-71.45
X122.18Y-33.25
X122.18Y-35.79
X122.18Y-38.33
X122.18Y-40.87
X122.18Y-43.41
X122.18Y-45.95
X122.18Y-48.49
X122.18Y-58.95
X122.18Y-61.49
X122.18Y-64.03
X122.18Y-66.57
X122.18Y-69.11
X122.18Y-71.65
X122.18Y-74.19
X123.0Y-88.41
X123.0Y-90.41
X123.0Y-102.41
X123.0Y-104.41
X129.5Y-51.95
X129.5Y-77.65
X129.8Y-33.25
X129.8Y-35.79
X129.8Y-38.33
X129.8Y-40.87
X129.8Y-43.41
X129.8Y-45.95
X129.8Y-48.49
X129.8Y-58.95
X129.8Y-61.49
X129.8Y-64.03
X129.8Y-66.57
X129.8Y-69.11
X129.8Y-71.65
X129.8Y-74.19
X133.19Y-33.0
X133.19Y-36.0
X133.19Y-39.0
X133.19Y-58.7
X133.19Y-61.7
X133.19Y-64.7
X134.5Y-51.95
X134.5Y-77.65
X134.65Y-46.61
X134.65Y-72.31
X137.19Y-46.61
X137.19Y-72.31
X139.73Y-46.61
X139.73Y-72.31
X140.81Y-33.0
X140.81Y-36.0
X140.81Y-39.0
X140.81Y-58.7
X140.81Y-61.7
X140.81Y-64.7
T2
X71.17Y-81.962
X71.17Y-84.502
X73.71Y-81.962
X73.71Y-84.502
X76.25Y-81.962
X76.25Y-84.502
X78.79Y-81.962
X78.79Y-84.502
X81.33Y-81.962
X81.33Y-84.502
X113.46Y-120.0
X113.46Y-140.0
X113.46Y-160.0
X113.46Y-180.0
X116.0Y-120.0
X116.0Y-140.0
X116.0Y-160.0
X116.0Y-180.0
T3
X131.46Y-91.33
X131.46Y-93.87
X131.46Y-96.41
X131.46Y-98.95
X131.46Y-101.49
X134.0Y-91.33
X134.0Y-93.87
X134.0Y-96.41
X134.0Y-98.95
X134.0Y-101.49
T4
X107.629Y-89.686
X107.629Y-92.226
X107.629Y-94.766
X118.38Y-94.41
X118.38Y-98.41
X126.0Y-94.41
X126.0Y-98.41
T2
X48.6Y-118.61G85X48.6Y-116.91
G05
X48.6Y-138.61G85X48.6Y-136.91
G05
X48.6Y-158.61G85X48.6Y-156.91
G05
X48.6Y-178.61G85X48.6Y-176.91
G05
X50.861Y-125.601G85X49.659Y-124.399
G05
X50.861Y-145.601G85X49.659Y-144.399
G05
X50.861Y-165.601G85X49.659Y-164.399
G05
X50.861Y-185.601G85X49.659Y-184.399
G05
X55.35Y-113.86G85X53.65Y-113.86
G05
X55.35Y-133.86G85X53.65Y-133.86
G05
X55.35Y-153.86G85X53.65Y-153.86
G05
X55.35Y-173.86G85X53.65Y-173.86
G05
X58.35Y-126.66G85X56.65Y-126.66
G05
X58.35Y-146.66G85X56.65Y-146.66
G05
X58.35Y-166.66G85X56.65Y-166.66
G05
X58.35Y-186.66G85X56.65Y-186.66
G05
X61.4Y-121.61G85X61.4Y-119.91
G05
X61.4Y-141.61G85X61.4Y-139.91
G05
X61.4Y-161.61G85X61.4Y-159.91
G05
X61.4Y-181.61G85X61.4Y-179.91
G05
X68.6Y-118.61G85X68.6Y-116.91
G05
X68.6Y-138.61G85X68.6Y-136.91
G05
X68.6Y-158.61G85X68.6Y-156.91
G05
X68.6Y-178.61G85X68.6Y-176.91
G05
X70.861Y-125.601G85X69.659Y-124.399
G05
X70.861Y-145.601G85X69.659Y-144.399
G05
X70.861Y-165.601G85X69.659Y-164.399
G05
X70.861Y-185.601G85X69.659Y-184.399
G05
X75.35Y-113.86G85X73.65Y-113.86
G05
X75.35Y-133.86G85X73.65Y-133.86
G05
X75.35Y-153.86G85X73.65Y-153.86
G05
X75.35Y-173.86G85X73.65Y-173.86
G05
X78.35Y-126.66G85X76.65Y-126.66
G05
X78.35Y-146.66G85X76.65Y-146.66
G05
X78.35Y-166.66G85X76.65Y-166.66
G05
X78.35Y-186.66G85X76.65Y-186.66
G05
X81.4Y-121.61G85X81.4Y-119.91
G05
X81.4Y-141.61G85X81.4Y-139.91
G05
X81.4Y-161.61G85X81.4Y-159.91
G05
X81.4Y-181.61G85X81.4Y-179.91
G05
X88.6Y-118.61G85X88.6Y-116.91
G05
X88.6Y-138.61G85X88.6Y-136.91
G05
X88.6Y-158.61G85X88.6Y-156.91
G05
X88.6Y-178.61G85X88.6Y-176.91
G05
X90.861Y-125.601G85X89.659Y-124.399
G05
X90.861Y-145.601G85X89.659Y-144.399
G05
X90.861Y-165.601G85X89.659Y-164.399
G05
X90.861Y-185.601G85X89.659Y-184.399
G05
X95.35Y-113.86G85X93.65Y-113.86
G05
X95.35Y-133.86G85X93.65Y-133.86
G05
X95.35Y-153.86G85X93.65Y-153.86
G05
X95.35Y-173.86G85X93.65Y-173.86
G05
X98.35Y-126.66G85X96.65Y-126.66
G05
X98.35Y-146.66G85X96.65Y-146.66
G05
X98.35Y-166.66G85X96.65Y-166.66
G05
X98.35Y-186.66G85X96.65Y-186.66
G05
X101.4Y-121.61G85X101.4Y-119.91
G05
X101.4Y-141.61G85X101.4Y-139.91
G05
X101.4Y-161.61G85X101.4Y-159.91
G05
X101.4Y-181.61G85X101.4Y-179.91
G05
X128.6Y-118.61G85X128.6Y-116.91
G05
X128.6Y-138.61G85X128.6Y-136.91
G05
X128.6Y-158.61G85X128.6Y-156.91
G05
X128.6Y-178.61G85X128.6Y-176.91
G05
X130.861Y-125.601G85X129.659Y-124.399
G05
X130.861Y-145.601G85X129.659Y-144.399
G05
X130.861Y-165.601G85X129.659Y-164.399
G05
X130.861Y-185.601G85X129.659Y-184.399
G05
X135.35Y-113.86G85X133.65Y-113.86
G05
X135.35Y-133.86G85X133.65Y-133.86
G05
X135.35Y-153.86G85X133.65Y-153.86
G05
X135.35Y-173.86G85X133.65Y-173.86
G05
X138.35Y-126.66G85X136.65Y-126.66
G05
X138.35Y-146.66G85X136.65Y-146.66
G05
X138.35Y-166.66G85X136.65Y-166.66
G05
X138.35Y-186.66G85X136.65Y-186.66
G05
X141.4Y-121.61G85X141.4Y-119.91
G05
X141.4Y-141.61G85X141.4Y-139.91
G05
X141.4Y-161.61G85X141.4Y-159.91
G05
X141.4Y-181.61G85X141.4Y-179.91
G05
T0
M30
