%TF.GenerationSoftware,KiCad,Pcbnew,7.0.2*%
%TF.CreationDate,2024-01-15T01:52:41-05:00*%
%TF.ProjectId,ADSR Main Pcb,41445352-204d-4616-996e-205063622e6b,rev?*%
%TF.SameCoordinates,Original*%
%TF.FileFunction,Legend,Bot*%
%TF.FilePolarity,Positive*%
%FSLAX46Y46*%
G04 Gerber Fmt 4.6, Leading zero omitted, Abs format (unit mm)*
G04 Created by KiCad (PCBNEW 7.0.2) date 2024-01-15 01:52:41*
%MOMM*%
%LPD*%
G01*
G04 APERTURE LIST*
%ADD10C,0.150000*%
%ADD11C,0.120000*%
G04 APERTURE END LIST*
D10*
%TO.C,IN C*%
X136053571Y-151106964D02*
X136053571Y-150356964D01*
X135696428Y-151106964D02*
X135696428Y-150356964D01*
X135696428Y-150356964D02*
X135267857Y-151106964D01*
X135267857Y-151106964D02*
X135267857Y-150356964D01*
X133910714Y-151035535D02*
X133946428Y-151071250D01*
X133946428Y-151071250D02*
X134053571Y-151106964D01*
X134053571Y-151106964D02*
X134124999Y-151106964D01*
X134124999Y-151106964D02*
X134232142Y-151071250D01*
X134232142Y-151071250D02*
X134303571Y-150999821D01*
X134303571Y-150999821D02*
X134339285Y-150928392D01*
X134339285Y-150928392D02*
X134374999Y-150785535D01*
X134374999Y-150785535D02*
X134374999Y-150678392D01*
X134374999Y-150678392D02*
X134339285Y-150535535D01*
X134339285Y-150535535D02*
X134303571Y-150464107D01*
X134303571Y-150464107D02*
X134232142Y-150392678D01*
X134232142Y-150392678D02*
X134124999Y-150356964D01*
X134124999Y-150356964D02*
X134053571Y-150356964D01*
X134053571Y-150356964D02*
X133946428Y-150392678D01*
X133946428Y-150392678D02*
X133910714Y-150428392D01*
%TO.C,OUT D1*%
X56767857Y-170356964D02*
X56625000Y-170356964D01*
X56625000Y-170356964D02*
X56553571Y-170392678D01*
X56553571Y-170392678D02*
X56482143Y-170464107D01*
X56482143Y-170464107D02*
X56446428Y-170606964D01*
X56446428Y-170606964D02*
X56446428Y-170856964D01*
X56446428Y-170856964D02*
X56482143Y-170999821D01*
X56482143Y-170999821D02*
X56553571Y-171071250D01*
X56553571Y-171071250D02*
X56625000Y-171106964D01*
X56625000Y-171106964D02*
X56767857Y-171106964D01*
X56767857Y-171106964D02*
X56839286Y-171071250D01*
X56839286Y-171071250D02*
X56910714Y-170999821D01*
X56910714Y-170999821D02*
X56946428Y-170856964D01*
X56946428Y-170856964D02*
X56946428Y-170606964D01*
X56946428Y-170606964D02*
X56910714Y-170464107D01*
X56910714Y-170464107D02*
X56839286Y-170392678D01*
X56839286Y-170392678D02*
X56767857Y-170356964D01*
X56125000Y-170356964D02*
X56125000Y-170964107D01*
X56125000Y-170964107D02*
X56089286Y-171035535D01*
X56089286Y-171035535D02*
X56053572Y-171071250D01*
X56053572Y-171071250D02*
X55982143Y-171106964D01*
X55982143Y-171106964D02*
X55839286Y-171106964D01*
X55839286Y-171106964D02*
X55767857Y-171071250D01*
X55767857Y-171071250D02*
X55732143Y-171035535D01*
X55732143Y-171035535D02*
X55696429Y-170964107D01*
X55696429Y-170964107D02*
X55696429Y-170356964D01*
X55446429Y-170356964D02*
X55017858Y-170356964D01*
X55232143Y-171106964D02*
X55232143Y-170356964D01*
X54196428Y-171106964D02*
X54196428Y-170356964D01*
X54196428Y-170356964D02*
X54017857Y-170356964D01*
X54017857Y-170356964D02*
X53910714Y-170392678D01*
X53910714Y-170392678D02*
X53839285Y-170464107D01*
X53839285Y-170464107D02*
X53803571Y-170535535D01*
X53803571Y-170535535D02*
X53767857Y-170678392D01*
X53767857Y-170678392D02*
X53767857Y-170785535D01*
X53767857Y-170785535D02*
X53803571Y-170928392D01*
X53803571Y-170928392D02*
X53839285Y-170999821D01*
X53839285Y-170999821D02*
X53910714Y-171071250D01*
X53910714Y-171071250D02*
X54017857Y-171106964D01*
X54017857Y-171106964D02*
X54196428Y-171106964D01*
X53053571Y-171106964D02*
X53482142Y-171106964D01*
X53267857Y-171106964D02*
X53267857Y-170356964D01*
X53267857Y-170356964D02*
X53339285Y-170464107D01*
X53339285Y-170464107D02*
X53410714Y-170535535D01*
X53410714Y-170535535D02*
X53482142Y-170571250D01*
%TO.C,IN B*%
X136053571Y-131106964D02*
X136053571Y-130356964D01*
X135696428Y-131106964D02*
X135696428Y-130356964D01*
X135696428Y-130356964D02*
X135267857Y-131106964D01*
X135267857Y-131106964D02*
X135267857Y-130356964D01*
X134089285Y-130714107D02*
X133982142Y-130749821D01*
X133982142Y-130749821D02*
X133946428Y-130785535D01*
X133946428Y-130785535D02*
X133910714Y-130856964D01*
X133910714Y-130856964D02*
X133910714Y-130964107D01*
X133910714Y-130964107D02*
X133946428Y-131035535D01*
X133946428Y-131035535D02*
X133982142Y-131071250D01*
X133982142Y-131071250D02*
X134053571Y-131106964D01*
X134053571Y-131106964D02*
X134339285Y-131106964D01*
X134339285Y-131106964D02*
X134339285Y-130356964D01*
X134339285Y-130356964D02*
X134089285Y-130356964D01*
X134089285Y-130356964D02*
X134017857Y-130392678D01*
X134017857Y-130392678D02*
X133982142Y-130428392D01*
X133982142Y-130428392D02*
X133946428Y-130499821D01*
X133946428Y-130499821D02*
X133946428Y-130571250D01*
X133946428Y-130571250D02*
X133982142Y-130642678D01*
X133982142Y-130642678D02*
X134017857Y-130678392D01*
X134017857Y-130678392D02*
X134089285Y-130714107D01*
X134089285Y-130714107D02*
X134339285Y-130714107D01*
%TO.C,OUT A-*%
X96821428Y-110356964D02*
X96678571Y-110356964D01*
X96678571Y-110356964D02*
X96607142Y-110392678D01*
X96607142Y-110392678D02*
X96535714Y-110464107D01*
X96535714Y-110464107D02*
X96499999Y-110606964D01*
X96499999Y-110606964D02*
X96499999Y-110856964D01*
X96499999Y-110856964D02*
X96535714Y-110999821D01*
X96535714Y-110999821D02*
X96607142Y-111071250D01*
X96607142Y-111071250D02*
X96678571Y-111106964D01*
X96678571Y-111106964D02*
X96821428Y-111106964D01*
X96821428Y-111106964D02*
X96892857Y-111071250D01*
X96892857Y-111071250D02*
X96964285Y-110999821D01*
X96964285Y-110999821D02*
X96999999Y-110856964D01*
X96999999Y-110856964D02*
X96999999Y-110606964D01*
X96999999Y-110606964D02*
X96964285Y-110464107D01*
X96964285Y-110464107D02*
X96892857Y-110392678D01*
X96892857Y-110392678D02*
X96821428Y-110356964D01*
X96178571Y-110356964D02*
X96178571Y-110964107D01*
X96178571Y-110964107D02*
X96142857Y-111035535D01*
X96142857Y-111035535D02*
X96107143Y-111071250D01*
X96107143Y-111071250D02*
X96035714Y-111106964D01*
X96035714Y-111106964D02*
X95892857Y-111106964D01*
X95892857Y-111106964D02*
X95821428Y-111071250D01*
X95821428Y-111071250D02*
X95785714Y-111035535D01*
X95785714Y-111035535D02*
X95750000Y-110964107D01*
X95750000Y-110964107D02*
X95750000Y-110356964D01*
X95500000Y-110356964D02*
X95071429Y-110356964D01*
X95285714Y-111106964D02*
X95285714Y-110356964D01*
X94285713Y-110892678D02*
X93928571Y-110892678D01*
X94357142Y-111106964D02*
X94107142Y-110356964D01*
X94107142Y-110356964D02*
X93857142Y-111106964D01*
X93607142Y-110821250D02*
X93035714Y-110821250D01*
%TO.C,OUT C2*%
X76767857Y-150356964D02*
X76625000Y-150356964D01*
X76625000Y-150356964D02*
X76553571Y-150392678D01*
X76553571Y-150392678D02*
X76482143Y-150464107D01*
X76482143Y-150464107D02*
X76446428Y-150606964D01*
X76446428Y-150606964D02*
X76446428Y-150856964D01*
X76446428Y-150856964D02*
X76482143Y-150999821D01*
X76482143Y-150999821D02*
X76553571Y-151071250D01*
X76553571Y-151071250D02*
X76625000Y-151106964D01*
X76625000Y-151106964D02*
X76767857Y-151106964D01*
X76767857Y-151106964D02*
X76839286Y-151071250D01*
X76839286Y-151071250D02*
X76910714Y-150999821D01*
X76910714Y-150999821D02*
X76946428Y-150856964D01*
X76946428Y-150856964D02*
X76946428Y-150606964D01*
X76946428Y-150606964D02*
X76910714Y-150464107D01*
X76910714Y-150464107D02*
X76839286Y-150392678D01*
X76839286Y-150392678D02*
X76767857Y-150356964D01*
X76125000Y-150356964D02*
X76125000Y-150964107D01*
X76125000Y-150964107D02*
X76089286Y-151035535D01*
X76089286Y-151035535D02*
X76053572Y-151071250D01*
X76053572Y-151071250D02*
X75982143Y-151106964D01*
X75982143Y-151106964D02*
X75839286Y-151106964D01*
X75839286Y-151106964D02*
X75767857Y-151071250D01*
X75767857Y-151071250D02*
X75732143Y-151035535D01*
X75732143Y-151035535D02*
X75696429Y-150964107D01*
X75696429Y-150964107D02*
X75696429Y-150356964D01*
X75446429Y-150356964D02*
X75017858Y-150356964D01*
X75232143Y-151106964D02*
X75232143Y-150356964D01*
X73767857Y-151035535D02*
X73803571Y-151071250D01*
X73803571Y-151071250D02*
X73910714Y-151106964D01*
X73910714Y-151106964D02*
X73982142Y-151106964D01*
X73982142Y-151106964D02*
X74089285Y-151071250D01*
X74089285Y-151071250D02*
X74160714Y-150999821D01*
X74160714Y-150999821D02*
X74196428Y-150928392D01*
X74196428Y-150928392D02*
X74232142Y-150785535D01*
X74232142Y-150785535D02*
X74232142Y-150678392D01*
X74232142Y-150678392D02*
X74196428Y-150535535D01*
X74196428Y-150535535D02*
X74160714Y-150464107D01*
X74160714Y-150464107D02*
X74089285Y-150392678D01*
X74089285Y-150392678D02*
X73982142Y-150356964D01*
X73982142Y-150356964D02*
X73910714Y-150356964D01*
X73910714Y-150356964D02*
X73803571Y-150392678D01*
X73803571Y-150392678D02*
X73767857Y-150428392D01*
X73482142Y-150428392D02*
X73446428Y-150392678D01*
X73446428Y-150392678D02*
X73375000Y-150356964D01*
X73375000Y-150356964D02*
X73196428Y-150356964D01*
X73196428Y-150356964D02*
X73125000Y-150392678D01*
X73125000Y-150392678D02*
X73089285Y-150428392D01*
X73089285Y-150428392D02*
X73053571Y-150499821D01*
X73053571Y-150499821D02*
X73053571Y-150571250D01*
X73053571Y-150571250D02*
X73089285Y-150678392D01*
X73089285Y-150678392D02*
X73517857Y-151106964D01*
X73517857Y-151106964D02*
X73053571Y-151106964D01*
%TO.C,OUT B1*%
X56767857Y-130356964D02*
X56625000Y-130356964D01*
X56625000Y-130356964D02*
X56553571Y-130392678D01*
X56553571Y-130392678D02*
X56482143Y-130464107D01*
X56482143Y-130464107D02*
X56446428Y-130606964D01*
X56446428Y-130606964D02*
X56446428Y-130856964D01*
X56446428Y-130856964D02*
X56482143Y-130999821D01*
X56482143Y-130999821D02*
X56553571Y-131071250D01*
X56553571Y-131071250D02*
X56625000Y-131106964D01*
X56625000Y-131106964D02*
X56767857Y-131106964D01*
X56767857Y-131106964D02*
X56839286Y-131071250D01*
X56839286Y-131071250D02*
X56910714Y-130999821D01*
X56910714Y-130999821D02*
X56946428Y-130856964D01*
X56946428Y-130856964D02*
X56946428Y-130606964D01*
X56946428Y-130606964D02*
X56910714Y-130464107D01*
X56910714Y-130464107D02*
X56839286Y-130392678D01*
X56839286Y-130392678D02*
X56767857Y-130356964D01*
X56125000Y-130356964D02*
X56125000Y-130964107D01*
X56125000Y-130964107D02*
X56089286Y-131035535D01*
X56089286Y-131035535D02*
X56053572Y-131071250D01*
X56053572Y-131071250D02*
X55982143Y-131106964D01*
X55982143Y-131106964D02*
X55839286Y-131106964D01*
X55839286Y-131106964D02*
X55767857Y-131071250D01*
X55767857Y-131071250D02*
X55732143Y-131035535D01*
X55732143Y-131035535D02*
X55696429Y-130964107D01*
X55696429Y-130964107D02*
X55696429Y-130356964D01*
X55446429Y-130356964D02*
X55017858Y-130356964D01*
X55232143Y-131106964D02*
X55232143Y-130356964D01*
X53946428Y-130714107D02*
X53839285Y-130749821D01*
X53839285Y-130749821D02*
X53803571Y-130785535D01*
X53803571Y-130785535D02*
X53767857Y-130856964D01*
X53767857Y-130856964D02*
X53767857Y-130964107D01*
X53767857Y-130964107D02*
X53803571Y-131035535D01*
X53803571Y-131035535D02*
X53839285Y-131071250D01*
X53839285Y-131071250D02*
X53910714Y-131106964D01*
X53910714Y-131106964D02*
X54196428Y-131106964D01*
X54196428Y-131106964D02*
X54196428Y-130356964D01*
X54196428Y-130356964D02*
X53946428Y-130356964D01*
X53946428Y-130356964D02*
X53875000Y-130392678D01*
X53875000Y-130392678D02*
X53839285Y-130428392D01*
X53839285Y-130428392D02*
X53803571Y-130499821D01*
X53803571Y-130499821D02*
X53803571Y-130571250D01*
X53803571Y-130571250D02*
X53839285Y-130642678D01*
X53839285Y-130642678D02*
X53875000Y-130678392D01*
X53875000Y-130678392D02*
X53946428Y-130714107D01*
X53946428Y-130714107D02*
X54196428Y-130714107D01*
X53053571Y-131106964D02*
X53482142Y-131106964D01*
X53267857Y-131106964D02*
X53267857Y-130356964D01*
X53267857Y-130356964D02*
X53339285Y-130464107D01*
X53339285Y-130464107D02*
X53410714Y-130535535D01*
X53410714Y-130535535D02*
X53482142Y-130571250D01*
%TO.C,OUT A1*%
X56714285Y-110356964D02*
X56571428Y-110356964D01*
X56571428Y-110356964D02*
X56499999Y-110392678D01*
X56499999Y-110392678D02*
X56428571Y-110464107D01*
X56428571Y-110464107D02*
X56392856Y-110606964D01*
X56392856Y-110606964D02*
X56392856Y-110856964D01*
X56392856Y-110856964D02*
X56428571Y-110999821D01*
X56428571Y-110999821D02*
X56499999Y-111071250D01*
X56499999Y-111071250D02*
X56571428Y-111106964D01*
X56571428Y-111106964D02*
X56714285Y-111106964D01*
X56714285Y-111106964D02*
X56785714Y-111071250D01*
X56785714Y-111071250D02*
X56857142Y-110999821D01*
X56857142Y-110999821D02*
X56892856Y-110856964D01*
X56892856Y-110856964D02*
X56892856Y-110606964D01*
X56892856Y-110606964D02*
X56857142Y-110464107D01*
X56857142Y-110464107D02*
X56785714Y-110392678D01*
X56785714Y-110392678D02*
X56714285Y-110356964D01*
X56071428Y-110356964D02*
X56071428Y-110964107D01*
X56071428Y-110964107D02*
X56035714Y-111035535D01*
X56035714Y-111035535D02*
X56000000Y-111071250D01*
X56000000Y-111071250D02*
X55928571Y-111106964D01*
X55928571Y-111106964D02*
X55785714Y-111106964D01*
X55785714Y-111106964D02*
X55714285Y-111071250D01*
X55714285Y-111071250D02*
X55678571Y-111035535D01*
X55678571Y-111035535D02*
X55642857Y-110964107D01*
X55642857Y-110964107D02*
X55642857Y-110356964D01*
X55392857Y-110356964D02*
X54964286Y-110356964D01*
X55178571Y-111106964D02*
X55178571Y-110356964D01*
X54178570Y-110892678D02*
X53821428Y-110892678D01*
X54249999Y-111106964D02*
X53999999Y-110356964D01*
X53999999Y-110356964D02*
X53749999Y-111106964D01*
X53107142Y-111106964D02*
X53535713Y-111106964D01*
X53321428Y-111106964D02*
X53321428Y-110356964D01*
X53321428Y-110356964D02*
X53392856Y-110464107D01*
X53392856Y-110464107D02*
X53464285Y-110535535D01*
X53464285Y-110535535D02*
X53535713Y-110571250D01*
%TO.C,LED A*%
X110089285Y-119696964D02*
X110446428Y-119696964D01*
X110446428Y-119696964D02*
X110446428Y-118946964D01*
X109839285Y-119304107D02*
X109589285Y-119304107D01*
X109482142Y-119696964D02*
X109839285Y-119696964D01*
X109839285Y-119696964D02*
X109839285Y-118946964D01*
X109839285Y-118946964D02*
X109482142Y-118946964D01*
X109160714Y-119696964D02*
X109160714Y-118946964D01*
X109160714Y-118946964D02*
X108982143Y-118946964D01*
X108982143Y-118946964D02*
X108875000Y-118982678D01*
X108875000Y-118982678D02*
X108803571Y-119054107D01*
X108803571Y-119054107D02*
X108767857Y-119125535D01*
X108767857Y-119125535D02*
X108732143Y-119268392D01*
X108732143Y-119268392D02*
X108732143Y-119375535D01*
X108732143Y-119375535D02*
X108767857Y-119518392D01*
X108767857Y-119518392D02*
X108803571Y-119589821D01*
X108803571Y-119589821D02*
X108875000Y-119661250D01*
X108875000Y-119661250D02*
X108982143Y-119696964D01*
X108982143Y-119696964D02*
X109160714Y-119696964D01*
X107874999Y-119482678D02*
X107517857Y-119482678D01*
X107946428Y-119696964D02*
X107696428Y-118946964D01*
X107696428Y-118946964D02*
X107446428Y-119696964D01*
%TO.C,OUT D2*%
X76767857Y-170356964D02*
X76625000Y-170356964D01*
X76625000Y-170356964D02*
X76553571Y-170392678D01*
X76553571Y-170392678D02*
X76482143Y-170464107D01*
X76482143Y-170464107D02*
X76446428Y-170606964D01*
X76446428Y-170606964D02*
X76446428Y-170856964D01*
X76446428Y-170856964D02*
X76482143Y-170999821D01*
X76482143Y-170999821D02*
X76553571Y-171071250D01*
X76553571Y-171071250D02*
X76625000Y-171106964D01*
X76625000Y-171106964D02*
X76767857Y-171106964D01*
X76767857Y-171106964D02*
X76839286Y-171071250D01*
X76839286Y-171071250D02*
X76910714Y-170999821D01*
X76910714Y-170999821D02*
X76946428Y-170856964D01*
X76946428Y-170856964D02*
X76946428Y-170606964D01*
X76946428Y-170606964D02*
X76910714Y-170464107D01*
X76910714Y-170464107D02*
X76839286Y-170392678D01*
X76839286Y-170392678D02*
X76767857Y-170356964D01*
X76125000Y-170356964D02*
X76125000Y-170964107D01*
X76125000Y-170964107D02*
X76089286Y-171035535D01*
X76089286Y-171035535D02*
X76053572Y-171071250D01*
X76053572Y-171071250D02*
X75982143Y-171106964D01*
X75982143Y-171106964D02*
X75839286Y-171106964D01*
X75839286Y-171106964D02*
X75767857Y-171071250D01*
X75767857Y-171071250D02*
X75732143Y-171035535D01*
X75732143Y-171035535D02*
X75696429Y-170964107D01*
X75696429Y-170964107D02*
X75696429Y-170356964D01*
X75446429Y-170356964D02*
X75017858Y-170356964D01*
X75232143Y-171106964D02*
X75232143Y-170356964D01*
X74196428Y-171106964D02*
X74196428Y-170356964D01*
X74196428Y-170356964D02*
X74017857Y-170356964D01*
X74017857Y-170356964D02*
X73910714Y-170392678D01*
X73910714Y-170392678D02*
X73839285Y-170464107D01*
X73839285Y-170464107D02*
X73803571Y-170535535D01*
X73803571Y-170535535D02*
X73767857Y-170678392D01*
X73767857Y-170678392D02*
X73767857Y-170785535D01*
X73767857Y-170785535D02*
X73803571Y-170928392D01*
X73803571Y-170928392D02*
X73839285Y-170999821D01*
X73839285Y-170999821D02*
X73910714Y-171071250D01*
X73910714Y-171071250D02*
X74017857Y-171106964D01*
X74017857Y-171106964D02*
X74196428Y-171106964D01*
X73482142Y-170428392D02*
X73446428Y-170392678D01*
X73446428Y-170392678D02*
X73375000Y-170356964D01*
X73375000Y-170356964D02*
X73196428Y-170356964D01*
X73196428Y-170356964D02*
X73125000Y-170392678D01*
X73125000Y-170392678D02*
X73089285Y-170428392D01*
X73089285Y-170428392D02*
X73053571Y-170499821D01*
X73053571Y-170499821D02*
X73053571Y-170571250D01*
X73053571Y-170571250D02*
X73089285Y-170678392D01*
X73089285Y-170678392D02*
X73517857Y-171106964D01*
X73517857Y-171106964D02*
X73053571Y-171106964D01*
%TO.C,LED D*%
X110142856Y-180346964D02*
X110499999Y-180346964D01*
X110499999Y-180346964D02*
X110499999Y-179596964D01*
X109892856Y-179954107D02*
X109642856Y-179954107D01*
X109535713Y-180346964D02*
X109892856Y-180346964D01*
X109892856Y-180346964D02*
X109892856Y-179596964D01*
X109892856Y-179596964D02*
X109535713Y-179596964D01*
X109214285Y-180346964D02*
X109214285Y-179596964D01*
X109214285Y-179596964D02*
X109035714Y-179596964D01*
X109035714Y-179596964D02*
X108928571Y-179632678D01*
X108928571Y-179632678D02*
X108857142Y-179704107D01*
X108857142Y-179704107D02*
X108821428Y-179775535D01*
X108821428Y-179775535D02*
X108785714Y-179918392D01*
X108785714Y-179918392D02*
X108785714Y-180025535D01*
X108785714Y-180025535D02*
X108821428Y-180168392D01*
X108821428Y-180168392D02*
X108857142Y-180239821D01*
X108857142Y-180239821D02*
X108928571Y-180311250D01*
X108928571Y-180311250D02*
X109035714Y-180346964D01*
X109035714Y-180346964D02*
X109214285Y-180346964D01*
X107892856Y-180346964D02*
X107892856Y-179596964D01*
X107892856Y-179596964D02*
X107714285Y-179596964D01*
X107714285Y-179596964D02*
X107607142Y-179632678D01*
X107607142Y-179632678D02*
X107535713Y-179704107D01*
X107535713Y-179704107D02*
X107499999Y-179775535D01*
X107499999Y-179775535D02*
X107464285Y-179918392D01*
X107464285Y-179918392D02*
X107464285Y-180025535D01*
X107464285Y-180025535D02*
X107499999Y-180168392D01*
X107499999Y-180168392D02*
X107535713Y-180239821D01*
X107535713Y-180239821D02*
X107607142Y-180311250D01*
X107607142Y-180311250D02*
X107714285Y-180346964D01*
X107714285Y-180346964D02*
X107892856Y-180346964D01*
%TO.C,LED B*%
X110142856Y-140346964D02*
X110499999Y-140346964D01*
X110499999Y-140346964D02*
X110499999Y-139596964D01*
X109892856Y-139954107D02*
X109642856Y-139954107D01*
X109535713Y-140346964D02*
X109892856Y-140346964D01*
X109892856Y-140346964D02*
X109892856Y-139596964D01*
X109892856Y-139596964D02*
X109535713Y-139596964D01*
X109214285Y-140346964D02*
X109214285Y-139596964D01*
X109214285Y-139596964D02*
X109035714Y-139596964D01*
X109035714Y-139596964D02*
X108928571Y-139632678D01*
X108928571Y-139632678D02*
X108857142Y-139704107D01*
X108857142Y-139704107D02*
X108821428Y-139775535D01*
X108821428Y-139775535D02*
X108785714Y-139918392D01*
X108785714Y-139918392D02*
X108785714Y-140025535D01*
X108785714Y-140025535D02*
X108821428Y-140168392D01*
X108821428Y-140168392D02*
X108857142Y-140239821D01*
X108857142Y-140239821D02*
X108928571Y-140311250D01*
X108928571Y-140311250D02*
X109035714Y-140346964D01*
X109035714Y-140346964D02*
X109214285Y-140346964D01*
X107642856Y-139954107D02*
X107535713Y-139989821D01*
X107535713Y-139989821D02*
X107499999Y-140025535D01*
X107499999Y-140025535D02*
X107464285Y-140096964D01*
X107464285Y-140096964D02*
X107464285Y-140204107D01*
X107464285Y-140204107D02*
X107499999Y-140275535D01*
X107499999Y-140275535D02*
X107535713Y-140311250D01*
X107535713Y-140311250D02*
X107607142Y-140346964D01*
X107607142Y-140346964D02*
X107892856Y-140346964D01*
X107892856Y-140346964D02*
X107892856Y-139596964D01*
X107892856Y-139596964D02*
X107642856Y-139596964D01*
X107642856Y-139596964D02*
X107571428Y-139632678D01*
X107571428Y-139632678D02*
X107535713Y-139668392D01*
X107535713Y-139668392D02*
X107499999Y-139739821D01*
X107499999Y-139739821D02*
X107499999Y-139811250D01*
X107499999Y-139811250D02*
X107535713Y-139882678D01*
X107535713Y-139882678D02*
X107571428Y-139918392D01*
X107571428Y-139918392D02*
X107642856Y-139954107D01*
X107642856Y-139954107D02*
X107892856Y-139954107D01*
%TO.C,IN D*%
X136053571Y-171106964D02*
X136053571Y-170356964D01*
X135696428Y-171106964D02*
X135696428Y-170356964D01*
X135696428Y-170356964D02*
X135267857Y-171106964D01*
X135267857Y-171106964D02*
X135267857Y-170356964D01*
X134339285Y-171106964D02*
X134339285Y-170356964D01*
X134339285Y-170356964D02*
X134160714Y-170356964D01*
X134160714Y-170356964D02*
X134053571Y-170392678D01*
X134053571Y-170392678D02*
X133982142Y-170464107D01*
X133982142Y-170464107D02*
X133946428Y-170535535D01*
X133946428Y-170535535D02*
X133910714Y-170678392D01*
X133910714Y-170678392D02*
X133910714Y-170785535D01*
X133910714Y-170785535D02*
X133946428Y-170928392D01*
X133946428Y-170928392D02*
X133982142Y-170999821D01*
X133982142Y-170999821D02*
X134053571Y-171071250D01*
X134053571Y-171071250D02*
X134160714Y-171106964D01*
X134160714Y-171106964D02*
X134339285Y-171106964D01*
%TO.C,OUT C-*%
X96874999Y-150356964D02*
X96732142Y-150356964D01*
X96732142Y-150356964D02*
X96660713Y-150392678D01*
X96660713Y-150392678D02*
X96589285Y-150464107D01*
X96589285Y-150464107D02*
X96553570Y-150606964D01*
X96553570Y-150606964D02*
X96553570Y-150856964D01*
X96553570Y-150856964D02*
X96589285Y-150999821D01*
X96589285Y-150999821D02*
X96660713Y-151071250D01*
X96660713Y-151071250D02*
X96732142Y-151106964D01*
X96732142Y-151106964D02*
X96874999Y-151106964D01*
X96874999Y-151106964D02*
X96946428Y-151071250D01*
X96946428Y-151071250D02*
X97017856Y-150999821D01*
X97017856Y-150999821D02*
X97053570Y-150856964D01*
X97053570Y-150856964D02*
X97053570Y-150606964D01*
X97053570Y-150606964D02*
X97017856Y-150464107D01*
X97017856Y-150464107D02*
X96946428Y-150392678D01*
X96946428Y-150392678D02*
X96874999Y-150356964D01*
X96232142Y-150356964D02*
X96232142Y-150964107D01*
X96232142Y-150964107D02*
X96196428Y-151035535D01*
X96196428Y-151035535D02*
X96160714Y-151071250D01*
X96160714Y-151071250D02*
X96089285Y-151106964D01*
X96089285Y-151106964D02*
X95946428Y-151106964D01*
X95946428Y-151106964D02*
X95874999Y-151071250D01*
X95874999Y-151071250D02*
X95839285Y-151035535D01*
X95839285Y-151035535D02*
X95803571Y-150964107D01*
X95803571Y-150964107D02*
X95803571Y-150356964D01*
X95553571Y-150356964D02*
X95125000Y-150356964D01*
X95339285Y-151106964D02*
X95339285Y-150356964D01*
X93874999Y-151035535D02*
X93910713Y-151071250D01*
X93910713Y-151071250D02*
X94017856Y-151106964D01*
X94017856Y-151106964D02*
X94089284Y-151106964D01*
X94089284Y-151106964D02*
X94196427Y-151071250D01*
X94196427Y-151071250D02*
X94267856Y-150999821D01*
X94267856Y-150999821D02*
X94303570Y-150928392D01*
X94303570Y-150928392D02*
X94339284Y-150785535D01*
X94339284Y-150785535D02*
X94339284Y-150678392D01*
X94339284Y-150678392D02*
X94303570Y-150535535D01*
X94303570Y-150535535D02*
X94267856Y-150464107D01*
X94267856Y-150464107D02*
X94196427Y-150392678D01*
X94196427Y-150392678D02*
X94089284Y-150356964D01*
X94089284Y-150356964D02*
X94017856Y-150356964D01*
X94017856Y-150356964D02*
X93910713Y-150392678D01*
X93910713Y-150392678D02*
X93874999Y-150428392D01*
X93553570Y-150821250D02*
X92982142Y-150821250D01*
%TO.C,OUT B-*%
X96874999Y-130356964D02*
X96732142Y-130356964D01*
X96732142Y-130356964D02*
X96660713Y-130392678D01*
X96660713Y-130392678D02*
X96589285Y-130464107D01*
X96589285Y-130464107D02*
X96553570Y-130606964D01*
X96553570Y-130606964D02*
X96553570Y-130856964D01*
X96553570Y-130856964D02*
X96589285Y-130999821D01*
X96589285Y-130999821D02*
X96660713Y-131071250D01*
X96660713Y-131071250D02*
X96732142Y-131106964D01*
X96732142Y-131106964D02*
X96874999Y-131106964D01*
X96874999Y-131106964D02*
X96946428Y-131071250D01*
X96946428Y-131071250D02*
X97017856Y-130999821D01*
X97017856Y-130999821D02*
X97053570Y-130856964D01*
X97053570Y-130856964D02*
X97053570Y-130606964D01*
X97053570Y-130606964D02*
X97017856Y-130464107D01*
X97017856Y-130464107D02*
X96946428Y-130392678D01*
X96946428Y-130392678D02*
X96874999Y-130356964D01*
X96232142Y-130356964D02*
X96232142Y-130964107D01*
X96232142Y-130964107D02*
X96196428Y-131035535D01*
X96196428Y-131035535D02*
X96160714Y-131071250D01*
X96160714Y-131071250D02*
X96089285Y-131106964D01*
X96089285Y-131106964D02*
X95946428Y-131106964D01*
X95946428Y-131106964D02*
X95874999Y-131071250D01*
X95874999Y-131071250D02*
X95839285Y-131035535D01*
X95839285Y-131035535D02*
X95803571Y-130964107D01*
X95803571Y-130964107D02*
X95803571Y-130356964D01*
X95553571Y-130356964D02*
X95125000Y-130356964D01*
X95339285Y-131106964D02*
X95339285Y-130356964D01*
X94053570Y-130714107D02*
X93946427Y-130749821D01*
X93946427Y-130749821D02*
X93910713Y-130785535D01*
X93910713Y-130785535D02*
X93874999Y-130856964D01*
X93874999Y-130856964D02*
X93874999Y-130964107D01*
X93874999Y-130964107D02*
X93910713Y-131035535D01*
X93910713Y-131035535D02*
X93946427Y-131071250D01*
X93946427Y-131071250D02*
X94017856Y-131106964D01*
X94017856Y-131106964D02*
X94303570Y-131106964D01*
X94303570Y-131106964D02*
X94303570Y-130356964D01*
X94303570Y-130356964D02*
X94053570Y-130356964D01*
X94053570Y-130356964D02*
X93982142Y-130392678D01*
X93982142Y-130392678D02*
X93946427Y-130428392D01*
X93946427Y-130428392D02*
X93910713Y-130499821D01*
X93910713Y-130499821D02*
X93910713Y-130571250D01*
X93910713Y-130571250D02*
X93946427Y-130642678D01*
X93946427Y-130642678D02*
X93982142Y-130678392D01*
X93982142Y-130678392D02*
X94053570Y-130714107D01*
X94053570Y-130714107D02*
X94303570Y-130714107D01*
X93553570Y-130821250D02*
X92982142Y-130821250D01*
%TO.C,IN A*%
X135999999Y-111106964D02*
X135999999Y-110356964D01*
X135642856Y-111106964D02*
X135642856Y-110356964D01*
X135642856Y-110356964D02*
X135214285Y-111106964D01*
X135214285Y-111106964D02*
X135214285Y-110356964D01*
X134321427Y-110892678D02*
X133964285Y-110892678D01*
X134392856Y-111106964D02*
X134142856Y-110356964D01*
X134142856Y-110356964D02*
X133892856Y-111106964D01*
%TO.C,OUT B2*%
X76767857Y-130356964D02*
X76625000Y-130356964D01*
X76625000Y-130356964D02*
X76553571Y-130392678D01*
X76553571Y-130392678D02*
X76482143Y-130464107D01*
X76482143Y-130464107D02*
X76446428Y-130606964D01*
X76446428Y-130606964D02*
X76446428Y-130856964D01*
X76446428Y-130856964D02*
X76482143Y-130999821D01*
X76482143Y-130999821D02*
X76553571Y-131071250D01*
X76553571Y-131071250D02*
X76625000Y-131106964D01*
X76625000Y-131106964D02*
X76767857Y-131106964D01*
X76767857Y-131106964D02*
X76839286Y-131071250D01*
X76839286Y-131071250D02*
X76910714Y-130999821D01*
X76910714Y-130999821D02*
X76946428Y-130856964D01*
X76946428Y-130856964D02*
X76946428Y-130606964D01*
X76946428Y-130606964D02*
X76910714Y-130464107D01*
X76910714Y-130464107D02*
X76839286Y-130392678D01*
X76839286Y-130392678D02*
X76767857Y-130356964D01*
X76125000Y-130356964D02*
X76125000Y-130964107D01*
X76125000Y-130964107D02*
X76089286Y-131035535D01*
X76089286Y-131035535D02*
X76053572Y-131071250D01*
X76053572Y-131071250D02*
X75982143Y-131106964D01*
X75982143Y-131106964D02*
X75839286Y-131106964D01*
X75839286Y-131106964D02*
X75767857Y-131071250D01*
X75767857Y-131071250D02*
X75732143Y-131035535D01*
X75732143Y-131035535D02*
X75696429Y-130964107D01*
X75696429Y-130964107D02*
X75696429Y-130356964D01*
X75446429Y-130356964D02*
X75017858Y-130356964D01*
X75232143Y-131106964D02*
X75232143Y-130356964D01*
X73946428Y-130714107D02*
X73839285Y-130749821D01*
X73839285Y-130749821D02*
X73803571Y-130785535D01*
X73803571Y-130785535D02*
X73767857Y-130856964D01*
X73767857Y-130856964D02*
X73767857Y-130964107D01*
X73767857Y-130964107D02*
X73803571Y-131035535D01*
X73803571Y-131035535D02*
X73839285Y-131071250D01*
X73839285Y-131071250D02*
X73910714Y-131106964D01*
X73910714Y-131106964D02*
X74196428Y-131106964D01*
X74196428Y-131106964D02*
X74196428Y-130356964D01*
X74196428Y-130356964D02*
X73946428Y-130356964D01*
X73946428Y-130356964D02*
X73875000Y-130392678D01*
X73875000Y-130392678D02*
X73839285Y-130428392D01*
X73839285Y-130428392D02*
X73803571Y-130499821D01*
X73803571Y-130499821D02*
X73803571Y-130571250D01*
X73803571Y-130571250D02*
X73839285Y-130642678D01*
X73839285Y-130642678D02*
X73875000Y-130678392D01*
X73875000Y-130678392D02*
X73946428Y-130714107D01*
X73946428Y-130714107D02*
X74196428Y-130714107D01*
X73482142Y-130428392D02*
X73446428Y-130392678D01*
X73446428Y-130392678D02*
X73375000Y-130356964D01*
X73375000Y-130356964D02*
X73196428Y-130356964D01*
X73196428Y-130356964D02*
X73125000Y-130392678D01*
X73125000Y-130392678D02*
X73089285Y-130428392D01*
X73089285Y-130428392D02*
X73053571Y-130499821D01*
X73053571Y-130499821D02*
X73053571Y-130571250D01*
X73053571Y-130571250D02*
X73089285Y-130678392D01*
X73089285Y-130678392D02*
X73517857Y-131106964D01*
X73517857Y-131106964D02*
X73053571Y-131106964D01*
%TO.C,LED C*%
X110142856Y-160346964D02*
X110499999Y-160346964D01*
X110499999Y-160346964D02*
X110499999Y-159596964D01*
X109892856Y-159954107D02*
X109642856Y-159954107D01*
X109535713Y-160346964D02*
X109892856Y-160346964D01*
X109892856Y-160346964D02*
X109892856Y-159596964D01*
X109892856Y-159596964D02*
X109535713Y-159596964D01*
X109214285Y-160346964D02*
X109214285Y-159596964D01*
X109214285Y-159596964D02*
X109035714Y-159596964D01*
X109035714Y-159596964D02*
X108928571Y-159632678D01*
X108928571Y-159632678D02*
X108857142Y-159704107D01*
X108857142Y-159704107D02*
X108821428Y-159775535D01*
X108821428Y-159775535D02*
X108785714Y-159918392D01*
X108785714Y-159918392D02*
X108785714Y-160025535D01*
X108785714Y-160025535D02*
X108821428Y-160168392D01*
X108821428Y-160168392D02*
X108857142Y-160239821D01*
X108857142Y-160239821D02*
X108928571Y-160311250D01*
X108928571Y-160311250D02*
X109035714Y-160346964D01*
X109035714Y-160346964D02*
X109214285Y-160346964D01*
X107464285Y-160275535D02*
X107499999Y-160311250D01*
X107499999Y-160311250D02*
X107607142Y-160346964D01*
X107607142Y-160346964D02*
X107678570Y-160346964D01*
X107678570Y-160346964D02*
X107785713Y-160311250D01*
X107785713Y-160311250D02*
X107857142Y-160239821D01*
X107857142Y-160239821D02*
X107892856Y-160168392D01*
X107892856Y-160168392D02*
X107928570Y-160025535D01*
X107928570Y-160025535D02*
X107928570Y-159918392D01*
X107928570Y-159918392D02*
X107892856Y-159775535D01*
X107892856Y-159775535D02*
X107857142Y-159704107D01*
X107857142Y-159704107D02*
X107785713Y-159632678D01*
X107785713Y-159632678D02*
X107678570Y-159596964D01*
X107678570Y-159596964D02*
X107607142Y-159596964D01*
X107607142Y-159596964D02*
X107499999Y-159632678D01*
X107499999Y-159632678D02*
X107464285Y-159668392D01*
%TO.C,OUT C1*%
X56767857Y-150356964D02*
X56625000Y-150356964D01*
X56625000Y-150356964D02*
X56553571Y-150392678D01*
X56553571Y-150392678D02*
X56482143Y-150464107D01*
X56482143Y-150464107D02*
X56446428Y-150606964D01*
X56446428Y-150606964D02*
X56446428Y-150856964D01*
X56446428Y-150856964D02*
X56482143Y-150999821D01*
X56482143Y-150999821D02*
X56553571Y-151071250D01*
X56553571Y-151071250D02*
X56625000Y-151106964D01*
X56625000Y-151106964D02*
X56767857Y-151106964D01*
X56767857Y-151106964D02*
X56839286Y-151071250D01*
X56839286Y-151071250D02*
X56910714Y-150999821D01*
X56910714Y-150999821D02*
X56946428Y-150856964D01*
X56946428Y-150856964D02*
X56946428Y-150606964D01*
X56946428Y-150606964D02*
X56910714Y-150464107D01*
X56910714Y-150464107D02*
X56839286Y-150392678D01*
X56839286Y-150392678D02*
X56767857Y-150356964D01*
X56125000Y-150356964D02*
X56125000Y-150964107D01*
X56125000Y-150964107D02*
X56089286Y-151035535D01*
X56089286Y-151035535D02*
X56053572Y-151071250D01*
X56053572Y-151071250D02*
X55982143Y-151106964D01*
X55982143Y-151106964D02*
X55839286Y-151106964D01*
X55839286Y-151106964D02*
X55767857Y-151071250D01*
X55767857Y-151071250D02*
X55732143Y-151035535D01*
X55732143Y-151035535D02*
X55696429Y-150964107D01*
X55696429Y-150964107D02*
X55696429Y-150356964D01*
X55446429Y-150356964D02*
X55017858Y-150356964D01*
X55232143Y-151106964D02*
X55232143Y-150356964D01*
X53767857Y-151035535D02*
X53803571Y-151071250D01*
X53803571Y-151071250D02*
X53910714Y-151106964D01*
X53910714Y-151106964D02*
X53982142Y-151106964D01*
X53982142Y-151106964D02*
X54089285Y-151071250D01*
X54089285Y-151071250D02*
X54160714Y-150999821D01*
X54160714Y-150999821D02*
X54196428Y-150928392D01*
X54196428Y-150928392D02*
X54232142Y-150785535D01*
X54232142Y-150785535D02*
X54232142Y-150678392D01*
X54232142Y-150678392D02*
X54196428Y-150535535D01*
X54196428Y-150535535D02*
X54160714Y-150464107D01*
X54160714Y-150464107D02*
X54089285Y-150392678D01*
X54089285Y-150392678D02*
X53982142Y-150356964D01*
X53982142Y-150356964D02*
X53910714Y-150356964D01*
X53910714Y-150356964D02*
X53803571Y-150392678D01*
X53803571Y-150392678D02*
X53767857Y-150428392D01*
X53053571Y-151106964D02*
X53482142Y-151106964D01*
X53267857Y-151106964D02*
X53267857Y-150356964D01*
X53267857Y-150356964D02*
X53339285Y-150464107D01*
X53339285Y-150464107D02*
X53410714Y-150535535D01*
X53410714Y-150535535D02*
X53482142Y-150571250D01*
%TO.C,OUT A2*%
X76714285Y-110356964D02*
X76571428Y-110356964D01*
X76571428Y-110356964D02*
X76499999Y-110392678D01*
X76499999Y-110392678D02*
X76428571Y-110464107D01*
X76428571Y-110464107D02*
X76392856Y-110606964D01*
X76392856Y-110606964D02*
X76392856Y-110856964D01*
X76392856Y-110856964D02*
X76428571Y-110999821D01*
X76428571Y-110999821D02*
X76499999Y-111071250D01*
X76499999Y-111071250D02*
X76571428Y-111106964D01*
X76571428Y-111106964D02*
X76714285Y-111106964D01*
X76714285Y-111106964D02*
X76785714Y-111071250D01*
X76785714Y-111071250D02*
X76857142Y-110999821D01*
X76857142Y-110999821D02*
X76892856Y-110856964D01*
X76892856Y-110856964D02*
X76892856Y-110606964D01*
X76892856Y-110606964D02*
X76857142Y-110464107D01*
X76857142Y-110464107D02*
X76785714Y-110392678D01*
X76785714Y-110392678D02*
X76714285Y-110356964D01*
X76071428Y-110356964D02*
X76071428Y-110964107D01*
X76071428Y-110964107D02*
X76035714Y-111035535D01*
X76035714Y-111035535D02*
X76000000Y-111071250D01*
X76000000Y-111071250D02*
X75928571Y-111106964D01*
X75928571Y-111106964D02*
X75785714Y-111106964D01*
X75785714Y-111106964D02*
X75714285Y-111071250D01*
X75714285Y-111071250D02*
X75678571Y-111035535D01*
X75678571Y-111035535D02*
X75642857Y-110964107D01*
X75642857Y-110964107D02*
X75642857Y-110356964D01*
X75392857Y-110356964D02*
X74964286Y-110356964D01*
X75178571Y-111106964D02*
X75178571Y-110356964D01*
X74178570Y-110892678D02*
X73821428Y-110892678D01*
X74249999Y-111106964D02*
X73999999Y-110356964D01*
X73999999Y-110356964D02*
X73749999Y-111106964D01*
X73535713Y-110428392D02*
X73499999Y-110392678D01*
X73499999Y-110392678D02*
X73428571Y-110356964D01*
X73428571Y-110356964D02*
X73249999Y-110356964D01*
X73249999Y-110356964D02*
X73178571Y-110392678D01*
X73178571Y-110392678D02*
X73142856Y-110428392D01*
X73142856Y-110428392D02*
X73107142Y-110499821D01*
X73107142Y-110499821D02*
X73107142Y-110571250D01*
X73107142Y-110571250D02*
X73142856Y-110678392D01*
X73142856Y-110678392D02*
X73571428Y-111106964D01*
X73571428Y-111106964D02*
X73107142Y-111106964D01*
%TO.C,OUT D-*%
X96874999Y-170356964D02*
X96732142Y-170356964D01*
X96732142Y-170356964D02*
X96660713Y-170392678D01*
X96660713Y-170392678D02*
X96589285Y-170464107D01*
X96589285Y-170464107D02*
X96553570Y-170606964D01*
X96553570Y-170606964D02*
X96553570Y-170856964D01*
X96553570Y-170856964D02*
X96589285Y-170999821D01*
X96589285Y-170999821D02*
X96660713Y-171071250D01*
X96660713Y-171071250D02*
X96732142Y-171106964D01*
X96732142Y-171106964D02*
X96874999Y-171106964D01*
X96874999Y-171106964D02*
X96946428Y-171071250D01*
X96946428Y-171071250D02*
X97017856Y-170999821D01*
X97017856Y-170999821D02*
X97053570Y-170856964D01*
X97053570Y-170856964D02*
X97053570Y-170606964D01*
X97053570Y-170606964D02*
X97017856Y-170464107D01*
X97017856Y-170464107D02*
X96946428Y-170392678D01*
X96946428Y-170392678D02*
X96874999Y-170356964D01*
X96232142Y-170356964D02*
X96232142Y-170964107D01*
X96232142Y-170964107D02*
X96196428Y-171035535D01*
X96196428Y-171035535D02*
X96160714Y-171071250D01*
X96160714Y-171071250D02*
X96089285Y-171106964D01*
X96089285Y-171106964D02*
X95946428Y-171106964D01*
X95946428Y-171106964D02*
X95874999Y-171071250D01*
X95874999Y-171071250D02*
X95839285Y-171035535D01*
X95839285Y-171035535D02*
X95803571Y-170964107D01*
X95803571Y-170964107D02*
X95803571Y-170356964D01*
X95553571Y-170356964D02*
X95125000Y-170356964D01*
X95339285Y-171106964D02*
X95339285Y-170356964D01*
X94303570Y-171106964D02*
X94303570Y-170356964D01*
X94303570Y-170356964D02*
X94124999Y-170356964D01*
X94124999Y-170356964D02*
X94017856Y-170392678D01*
X94017856Y-170392678D02*
X93946427Y-170464107D01*
X93946427Y-170464107D02*
X93910713Y-170535535D01*
X93910713Y-170535535D02*
X93874999Y-170678392D01*
X93874999Y-170678392D02*
X93874999Y-170785535D01*
X93874999Y-170785535D02*
X93910713Y-170928392D01*
X93910713Y-170928392D02*
X93946427Y-170999821D01*
X93946427Y-170999821D02*
X94017856Y-171071250D01*
X94017856Y-171071250D02*
X94124999Y-171106964D01*
X94124999Y-171106964D02*
X94303570Y-171106964D01*
X93553570Y-170821250D02*
X92982142Y-170821250D01*
D11*
%TO.C,IN C*%
X142900000Y-168110000D02*
X142900000Y-162760000D01*
X142900000Y-158760000D02*
X142900000Y-152360000D01*
X142900000Y-152360000D02*
X136500000Y-152360000D01*
X139500000Y-168110000D02*
X142900000Y-168110000D01*
X132500000Y-152360000D02*
X127150000Y-152360000D01*
X129650000Y-168110000D02*
X135500000Y-168110000D01*
X127150000Y-166110000D02*
X129650000Y-168110000D01*
X127150000Y-166060000D02*
X127150000Y-166110000D01*
X127150000Y-159860000D02*
X127150000Y-166060000D01*
X127150000Y-152360000D02*
X127150000Y-155560000D01*
%TO.C,OUT D1*%
X62900000Y-188110000D02*
X62900000Y-182760000D01*
X62900000Y-178760000D02*
X62900000Y-172360000D01*
X62900000Y-172360000D02*
X56500000Y-172360000D01*
X59500000Y-188110000D02*
X62900000Y-188110000D01*
X52500000Y-172360000D02*
X47150000Y-172360000D01*
X49650000Y-188110000D02*
X55500000Y-188110000D01*
X47150000Y-186110000D02*
X49650000Y-188110000D01*
X47150000Y-186060000D02*
X47150000Y-186110000D01*
X47150000Y-179860000D02*
X47150000Y-186060000D01*
X47150000Y-172360000D02*
X47150000Y-175560000D01*
%TO.C,IN B*%
X142900000Y-148110000D02*
X142900000Y-142760000D01*
X142900000Y-138760000D02*
X142900000Y-132360000D01*
X142900000Y-132360000D02*
X136500000Y-132360000D01*
X139500000Y-148110000D02*
X142900000Y-148110000D01*
X132500000Y-132360000D02*
X127150000Y-132360000D01*
X129650000Y-148110000D02*
X135500000Y-148110000D01*
X127150000Y-146110000D02*
X129650000Y-148110000D01*
X127150000Y-146060000D02*
X127150000Y-146110000D01*
X127150000Y-139860000D02*
X127150000Y-146060000D01*
X127150000Y-132360000D02*
X127150000Y-135560000D01*
%TO.C,OUT A-*%
X102900000Y-128110000D02*
X102900000Y-122760000D01*
X102900000Y-118760000D02*
X102900000Y-112360000D01*
X102900000Y-112360000D02*
X96500000Y-112360000D01*
X99500000Y-128110000D02*
X102900000Y-128110000D01*
X92500000Y-112360000D02*
X87150000Y-112360000D01*
X89650000Y-128110000D02*
X95500000Y-128110000D01*
X87150000Y-126110000D02*
X89650000Y-128110000D01*
X87150000Y-126060000D02*
X87150000Y-126110000D01*
X87150000Y-119860000D02*
X87150000Y-126060000D01*
X87150000Y-112360000D02*
X87150000Y-115560000D01*
%TO.C,OUT C2*%
X82900000Y-168110000D02*
X82900000Y-162760000D01*
X82900000Y-158760000D02*
X82900000Y-152360000D01*
X82900000Y-152360000D02*
X76500000Y-152360000D01*
X79500000Y-168110000D02*
X82900000Y-168110000D01*
X72500000Y-152360000D02*
X67150000Y-152360000D01*
X69650000Y-168110000D02*
X75500000Y-168110000D01*
X67150000Y-166110000D02*
X69650000Y-168110000D01*
X67150000Y-166060000D02*
X67150000Y-166110000D01*
X67150000Y-159860000D02*
X67150000Y-166060000D01*
X67150000Y-152360000D02*
X67150000Y-155560000D01*
%TO.C,OUT B1*%
X62900000Y-148110000D02*
X62900000Y-142760000D01*
X62900000Y-138760000D02*
X62900000Y-132360000D01*
X62900000Y-132360000D02*
X56500000Y-132360000D01*
X59500000Y-148110000D02*
X62900000Y-148110000D01*
X52500000Y-132360000D02*
X47150000Y-132360000D01*
X49650000Y-148110000D02*
X55500000Y-148110000D01*
X47150000Y-146110000D02*
X49650000Y-148110000D01*
X47150000Y-146060000D02*
X47150000Y-146110000D01*
X47150000Y-139860000D02*
X47150000Y-146060000D01*
X47150000Y-132360000D02*
X47150000Y-135560000D01*
%TO.C,OUT A1*%
X62900000Y-128110000D02*
X62900000Y-122760000D01*
X62900000Y-118760000D02*
X62900000Y-112360000D01*
X62900000Y-112360000D02*
X56500000Y-112360000D01*
X59500000Y-128110000D02*
X62900000Y-128110000D01*
X52500000Y-112360000D02*
X47150000Y-112360000D01*
X49650000Y-128110000D02*
X55500000Y-128110000D01*
X47150000Y-126110000D02*
X49650000Y-128110000D01*
X47150000Y-126060000D02*
X47150000Y-126110000D01*
X47150000Y-119860000D02*
X47150000Y-126060000D01*
X47150000Y-112360000D02*
X47150000Y-115560000D01*
%TO.C,LED A*%
X117330000Y-121330000D02*
X117330000Y-120000000D01*
X116000000Y-121330000D02*
X117330000Y-121330000D01*
X114730000Y-121330000D02*
X114730000Y-118670000D01*
X114730000Y-121330000D02*
X112130000Y-121330000D01*
X114730000Y-118670000D02*
X112130000Y-118670000D01*
X112130000Y-121330000D02*
X112130000Y-118670000D01*
%TO.C,OUT D2*%
X82900000Y-188110000D02*
X82900000Y-182760000D01*
X82900000Y-178760000D02*
X82900000Y-172360000D01*
X82900000Y-172360000D02*
X76500000Y-172360000D01*
X79500000Y-188110000D02*
X82900000Y-188110000D01*
X72500000Y-172360000D02*
X67150000Y-172360000D01*
X69650000Y-188110000D02*
X75500000Y-188110000D01*
X67150000Y-186110000D02*
X69650000Y-188110000D01*
X67150000Y-186060000D02*
X67150000Y-186110000D01*
X67150000Y-179860000D02*
X67150000Y-186060000D01*
X67150000Y-172360000D02*
X67150000Y-175560000D01*
%TO.C,LED D*%
X117330000Y-181330000D02*
X117330000Y-180000000D01*
X116000000Y-181330000D02*
X117330000Y-181330000D01*
X114730000Y-181330000D02*
X114730000Y-178670000D01*
X114730000Y-181330000D02*
X112130000Y-181330000D01*
X114730000Y-178670000D02*
X112130000Y-178670000D01*
X112130000Y-181330000D02*
X112130000Y-178670000D01*
%TO.C,LED B*%
X117330000Y-141330000D02*
X117330000Y-140000000D01*
X116000000Y-141330000D02*
X117330000Y-141330000D01*
X114730000Y-141330000D02*
X114730000Y-138670000D01*
X114730000Y-141330000D02*
X112130000Y-141330000D01*
X114730000Y-138670000D02*
X112130000Y-138670000D01*
X112130000Y-141330000D02*
X112130000Y-138670000D01*
%TO.C,IN D*%
X142900000Y-188110000D02*
X142900000Y-182760000D01*
X142900000Y-178760000D02*
X142900000Y-172360000D01*
X142900000Y-172360000D02*
X136500000Y-172360000D01*
X139500000Y-188110000D02*
X142900000Y-188110000D01*
X132500000Y-172360000D02*
X127150000Y-172360000D01*
X129650000Y-188110000D02*
X135500000Y-188110000D01*
X127150000Y-186110000D02*
X129650000Y-188110000D01*
X127150000Y-186060000D02*
X127150000Y-186110000D01*
X127150000Y-179860000D02*
X127150000Y-186060000D01*
X127150000Y-172360000D02*
X127150000Y-175560000D01*
%TO.C,OUT C-*%
X102900000Y-168110000D02*
X102900000Y-162760000D01*
X102900000Y-158760000D02*
X102900000Y-152360000D01*
X102900000Y-152360000D02*
X96500000Y-152360000D01*
X99500000Y-168110000D02*
X102900000Y-168110000D01*
X92500000Y-152360000D02*
X87150000Y-152360000D01*
X89650000Y-168110000D02*
X95500000Y-168110000D01*
X87150000Y-166110000D02*
X89650000Y-168110000D01*
X87150000Y-166060000D02*
X87150000Y-166110000D01*
X87150000Y-159860000D02*
X87150000Y-166060000D01*
X87150000Y-152360000D02*
X87150000Y-155560000D01*
%TO.C,OUT B-*%
X102900000Y-148110000D02*
X102900000Y-142760000D01*
X102900000Y-138760000D02*
X102900000Y-132360000D01*
X102900000Y-132360000D02*
X96500000Y-132360000D01*
X99500000Y-148110000D02*
X102900000Y-148110000D01*
X92500000Y-132360000D02*
X87150000Y-132360000D01*
X89650000Y-148110000D02*
X95500000Y-148110000D01*
X87150000Y-146110000D02*
X89650000Y-148110000D01*
X87150000Y-146060000D02*
X87150000Y-146110000D01*
X87150000Y-139860000D02*
X87150000Y-146060000D01*
X87150000Y-132360000D02*
X87150000Y-135560000D01*
%TO.C,IN A*%
X142900000Y-128110000D02*
X142900000Y-122760000D01*
X142900000Y-118760000D02*
X142900000Y-112360000D01*
X142900000Y-112360000D02*
X136500000Y-112360000D01*
X139500000Y-128110000D02*
X142900000Y-128110000D01*
X132500000Y-112360000D02*
X127150000Y-112360000D01*
X129650000Y-128110000D02*
X135500000Y-128110000D01*
X127150000Y-126110000D02*
X129650000Y-128110000D01*
X127150000Y-126060000D02*
X127150000Y-126110000D01*
X127150000Y-119860000D02*
X127150000Y-126060000D01*
X127150000Y-112360000D02*
X127150000Y-115560000D01*
%TO.C,OUT B2*%
X82900000Y-148110000D02*
X82900000Y-142760000D01*
X82900000Y-138760000D02*
X82900000Y-132360000D01*
X82900000Y-132360000D02*
X76500000Y-132360000D01*
X79500000Y-148110000D02*
X82900000Y-148110000D01*
X72500000Y-132360000D02*
X67150000Y-132360000D01*
X69650000Y-148110000D02*
X75500000Y-148110000D01*
X67150000Y-146110000D02*
X69650000Y-148110000D01*
X67150000Y-146060000D02*
X67150000Y-146110000D01*
X67150000Y-139860000D02*
X67150000Y-146060000D01*
X67150000Y-132360000D02*
X67150000Y-135560000D01*
%TO.C,LED C*%
X117330000Y-161330000D02*
X117330000Y-160000000D01*
X116000000Y-161330000D02*
X117330000Y-161330000D01*
X114730000Y-161330000D02*
X114730000Y-158670000D01*
X114730000Y-161330000D02*
X112130000Y-161330000D01*
X114730000Y-158670000D02*
X112130000Y-158670000D01*
X112130000Y-161330000D02*
X112130000Y-158670000D01*
%TO.C,OUT C1*%
X62900000Y-168110000D02*
X62900000Y-162760000D01*
X62900000Y-158760000D02*
X62900000Y-152360000D01*
X62900000Y-152360000D02*
X56500000Y-152360000D01*
X59500000Y-168110000D02*
X62900000Y-168110000D01*
X52500000Y-152360000D02*
X47150000Y-152360000D01*
X49650000Y-168110000D02*
X55500000Y-168110000D01*
X47150000Y-166110000D02*
X49650000Y-168110000D01*
X47150000Y-166060000D02*
X47150000Y-166110000D01*
X47150000Y-159860000D02*
X47150000Y-166060000D01*
X47150000Y-152360000D02*
X47150000Y-155560000D01*
%TO.C,OUT A2*%
X82900000Y-128110000D02*
X82900000Y-122760000D01*
X82900000Y-118760000D02*
X82900000Y-112360000D01*
X82900000Y-112360000D02*
X76500000Y-112360000D01*
X79500000Y-128110000D02*
X82900000Y-128110000D01*
X72500000Y-112360000D02*
X67150000Y-112360000D01*
X69650000Y-128110000D02*
X75500000Y-128110000D01*
X67150000Y-126110000D02*
X69650000Y-128110000D01*
X67150000Y-126060000D02*
X67150000Y-126110000D01*
X67150000Y-119860000D02*
X67150000Y-126060000D01*
X67150000Y-112360000D02*
X67150000Y-115560000D01*
%TO.C,OUT D-*%
X102900000Y-188110000D02*
X102900000Y-182760000D01*
X102900000Y-178760000D02*
X102900000Y-172360000D01*
X102900000Y-172360000D02*
X96500000Y-172360000D01*
X99500000Y-188110000D02*
X102900000Y-188110000D01*
X92500000Y-172360000D02*
X87150000Y-172360000D01*
X89650000Y-188110000D02*
X95500000Y-188110000D01*
X87150000Y-186110000D02*
X89650000Y-188110000D01*
X87150000Y-186060000D02*
X87150000Y-186110000D01*
X87150000Y-179860000D02*
X87150000Y-186060000D01*
X87150000Y-172360000D02*
X87150000Y-175560000D01*
%TD*%
M02*
