%TF.GenerationSoftware,KiCad,Pcbnew,7.0.2*%
%TF.CreationDate,2024-01-15T01:52:41-05:00*%
%TF.ProjectId,ADSR Main Pcb,41445352-204d-4616-996e-205063622e6b,rev?*%
%TF.SameCoordinates,Original*%
%TF.FileFunction,Soldermask,Bot*%
%TF.FilePolarity,Negative*%
%FSLAX46Y46*%
G04 Gerber Fmt 4.6, Leading zero omitted, Abs format (unit mm)*
G04 Created by KiCad (PCBNEW 7.0.2) date 2024-01-15 01:52:41*
%MOMM*%
%LPD*%
G01*
G04 APERTURE LIST*
G04 Aperture macros list*
%AMRoundRect*
0 Rectangle with rounded corners*
0 $1 Rounding radius*
0 $2 $3 $4 $5 $6 $7 $8 $9 X,Y pos of 4 corners*
0 Add a 4 corners polygon primitive as box body*
4,1,4,$2,$3,$4,$5,$6,$7,$8,$9,$2,$3,0*
0 Add four circle primitives for the rounded corners*
1,1,$1+$1,$2,$3*
1,1,$1+$1,$4,$5*
1,1,$1+$1,$6,$7*
1,1,$1+$1,$8,$9*
0 Add four rect primitives between the rounded corners*
20,1,$1+$1,$2,$3,$4,$5,0*
20,1,$1+$1,$4,$5,$6,$7,0*
20,1,$1+$1,$6,$7,$8,$9,0*
20,1,$1+$1,$8,$9,$2,$3,0*%
%AMRotRect*
0 Rectangle, with rotation*
0 The origin of the aperture is its center*
0 $1 length*
0 $2 width*
0 $3 Rotation angle, in degrees counterclockwise*
0 Add horizontal line*
21,1,$1,$2,0,0,$3*%
G04 Aperture macros list end*
%ADD10R,1.500000X1.500000*%
%ADD11C,1.500000*%
%ADD12C,1.600000*%
%ADD13O,1.600000X1.600000*%
%ADD14R,2.400000X1.600000*%
%ADD15O,2.400000X1.600000*%
%ADD16R,1.600000X1.600000*%
%ADD17R,2.200000X2.200000*%
%ADD18O,2.200000X2.200000*%
%ADD19RoundRect,0.250000X0.600000X-0.600000X0.600000X0.600000X-0.600000X0.600000X-0.600000X-0.600000X0*%
%ADD20C,1.700000*%
%ADD21R,1.727200X1.727200*%
%ADD22O,1.727200X1.727200*%
%ADD23R,2.000000X1.905000*%
%ADD24O,2.000000X1.905000*%
%ADD25O,4.500001X2.500000*%
%ADD26O,2.500001X4.500001*%
%ADD27RotRect,4.500001X2.500001X135.000000*%
%ADD28O,2.500000X4.500000*%
%ADD29O,4.500000X2.500000*%
%ADD30R,1.700000X1.700000*%
%ADD31O,1.700000X1.700000*%
G04 APERTURE END LIST*
D10*
%TO.C,Q1*%
X67540000Y-35640000D03*
D11*
X65000000Y-35640000D03*
X62460000Y-35640000D03*
%TD*%
D12*
%TO.C,C17*%
X134500000Y-77650000D03*
X129500000Y-77650000D03*
%TD*%
%TO.C,R22*%
X108190000Y-136000000D03*
D13*
X115810000Y-136000000D03*
%TD*%
D12*
%TO.C,R36*%
X108190000Y-176000000D03*
D13*
X115810000Y-176000000D03*
%TD*%
D12*
%TO.C,R20*%
X116810000Y-39750000D03*
D13*
X109190000Y-39750000D03*
%TD*%
D14*
%TO.C,U3*%
X72200000Y-59460000D03*
D15*
X72200000Y-62000000D03*
X72200000Y-64540000D03*
X72200000Y-67080000D03*
X72200000Y-69620000D03*
X72200000Y-72160000D03*
X72200000Y-74700000D03*
X79820000Y-74700000D03*
X79820000Y-72160000D03*
X79820000Y-69620000D03*
X79820000Y-67080000D03*
X79820000Y-64540000D03*
X79820000Y-62000000D03*
X79820000Y-59460000D03*
%TD*%
D12*
%TO.C,R24*%
X140810000Y-61700000D03*
D13*
X133190000Y-61700000D03*
%TD*%
D14*
%TO.C,U4*%
X129800000Y-74190000D03*
D15*
X129800000Y-71650000D03*
X129800000Y-69110000D03*
X129800000Y-66570000D03*
X129800000Y-64030000D03*
X129800000Y-61490000D03*
X129800000Y-58950000D03*
X122180000Y-58950000D03*
X122180000Y-61490000D03*
X122180000Y-64030000D03*
X122180000Y-66570000D03*
X122180000Y-69110000D03*
X122180000Y-71650000D03*
X122180000Y-74190000D03*
%TD*%
D12*
%TO.C,R28*%
X116810000Y-68450000D03*
D13*
X109190000Y-68450000D03*
%TD*%
D12*
%TO.C,R26*%
X133190000Y-64700000D03*
D13*
X140810000Y-64700000D03*
%TD*%
D16*
%TO.C,D6*%
X133190000Y-58700000D03*
D13*
X140810000Y-58700000D03*
%TD*%
D10*
%TO.C,Q2*%
X134650000Y-46610000D03*
D11*
X137190000Y-46610000D03*
X139730000Y-46610000D03*
%TD*%
D12*
%TO.C,R33*%
X92810000Y-71700000D03*
D13*
X85190000Y-71700000D03*
%TD*%
D17*
%TO.C,D2*%
X118380000Y-98410000D03*
D18*
X126000000Y-98410000D03*
%TD*%
D12*
%TO.C,R11*%
X85190000Y-43000000D03*
D13*
X92810000Y-43000000D03*
%TD*%
D10*
%TO.C,Q3*%
X67540000Y-61340000D03*
D11*
X65000000Y-61340000D03*
X62460000Y-61340000D03*
%TD*%
D16*
%TO.C,D1*%
X69000000Y-49000000D03*
D13*
X61380000Y-49000000D03*
%TD*%
D12*
%TO.C,R29*%
X92810000Y-62700000D03*
D13*
X85190000Y-62700000D03*
%TD*%
D12*
%TO.C,R27*%
X85190000Y-65700000D03*
D13*
X92810000Y-65700000D03*
%TD*%
D16*
%TO.C,D4*%
X133190000Y-33000000D03*
D13*
X140810000Y-33000000D03*
%TD*%
D12*
%TO.C,C15*%
X134500000Y-51950000D03*
X129500000Y-51950000D03*
%TD*%
%TO.C,R25*%
X69000000Y-68700000D03*
D13*
X61380000Y-68700000D03*
%TD*%
D16*
%TO.C,C9*%
X123000000Y-88410000D03*
D12*
X123000000Y-90410000D03*
%TD*%
%TO.C,C18*%
X98500000Y-56200000D03*
X103500000Y-56200000D03*
%TD*%
D14*
%TO.C,U6*%
X97200000Y-59460000D03*
D15*
X97200000Y-62000000D03*
X97200000Y-64540000D03*
X97200000Y-67080000D03*
X97200000Y-69620000D03*
X97200000Y-72160000D03*
X97200000Y-74700000D03*
X104820000Y-74700000D03*
X104820000Y-72160000D03*
X104820000Y-69620000D03*
X104820000Y-67080000D03*
X104820000Y-64540000D03*
X104820000Y-62000000D03*
X104820000Y-59460000D03*
%TD*%
D12*
%TO.C,R18*%
X116810000Y-42750000D03*
D13*
X109190000Y-42750000D03*
%TD*%
D16*
%TO.C,C8*%
X123000000Y-102410000D03*
D12*
X123000000Y-104410000D03*
%TD*%
%TO.C,C14*%
X98500000Y-30500000D03*
X103500000Y-30500000D03*
%TD*%
%TO.C,C13*%
X98500000Y-52250000D03*
X103500000Y-52250000D03*
%TD*%
%TO.C,R23*%
X61380000Y-71700000D03*
D13*
X69000000Y-71700000D03*
%TD*%
D12*
%TO.C,R21*%
X109190000Y-36750000D03*
D13*
X116810000Y-36750000D03*
%TD*%
D14*
%TO.C,U1*%
X72200000Y-33760000D03*
D15*
X72200000Y-36300000D03*
X72200000Y-38840000D03*
X72200000Y-41380000D03*
X72200000Y-43920000D03*
X72200000Y-46460000D03*
X72200000Y-49000000D03*
X79820000Y-49000000D03*
X79820000Y-46460000D03*
X79820000Y-43920000D03*
X79820000Y-41380000D03*
X79820000Y-38840000D03*
X79820000Y-36300000D03*
X79820000Y-33760000D03*
%TD*%
D12*
%TO.C,R19*%
X109190000Y-45750000D03*
D13*
X116810000Y-45750000D03*
%TD*%
D12*
%TO.C,C19*%
X98500000Y-77950000D03*
X103500000Y-77950000D03*
%TD*%
%TO.C,R16*%
X140810000Y-36000000D03*
D13*
X133190000Y-36000000D03*
%TD*%
D12*
%TO.C,R34*%
X109190000Y-62450000D03*
D13*
X116810000Y-62450000D03*
%TD*%
D16*
%TO.C,D5*%
X69000000Y-74700000D03*
D13*
X61380000Y-74700000D03*
%TD*%
D12*
%TO.C,R32*%
X116810000Y-65450000D03*
D13*
X109190000Y-65450000D03*
%TD*%
D12*
%TO.C,R31*%
X85190000Y-68700000D03*
D13*
X92810000Y-68700000D03*
%TD*%
D10*
%TO.C,Q4*%
X134650000Y-72310000D03*
D11*
X137190000Y-72310000D03*
X139730000Y-72310000D03*
%TD*%
D19*
%TO.C,NOT POWER*%
X71170000Y-84502500D03*
D20*
X71170000Y-81962500D03*
X73710000Y-84502500D03*
X73710000Y-81962500D03*
X76250000Y-84502500D03*
X76250000Y-81962500D03*
X78790000Y-84502500D03*
X78790000Y-81962500D03*
X81330000Y-84502500D03*
X81330000Y-81962500D03*
%TD*%
D12*
%TO.C,C7*%
X78500000Y-30500000D03*
X73500000Y-30500000D03*
%TD*%
%TO.C,R15*%
X108190000Y-116000000D03*
D13*
X115810000Y-116000000D03*
%TD*%
D14*
%TO.C,U2*%
X129800000Y-48490000D03*
D15*
X129800000Y-45950000D03*
X129800000Y-43410000D03*
X129800000Y-40870000D03*
X129800000Y-38330000D03*
X129800000Y-35790000D03*
X129800000Y-33250000D03*
X122180000Y-33250000D03*
X122180000Y-35790000D03*
X122180000Y-38330000D03*
X122180000Y-40870000D03*
X122180000Y-43410000D03*
X122180000Y-45950000D03*
X122180000Y-48490000D03*
%TD*%
D12*
%TO.C,R12*%
X92810000Y-46000000D03*
D13*
X85190000Y-46000000D03*
%TD*%
D12*
%TO.C,C11*%
X111129000Y-85266000D03*
X106129000Y-85266000D03*
%TD*%
D21*
%TO.C,J9*%
X131460000Y-91330000D03*
D22*
X134000000Y-91330000D03*
X131460000Y-93870000D03*
X134000000Y-93870000D03*
X131460000Y-96410000D03*
X134000000Y-96410000D03*
X131460000Y-98950000D03*
X134000000Y-98950000D03*
X131460000Y-101490000D03*
X134000000Y-101490000D03*
%TD*%
D12*
%TO.C,R13*%
X85190000Y-40000000D03*
D13*
X92810000Y-40000000D03*
%TD*%
D12*
%TO.C,R35*%
X108190000Y-156000000D03*
D13*
X115810000Y-156000000D03*
%TD*%
D12*
%TO.C,C16*%
X67000000Y-55950000D03*
X72000000Y-55950000D03*
%TD*%
%TO.C,R30*%
X109190000Y-71450000D03*
D13*
X116810000Y-71450000D03*
%TD*%
D12*
%TO.C,R14*%
X92810000Y-37000000D03*
D13*
X85190000Y-37000000D03*
%TD*%
D12*
%TO.C,C12*%
X106129000Y-99266000D03*
X111129000Y-99266000D03*
%TD*%
D17*
%TO.C,D3*%
X126000000Y-94410000D03*
D18*
X118380000Y-94410000D03*
%TD*%
D23*
%TO.C,U7*%
X107629000Y-94766000D03*
D24*
X107629000Y-92226000D03*
X107629000Y-89686000D03*
%TD*%
D16*
%TO.C,C10*%
X112629000Y-89766000D03*
D12*
X112629000Y-91766000D03*
%TD*%
%TO.C,R10*%
X61380000Y-46000000D03*
D13*
X69000000Y-46000000D03*
%TD*%
D12*
%TO.C,R17*%
X133190000Y-39000000D03*
D13*
X140810000Y-39000000D03*
%TD*%
D14*
%TO.C,U5*%
X97200000Y-33760000D03*
D15*
X97200000Y-36300000D03*
X97200000Y-38840000D03*
X97200000Y-41380000D03*
X97200000Y-43920000D03*
X97200000Y-46460000D03*
X97200000Y-49000000D03*
X104820000Y-49000000D03*
X104820000Y-46460000D03*
X104820000Y-43920000D03*
X104820000Y-41380000D03*
X104820000Y-38840000D03*
X104820000Y-36300000D03*
X104820000Y-33760000D03*
%TD*%
D12*
%TO.C,R9*%
X69000000Y-43000000D03*
D13*
X61380000Y-43000000D03*
%TD*%
D25*
%TO.C,IN C*%
X134500000Y-153860000D03*
D26*
X128600000Y-157760000D03*
D27*
X130260000Y-165000000D03*
D28*
X141400000Y-160760000D03*
D29*
X137500000Y-166660000D03*
%TD*%
D25*
%TO.C,OUT D1*%
X54500000Y-173860000D03*
D26*
X48600000Y-177760000D03*
D27*
X50260000Y-185000000D03*
D28*
X61400000Y-180760000D03*
D29*
X57500000Y-186660000D03*
%TD*%
D25*
%TO.C,IN B*%
X134500000Y-133860000D03*
D26*
X128600000Y-137760000D03*
D27*
X130260000Y-145000000D03*
D28*
X141400000Y-140760000D03*
D29*
X137500000Y-146660000D03*
%TD*%
D25*
%TO.C,OUT A-*%
X94500000Y-113860000D03*
D26*
X88600000Y-117760000D03*
D27*
X90260000Y-125000000D03*
D28*
X101400000Y-120760000D03*
D29*
X97500000Y-126660000D03*
%TD*%
D25*
%TO.C,OUT C2*%
X74500000Y-153860000D03*
D26*
X68600000Y-157760000D03*
D27*
X70260000Y-165000000D03*
D28*
X81400000Y-160760000D03*
D29*
X77500000Y-166660000D03*
%TD*%
D25*
%TO.C,OUT B1*%
X54500000Y-133860000D03*
D26*
X48600000Y-137760000D03*
D27*
X50260000Y-145000000D03*
D28*
X61400000Y-140760000D03*
D29*
X57500000Y-146660000D03*
%TD*%
D25*
%TO.C,OUT A1*%
X54500000Y-113860000D03*
D26*
X48600000Y-117760000D03*
D27*
X50260000Y-125000000D03*
D28*
X61400000Y-120760000D03*
D29*
X57500000Y-126660000D03*
%TD*%
D30*
%TO.C,LED A*%
X116000000Y-120000000D03*
D31*
X113460000Y-120000000D03*
%TD*%
D25*
%TO.C,OUT D2*%
X74500000Y-173860000D03*
D26*
X68600000Y-177760000D03*
D27*
X70260000Y-185000000D03*
D28*
X81400000Y-180760000D03*
D29*
X77500000Y-186660000D03*
%TD*%
D30*
%TO.C,LED D*%
X116000000Y-180000000D03*
D31*
X113460000Y-180000000D03*
%TD*%
D30*
%TO.C,LED B*%
X116000000Y-140000000D03*
D31*
X113460000Y-140000000D03*
%TD*%
D25*
%TO.C,IN D*%
X134500000Y-173860000D03*
D26*
X128600000Y-177760000D03*
D27*
X130260000Y-185000000D03*
D28*
X141400000Y-180760000D03*
D29*
X137500000Y-186660000D03*
%TD*%
D25*
%TO.C,OUT C-*%
X94500000Y-153860000D03*
D26*
X88600000Y-157760000D03*
D27*
X90260000Y-165000000D03*
D28*
X101400000Y-160760000D03*
D29*
X97500000Y-166660000D03*
%TD*%
D25*
%TO.C,OUT B-*%
X94500000Y-133860000D03*
D26*
X88600000Y-137760000D03*
D27*
X90260000Y-145000000D03*
D28*
X101400000Y-140760000D03*
D29*
X97500000Y-146660000D03*
%TD*%
D25*
%TO.C,IN A*%
X134500000Y-113860000D03*
D26*
X128600000Y-117760000D03*
D27*
X130260000Y-125000000D03*
D28*
X141400000Y-120760000D03*
D29*
X137500000Y-126660000D03*
%TD*%
D25*
%TO.C,OUT B2*%
X74500000Y-133860000D03*
D26*
X68600000Y-137760000D03*
D27*
X70260000Y-145000000D03*
D28*
X81400000Y-140760000D03*
D29*
X77500000Y-146660000D03*
%TD*%
D30*
%TO.C,LED C*%
X116000000Y-160000000D03*
D31*
X113460000Y-160000000D03*
%TD*%
D25*
%TO.C,OUT C1*%
X54500000Y-153860000D03*
D26*
X48600000Y-157760000D03*
D27*
X50260000Y-165000000D03*
D28*
X61400000Y-160760000D03*
D29*
X57500000Y-166660000D03*
%TD*%
D25*
%TO.C,OUT A2*%
X74500000Y-113860000D03*
D26*
X68600000Y-117760000D03*
D27*
X70260000Y-125000000D03*
D28*
X81400000Y-120760000D03*
D29*
X77500000Y-126660000D03*
%TD*%
D25*
%TO.C,OUT D-*%
X94500000Y-173860000D03*
D26*
X88600000Y-177760000D03*
D27*
X90260000Y-185000000D03*
D28*
X101400000Y-180760000D03*
D29*
X97500000Y-186660000D03*
%TD*%
M02*
